<svg xmlns="http://www.w3.org/2000/svg" xmlns:xlink="http://www.w3.org/1999/xlink" width="185" zoomAndPan="magnify" viewBox="0 0 138.75 135.000003" height="180" preserveAspectRatio="xMidYMid meet" version="1.2"><defs><clipPath id="d2a6024952"><path d="M 0.386719 0 L 138.117188 0 L 138.117188 134.007812 L 0.386719 134.007812 Z M 0.386719 0 "/></clipPath><clipPath id="72efb7cb49"><path d="M 0.386719 0 L 138.117188 0 L 138.117188 134.007812 L 0.386719 134.007812 Z M 0.386719 0 "/></clipPath></defs><g id="01838b2c4b"><g clip-rule="nonzero" clip-path="url(#d2a6024952)"><path style=" stroke:none;fill-rule:nonzero;fill:#00005b;fill-opacity:1;" d="M 24.917969 0.00390625 L 114.011719 0.00390625 C 114.808594 0.00390625 115.605469 0.0429688 116.398438 0.121094 C 117.1875 0.199219 117.976562 0.320312 118.757812 0.476562 C 119.539062 0.632812 120.308594 0.828125 121.070312 1.058594 C 121.832031 1.292969 122.578125 1.5625 123.3125 1.871094 C 124.050781 2.175781 124.765625 2.519531 125.46875 2.898438 C 126.167969 3.273438 126.847656 3.6875 127.507812 4.132812 C 128.167969 4.578125 128.804688 5.054688 129.417969 5.5625 C 130.027344 6.070312 130.613281 6.605469 131.175781 7.171875 C 131.734375 7.738281 132.261719 8.332031 132.761719 8.949219 C 133.265625 9.566406 133.730469 10.210938 134.167969 10.875 C 134.605469 11.539062 135.007812 12.222656 135.378906 12.925781 C 135.746094 13.632812 136.078125 14.351562 136.375 15.089844 C 136.671875 15.828125 136.933594 16.578125 137.15625 17.339844 C 137.378906 18.105469 137.5625 18.875 137.710938 19.65625 C 137.855469 20.4375 137.960938 21.226562 138.03125 22.019531 C 138.097656 22.808594 138.125 23.601562 138.117188 24.398438 L 138.117188 109.609375 C 138.113281 110.410156 138.074219 111.207031 137.996094 112.003906 C 137.914062 112.800781 137.796875 113.59375 137.636719 114.378906 C 137.480469 115.160156 137.285156 115.9375 137.050781 116.703125 C 136.816406 117.46875 136.546875 118.222656 136.238281 118.960938 C 135.929688 119.699219 135.585938 120.421875 135.207031 121.125 C 134.828125 121.832031 134.414062 122.515625 133.96875 123.183594 C 133.519531 123.847656 133.042969 124.488281 132.53125 125.105469 C 132.023438 125.722656 131.484375 126.316406 130.914062 126.878906 C 130.347656 127.445312 129.753906 127.980469 129.132812 128.488281 C 128.511719 128.996094 127.867188 129.46875 127.199219 129.914062 C 126.53125 130.355469 125.84375 130.765625 125.132812 131.140625 C 124.425781 131.519531 123.699219 131.859375 122.960938 132.164062 C 122.21875 132.46875 121.460938 132.738281 120.695312 132.96875 C 119.925781 133.199219 119.148438 133.390625 118.363281 133.546875 C 117.574219 133.699219 116.78125 133.816406 115.984375 133.890625 C 115.183594 133.96875 114.386719 134.007812 113.582031 134.003906 L 24.917969 134.003906 C 24.117188 134.007812 23.316406 133.96875 22.519531 133.890625 C 21.71875 133.816406 20.925781 133.699219 20.140625 133.546875 C 19.351562 133.390625 18.574219 133.199219 17.808594 132.96875 C 17.039062 132.738281 16.285156 132.46875 15.542969 132.164062 C 14.800781 131.859375 14.074219 131.519531 13.367188 131.140625 C 12.660156 130.765625 11.972656 130.355469 11.304688 129.914062 C 10.636719 129.46875 9.992188 128.996094 9.371094 128.488281 C 8.75 127.980469 8.15625 127.445312 7.585938 126.878906 C 7.019531 126.316406 6.480469 125.722656 5.96875 125.105469 C 5.460938 124.488281 4.980469 123.847656 4.535156 123.183594 C 4.085938 122.515625 3.675781 121.832031 3.296875 121.125 C 2.917969 120.421875 2.574219 119.699219 2.265625 118.960938 C 1.957031 118.222656 1.683594 117.46875 1.449219 116.703125 C 1.21875 115.9375 1.019531 115.160156 0.863281 114.378906 C 0.707031 113.59375 0.585938 112.800781 0.507812 112.003906 C 0.425781 111.207031 0.386719 110.410156 0.386719 109.609375 L 0.386719 24.398438 C 0.378906 23.59375 0.410156 22.792969 0.484375 21.992188 C 0.554688 21.195312 0.667969 20.398438 0.816406 19.609375 C 0.96875 18.824219 1.160156 18.042969 1.390625 17.273438 C 1.617188 16.503906 1.886719 15.746094 2.191406 15.003906 C 2.496094 14.261719 2.835938 13.535156 3.214844 12.828125 C 3.59375 12.117188 4.003906 11.429688 4.449219 10.761719 C 4.898438 10.09375 5.375 9.449219 5.886719 8.828125 C 6.398438 8.207031 6.9375 7.613281 7.507812 7.046875 C 8.078125 6.480469 8.671875 5.941406 9.296875 5.4375 C 9.921875 4.929688 10.566406 4.453125 11.238281 4.011719 C 11.910156 3.566406 12.601562 3.160156 13.3125 2.785156 C 14.027344 2.410156 14.753906 2.070312 15.5 1.769531 C 16.246094 1.46875 17.003906 1.203125 17.777344 0.980469 C 18.550781 0.753906 19.332031 0.566406 20.121094 0.417969 C 20.910156 0.269531 21.707031 0.160156 22.511719 0.0898438 C 23.3125 0.0195312 24.113281 -0.0078125 24.917969 0.00390625 Z M 24.917969 0.00390625 "/></g><path style=" stroke:none;fill-rule:nonzero;fill:#9999ff;fill-opacity:1;" d="M 55.910156 80.117188 L 34.386719 80.117188 L 30.085938 93.433594 C 30.085938 93.863281 29.652344 94.292969 28.792969 94.292969 L 18.03125 94.292969 C 17.601562 94.722656 17.171875 94.292969 17.601562 93.433594 L 36.109375 40.605469 C 36.109375 40.175781 36.539062 39.316406 36.539062 38.886719 C 36.898438 37.621094 37.042969 36.332031 36.96875 35.023438 L 37.402344 34.164062 L 52.035156 34.164062 C 52.464844 34.164062 52.894531 34.164062 52.894531 34.59375 L 73.984375 93.433594 C 73.984375 93.863281 73.984375 94.292969 73.554688 94.292969 L 61.503906 94.292969 C 61.273438 94.277344 61.074219 94.1875 60.910156 94.023438 C 60.75 93.859375 60.660156 93.664062 60.644531 93.433594 Z M 37.832031 68.953125 L 52.464844 68.953125 C 52.035156 67.664062 51.605469 66.375 51.175781 64.65625 C 50.789062 63.011719 50.21875 61.4375 49.453125 59.933594 C 49.023438 58.214844 48.160156 56.496094 47.730469 54.777344 C 47.351562 52.996094 46.777344 51.277344 46.007812 49.625 C 45.4375 48.234375 45.007812 46.804688 44.71875 45.328125 C 44.257812 47.839844 43.539062 50.273438 42.566406 52.632812 C 41.703125 55.207031 40.84375 58.214844 39.984375 61.222656 C 39.464844 63.851562 38.75 66.429688 37.832031 68.953125 Z M 37.832031 68.953125 "/><path style=" stroke:none;fill-rule:nonzero;fill:#9999ff;fill-opacity:1;" d="M 107.988281 74.921875 L 89.910156 74.921875 C 90.289062 76.707031 90.863281 78.425781 91.632812 80.078125 C 92.679688 81.707031 94.113281 82.851562 95.9375 83.511719 C 98.292969 84.402344 100.734375 84.832031 103.253906 84.800781 C 105.292969 84.726562 107.300781 84.441406 109.277344 83.941406 L 114.445312 82.65625 C 114.875 82.226562 114.875 82.65625 114.875 83.085938 L 114.875 92.53125 L 114.445312 92.960938 C 112.640625 93.730469 110.773438 94.304688 108.847656 94.679688 C 106.144531 95.179688 103.417969 95.464844 100.671875 95.539062 C 96.796875 95.574219 93.066406 94.859375 89.480469 93.390625 C 86.644531 92.046875 84.207031 90.1875 82.164062 87.808594 C 80.445312 85.601562 79.152344 83.167969 78.289062 80.507812 C 77.4375 77.851562 77.007812 75.132812 77 72.347656 C 77.003906 69.28125 77.433594 66.273438 78.289062 63.328125 C 79.207031 60.464844 80.640625 57.886719 82.59375 55.597656 C 84.503906 53.261719 86.796875 51.398438 89.480469 50.011719 C 92.507812 48.730469 95.664062 48.15625 98.949219 48.292969 C 102.082031 48.238281 105.09375 48.8125 107.988281 50.011719 C 110.398438 51.074219 112.40625 52.652344 114.011719 54.738281 C 115.5 56.703125 116.644531 58.851562 117.457031 61.179688 C 118.304688 63.390625 118.738281 65.683594 118.746094 68.050781 L 118.746094 71.917969 C 118.855469 72.816406 118.710938 73.675781 118.316406 74.492188 C 118.300781 74.722656 118.210938 74.921875 118.046875 75.085938 C 117.882812 75.246094 117.6875 75.335938 117.457031 75.351562 L 112.292969 75.351562 C 110.878906 74.996094 109.445312 74.851562 107.988281 74.921875 Z M 89.910156 66.332031 L 105.40625 66.332031 C 105.902344 66.394531 106.335938 66.253906 106.695312 65.902344 L 106.695312 65.476562 C 106.765625 64.714844 106.621094 64 106.265625 63.328125 C 106.179688 62.925781 106.054688 62.535156 105.894531 62.160156 C 105.738281 61.78125 105.542969 61.421875 105.316406 61.078125 C 105.089844 60.738281 104.832031 60.417969 104.546875 60.125 C 104.261719 59.828125 103.949219 59.5625 103.613281 59.328125 C 103.277344 59.089844 102.921875 58.886719 102.550781 58.714844 C 102.175781 58.546875 101.789062 58.410156 101.390625 58.3125 C 100.992188 58.214844 100.585938 58.152344 100.175781 58.128906 C 99.765625 58.105469 99.355469 58.121094 98.949219 58.171875 C 98.179688 58.195312 97.421875 58.308594 96.675781 58.511719 C 95.933594 58.714844 95.222656 59.003906 94.550781 59.378906 C 93.875 59.75 93.253906 60.199219 92.6875 60.722656 C 92.125 61.246094 91.628906 61.828125 91.203125 62.46875 C 90.375 63.625 89.945312 64.914062 89.910156 66.332031 Z M 89.910156 66.332031 "/><g clip-rule="nonzero" clip-path="url(#72efb7cb49)"><path style=" stroke:none;fill-rule:nonzero;fill:#00005b;fill-opacity:1;" d="M 24.917969 0.00390625 L 114.011719 0.00390625 C 114.808594 0.00390625 115.605469 0.0429688 116.398438 0.121094 C 117.1875 0.199219 117.976562 0.320312 118.757812 0.476562 C 119.539062 0.632812 120.308594 0.828125 121.070312 1.058594 C 121.832031 1.292969 122.578125 1.5625 123.3125 1.871094 C 124.050781 2.175781 124.765625 2.519531 125.46875 2.898438 C 126.167969 3.273438 126.847656 3.6875 127.507812 4.132812 C 128.167969 4.578125 128.804688 5.054688 129.417969 5.5625 C 130.027344 6.070312 130.613281 6.605469 131.175781 7.171875 C 131.734375 7.738281 132.261719 8.332031 132.761719 8.949219 C 133.265625 9.566406 133.730469 10.210938 134.167969 10.875 C 134.605469 11.539062 135.007812 12.222656 135.378906 12.925781 C 135.746094 13.632812 136.078125 14.351562 136.375 15.089844 C 136.671875 15.828125 136.933594 16.578125 137.15625 17.339844 C 137.378906 18.105469 137.5625 18.875 137.710938 19.65625 C 137.855469 20.4375 137.960938 21.226562 138.03125 22.019531 C 138.097656 22.808594 138.125 23.601562 138.117188 24.398438 L 138.117188 109.609375 C 138.113281 110.410156 138.074219 111.207031 137.996094 112.003906 C 137.914062 112.800781 137.796875 113.59375 137.636719 114.378906 C 137.480469 115.160156 137.285156 115.9375 137.050781 116.703125 C 136.816406 117.46875 136.546875 118.222656 136.238281 118.960938 C 135.929688 119.699219 135.585938 120.421875 135.207031 121.125 C 134.828125 121.832031 134.414062 122.515625 133.96875 123.183594 C 133.519531 123.847656 133.042969 124.488281 132.53125 125.105469 C 132.023438 125.722656 131.484375 126.316406 130.914062 126.878906 C 130.347656 127.445312 129.753906 127.980469 129.132812 128.488281 C 128.511719 128.996094 127.867188 129.46875 127.199219 129.914062 C 126.53125 130.355469 125.84375 130.765625 125.132812 131.140625 C 124.425781 131.519531 123.699219 131.859375 122.960938 132.164062 C 122.21875 132.46875 121.460938 132.738281 120.695312 132.96875 C 119.925781 133.199219 119.148438 133.390625 118.363281 133.546875 C 117.574219 133.699219 116.78125 133.816406 115.984375 133.890625 C 115.183594 133.96875 114.386719 134.007812 113.582031 134.003906 L 24.917969 134.003906 C 24.117188 134.007812 23.316406 133.96875 22.519531 133.890625 C 21.71875 133.816406 20.925781 133.699219 20.140625 133.546875 C 19.351562 133.390625 18.574219 133.199219 17.808594 132.96875 C 17.039062 132.738281 16.285156 132.46875 15.542969 132.164062 C 14.800781 131.859375 14.074219 131.519531 13.367188 131.140625 C 12.660156 130.765625 11.972656 130.355469 11.304688 129.914062 C 10.636719 129.46875 9.992188 128.996094 9.371094 128.488281 C 8.75 127.980469 8.15625 127.445312 7.585938 126.878906 C 7.019531 126.316406 6.480469 125.722656 5.96875 125.105469 C 5.460938 124.488281 4.980469 123.847656 4.535156 123.183594 C 4.085938 122.515625 3.675781 121.832031 3.296875 121.125 C 2.917969 120.421875 2.574219 119.699219 2.265625 118.960938 C 1.957031 118.222656 1.683594 117.46875 1.449219 116.703125 C 1.21875 115.9375 1.019531 115.160156 0.863281 114.378906 C 0.707031 113.59375 0.585938 112.800781 0.507812 112.003906 C 0.425781 111.207031 0.386719 110.410156 0.386719 109.609375 L 0.386719 24.398438 C 0.378906 23.59375 0.410156 22.792969 0.484375 21.992188 C 0.554688 21.195312 0.667969 20.398438 0.816406 19.609375 C 0.96875 18.824219 1.160156 18.042969 1.390625 17.273438 C 1.617188 16.503906 1.886719 15.746094 2.191406 15.003906 C 2.496094 14.261719 2.835938 13.535156 3.214844 12.828125 C 3.59375 12.117188 4.003906 11.429688 4.449219 10.761719 C 4.898438 10.09375 5.375 9.449219 5.886719 8.828125 C 6.398438 8.207031 6.9375 7.613281 7.507812 7.046875 C 8.078125 6.480469 8.671875 5.941406 9.296875 5.4375 C 9.921875 4.929688 10.566406 4.453125 11.238281 4.011719 C 11.910156 3.566406 12.601562 3.160156 13.3125 2.785156 C 14.027344 2.410156 14.753906 2.070312 15.5 1.769531 C 16.246094 1.46875 17.003906 1.203125 17.777344 0.980469 C 18.550781 0.753906 19.332031 0.566406 20.121094 0.417969 C 20.910156 0.269531 21.707031 0.160156 22.511719 0.0898438 C 23.3125 0.0195312 24.113281 -0.0078125 24.917969 0.00390625 Z M 24.917969 0.00390625 "/></g><path style=" stroke:none;fill-rule:nonzero;fill:#9999ff;fill-opacity:1;" d="M 55.910156 80.117188 L 34.386719 80.117188 L 30.085938 93.433594 C 30.085938 93.863281 29.652344 94.292969 28.792969 94.292969 L 18.03125 94.292969 C 17.601562 94.722656 17.171875 94.292969 17.601562 93.433594 L 36.109375 40.605469 C 36.109375 40.175781 36.539062 39.316406 36.539062 38.886719 C 36.898438 37.621094 37.042969 36.332031 36.96875 35.023438 L 37.402344 34.164062 L 52.035156 34.164062 C 52.464844 34.164062 52.894531 34.164062 52.894531 34.59375 L 73.984375 93.433594 C 73.984375 93.863281 73.984375 94.292969 73.554688 94.292969 L 61.503906 94.292969 C 61.273438 94.277344 61.074219 94.1875 60.910156 94.023438 C 60.75 93.859375 60.660156 93.664062 60.644531 93.433594 Z M 37.832031 68.953125 L 52.464844 68.953125 C 52.035156 67.664062 51.605469 66.375 51.175781 64.65625 C 50.789062 63.011719 50.21875 61.4375 49.453125 59.933594 C 49.023438 58.214844 48.160156 56.496094 47.730469 54.777344 C 47.351562 52.996094 46.777344 51.277344 46.007812 49.625 C 45.4375 48.234375 45.007812 46.804688 44.71875 45.328125 C 44.257812 47.839844 43.539062 50.273438 42.566406 52.632812 C 41.703125 55.207031 40.84375 58.214844 39.984375 61.222656 C 39.464844 63.851562 38.75 66.429688 37.832031 68.953125 Z M 37.832031 68.953125 "/><path style=" stroke:none;fill-rule:nonzero;fill:#9999ff;fill-opacity:1;" d="M 107.988281 74.921875 L 89.910156 74.921875 C 90.289062 76.707031 90.863281 78.425781 91.632812 80.078125 C 92.679688 81.707031 94.113281 82.851562 95.9375 83.511719 C 98.292969 84.402344 100.734375 84.832031 103.253906 84.800781 C 105.292969 84.726562 107.300781 84.441406 109.277344 83.941406 L 114.445312 82.65625 C 114.875 82.226562 114.875 82.65625 114.875 83.085938 L 114.875 92.53125 L 114.445312 92.960938 C 112.640625 93.730469 110.773438 94.304688 108.847656 94.679688 C 106.144531 95.179688 103.417969 95.464844 100.671875 95.539062 C 96.796875 95.574219 93.066406 94.859375 89.480469 93.390625 C 86.644531 92.046875 84.207031 90.1875 82.164062 87.808594 C 80.445312 85.601562 79.152344 83.167969 78.289062 80.507812 C 77.4375 77.851562 77.007812 75.132812 77 72.347656 C 77.003906 69.28125 77.433594 66.273438 78.289062 63.328125 C 79.207031 60.464844 80.640625 57.886719 82.59375 55.597656 C 84.503906 53.261719 86.796875 51.398438 89.480469 50.011719 C 92.507812 48.730469 95.664062 48.15625 98.949219 48.292969 C 102.082031 48.238281 105.09375 48.8125 107.988281 50.011719 C 110.398438 51.074219 112.40625 52.652344 114.011719 54.738281 C 115.5 56.703125 116.644531 58.851562 117.457031 61.179688 C 118.304688 63.390625 118.738281 65.683594 118.746094 68.050781 L 118.746094 71.917969 C 118.855469 72.816406 118.710938 73.675781 118.316406 74.492188 C 118.300781 74.722656 118.210938 74.921875 118.046875 75.085938 C 117.882812 75.246094 117.6875 75.335938 117.457031 75.351562 L 112.292969 75.351562 C 110.878906 74.996094 109.445312 74.851562 107.988281 74.921875 Z M 89.910156 66.332031 L 105.40625 66.332031 C 105.902344 66.394531 106.335938 66.253906 106.695312 65.902344 L 106.695312 65.476562 C 106.765625 64.714844 106.621094 64 106.265625 63.328125 C 106.179688 62.925781 106.054688 62.535156 105.894531 62.160156 C 105.738281 61.78125 105.542969 61.421875 105.316406 61.078125 C 105.089844 60.738281 104.832031 60.417969 104.546875 60.125 C 104.261719 59.828125 103.949219 59.5625 103.613281 59.328125 C 103.277344 59.089844 102.921875 58.886719 102.550781 58.714844 C 102.175781 58.546875 101.789062 58.410156 101.390625 58.3125 C 100.992188 58.214844 100.585938 58.152344 100.175781 58.128906 C 99.765625 58.105469 99.355469 58.121094 98.949219 58.171875 C 98.179688 58.195312 97.421875 58.308594 96.675781 58.511719 C 95.933594 58.714844 95.222656 59.003906 94.550781 59.378906 C 93.875 59.75 93.253906 60.199219 92.6875 60.722656 C 92.125 61.246094 91.628906 61.828125 91.203125 62.46875 C 90.375 63.625 89.945312 64.914062 89.910156 66.332031 Z M 89.910156 66.332031 "/></g></svg>