<svg xmlns="http://www.w3.org/2000/svg" xmlns:xlink="http://www.w3.org/1999/xlink" width="62" zoomAndPan="magnify" viewBox="0 0 46.5 24.75" height="33" preserveAspectRatio="xMidYMid meet" version="1.0"><defs><clipPath id="904ff98bf9"><path d="M 0 0.0078125 L 45.261719 0.0078125 L 45.261719 23 L 0 23 Z M 0 0.0078125 " clip-rule="nonzero"/></clipPath><clipPath id="2ea0c5d25d"><path d="M 0 0.0078125 L 45.261719 0.0078125 L 45.261719 23.753906 L 0 23.753906 Z M 0 0.0078125 " clip-rule="nonzero"/></clipPath><clipPath id="fc26917348"><path d="M 0 0.0078125 L 38.585938 0.0078125 L 38.585938 20.042969 L 0 20.042969 Z M 0 0.0078125 " clip-rule="nonzero"/></clipPath></defs><g clip-path="url(#904ff98bf9)"><path fill="#66c277" d="M 11.398438 0.839844 L 34.1875 0.839844 C 34.902344 0.839844 35.613281 0.910156 36.316406 1.050781 C 37.015625 1.1875 37.699219 1.394531 38.359375 1.667969 C 39.019531 1.945312 39.648438 2.28125 40.242188 2.675781 C 40.839844 3.074219 41.390625 3.527344 41.894531 4.03125 C 42.402344 4.539062 42.851562 5.089844 43.25 5.683594 C 43.648438 6.277344 43.984375 6.90625 44.257812 7.566406 C 44.53125 8.230469 44.738281 8.910156 44.878906 9.613281 C 45.015625 10.316406 45.085938 11.023438 45.085938 11.738281 C 45.085938 12.453125 45.015625 13.164062 44.878906 13.867188 C 44.738281 14.566406 44.53125 15.25 44.257812 15.910156 C 43.984375 16.570312 43.648438 17.199219 43.25 17.792969 C 42.851562 18.390625 42.402344 18.941406 41.894531 19.445312 C 41.390625 19.953125 40.839844 20.402344 40.242188 20.800781 C 39.648438 21.199219 39.019531 21.535156 38.359375 21.808594 C 37.699219 22.082031 37.015625 22.289062 36.316406 22.429688 C 35.613281 22.566406 34.902344 22.636719 34.1875 22.636719 L 11.398438 22.636719 C 10.683594 22.636719 9.976562 22.566406 9.273438 22.429688 C 8.570312 22.289062 7.890625 22.082031 7.230469 21.808594 C 6.566406 21.535156 5.941406 21.199219 5.34375 20.800781 C 4.75 20.402344 4.199219 19.953125 3.691406 19.445312 C 3.1875 18.941406 2.734375 18.390625 2.335938 17.792969 C 1.941406 17.199219 1.605469 16.570312 1.332031 15.910156 C 1.054688 15.25 0.851562 14.566406 0.710938 13.867188 C 0.570312 13.164062 0.5 12.453125 0.5 11.738281 C 0.5 11.023438 0.570312 10.316406 0.710938 9.613281 C 0.851562 8.910156 1.054688 8.230469 1.332031 7.566406 C 1.605469 6.90625 1.941406 6.277344 2.335938 5.683594 C 2.734375 5.089844 3.1875 4.539062 3.691406 4.03125 C 4.199219 3.527344 4.75 3.074219 5.34375 2.675781 C 5.941406 2.28125 6.566406 1.945312 7.230469 1.667969 C 7.890625 1.394531 8.570312 1.1875 9.273438 1.050781 C 9.976562 0.910156 10.683594 0.839844 11.398438 0.839844 Z M 11.398438 0.839844 " fill-opacity="1" fill-rule="nonzero"/></g><g clip-path="url(#2ea0c5d25d)"><path stroke-linecap="butt" transform="matrix(0.990811, 0, 0, 0.990811, 0.00531395, 0.00797971)" fill="none" stroke-linejoin="miter" d="M 11.498786 0.839579 L 34.499199 0.839579 C 35.220673 0.839579 35.938204 0.910544 36.64785 1.052473 C 37.353553 1.190459 38.043487 1.399411 38.709765 1.675384 C 39.376044 1.9553 40.010783 2.294353 40.610039 2.692543 C 41.213238 3.094676 41.769128 3.552003 42.277707 4.060583 C 42.790229 4.573105 43.243614 5.128994 43.645747 5.728251 C 44.04788 6.327508 44.386933 6.962246 44.662906 7.628525 C 44.93888 8.298746 45.147831 8.984737 45.28976 9.694383 C 45.427747 10.404029 45.498711 11.117618 45.498711 11.839091 C 45.498711 12.560564 45.427747 13.278095 45.28976 13.987741 C 45.147831 14.693445 44.93888 15.383378 44.662906 16.049657 C 44.386933 16.715936 44.04788 17.350674 43.645747 17.949931 C 43.243614 18.55313 42.790229 19.109019 42.277707 19.617599 C 41.769128 20.130121 41.213238 20.583506 40.610039 20.985639 C 40.010783 21.387771 39.376044 21.726824 38.709765 22.002798 C 38.043487 22.278771 37.353553 22.487723 36.64785 22.629652 C 35.938204 22.767638 35.220673 22.838603 34.499199 22.838603 L 11.498786 22.838603 C 10.777313 22.838603 10.063724 22.767638 9.354078 22.629652 C 8.644432 22.487723 7.958441 22.278771 7.292163 22.002798 C 6.621941 21.726824 5.991145 21.387771 5.387946 20.985639 C 4.788689 20.583506 4.2328 20.130121 3.720278 19.617599 C 3.211698 19.109019 2.754371 18.55313 2.352238 17.949931 C 1.954048 17.350674 1.614995 16.715936 1.339022 16.049657 C 1.059106 15.383378 0.854097 14.693445 0.712168 13.987741 C 0.570238 13.278095 0.499274 12.560564 0.499274 11.839091 C 0.499274 11.117618 0.570238 10.404029 0.712168 9.694383 C 0.854097 8.984737 1.059106 8.298746 1.339022 7.628525 C 1.614995 6.962246 1.954048 6.327508 2.352238 5.728251 C 2.754371 5.128994 3.211698 4.573105 3.720278 4.060583 C 4.2328 3.552003 4.788689 3.094676 5.387946 2.692543 C 5.991145 2.294353 6.621941 1.9553 7.292163 1.675384 C 7.958441 1.399411 8.644432 1.190459 9.354078 1.052473 C 10.063724 0.910544 10.777313 0.839579 11.498786 0.839579 Z M 11.498786 0.839579 " stroke="#414347" stroke-width="1" stroke-opacity="1" stroke-miterlimit="4"/></g><path fill="#ffffff" d="M 15.859375 11.738281 C 15.859375 12.132812 15.78125 12.511719 15.632812 12.875 C 15.480469 13.242188 15.265625 13.5625 14.988281 13.839844 C 14.707031 14.121094 14.386719 14.335938 14.023438 14.484375 C 13.660156 14.636719 13.28125 14.710938 12.886719 14.710938 C 12.492188 14.710938 12.113281 14.636719 11.75 14.484375 C 11.382812 14.335938 11.0625 14.121094 10.785156 13.839844 C 10.503906 13.5625 10.289062 13.242188 10.140625 12.875 C 9.988281 12.511719 9.914062 12.132812 9.914062 11.738281 C 9.914062 11.34375 9.988281 10.964844 10.140625 10.601562 C 10.289062 10.238281 10.503906 9.917969 10.785156 9.636719 C 11.0625 9.359375 11.382812 9.144531 11.75 8.992188 C 12.113281 8.84375 12.492188 8.765625 12.886719 8.765625 C 13.28125 8.765625 13.660156 8.84375 14.023438 8.992188 C 14.386719 9.144531 14.707031 9.359375 14.988281 9.636719 C 15.265625 9.917969 15.480469 10.238281 15.632812 10.601562 C 15.78125 10.964844 15.859375 11.34375 15.859375 11.738281 Z M 15.859375 11.738281 " fill-opacity="1" fill-rule="nonzero"/><path fill="#ffffff" d="M 25.765625 11.738281 C 25.765625 12.132812 25.691406 12.511719 25.539062 12.875 C 25.390625 13.242188 25.175781 13.5625 24.894531 13.839844 C 24.617188 14.121094 24.296875 14.335938 23.929688 14.484375 C 23.566406 14.636719 23.1875 14.710938 22.792969 14.710938 C 22.398438 14.710938 22.019531 14.636719 21.65625 14.484375 C 21.292969 14.335938 20.972656 14.121094 20.691406 13.839844 C 20.414062 13.5625 20.199219 13.242188 20.046875 12.875 C 19.898438 12.511719 19.820312 12.132812 19.820312 11.738281 C 19.820312 11.34375 19.898438 10.964844 20.046875 10.601562 C 20.199219 10.238281 20.414062 9.917969 20.691406 9.636719 C 20.972656 9.359375 21.292969 9.144531 21.65625 8.992188 C 22.019531 8.84375 22.398438 8.765625 22.792969 8.765625 C 23.1875 8.765625 23.566406 8.84375 23.929688 8.992188 C 24.296875 9.144531 24.617188 9.359375 24.894531 9.636719 C 25.175781 9.917969 25.390625 10.238281 25.539062 10.601562 C 25.691406 10.964844 25.765625 11.34375 25.765625 11.738281 Z M 25.765625 11.738281 " fill-opacity="1" fill-rule="nonzero"/><path fill="#ffffff" d="M 35.675781 11.738281 C 35.675781 12.132812 35.597656 12.511719 35.449219 12.875 C 35.296875 13.242188 35.082031 13.5625 34.804688 13.839844 C 34.523438 14.121094 34.203125 14.335938 33.839844 14.484375 C 33.476562 14.636719 33.097656 14.710938 32.703125 14.710938 C 32.308594 14.710938 31.929688 14.636719 31.566406 14.484375 C 31.199219 14.335938 30.878906 14.121094 30.601562 13.839844 C 30.320312 13.5625 30.105469 13.242188 29.957031 12.875 C 29.804688 12.511719 29.730469 12.132812 29.730469 11.738281 C 29.730469 11.34375 29.804688 10.964844 29.957031 10.601562 C 30.105469 10.238281 30.320312 9.917969 30.601562 9.636719 C 30.878906 9.359375 31.199219 9.144531 31.566406 8.992188 C 31.929688 8.84375 32.308594 8.765625 32.703125 8.765625 C 33.097656 8.765625 33.476562 8.84375 33.839844 8.992188 C 34.203125 9.144531 34.523438 9.359375 34.804688 9.636719 C 35.082031 9.917969 35.296875 10.238281 35.449219 10.601562 C 35.597656 10.964844 35.675781 11.34375 35.675781 11.738281 Z M 35.675781 11.738281 " fill-opacity="1" fill-rule="nonzero"/><g clip-path="url(#fc26917348)"><path stroke-linecap="butt" transform="matrix(0.990811, 0, 0, 0.990811, 0.00531395, 0.00797971)" fill-opacity="1" fill="#66c277" fill-rule="nonzero" stroke-linejoin="miter" d="M 11.498786 0.839579 L 34.499199 0.839579 C 35.220673 0.839579 35.938204 0.910544 36.64785 1.052473 C 37.353553 1.190459 38.043487 1.399411 38.709765 1.675384 C 39.376044 1.9553 40.010783 2.294353 40.610039 2.692543 C 41.213238 3.094676 41.769128 3.552003 42.277707 4.060583 C 42.790229 4.573105 43.243614 5.128994 43.645747 5.728251 C 44.04788 6.327508 44.386933 6.962246 44.662906 7.628525 C 44.93888 8.298746 45.147831 8.984737 45.28976 9.694383 C 45.427747 10.404029 45.498711 11.117618 45.498711 11.839091 C 45.498711 12.560564 45.427747 13.278095 45.28976 13.987741 C 45.147831 14.693445 44.93888 15.383378 44.662906 16.049657 C 44.386933 16.715936 44.04788 17.350674 43.645747 17.949931 C 43.243614 18.55313 42.790229 19.109019 42.277707 19.617599 C 41.769128 20.130121 41.213238 20.583506 40.610039 20.985639 C 40.010783 21.387771 39.376044 21.726824 38.709765 22.002798 C 38.043487 22.278771 37.353553 22.487723 36.64785 22.629652 C 35.938204 22.767638 35.220673 22.838603 34.499199 22.838603 L 11.498786 22.838603 C 10.777313 22.838603 10.063724 22.767638 9.354078 22.629652 C 8.644432 22.487723 7.958441 22.278771 7.292163 22.002798 C 6.621941 21.726824 5.991145 21.387771 5.387946 20.985639 C 4.788689 20.583506 4.2328 20.130121 3.720278 19.617599 C 3.211698 19.109019 2.754371 18.55313 2.352238 17.949931 C 1.954048 17.350674 1.614995 16.715936 1.339022 16.049657 C 1.059106 15.383378 0.854097 14.693445 0.712168 13.987741 C 0.570238 13.278095 0.499274 12.560564 0.499274 11.839091 C 0.499274 11.117618 0.570238 10.404029 0.712168 9.694383 C 0.854097 8.984737 1.059106 8.298746 1.339022 7.628525 C 1.614995 6.962246 1.954048 6.327508 2.352238 5.728251 C 2.754371 5.128994 3.211698 4.573105 3.720278 4.060583 C 4.2328 3.552003 4.788689 3.094676 5.387946 2.692543 C 5.991145 2.294353 6.621941 1.9553 7.292163 1.675384 C 7.958441 1.399411 8.644432 1.190459 9.354078 1.052473 C 10.063724 0.910544 10.777313 0.839579 11.498786 0.839579 Z M 11.498786 0.839579 " stroke="#414347" stroke-width="1" stroke-opacity="1" stroke-miterlimit="4"/></g><path fill="#ffffff" d="M 15.859375 11.738281 C 15.859375 12.132812 15.78125 12.511719 15.632812 12.875 C 15.480469 13.242188 15.265625 13.5625 14.988281 13.839844 C 14.707031 14.121094 14.386719 14.335938 14.023438 14.484375 C 13.660156 14.636719 13.28125 14.710938 12.886719 14.710938 C 12.492188 14.710938 12.113281 14.636719 11.75 14.484375 C 11.382812 14.335938 11.0625 14.121094 10.785156 13.839844 C 10.503906 13.5625 10.289062 13.242188 10.140625 12.875 C 9.988281 12.511719 9.914062 12.132812 9.914062 11.738281 C 9.914062 11.34375 9.988281 10.964844 10.140625 10.601562 C 10.289062 10.238281 10.503906 9.917969 10.785156 9.636719 C 11.0625 9.359375 11.382812 9.144531 11.75 8.992188 C 12.113281 8.84375 12.492188 8.765625 12.886719 8.765625 C 13.28125 8.765625 13.660156 8.84375 14.023438 8.992188 C 14.386719 9.144531 14.707031 9.359375 14.988281 9.636719 C 15.265625 9.917969 15.480469 10.238281 15.632812 10.601562 C 15.78125 10.964844 15.859375 11.34375 15.859375 11.738281 Z M 15.859375 11.738281 " fill-opacity="1" fill-rule="nonzero"/><path fill="#ffffff" d="M 25.765625 11.738281 C 25.765625 12.132812 25.691406 12.511719 25.539062 12.875 C 25.390625 13.242188 25.175781 13.5625 24.894531 13.839844 C 24.617188 14.121094 24.296875 14.335938 23.929688 14.484375 C 23.566406 14.636719 23.1875 14.710938 22.792969 14.710938 C 22.398438 14.710938 22.019531 14.636719 21.65625 14.484375 C 21.292969 14.335938 20.972656 14.121094 20.691406 13.839844 C 20.414062 13.5625 20.199219 13.242188 20.046875 12.875 C 19.898438 12.511719 19.820312 12.132812 19.820312 11.738281 C 19.820312 11.34375 19.898438 10.964844 20.046875 10.601562 C 20.199219 10.238281 20.414062 9.917969 20.691406 9.636719 C 20.972656 9.359375 21.292969 9.144531 21.65625 8.992188 C 22.019531 8.84375 22.398438 8.765625 22.792969 8.765625 C 23.1875 8.765625 23.566406 8.84375 23.929688 8.992188 C 24.296875 9.144531 24.617188 9.359375 24.894531 9.636719 C 25.175781 9.917969 25.390625 10.238281 25.539062 10.601562 C 25.691406 10.964844 25.765625 11.34375 25.765625 11.738281 Z M 25.765625 11.738281 " fill-opacity="1" fill-rule="nonzero"/><path fill="#ffffff" d="M 35.675781 11.738281 C 35.675781 12.132812 35.597656 12.511719 35.449219 12.875 C 35.296875 13.242188 35.082031 13.5625 34.804688 13.839844 C 34.523438 14.121094 34.203125 14.335938 33.839844 14.484375 C 33.476562 14.636719 33.097656 14.710938 32.703125 14.710938 C 32.308594 14.710938 31.929688 14.636719 31.566406 14.484375 C 31.199219 14.335938 30.878906 14.121094 30.601562 13.839844 C 30.320312 13.5625 30.105469 13.242188 29.957031 12.875 C 29.804688 12.511719 29.730469 12.132812 29.730469 11.738281 C 29.730469 11.34375 29.804688 10.964844 29.957031 10.601562 C 30.105469 10.238281 30.320312 9.917969 30.601562 9.636719 C 30.878906 9.359375 31.199219 9.144531 31.566406 8.992188 C 31.929688 8.84375 32.308594 8.765625 32.703125 8.765625 C 33.097656 8.765625 33.476562 8.84375 33.839844 8.992188 C 34.203125 9.144531 34.523438 9.359375 34.804688 9.636719 C 35.082031 9.917969 35.296875 10.238281 35.449219 10.601562 C 35.597656 10.964844 35.675781 11.34375 35.675781 11.738281 Z M 35.675781 11.738281 " fill-opacity="1" fill-rule="nonzero"/></svg>