<svg xmlns="http://www.w3.org/2000/svg" xmlns:xlink="http://www.w3.org/1999/xlink" width="1411" zoomAndPan="magnify" viewBox="0 0 1058.25 87.749997" height="117" preserveAspectRatio="xMidYMid meet" version="1.2"><defs><clipPath id="faff07aa40"><path d="M 1.128906 0 L 1056 0 L 1056 87.5 L 1.128906 87.5 Z M 1.128906 0 "/></clipPath><clipPath id="d55bdec75b"><path d="M 1.128906 26.957031 L 1054.160156 0 L 1055.707031 60.445312 L 2.675781 87.402344 Z M 1.128906 26.957031 "/></clipPath><clipPath id="7aa3ff5714"><path d="M 0.128906 0 L 1054.804688 0 L 1054.804688 87.5 L 0.128906 87.5 Z M 0.128906 0 "/></clipPath><clipPath id="a034346314"><path d="M 0.128906 26.957031 L 1053.160156 0 L 1054.707031 60.445312 L 1.675781 87.402344 Z M 0.128906 26.957031 "/></clipPath><clipPath id="fb148fc78d"><rect x="0" width="1055" y="0" height="88"/></clipPath><clipPath id="7ab3ac8c7d"><path d="M 4 8 L 765 8 L 765 87.5 L 4 87.5 Z M 4 8 "/></clipPath><clipPath id="d74f4dd11d"><path d="M 4.449219 27.753906 L 762.683594 8.34375 L 764.210938 67.992188 L 5.976562 87.402344 Z M 4.449219 27.753906 "/></clipPath><clipPath id="1262212f64"><path d="M 0.242188 0.136719 L 760.316406 0.136719 L 760.316406 79.5 L 0.242188 79.5 Z M 0.242188 0.136719 "/></clipPath><clipPath id="8e808eb888"><path d="M 0.449219 19.753906 L 758.683594 0.34375 L 760.210938 59.992188 L 1.976562 79.402344 Z M 0.449219 19.753906 "/></clipPath><clipPath id="97715c7a65"><rect x="0" width="761" y="0" height="80"/></clipPath></defs><g id="a1e59053f6"><g clip-rule="nonzero" clip-path="url(#faff07aa40)"><g clip-rule="nonzero" clip-path="url(#d55bdec75b)"><g transform="matrix(1,0,0,1,1,0.000000000000012722)"><g clip-path="url(#fb148fc78d)"><g clip-rule="nonzero" clip-path="url(#7aa3ff5714)"><g clip-rule="nonzero" clip-path="url(#a034346314)"><path style=" stroke:none;fill-rule:nonzero;fill:#0b8642;fill-opacity:1;" d="M 0.128906 26.957031 L 1053.222656 0 L 1054.769531 60.445312 L 1.675781 87.402344 Z M 0.128906 26.957031 "/></g></g></g></g></g></g><g clip-rule="nonzero" clip-path="url(#7ab3ac8c7d)"><g clip-rule="nonzero" clip-path="url(#d74f4dd11d)"><g transform="matrix(1,0,0,1,4,8)"><g clip-path="url(#97715c7a65)"><g clip-rule="nonzero" clip-path="url(#1262212f64)"><g clip-rule="nonzero" clip-path="url(#8e808eb888)"><path style=" stroke:none;fill-rule:nonzero;fill:#0b8642;fill-opacity:1;" d="M 0.449219 19.753906 L 758.671875 0.34375 L 760.199219 59.992188 L 1.976562 79.402344 Z M 0.449219 19.753906 "/></g></g></g></g></g></g></g></svg>