<svg xmlns="http://www.w3.org/2000/svg" xmlns:xlink="http://www.w3.org/1999/xlink" width="200" zoomAndPan="magnify" viewBox="0 0 150 138.749998" height="185" preserveAspectRatio="xMidYMid meet" version="1.2"><defs><clipPath id="b35b748ae8"><path d="M 79 56 L 139 56 L 139 137.75 L 79 137.75 Z M 79 56 "/></clipPath><clipPath id="7818b93d08"><path d="M 0.136719 0 L 149.863281 0 L 149.863281 108 L 0.136719 108 Z M 0.136719 0 "/></clipPath><clipPath id="1c7ce42f37"><path d="M 79 56 L 139 56 L 139 137.75 L 79 137.75 Z M 79 56 "/></clipPath><clipPath id="aced58cc9a"><path d="M 0.136719 52.164062 L 149.863281 52.164062 L 149.863281 108 L 0.136719 108 Z M 0.136719 52.164062 "/></clipPath><clipPath id="34c73a8f66"><path d="M 15 52.164062 L 135 52.164062 L 135 92 L 15 92 Z M 15 52.164062 "/></clipPath></defs><g id="dc9daa52ca"><g clip-rule="nonzero" clip-path="url(#b35b748ae8)"><path style=" stroke:none;fill-rule:nonzero;fill:#d9d9d9;fill-opacity:1;" d="M 80.148438 129.820312 C 80.730469 130.402344 81.664062 130.753906 82.480469 130.519531 L 93.09375 127.835938 L 99.625 136.703125 C 100.09375 137.285156 100.792969 137.636719 101.492188 137.636719 C 101.609375 137.636719 101.726562 137.636719 101.84375 137.636719 C 102.660156 137.519531 103.359375 136.933594 103.707031 136.117188 L 106.273438 128.652344 L 103.824219 121.539062 L 100.792969 130.402344 L 96.011719 123.753906 C 95.542969 123.171875 94.84375 122.820312 94.144531 122.820312 C 93.910156 122.820312 93.792969 122.820312 93.5625 122.9375 L 85.746094 124.921875 L 92.746094 104.859375 C 92.976562 104.976562 93.328125 105.09375 93.445312 105.324219 C 94.027344 105.792969 94.609375 106.492188 95.308594 107.308594 C 96.476562 108.824219 97.875 110.574219 100.09375 111.273438 C 101.84375 111.859375 103.59375 111.507812 105.226562 111.15625 L 113.972656 136.234375 C 114.207031 137.050781 115.023438 137.636719 115.839844 137.75 C 115.957031 137.75 116.074219 137.75 116.1875 137.75 C 116.890625 137.75 117.589844 137.402344 118.054688 136.820312 L 124.585938 127.953125 L 135.203125 130.636719 C 136.019531 130.871094 136.949219 130.636719 137.535156 129.9375 C 138.117188 129.238281 138.351562 128.421875 138 127.605469 L 131.003906 107.425781 L 130.886719 107.191406 L 129.484375 102.992188 C 130.417969 102.527344 131.351562 101.828125 132.167969 100.777344 C 133.453125 99.027344 133.566406 96.8125 133.683594 94.945312 C 133.683594 93.894531 133.800781 92.84375 134.035156 92.144531 C 134.269531 91.445312 134.734375 90.628906 135.316406 89.8125 C 136.367188 88.179688 137.652344 86.3125 137.652344 84.097656 C 137.652344 81.882812 136.484375 79.898438 135.316406 78.382812 C 134.734375 77.566406 134.269531 76.75 134.035156 76.050781 C 133.800781 75.347656 133.800781 74.300781 133.683594 73.25 C 133.566406 71.382812 133.453125 69.167969 132.167969 67.417969 C 130.886719 65.550781 128.785156 64.851562 127.035156 64.152344 C 126.101562 63.800781 125.171875 63.453125 124.46875 62.984375 C 123.886719 62.519531 123.304688 61.820312 122.605469 61.003906 C 121.4375 59.488281 120.039062 57.738281 117.820312 57.035156 C 115.722656 56.335938 113.621094 56.921875 111.875 57.386719 C 110.824219 57.621094 109.890625 57.96875 109.074219 57.96875 C 108.257812 57.96875 107.324219 57.738281 106.273438 57.386719 C 104.410156 56.921875 102.308594 56.335938 100.324219 57.035156 C 98.109375 57.738281 96.828125 59.488281 95.542969 61.003906 C 94.84375 61.820312 94.261719 62.636719 93.675781 62.984375 C 93.09375 63.453125 92.160156 63.800781 91.113281 64.152344 C 89.363281 64.851562 87.261719 65.550781 85.980469 67.417969 C 84.695312 69.167969 84.578125 71.382812 84.464844 73.25 C 84.464844 74.300781 84.347656 75.347656 84.113281 76.050781 C 83.878906 76.75 83.414062 77.566406 82.828125 78.382812 C 81.78125 80.015625 80.496094 81.882812 80.496094 84.097656 C 80.496094 86.3125 81.664062 88.296875 82.828125 89.8125 C 83.414062 90.628906 83.878906 91.445312 84.113281 92.144531 C 84.347656 92.84375 84.347656 93.894531 84.464844 94.945312 C 84.578125 96.8125 84.695312 99.027344 85.980469 100.777344 C 86.679688 101.710938 87.613281 102.410156 88.660156 102.992188 L 87.261719 107.074219 L 86.679688 107.308594 L 79.679688 127.488281 C 79.449219 128.304688 79.5625 129.121094 80.148438 129.820312 Z M 131.933594 124.921875 L 124.121094 122.9375 C 123.1875 122.707031 122.253906 123.054688 121.671875 123.871094 L 116.890625 130.519531 L 109.890625 110.574219 C 110.472656 110.691406 111.058594 110.808594 111.640625 111.042969 C 112.921875 111.390625 114.207031 111.742188 115.605469 111.742188 C 116.304688 111.742188 117.003906 111.625 117.707031 111.390625 C 119.921875 110.691406 121.203125 108.941406 122.488281 107.425781 C 123.1875 106.609375 123.769531 105.792969 124.355469 105.441406 C 124.585938 105.324219 124.820312 105.09375 125.054688 104.976562 Z M 88.195312 90.628906 C 87.730469 89.347656 87.027344 88.179688 86.328125 87.128906 C 85.511719 85.964844 84.8125 84.796875 84.8125 83.980469 C 84.8125 83.164062 85.511719 81.996094 86.328125 80.832031 C 87.027344 79.78125 87.730469 78.617188 88.195312 77.332031 C 88.660156 76.050781 88.660156 74.648438 88.777344 73.367188 C 88.894531 71.96875 88.894531 70.683594 89.363281 69.984375 C 89.828125 69.285156 91.113281 68.816406 92.394531 68.351562 C 93.675781 67.882812 94.84375 67.417969 96.011719 66.601562 C 97.175781 65.785156 97.992188 64.734375 98.808594 63.683594 C 99.625 62.636719 100.558594 61.585938 101.375 61.234375 C 102.191406 61.003906 103.476562 61.351562 104.757812 61.703125 C 106.042969 62.050781 107.441406 62.402344 108.839844 62.402344 C 110.242188 62.402344 111.640625 62.050781 112.921875 61.703125 C 114.207031 61.351562 115.488281 61.003906 116.304688 61.234375 C 117.121094 61.46875 117.9375 62.519531 118.871094 63.683594 C 119.6875 64.734375 120.503906 65.785156 121.671875 66.601562 C 122.835938 67.417969 124.121094 67.882812 125.285156 68.351562 C 126.570312 68.816406 127.851562 69.285156 128.320312 69.984375 C 128.785156 70.683594 128.902344 71.96875 128.902344 73.367188 C 129.019531 74.648438 129.019531 76.050781 129.484375 77.449219 C 129.953125 78.730469 130.652344 79.898438 131.351562 80.949219 C 132.167969 82.113281 132.867188 83.28125 132.867188 84.097656 C 132.867188 84.914062 132.167969 86.082031 131.351562 87.246094 C 130.652344 88.296875 129.953125 89.460938 129.484375 90.746094 C 129.019531 92.027344 129.019531 93.429688 128.902344 94.710938 C 128.785156 96.109375 128.785156 97.394531 128.320312 98.09375 C 127.851562 98.792969 126.570312 99.261719 125.285156 99.726562 C 124.003906 100.195312 122.835938 100.660156 121.671875 101.476562 C 120.503906 102.292969 119.6875 103.34375 118.871094 104.394531 C 118.054688 105.441406 117.121094 106.492188 116.304688 106.84375 C 115.488281 107.074219 114.207031 106.726562 112.921875 106.375 C 111.640625 106.027344 110.242188 105.675781 108.839844 105.675781 C 107.441406 105.675781 106.042969 106.027344 104.757812 106.375 C 103.476562 106.726562 102.191406 107.074219 101.375 106.84375 C 100.558594 106.609375 99.742188 105.558594 98.808594 104.394531 C 97.992188 103.34375 97.175781 102.292969 96.011719 101.476562 C 94.84375 100.660156 93.5625 100.195312 92.394531 99.726562 C 91.113281 99.261719 89.828125 98.792969 89.363281 98.09375 C 88.894531 97.394531 88.777344 96.113281 88.777344 94.710938 C 88.660156 93.3125 88.660156 92.027344 88.195312 90.628906 Z M 88.195312 90.628906 "/></g><path style=" stroke:none;fill-rule:nonzero;fill:#d9d9d9;fill-opacity:1;" d="M 108.722656 100.308594 C 117.707031 100.308594 125.054688 92.960938 125.054688 83.980469 C 125.054688 75 117.707031 67.652344 108.722656 67.652344 C 99.742188 67.652344 92.394531 75 92.394531 83.980469 C 92.394531 92.960938 99.742188 100.308594 108.722656 100.308594 Z M 108.722656 72.316406 C 115.140625 72.316406 120.386719 77.566406 120.386719 83.980469 C 120.386719 90.394531 115.140625 95.644531 108.722656 95.644531 C 102.308594 95.644531 97.058594 90.394531 97.058594 83.980469 C 97.058594 77.566406 102.308594 72.316406 108.722656 72.316406 Z M 108.722656 72.316406 "/><path style=" stroke:none;fill-rule:nonzero;fill:#d9d9d9;fill-opacity:1;" d="M 44.570312 27.992188 C 43.289062 27.992188 42.238281 29.042969 42.238281 30.328125 C 42.238281 31.609375 43.289062 32.660156 44.570312 32.660156 L 105.226562 32.660156 C 106.507812 32.660156 107.558594 31.609375 107.558594 30.328125 C 107.558594 29.042969 106.507812 27.992188 105.226562 27.992188 Z M 44.570312 27.992188 "/><path style=" stroke:none;fill-rule:nonzero;fill:#d9d9d9;fill-opacity:1;" d="M 104.640625 41.992188 C 104.640625 40.707031 103.59375 39.65625 102.308594 39.65625 L 47.488281 39.65625 C 46.203125 39.65625 45.15625 40.707031 45.15625 41.992188 C 45.15625 43.273438 46.203125 44.324219 47.488281 44.324219 L 102.308594 44.324219 C 103.59375 44.324219 104.640625 43.273438 104.640625 41.992188 Z M 104.640625 41.992188 "/><path style=" stroke:none;fill-rule:nonzero;fill:#d9d9d9;fill-opacity:1;" d="M 16.578125 24.496094 C 21.128906 24.496094 24.742188 20.878906 24.742188 16.328125 C 24.742188 11.78125 21.128906 8.164062 16.578125 8.164062 C 12.03125 8.164062 8.414062 11.78125 8.414062 16.328125 C 8.414062 20.878906 12.03125 24.496094 16.578125 24.496094 Z M 16.578125 12.832031 C 18.5625 12.832031 20.078125 14.347656 20.078125 16.328125 C 20.078125 18.3125 18.5625 19.828125 16.578125 19.828125 C 14.59375 19.828125 13.078125 18.3125 13.078125 16.328125 C 13.078125 14.347656 14.59375 12.832031 16.578125 12.832031 Z M 16.578125 12.832031 "/><path style=" stroke:none;fill-rule:nonzero;fill:#d9d9d9;fill-opacity:1;" d="M 16.578125 97.976562 C 21.128906 97.976562 24.742188 94.363281 24.742188 89.8125 C 24.742188 85.265625 21.128906 81.648438 16.578125 81.648438 C 12.03125 81.648438 8.414062 85.265625 8.414062 89.8125 C 8.414062 94.363281 12.03125 97.976562 16.578125 97.976562 Z M 16.578125 86.3125 C 18.5625 86.3125 20.078125 87.828125 20.078125 89.8125 C 20.078125 91.796875 18.5625 93.3125 16.578125 93.3125 C 14.59375 93.3125 13.078125 91.796875 13.078125 89.8125 C 13.078125 87.828125 14.59375 86.3125 16.578125 86.3125 Z M 16.578125 86.3125 "/><path style=" stroke:none;fill-rule:nonzero;fill:#d9d9d9;fill-opacity:1;" d="M 141.382812 16.328125 C 141.382812 11.78125 137.765625 8.164062 133.21875 8.164062 C 128.667969 8.164062 125.054688 11.78125 125.054688 16.328125 C 125.054688 20.878906 128.667969 24.496094 133.21875 24.496094 C 137.765625 24.496094 141.382812 20.878906 141.382812 16.328125 Z M 129.71875 16.328125 C 129.71875 14.347656 131.234375 12.832031 133.21875 12.832031 C 135.203125 12.832031 136.71875 14.347656 136.71875 16.328125 C 136.71875 18.3125 135.203125 19.828125 133.21875 19.828125 C 131.234375 19.828125 129.71875 18.3125 129.71875 16.328125 Z M 129.71875 16.328125 "/><g clip-rule="nonzero" clip-path="url(#7818b93d08)"><path style=" stroke:none;fill-rule:nonzero;fill:#d9d9d9;fill-opacity:1;" d="M 142.550781 0 L 7.246094 0 C 3.398438 0 0.25 3.148438 0.25 7 L 0.25 100.308594 C 0.25 104.160156 3.398438 107.308594 7.246094 107.308594 L 81.78125 107.308594 L 82.714844 104.507812 C 82.363281 104.160156 82.011719 103.808594 81.78125 103.460938 C 81.546875 103.226562 81.429688 102.875 81.3125 102.644531 L 7.246094 102.644531 C 5.964844 102.644531 4.914062 101.59375 4.914062 100.308594 L 4.914062 7 C 4.914062 5.714844 5.964844 4.664062 7.246094 4.664062 L 142.550781 4.664062 C 143.832031 4.664062 144.882812 5.714844 144.882812 7 L 144.882812 100.308594 C 144.882812 101.59375 143.832031 102.644531 142.550781 102.644531 L 136.132812 102.644531 C 136.019531 102.992188 135.785156 103.226562 135.550781 103.578125 C 135.316406 103.925781 134.96875 104.277344 134.617188 104.625 L 135.550781 107.425781 L 142.433594 107.425781 C 146.28125 107.425781 149.429688 104.277344 149.429688 100.425781 L 149.429688 7 C 149.546875 3.148438 146.398438 0 142.550781 0 Z M 142.550781 0 "/></g><path style=" stroke:none;fill-rule:nonzero;fill:#d9d9d9;fill-opacity:1;" d="M 29.410156 89.113281 C 29.410156 89.113281 29.410156 89.230469 29.410156 89.230469 C 29.410156 89.230469 29.410156 89.347656 29.410156 89.347656 C 29.410156 89.460938 29.410156 89.460938 29.410156 89.578125 C 29.410156 89.695312 29.410156 89.695312 29.410156 89.8125 C 29.410156 89.929688 29.410156 89.929688 29.527344 90.046875 C 29.527344 90.164062 29.527344 90.164062 29.640625 90.28125 C 29.640625 90.394531 29.757812 90.394531 29.757812 90.511719 C 29.757812 90.628906 29.875 90.628906 29.875 90.746094 C 29.875 90.863281 29.992188 90.863281 29.992188 90.980469 C 29.992188 90.980469 30.109375 91.097656 30.109375 91.097656 C 30.109375 91.097656 30.226562 91.210938 30.34375 91.210938 C 30.34375 91.210938 30.457031 91.328125 30.574219 91.328125 C 30.691406 91.328125 30.691406 91.445312 30.808594 91.445312 C 30.925781 91.445312 30.925781 91.5625 31.042969 91.5625 C 31.160156 91.5625 31.160156 91.5625 31.273438 91.679688 C 31.390625 91.679688 31.390625 91.679688 31.507812 91.679688 C 31.507812 91.679688 31.625 91.679688 31.625 91.679688 C 31.742188 91.679688 31.859375 91.679688 31.859375 91.679688 L 78.515625 91.679688 C 78.28125 91.328125 78.164062 90.980469 77.929688 90.628906 C 77.230469 89.460938 76.53125 88.296875 76.066406 87.011719 L 33.957031 87.011719 C 33.140625 79.546875 27.425781 73.714844 20.078125 72.667969 L 20.078125 33.59375 C 27.425781 32.542969 33.140625 26.59375 33.957031 19.246094 L 115.839844 19.246094 C 116.65625 26.710938 122.371094 32.542969 129.71875 33.59375 L 129.71875 60.417969 C 129.835938 60.417969 129.835938 60.535156 129.953125 60.535156 C 131.46875 61.234375 133.101562 61.9375 134.386719 63.101562 L 134.386719 31.492188 C 134.386719 30.210938 133.335938 29.160156 132.050781 29.160156 C 125.636719 29.160156 120.386719 23.910156 120.386719 17.496094 C 120.386719 17.378906 120.386719 17.261719 120.386719 17.144531 C 120.386719 17.144531 120.386719 17.03125 120.386719 17.03125 C 120.386719 17.03125 120.386719 16.914062 120.386719 16.914062 C 120.386719 16.914062 120.386719 16.796875 120.386719 16.796875 C 120.386719 16.679688 120.386719 16.679688 120.386719 16.5625 C 120.386719 16.445312 120.386719 16.445312 120.386719 16.328125 C 120.386719 16.214844 120.386719 16.214844 120.269531 16.097656 C 120.269531 15.980469 120.269531 15.980469 120.15625 15.863281 C 120.15625 15.746094 120.039062 15.746094 120.039062 15.628906 C 120.039062 15.511719 119.921875 15.511719 119.921875 15.394531 C 119.921875 15.28125 119.804688 15.28125 119.804688 15.164062 C 119.804688 15.164062 119.6875 15.046875 119.6875 15.046875 C 119.6875 15.046875 119.570312 14.929688 119.453125 14.929688 C 119.453125 14.929688 119.339844 14.8125 119.222656 14.8125 C 119.105469 14.8125 119.105469 14.695312 118.988281 14.695312 C 118.871094 14.695312 118.871094 14.578125 118.753906 14.578125 C 118.636719 14.578125 118.636719 14.578125 118.523438 14.464844 C 118.40625 14.464844 118.40625 14.464844 118.289062 14.464844 C 118.289062 14.464844 118.171875 14.464844 118.171875 14.464844 C 118.171875 14.464844 118.054688 14.464844 118.054688 14.464844 C 118.054688 14.464844 117.9375 14.464844 117.9375 14.464844 L 31.742188 14.464844 C 31.742188 14.464844 31.625 14.464844 31.625 14.464844 C 31.625 14.464844 31.507812 14.464844 31.507812 14.464844 C 31.507812 14.464844 31.390625 14.464844 31.390625 14.464844 C 31.273438 14.464844 31.273438 14.464844 31.160156 14.464844 C 31.042969 14.464844 31.042969 14.464844 30.925781 14.578125 C 30.808594 14.578125 30.808594 14.695312 30.691406 14.695312 C 30.574219 14.695312 30.574219 14.8125 30.457031 14.8125 C 30.34375 14.8125 30.34375 14.929688 30.226562 14.929688 C 30.109375 14.929688 30.109375 15.046875 29.992188 15.046875 C 29.992188 15.046875 29.875 15.164062 29.875 15.164062 C 29.875 15.164062 29.757812 15.28125 29.757812 15.394531 C 29.757812 15.511719 29.640625 15.511719 29.640625 15.628906 C 29.640625 15.746094 29.527344 15.746094 29.527344 15.863281 C 29.527344 15.980469 29.527344 15.980469 29.410156 16.097656 C 29.410156 16.214844 29.410156 16.214844 29.292969 16.328125 C 29.292969 16.445312 29.292969 16.445312 29.292969 16.5625 C 29.292969 16.679688 29.292969 16.679688 29.292969 16.796875 C 29.292969 16.796875 29.292969 16.914062 29.292969 16.914062 C 29.292969 16.914062 29.292969 17.03125 29.292969 17.03125 C 29.292969 17.03125 29.292969 17.144531 29.292969 17.144531 C 29.292969 17.261719 29.292969 17.378906 29.292969 17.496094 C 29.292969 23.910156 24.042969 29.160156 17.628906 29.160156 C 16.34375 29.160156 15.296875 30.210938 15.296875 31.492188 L 15.296875 74.648438 C 15.296875 75.933594 16.34375 76.980469 17.628906 76.980469 C 24.042969 76.980469 29.292969 82.230469 29.292969 88.644531 C 29.292969 88.761719 29.292969 88.878906 29.292969 88.996094 C 29.410156 88.996094 29.410156 88.996094 29.410156 89.113281 Z M 29.410156 89.113281 "/><g clip-rule="nonzero" clip-path="url(#1c7ce42f37)"><path style=" stroke:none;fill-rule:nonzero;fill:#d9d9d9;fill-opacity:1;" d="M 80.148438 129.820312 C 80.730469 130.402344 81.664062 130.753906 82.480469 130.519531 L 93.09375 127.835938 L 99.625 136.703125 C 100.09375 137.285156 100.792969 137.636719 101.492188 137.636719 C 101.609375 137.636719 101.726562 137.636719 101.84375 137.636719 C 102.660156 137.519531 103.359375 136.933594 103.707031 136.117188 L 106.273438 128.652344 L 103.824219 121.539062 L 100.792969 130.402344 L 96.011719 123.753906 C 95.542969 123.171875 94.84375 122.820312 94.144531 122.820312 C 93.910156 122.820312 93.792969 122.820312 93.5625 122.9375 L 85.746094 124.921875 L 92.746094 104.859375 C 92.976562 104.976562 93.328125 105.09375 93.445312 105.324219 C 94.027344 105.792969 94.609375 106.492188 95.308594 107.308594 C 96.476562 108.824219 97.875 110.574219 100.09375 111.273438 C 101.84375 111.859375 103.59375 111.507812 105.226562 111.15625 L 113.972656 136.234375 C 114.207031 137.050781 115.023438 137.636719 115.839844 137.75 C 115.957031 137.75 116.074219 137.75 116.1875 137.75 C 116.890625 137.75 117.589844 137.402344 118.054688 136.820312 L 124.585938 127.953125 L 135.203125 130.636719 C 136.019531 130.871094 136.949219 130.636719 137.535156 129.9375 C 138.117188 129.238281 138.351562 128.421875 138 127.605469 L 131.003906 107.425781 L 130.886719 107.191406 L 129.484375 102.992188 C 130.417969 102.527344 131.351562 101.828125 132.167969 100.777344 C 133.453125 99.027344 133.566406 96.8125 133.683594 94.945312 C 133.683594 93.894531 133.800781 92.84375 134.035156 92.144531 C 134.269531 91.445312 134.734375 90.628906 135.316406 89.8125 C 136.367188 88.179688 137.652344 86.3125 137.652344 84.097656 C 137.652344 81.882812 136.484375 79.898438 135.316406 78.382812 C 134.734375 77.566406 134.269531 76.75 134.035156 76.050781 C 133.800781 75.347656 133.800781 74.300781 133.683594 73.25 C 133.566406 71.382812 133.453125 69.167969 132.167969 67.417969 C 130.886719 65.550781 128.785156 64.851562 127.035156 64.152344 C 126.101562 63.800781 125.171875 63.453125 124.46875 62.984375 C 123.886719 62.519531 123.304688 61.820312 122.605469 61.003906 C 121.4375 59.488281 120.039062 57.738281 117.820312 57.035156 C 115.722656 56.335938 113.621094 56.921875 111.875 57.386719 C 110.824219 57.621094 109.890625 57.96875 109.074219 57.96875 C 108.257812 57.96875 107.324219 57.738281 106.273438 57.386719 C 104.410156 56.921875 102.308594 56.335938 100.324219 57.035156 C 98.109375 57.738281 96.828125 59.488281 95.542969 61.003906 C 94.84375 61.820312 94.261719 62.636719 93.675781 62.984375 C 93.09375 63.453125 92.160156 63.800781 91.113281 64.152344 C 89.363281 64.851562 87.261719 65.550781 85.980469 67.417969 C 84.695312 69.167969 84.578125 71.382812 84.464844 73.25 C 84.464844 74.300781 84.347656 75.347656 84.113281 76.050781 C 83.878906 76.75 83.414062 77.566406 82.828125 78.382812 C 81.78125 80.015625 80.496094 81.882812 80.496094 84.097656 C 80.496094 86.3125 81.664062 88.296875 82.828125 89.8125 C 83.414062 90.628906 83.878906 91.445312 84.113281 92.144531 C 84.347656 92.84375 84.347656 93.894531 84.464844 94.945312 C 84.578125 96.8125 84.695312 99.027344 85.980469 100.777344 C 86.679688 101.710938 87.613281 102.410156 88.660156 102.992188 L 87.261719 107.074219 L 86.679688 107.308594 L 79.679688 127.488281 C 79.449219 128.304688 79.5625 129.121094 80.148438 129.820312 Z M 131.933594 124.921875 L 124.121094 122.9375 C 123.1875 122.707031 122.253906 123.054688 121.671875 123.871094 L 116.890625 130.519531 L 109.890625 110.574219 C 110.472656 110.691406 111.058594 110.808594 111.640625 111.042969 C 112.921875 111.390625 114.207031 111.742188 115.605469 111.742188 C 116.304688 111.742188 117.003906 111.625 117.707031 111.390625 C 119.921875 110.691406 121.203125 108.941406 122.488281 107.425781 C 123.1875 106.609375 123.769531 105.792969 124.355469 105.441406 C 124.585938 105.324219 124.820312 105.09375 125.054688 104.976562 Z M 88.195312 90.628906 C 87.730469 89.347656 87.027344 88.179688 86.328125 87.128906 C 85.511719 85.964844 84.8125 84.796875 84.8125 83.980469 C 84.8125 83.164062 85.511719 81.996094 86.328125 80.832031 C 87.027344 79.78125 87.730469 78.617188 88.195312 77.332031 C 88.660156 76.050781 88.660156 74.648438 88.777344 73.367188 C 88.894531 71.96875 88.894531 70.683594 89.363281 69.984375 C 89.828125 69.285156 91.113281 68.816406 92.394531 68.351562 C 93.675781 67.882812 94.84375 67.417969 96.011719 66.601562 C 97.175781 65.785156 97.992188 64.734375 98.808594 63.683594 C 99.625 62.636719 100.558594 61.585938 101.375 61.234375 C 102.191406 61.003906 103.476562 61.351562 104.757812 61.703125 C 106.042969 62.050781 107.441406 62.402344 108.839844 62.402344 C 110.242188 62.402344 111.640625 62.050781 112.921875 61.703125 C 114.207031 61.351562 115.488281 61.003906 116.304688 61.234375 C 117.121094 61.46875 117.9375 62.519531 118.871094 63.683594 C 119.6875 64.734375 120.503906 65.785156 121.671875 66.601562 C 122.835938 67.417969 124.121094 67.882812 125.285156 68.351562 C 126.570312 68.816406 127.851562 69.285156 128.320312 69.984375 C 128.785156 70.683594 128.902344 71.96875 128.902344 73.367188 C 129.019531 74.648438 129.019531 76.050781 129.484375 77.449219 C 129.953125 78.730469 130.652344 79.898438 131.351562 80.949219 C 132.167969 82.113281 132.867188 83.28125 132.867188 84.097656 C 132.867188 84.914062 132.167969 86.082031 131.351562 87.246094 C 130.652344 88.296875 129.953125 89.460938 129.484375 90.746094 C 129.019531 92.027344 129.019531 93.429688 128.902344 94.710938 C 128.785156 96.109375 128.785156 97.394531 128.320312 98.09375 C 127.851562 98.792969 126.570312 99.261719 125.285156 99.726562 C 124.003906 100.195312 122.835938 100.660156 121.671875 101.476562 C 120.503906 102.292969 119.6875 103.34375 118.871094 104.394531 C 118.054688 105.441406 117.121094 106.492188 116.304688 106.84375 C 115.488281 107.074219 114.207031 106.726562 112.921875 106.375 C 111.640625 106.027344 110.242188 105.675781 108.839844 105.675781 C 107.441406 105.675781 106.042969 106.027344 104.757812 106.375 C 103.476562 106.726562 102.191406 107.074219 101.375 106.84375 C 100.558594 106.609375 99.742188 105.558594 98.808594 104.394531 C 97.992188 103.34375 97.175781 102.292969 96.011719 101.476562 C 94.84375 100.660156 93.5625 100.195312 92.394531 99.726562 C 91.113281 99.261719 89.828125 98.792969 89.363281 98.09375 C 88.894531 97.394531 88.777344 96.113281 88.777344 94.710938 C 88.660156 93.3125 88.660156 92.027344 88.195312 90.628906 Z M 88.195312 90.628906 "/></g><path style=" stroke:none;fill-rule:nonzero;fill:#d9d9d9;fill-opacity:1;" d="M 108.722656 100.308594 C 117.707031 100.308594 125.054688 92.960938 125.054688 83.980469 C 125.054688 75 117.707031 67.652344 108.722656 67.652344 C 99.742188 67.652344 92.394531 75 92.394531 83.980469 C 92.394531 92.960938 99.742188 100.308594 108.722656 100.308594 Z M 108.722656 72.316406 C 115.140625 72.316406 120.386719 77.566406 120.386719 83.980469 C 120.386719 90.394531 115.140625 95.644531 108.722656 95.644531 C 102.308594 95.644531 97.058594 90.394531 97.058594 83.980469 C 97.058594 77.566406 102.308594 72.316406 108.722656 72.316406 Z M 108.722656 72.316406 "/><path style=" stroke:none;fill-rule:nonzero;fill:#d9d9d9;fill-opacity:1;" d="M 16.578125 97.976562 C 21.128906 97.976562 24.742188 94.363281 24.742188 89.8125 C 24.742188 85.265625 21.128906 81.648438 16.578125 81.648438 C 12.03125 81.648438 8.414062 85.265625 8.414062 89.8125 C 8.414062 94.363281 12.03125 97.976562 16.578125 97.976562 Z M 16.578125 86.3125 C 18.5625 86.3125 20.078125 87.828125 20.078125 89.8125 C 20.078125 91.796875 18.5625 93.3125 16.578125 93.3125 C 14.59375 93.3125 13.078125 91.796875 13.078125 89.8125 C 13.078125 87.828125 14.59375 86.3125 16.578125 86.3125 Z M 16.578125 86.3125 "/><g clip-rule="nonzero" clip-path="url(#aced58cc9a)"><path style=" stroke:none;fill-rule:nonzero;fill:#d9d9d9;fill-opacity:1;" d="M 142.550781 0 L 7.246094 0 C 3.398438 0 0.25 3.148438 0.25 7 L 0.25 100.308594 C 0.25 104.160156 3.398438 107.308594 7.246094 107.308594 L 81.78125 107.308594 L 82.714844 104.507812 C 82.363281 104.160156 82.011719 103.808594 81.78125 103.460938 C 81.546875 103.226562 81.429688 102.875 81.3125 102.644531 L 7.246094 102.644531 C 5.964844 102.644531 4.914062 101.59375 4.914062 100.308594 L 4.914062 7 C 4.914062 5.714844 5.964844 4.664062 7.246094 4.664062 L 142.550781 4.664062 C 143.832031 4.664062 144.882812 5.714844 144.882812 7 L 144.882812 100.308594 C 144.882812 101.59375 143.832031 102.644531 142.550781 102.644531 L 136.132812 102.644531 C 136.019531 102.992188 135.785156 103.226562 135.550781 103.578125 C 135.316406 103.925781 134.96875 104.277344 134.617188 104.625 L 135.550781 107.425781 L 142.433594 107.425781 C 146.28125 107.425781 149.429688 104.277344 149.429688 100.425781 L 149.429688 7 C 149.546875 3.148438 146.398438 0 142.550781 0 Z M 142.550781 0 "/></g><g clip-rule="nonzero" clip-path="url(#34c73a8f66)"><path style=" stroke:none;fill-rule:nonzero;fill:#d9d9d9;fill-opacity:1;" d="M 29.410156 89.113281 C 29.410156 89.113281 29.410156 89.230469 29.410156 89.230469 C 29.410156 89.230469 29.410156 89.347656 29.410156 89.347656 C 29.410156 89.460938 29.410156 89.460938 29.410156 89.578125 C 29.410156 89.695312 29.410156 89.695312 29.410156 89.8125 C 29.410156 89.929688 29.410156 89.929688 29.527344 90.046875 C 29.527344 90.164062 29.527344 90.164062 29.640625 90.28125 C 29.640625 90.394531 29.757812 90.394531 29.757812 90.511719 C 29.757812 90.628906 29.875 90.628906 29.875 90.746094 C 29.875 90.863281 29.992188 90.863281 29.992188 90.980469 C 29.992188 90.980469 30.109375 91.097656 30.109375 91.097656 C 30.109375 91.097656 30.226562 91.210938 30.34375 91.210938 C 30.34375 91.210938 30.457031 91.328125 30.574219 91.328125 C 30.691406 91.328125 30.691406 91.445312 30.808594 91.445312 C 30.925781 91.445312 30.925781 91.5625 31.042969 91.5625 C 31.160156 91.5625 31.160156 91.5625 31.273438 91.679688 C 31.390625 91.679688 31.390625 91.679688 31.507812 91.679688 C 31.507812 91.679688 31.625 91.679688 31.625 91.679688 C 31.742188 91.679688 31.859375 91.679688 31.859375 91.679688 L 78.515625 91.679688 C 78.28125 91.328125 78.164062 90.980469 77.929688 90.628906 C 77.230469 89.460938 76.53125 88.296875 76.066406 87.011719 L 33.957031 87.011719 C 33.140625 79.546875 27.425781 73.714844 20.078125 72.667969 L 20.078125 33.59375 C 27.425781 32.542969 33.140625 26.59375 33.957031 19.246094 L 115.839844 19.246094 C 116.65625 26.710938 122.371094 32.542969 129.71875 33.59375 L 129.71875 60.417969 C 129.835938 60.417969 129.835938 60.535156 129.953125 60.535156 C 131.46875 61.234375 133.101562 61.9375 134.386719 63.101562 L 134.386719 31.492188 C 134.386719 30.210938 133.335938 29.160156 132.050781 29.160156 C 125.636719 29.160156 120.386719 23.910156 120.386719 17.496094 C 120.386719 17.378906 120.386719 17.261719 120.386719 17.144531 C 120.386719 17.144531 120.386719 17.03125 120.386719 17.03125 C 120.386719 17.03125 120.386719 16.914062 120.386719 16.914062 C 120.386719 16.914062 120.386719 16.796875 120.386719 16.796875 C 120.386719 16.679688 120.386719 16.679688 120.386719 16.5625 C 120.386719 16.445312 120.386719 16.445312 120.386719 16.328125 C 120.386719 16.214844 120.386719 16.214844 120.269531 16.097656 C 120.269531 15.980469 120.269531 15.980469 120.15625 15.863281 C 120.15625 15.746094 120.039062 15.746094 120.039062 15.628906 C 120.039062 15.511719 119.921875 15.511719 119.921875 15.394531 C 119.921875 15.28125 119.804688 15.28125 119.804688 15.164062 C 119.804688 15.164062 119.6875 15.046875 119.6875 15.046875 C 119.6875 15.046875 119.570312 14.929688 119.453125 14.929688 C 119.453125 14.929688 119.339844 14.8125 119.222656 14.8125 C 119.105469 14.8125 119.105469 14.695312 118.988281 14.695312 C 118.871094 14.695312 118.871094 14.578125 118.753906 14.578125 C 118.636719 14.578125 118.636719 14.578125 118.523438 14.464844 C 118.40625 14.464844 118.40625 14.464844 118.289062 14.464844 C 118.289062 14.464844 118.171875 14.464844 118.171875 14.464844 C 118.171875 14.464844 118.054688 14.464844 118.054688 14.464844 C 118.054688 14.464844 117.9375 14.464844 117.9375 14.464844 L 31.742188 14.464844 C 31.742188 14.464844 31.625 14.464844 31.625 14.464844 C 31.625 14.464844 31.507812 14.464844 31.507812 14.464844 C 31.507812 14.464844 31.390625 14.464844 31.390625 14.464844 C 31.273438 14.464844 31.273438 14.464844 31.160156 14.464844 C 31.042969 14.464844 31.042969 14.464844 30.925781 14.578125 C 30.808594 14.578125 30.808594 14.695312 30.691406 14.695312 C 30.574219 14.695312 30.574219 14.8125 30.457031 14.8125 C 30.34375 14.8125 30.34375 14.929688 30.226562 14.929688 C 30.109375 14.929688 30.109375 15.046875 29.992188 15.046875 C 29.992188 15.046875 29.875 15.164062 29.875 15.164062 C 29.875 15.164062 29.757812 15.28125 29.757812 15.394531 C 29.757812 15.511719 29.640625 15.511719 29.640625 15.628906 C 29.640625 15.746094 29.527344 15.746094 29.527344 15.863281 C 29.527344 15.980469 29.527344 15.980469 29.410156 16.097656 C 29.410156 16.214844 29.410156 16.214844 29.292969 16.328125 C 29.292969 16.445312 29.292969 16.445312 29.292969 16.5625 C 29.292969 16.679688 29.292969 16.679688 29.292969 16.796875 C 29.292969 16.796875 29.292969 16.914062 29.292969 16.914062 C 29.292969 16.914062 29.292969 17.03125 29.292969 17.03125 C 29.292969 17.03125 29.292969 17.144531 29.292969 17.144531 C 29.292969 17.261719 29.292969 17.378906 29.292969 17.496094 C 29.292969 23.910156 24.042969 29.160156 17.628906 29.160156 C 16.34375 29.160156 15.296875 30.210938 15.296875 31.492188 L 15.296875 74.648438 C 15.296875 75.933594 16.34375 76.980469 17.628906 76.980469 C 24.042969 76.980469 29.292969 82.230469 29.292969 88.644531 C 29.292969 88.761719 29.292969 88.878906 29.292969 88.996094 C 29.410156 88.996094 29.410156 88.996094 29.410156 89.113281 Z M 29.410156 89.113281 "/></g></g></svg>