<svg xmlns="http://www.w3.org/2000/svg" xmlns:xlink="http://www.w3.org/1999/xlink" width="236" zoomAndPan="magnify" viewBox="0 0 177 43.499998" height="58" preserveAspectRatio="xMidYMid meet" version="1.2"><defs><clipPath id="c1c7e6f8db"><path d="M 1.003906 0 L 175.253906 0 L 175.253906 42.265625 L 1.003906 42.265625 Z M 1.003906 0 "/></clipPath><clipPath id="f8b5657362"><path d="M 1.003906 0 L 84.792969 0 L 84.792969 42.265625 L 1.003906 42.265625 Z M 1.003906 0 "/></clipPath></defs><g id="e4f61c04fd"><g clip-rule="nonzero" clip-path="url(#c1c7e6f8db)"><path style=" stroke:none;fill-rule:nonzero;fill:#0b8841;fill-opacity:1;" d="M 93.574219 42.253906 C 86.5625 42.253906 79.476562 42.105469 72.464844 41.808594 C 65.230469 41.511719 57.917969 41.140625 50.683594 40.621094 C 43.523438 40.101562 36.289062 39.429688 29.277344 37.945312 C 25.769531 37.277344 22.339844 36.386719 18.980469 35.273438 C 15.625 34.234375 12.34375 32.824219 9.285156 31.117188 C 6.75 29.707031 4.363281 28.074219 2.496094 25.847656 C 2.050781 25.328125 1.675781 24.808594 1.453125 24.136719 C 1.15625 23.46875 1.003906 22.726562 1.003906 21.984375 C 1.003906 21.316406 1.230469 20.648438 1.453125 19.980469 C 1.675781 19.3125 2.050781 18.644531 2.347656 18.199219 C 2.722656 17.605469 3.167969 17.011719 3.691406 16.417969 C 4.289062 15.824219 4.960938 15.230469 5.703125 14.785156 C 7.046875 13.820312 8.539062 13.003906 10.03125 12.261719 C 11.597656 11.519531 13.164062 10.925781 14.730469 10.332031 C 16.371094 9.738281 18.011719 9.21875 19.652344 8.699219 C 23.085938 7.65625 26.589844 6.765625 30.097656 5.875 C 33.601562 5.058594 37.183594 4.316406 40.761719 3.648438 C 48 2.3125 55.308594 1.421875 62.617188 0.828125 C 66.273438 0.53125 69.929688 0.308594 73.660156 0.160156 C 77.3125 0.0117188 81.042969 0.0117188 84.773438 0.0117188 C 88.351562 0.0117188 91.933594 0.0859375 95.515625 0.308594 C 99.242188 0.457031 102.972656 0.753906 106.628906 1.125 C 110.058594 1.421875 113.492188 1.792969 116.921875 2.164062 C 119.382812 2.164062 121.917969 2.164062 124.382812 2.164062 C 128.035156 2.238281 131.617188 2.3125 135.269531 2.609375 C 138.703125 2.832031 142.207031 3.277344 145.640625 3.796875 C 149.21875 4.316406 152.726562 5.132812 156.230469 6.097656 C 157.871094 6.617188 159.589844 7.136719 161.15625 7.804688 C 162.722656 8.476562 164.214844 9.21875 165.703125 10.109375 C 167.195312 11 168.613281 11.964844 169.882812 13.152344 C 171.074219 14.265625 172.195312 15.601562 173.089844 17.011719 C 173.539062 17.679688 173.984375 18.421875 174.28125 19.164062 C 174.65625 19.90625 174.878906 20.722656 175.027344 21.539062 C 175.179688 22.355469 175.253906 23.246094 175.179688 24.136719 C 175.179688 24.585938 175.105469 24.957031 175.027344 25.328125 C 174.953125 25.699219 174.804688 26.144531 174.65625 26.515625 C 174.359375 27.257812 173.910156 27.925781 173.386719 28.519531 C 172.867188 29.113281 172.195312 29.707031 171.523438 30.152344 C 170.179688 31.117188 168.6875 31.933594 167.195312 32.675781 C 165.628906 33.417969 163.914062 34.011719 162.199219 34.53125 C 160.558594 35.050781 158.917969 35.496094 157.277344 35.867188 C 153.84375 36.683594 150.339844 37.351562 146.90625 37.945312 C 143.550781 38.539062 140.195312 39.058594 136.761719 39.503906 C 133.257812 40.027344 129.675781 40.398438 126.171875 40.769531 C 122.664062 41.140625 119.160156 41.363281 115.652344 41.585938 C 108.640625 41.957031 101.554688 42.03125 94.542969 42.03125 C 94.097656 42.253906 93.796875 42.253906 93.574219 42.253906 Z M 78.058594 40.398438 C 85.21875 40.621094 92.382812 40.695312 99.542969 40.621094 C 105.359375 40.546875 111.179688 40.472656 116.996094 40.101562 C 124.082031 39.652344 131.09375 38.835938 138.105469 37.871094 C 141.761719 37.351562 145.414062 36.757812 148.921875 36.089844 C 151.308594 35.644531 153.695312 35.125 156.082031 34.605469 C 158.394531 34.085938 160.632812 33.417969 162.871094 32.75 C 163.914062 32.378906 164.960938 32.007812 165.929688 31.5625 C 167.046875 31.042969 168.09375 30.449219 169.136719 29.78125 C 169.734375 29.410156 170.253906 29.039062 170.777344 28.59375 C 171.074219 28.371094 171.300781 28.148438 171.523438 27.851562 C 171.746094 27.628906 171.972656 27.332031 172.121094 27.109375 C 172.269531 26.886719 172.417969 26.589844 172.566406 26.292969 C 172.640625 26.070312 172.714844 25.847656 172.792969 25.625 C 172.867188 25.253906 172.941406 24.957031 172.941406 24.585938 C 172.941406 24.140625 172.941406 23.691406 172.941406 23.171875 C 172.867188 22.578125 172.792969 21.984375 172.640625 21.390625 C 172.492188 20.871094 172.34375 20.425781 172.121094 19.90625 C 171.746094 19.164062 171.375 18.496094 171.074219 17.976562 C 170.554688 17.234375 170.03125 16.492188 169.507812 15.898438 C 168.914062 15.230469 168.242188 14.5625 167.570312 13.96875 C 166.824219 13.300781 166.003906 12.707031 165.109375 12.1875 C 163.765625 11.371094 162.421875 10.554688 161.082031 9.960938 C 159.589844 9.292969 158.023438 8.699219 156.457031 8.179688 C 156.457031 8.179688 156.457031 8.179688 156.382812 8.179688 C 153.472656 7.285156 150.414062 6.542969 147.429688 5.949219 C 143.027344 5.132812 138.554688 4.613281 134.078125 4.316406 C 132.363281 4.242188 130.570312 4.167969 128.855469 4.09375 C 132.363281 4.6875 135.941406 5.28125 139.449219 6.023438 C 143.105469 6.765625 146.683594 7.65625 150.265625 8.699219 C 151.757812 9.144531 153.171875 9.589844 154.589844 10.109375 C 156.007812 10.554688 157.425781 11.148438 158.769531 11.742188 C 160.183594 12.335938 161.527344 13.003906 162.871094 13.671875 C 163.46875 13.96875 164.136719 14.339844 164.734375 14.710938 C 165.035156 14.859375 165.332031 15.082031 165.554688 15.304688 C 165.78125 15.527344 165.929688 15.675781 166.003906 16.046875 C 166.003906 16.492188 165.480469 16.789062 165.035156 16.714844 C 164.660156 16.640625 164.363281 16.492188 164.0625 16.269531 C 163.691406 16.046875 163.394531 15.898438 163.019531 15.675781 C 162.199219 15.230469 161.304688 14.785156 160.484375 14.414062 C 159.066406 13.746094 157.722656 13.152344 156.304688 12.558594 C 154.816406 11.964844 153.398438 11.445312 151.90625 11 C 149.21875 10.183594 146.460938 9.441406 143.699219 8.773438 C 140.941406 8.101562 138.105469 7.507812 135.421875 6.988281 C 128.78125 5.726562 122.070312 4.761719 115.355469 3.945312 C 114.3125 3.945312 113.339844 3.945312 112.296875 4.019531 C 109.910156 4.09375 107.523438 4.167969 105.136719 4.167969 C 102.527344 4.242188 99.988281 4.316406 97.527344 4.464844 C 93.949219 4.6875 90.367188 4.910156 86.785156 5.207031 C 86.414062 5.207031 85.890625 5.058594 85.816406 4.613281 C 85.742188 4.167969 86.117188 3.796875 86.488281 3.796875 C 89.398438 3.574219 92.230469 3.351562 95.140625 3.203125 C 95.886719 3.128906 96.558594 3.128906 97.304688 3.054688 C 97.675781 3.054688 98.125 2.980469 98.496094 2.980469 C 98.648438 2.980469 98.796875 2.980469 98.945312 2.980469 C 99.09375 2.980469 99.242188 2.980469 99.316406 2.980469 C 99.316406 2.980469 99.394531 2.980469 99.394531 2.980469 C 99.46875 2.980469 99.46875 2.980469 99.542969 2.980469 C 100.363281 2.90625 101.257812 2.90625 102.003906 2.832031 C 102.300781 2.832031 102.601562 2.757812 102.898438 2.757812 C 101.554688 2.683594 100.214844 2.535156 99.019531 2.460938 C 95.289062 2.238281 91.558594 2.089844 87.90625 2.015625 C 84.25 1.941406 80.59375 1.941406 76.941406 2.015625 C 73.433594 2.089844 69.855469 2.238281 66.496094 2.460938 C 59.039062 2.980469 51.578125 3.722656 44.195312 4.910156 C 42.777344 5.132812 41.359375 5.429688 39.941406 5.652344 C 36.4375 6.320312 32.855469 7.0625 29.425781 7.953125 C 25.992188 8.847656 22.5625 9.738281 19.132812 10.777344 C 18.238281 11.074219 17.339844 11.296875 16.519531 11.59375 L 16.445312 11.59375 C 14.730469 12.1875 12.941406 12.78125 11.300781 13.597656 C 10.105469 14.191406 8.914062 14.785156 7.867188 15.453125 C 7.121094 15.898438 6.449219 16.417969 5.78125 17.011719 C 5.480469 17.308594 5.183594 17.605469 4.882812 17.902344 C 4.585938 18.273438 4.214844 18.71875 3.988281 19.089844 C 3.691406 19.535156 3.46875 19.980469 3.242188 20.5 C 3.167969 20.796875 3.019531 21.019531 2.945312 21.316406 C 2.871094 21.613281 2.871094 21.835938 2.796875 22.132812 C 2.796875 22.28125 2.796875 22.429688 2.796875 22.652344 C 2.796875 22.800781 2.871094 23.023438 2.871094 23.171875 C 2.945312 23.394531 3.019531 23.617188 3.09375 23.839844 C 3.167969 24.066406 3.316406 24.214844 3.394531 24.4375 C 3.691406 24.808594 3.914062 25.179688 4.289062 25.550781 C 4.734375 25.996094 5.183594 26.515625 5.628906 26.886719 C 6.449219 27.554688 7.269531 28.222656 8.167969 28.742188 C 9.734375 29.707031 11.300781 30.523438 12.941406 31.339844 C 13.984375 31.859375 15.105469 32.304688 16.222656 32.75 C 17.414062 33.195312 18.609375 33.640625 19.804688 34.011719 C 23.382812 35.125 26.964844 36.015625 30.542969 36.683594 C 37.628906 38.019531 44.714844 38.6875 51.878906 39.207031 C 52.921875 39.28125 53.964844 39.355469 54.9375 39.429688 C 55.308594 39.429688 55.683594 39.503906 55.980469 39.503906 C 63.515625 39.878906 70.824219 40.175781 78.058594 40.398438 Z M 78.058594 40.398438 "/></g><g clip-rule="nonzero" clip-path="url(#f8b5657362)"><path style=" stroke:none;fill-rule:nonzero;fill:#0b8841;fill-opacity:1;" d="M 93.574219 42.253906 C 86.5625 42.253906 79.476562 42.105469 72.464844 41.808594 C 65.230469 41.511719 57.917969 41.140625 50.683594 40.621094 C 43.523438 40.101562 36.289062 39.429688 29.277344 37.945312 C 25.769531 37.277344 22.339844 36.386719 18.980469 35.273438 C 15.625 34.234375 12.34375 32.824219 9.285156 31.117188 C 6.75 29.707031 4.363281 28.074219 2.496094 25.847656 C 2.050781 25.328125 1.675781 24.808594 1.453125 24.136719 C 1.15625 23.46875 1.003906 22.726562 1.003906 21.984375 C 1.003906 21.316406 1.230469 20.648438 1.453125 19.980469 C 1.675781 19.3125 2.050781 18.644531 2.347656 18.199219 C 2.722656 17.605469 3.167969 17.011719 3.691406 16.417969 C 4.289062 15.824219 4.960938 15.230469 5.703125 14.785156 C 7.046875 13.820312 8.539062 13.003906 10.03125 12.261719 C 11.597656 11.519531 13.164062 10.925781 14.730469 10.332031 C 16.371094 9.738281 18.011719 9.21875 19.652344 8.699219 C 23.085938 7.65625 26.589844 6.765625 30.097656 5.875 C 33.601562 5.058594 37.183594 4.316406 40.761719 3.648438 C 48 2.3125 55.308594 1.421875 62.617188 0.828125 C 66.273438 0.53125 69.929688 0.308594 73.660156 0.160156 C 77.3125 0.0117188 81.042969 0.0117188 84.773438 0.0117188 C 88.351562 0.0117188 91.933594 0.0859375 95.515625 0.308594 C 99.242188 0.457031 102.972656 0.753906 106.628906 1.125 C 110.058594 1.421875 113.492188 1.792969 116.921875 2.164062 C 119.382812 2.164062 121.917969 2.164062 124.382812 2.164062 C 128.035156 2.238281 131.617188 2.3125 135.269531 2.609375 C 138.703125 2.832031 142.207031 3.277344 145.640625 3.796875 C 149.21875 4.316406 152.726562 5.132812 156.230469 6.097656 C 157.871094 6.617188 159.589844 7.136719 161.15625 7.804688 C 162.722656 8.476562 164.214844 9.21875 165.703125 10.109375 C 167.195312 11 168.613281 11.964844 169.882812 13.152344 C 171.074219 14.265625 172.195312 15.601562 173.089844 17.011719 C 173.539062 17.679688 173.984375 18.421875 174.28125 19.164062 C 174.65625 19.90625 174.878906 20.722656 175.027344 21.539062 C 175.179688 22.355469 175.253906 23.246094 175.179688 24.136719 C 175.179688 24.585938 175.105469 24.957031 175.027344 25.328125 C 174.953125 25.699219 174.804688 26.144531 174.65625 26.515625 C 174.359375 27.257812 173.910156 27.925781 173.386719 28.519531 C 172.867188 29.113281 172.195312 29.707031 171.523438 30.152344 C 170.179688 31.117188 168.6875 31.933594 167.195312 32.675781 C 165.628906 33.417969 163.914062 34.011719 162.199219 34.53125 C 160.558594 35.050781 158.917969 35.496094 157.277344 35.867188 C 153.84375 36.683594 150.339844 37.351562 146.90625 37.945312 C 143.550781 38.539062 140.195312 39.058594 136.761719 39.503906 C 133.257812 40.027344 129.675781 40.398438 126.171875 40.769531 C 122.664062 41.140625 119.160156 41.363281 115.652344 41.585938 C 108.640625 41.957031 101.554688 42.03125 94.542969 42.03125 C 94.097656 42.253906 93.796875 42.253906 93.574219 42.253906 Z M 78.058594 40.398438 C 85.21875 40.621094 92.382812 40.695312 99.542969 40.621094 C 105.359375 40.546875 111.179688 40.472656 116.996094 40.101562 C 124.082031 39.652344 131.09375 38.835938 138.105469 37.871094 C 141.761719 37.351562 145.414062 36.757812 148.921875 36.089844 C 151.308594 35.644531 153.695312 35.125 156.082031 34.605469 C 158.394531 34.085938 160.632812 33.417969 162.871094 32.75 C 163.914062 32.378906 164.960938 32.007812 165.929688 31.5625 C 167.046875 31.042969 168.09375 30.449219 169.136719 29.78125 C 169.734375 29.410156 170.253906 29.039062 170.777344 28.59375 C 171.074219 28.371094 171.300781 28.148438 171.523438 27.851562 C 171.746094 27.628906 171.972656 27.332031 172.121094 27.109375 C 172.269531 26.886719 172.417969 26.589844 172.566406 26.292969 C 172.640625 26.070312 172.714844 25.847656 172.792969 25.625 C 172.867188 25.253906 172.941406 24.957031 172.941406 24.585938 C 172.941406 24.140625 172.941406 23.691406 172.941406 23.171875 C 172.867188 22.578125 172.792969 21.984375 172.640625 21.390625 C 172.492188 20.871094 172.34375 20.425781 172.121094 19.90625 C 171.746094 19.164062 171.375 18.496094 171.074219 17.976562 C 170.554688 17.234375 170.03125 16.492188 169.507812 15.898438 C 168.914062 15.230469 168.242188 14.5625 167.570312 13.96875 C 166.824219 13.300781 166.003906 12.707031 165.109375 12.1875 C 163.765625 11.371094 162.421875 10.554688 161.082031 9.960938 C 159.589844 9.292969 158.023438 8.699219 156.457031 8.179688 C 156.457031 8.179688 156.457031 8.179688 156.382812 8.179688 C 153.472656 7.285156 150.414062 6.542969 147.429688 5.949219 C 143.027344 5.132812 138.554688 4.613281 134.078125 4.316406 C 132.363281 4.242188 130.570312 4.167969 128.855469 4.09375 C 132.363281 4.6875 135.941406 5.28125 139.449219 6.023438 C 143.105469 6.765625 146.683594 7.65625 150.265625 8.699219 C 151.757812 9.144531 153.171875 9.589844 154.589844 10.109375 C 156.007812 10.554688 157.425781 11.148438 158.769531 11.742188 C 160.183594 12.335938 161.527344 13.003906 162.871094 13.671875 C 163.46875 13.96875 164.136719 14.339844 164.734375 14.710938 C 165.035156 14.859375 165.332031 15.082031 165.554688 15.304688 C 165.78125 15.527344 165.929688 15.675781 166.003906 16.046875 C 166.003906 16.492188 165.480469 16.789062 165.035156 16.714844 C 164.660156 16.640625 164.363281 16.492188 164.0625 16.269531 C 163.691406 16.046875 163.394531 15.898438 163.019531 15.675781 C 162.199219 15.230469 161.304688 14.785156 160.484375 14.414062 C 159.066406 13.746094 157.722656 13.152344 156.304688 12.558594 C 154.816406 11.964844 153.398438 11.445312 151.90625 11 C 149.21875 10.183594 146.460938 9.441406 143.699219 8.773438 C 140.941406 8.101562 138.105469 7.507812 135.421875 6.988281 C 128.78125 5.726562 122.070312 4.761719 115.355469 3.945312 C 114.3125 3.945312 113.339844 3.945312 112.296875 4.019531 C 109.910156 4.09375 107.523438 4.167969 105.136719 4.167969 C 102.527344 4.242188 99.988281 4.316406 97.527344 4.464844 C 93.949219 4.6875 90.367188 4.910156 86.785156 5.207031 C 86.414062 5.207031 85.890625 5.058594 85.816406 4.613281 C 85.742188 4.167969 86.117188 3.796875 86.488281 3.796875 C 89.398438 3.574219 92.230469 3.351562 95.140625 3.203125 C 95.886719 3.128906 96.558594 3.128906 97.304688 3.054688 C 97.675781 3.054688 98.125 2.980469 98.496094 2.980469 C 98.648438 2.980469 98.796875 2.980469 98.945312 2.980469 C 99.09375 2.980469 99.242188 2.980469 99.316406 2.980469 C 99.316406 2.980469 99.394531 2.980469 99.394531 2.980469 C 99.46875 2.980469 99.46875 2.980469 99.542969 2.980469 C 100.363281 2.90625 101.257812 2.90625 102.003906 2.832031 C 102.300781 2.832031 102.601562 2.757812 102.898438 2.757812 C 101.554688 2.683594 100.214844 2.535156 99.019531 2.460938 C 95.289062 2.238281 91.558594 2.089844 87.90625 2.015625 C 84.25 1.941406 80.59375 1.941406 76.941406 2.015625 C 73.433594 2.089844 69.855469 2.238281 66.496094 2.460938 C 59.039062 2.980469 51.578125 3.722656 44.195312 4.910156 C 42.777344 5.132812 41.359375 5.429688 39.941406 5.652344 C 36.4375 6.320312 32.855469 7.0625 29.425781 7.953125 C 25.992188 8.847656 22.5625 9.738281 19.132812 10.777344 C 18.238281 11.074219 17.339844 11.296875 16.519531 11.59375 L 16.445312 11.59375 C 14.730469 12.1875 12.941406 12.78125 11.300781 13.597656 C 10.105469 14.191406 8.914062 14.785156 7.867188 15.453125 C 7.121094 15.898438 6.449219 16.417969 5.78125 17.011719 C 5.480469 17.308594 5.183594 17.605469 4.882812 17.902344 C 4.585938 18.273438 4.214844 18.71875 3.988281 19.089844 C 3.691406 19.535156 3.46875 19.980469 3.242188 20.5 C 3.167969 20.796875 3.019531 21.019531 2.945312 21.316406 C 2.871094 21.613281 2.871094 21.835938 2.796875 22.132812 C 2.796875 22.28125 2.796875 22.429688 2.796875 22.652344 C 2.796875 22.800781 2.871094 23.023438 2.871094 23.171875 C 2.945312 23.394531 3.019531 23.617188 3.09375 23.839844 C 3.167969 24.066406 3.316406 24.214844 3.394531 24.4375 C 3.691406 24.808594 3.914062 25.179688 4.289062 25.550781 C 4.734375 25.996094 5.183594 26.515625 5.628906 26.886719 C 6.449219 27.554688 7.269531 28.222656 8.167969 28.742188 C 9.734375 29.707031 11.300781 30.523438 12.941406 31.339844 C 13.984375 31.859375 15.105469 32.304688 16.222656 32.75 C 17.414062 33.195312 18.609375 33.640625 19.804688 34.011719 C 23.382812 35.125 26.964844 36.015625 30.542969 36.683594 C 37.628906 38.019531 44.714844 38.6875 51.878906 39.207031 C 52.921875 39.28125 53.964844 39.355469 54.9375 39.429688 C 55.308594 39.429688 55.683594 39.503906 55.980469 39.503906 C 63.515625 39.878906 70.824219 40.175781 78.058594 40.398438 Z M 78.058594 40.398438 "/></g></g></svg>