<svg xmlns="http://www.w3.org/2000/svg" xmlns:xlink="http://www.w3.org/1999/xlink" width="162" zoomAndPan="magnify" viewBox="0 0 121.5 121.499994" height="162" preserveAspectRatio="xMidYMid meet" version="1.2"><defs><clipPath id="b2682ce355"><path d="M 0 0 L 120.253906 0 L 120.253906 120.253906 L 0 120.253906 Z M 0 0 "/></clipPath><clipPath id="30baac74c8"><path d="M 0 0 L 120.253906 0 L 120.253906 64.234375 L 0 64.234375 Z M 0 0 "/></clipPath><clipPath id="45f17574f3"><path d="M 26 25 L 79 25 L 79 64.234375 L 26 64.234375 Z M 26 25 "/></clipPath><clipPath id="8870cae04f"><path d="M 67 36 L 91 36 L 91 64.234375 L 67 64.234375 Z M 67 36 "/></clipPath></defs><g id="69756cee28"><g clip-rule="nonzero" clip-path="url(#b2682ce355)"><path style=" stroke:none;fill-rule:nonzero;fill:#0b8841;fill-opacity:1;" d="M 120.253906 60.128906 C 120.253906 62.097656 120.160156 64.0625 119.964844 66.019531 C 119.773438 67.980469 119.484375 69.925781 119.101562 71.859375 C 118.714844 73.789062 118.238281 75.695312 117.667969 77.582031 C 117.09375 79.464844 116.433594 81.316406 115.679688 83.136719 C 114.925781 84.957031 114.082031 86.734375 113.15625 88.472656 C 112.226562 90.207031 111.214844 91.894531 110.121094 93.53125 C 109.027344 95.171875 107.855469 96.75 106.605469 98.273438 C 105.359375 99.792969 104.035156 101.25 102.644531 102.644531 C 101.25 104.035156 99.792969 105.359375 98.273438 106.605469 C 96.75 107.855469 95.171875 109.027344 93.53125 110.121094 C 91.894531 111.214844 90.207031 112.226562 88.472656 113.15625 C 86.734375 114.082031 84.957031 114.925781 83.136719 115.679688 C 81.316406 116.433594 79.464844 117.09375 77.582031 117.667969 C 75.695312 118.238281 73.789062 118.714844 71.859375 119.101562 C 69.925781 119.484375 67.980469 119.773438 66.019531 119.964844 C 64.0625 120.160156 62.097656 120.253906 60.128906 120.253906 C 58.160156 120.253906 56.195312 120.160156 54.234375 119.964844 C 52.273438 119.773438 50.328125 119.484375 48.398438 119.101562 C 46.464844 118.714844 44.558594 118.238281 42.671875 117.667969 C 40.789062 117.09375 38.9375 116.433594 37.117188 115.679688 C 35.296875 114.925781 33.519531 114.082031 31.785156 113.15625 C 30.046875 112.226562 28.359375 111.214844 26.722656 110.121094 C 25.085938 109.027344 23.503906 107.855469 21.984375 106.605469 C 20.460938 105.359375 19.003906 104.035156 17.609375 102.644531 C 16.21875 101.25 14.898438 99.792969 13.648438 98.273438 C 12.398438 96.75 11.226562 95.171875 10.132812 93.53125 C 9.039062 91.894531 8.027344 90.207031 7.101562 88.472656 C 6.171875 86.734375 5.332031 84.957031 4.578125 83.136719 C 3.824219 81.316406 3.160156 79.464844 2.589844 77.582031 C 2.015625 75.695312 1.539062 73.789062 1.15625 71.859375 C 0.769531 69.925781 0.484375 67.980469 0.289062 66.019531 C 0.0976562 64.0625 0 62.097656 0 60.128906 C 0 58.160156 0.0976562 56.195312 0.289062 54.234375 C 0.484375 52.273438 0.769531 50.328125 1.15625 48.398438 C 1.539062 46.464844 2.015625 44.558594 2.589844 42.671875 C 3.160156 40.789062 3.824219 38.9375 4.578125 37.117188 C 5.332031 35.296875 6.171875 33.519531 7.101562 31.785156 C 8.027344 30.046875 9.039062 28.359375 10.132812 26.722656 C 11.226562 25.085938 12.398438 23.503906 13.648438 21.984375 C 14.898438 20.460938 16.21875 19.003906 17.609375 17.609375 C 19.003906 16.21875 20.460938 14.898438 21.984375 13.648438 C 23.503906 12.398438 25.085938 11.226562 26.722656 10.132812 C 28.359375 9.039062 30.046875 8.027344 31.785156 7.101562 C 33.519531 6.171875 35.296875 5.332031 37.117188 4.578125 C 38.9375 3.824219 40.789062 3.160156 42.671875 2.589844 C 44.558594 2.015625 46.464844 1.539062 48.398438 1.15625 C 50.328125 0.769531 52.273438 0.484375 54.234375 0.289062 C 56.195312 0.0976562 58.160156 0 60.128906 0 C 62.097656 0 64.0625 0.0976562 66.019531 0.289062 C 67.980469 0.484375 69.925781 0.769531 71.859375 1.15625 C 73.789062 1.539062 75.695312 2.015625 77.582031 2.589844 C 79.464844 3.160156 81.316406 3.824219 83.136719 4.578125 C 84.957031 5.332031 86.734375 6.171875 88.472656 7.101562 C 90.207031 8.027344 91.894531 9.039062 93.53125 10.132812 C 95.171875 11.226562 96.75 12.398438 98.273438 13.648438 C 99.792969 14.898438 101.25 16.21875 102.644531 17.609375 C 104.035156 19.003906 105.359375 20.460938 106.605469 21.984375 C 107.855469 23.503906 109.027344 25.085938 110.121094 26.722656 C 111.214844 28.359375 112.226562 30.046875 113.15625 31.785156 C 114.082031 33.519531 114.925781 35.296875 115.679688 37.117188 C 116.433594 38.9375 117.09375 40.789062 117.667969 42.671875 C 118.238281 44.558594 118.714844 46.464844 119.101562 48.398438 C 119.484375 50.328125 119.773438 52.273438 119.964844 54.234375 C 120.160156 56.195312 120.253906 58.160156 120.253906 60.128906 Z M 120.253906 60.128906 "/></g><path style=" stroke:none;fill-rule:evenodd;fill:#fefefe;fill-opacity:1;" d="M 78.046875 43.613281 L 78.046875 29.863281 C 78.046875 27.699219 76.28125 25.933594 74.117188 25.933594 L 30.785156 25.933594 C 28.582031 25.933594 26.816406 27.699219 26.816406 29.863281 L 26.816406 90.390625 C 26.816406 92.554688 28.582031 94.320312 30.785156 94.320312 L 74.117188 94.320312 C 76.28125 94.320312 78.046875 92.554688 78.046875 90.390625 L 78.046875 80.691406 L 77.164062 83.375 L 76.804688 84.460938 L 76.761719 84.621094 L 76.644531 84.578125 L 67.664062 92.957031 L 65.78125 81.011719 L 65.699219 80.972656 L 65.78125 80.8125 L 66.140625 79.730469 Z M 35.074219 31.304688 L 69.789062 31.304688 L 69.789062 36.679688 L 35.074219 36.679688 Z M 33.871094 44.414062 C 33.511719 44.414062 33.230469 44.695312 33.230469 45.09375 C 33.230469 45.457031 33.511719 45.738281 33.871094 45.738281 L 66.140625 45.738281 C 66.5 45.738281 66.78125 45.457031 66.78125 45.09375 C 66.78125 44.695312 66.5 44.414062 66.140625 44.414062 Z M 33.871094 53.914062 C 33.511719 53.914062 33.230469 54.195312 33.230469 54.554688 C 33.230469 54.957031 33.511719 55.238281 33.871094 55.238281 L 66.140625 55.238281 C 66.5 55.238281 66.78125 54.957031 66.78125 54.554688 C 66.78125 54.195312 66.5 53.914062 66.140625 53.914062 Z M 33.871094 63.414062 C 33.511719 63.414062 33.230469 63.695312 33.230469 64.054688 C 33.230469 64.417969 33.511719 64.738281 33.871094 64.738281 L 66.140625 64.738281 C 66.5 64.738281 66.78125 64.417969 66.78125 64.054688 C 66.78125 63.695312 66.5 63.414062 66.140625 63.414062 Z M 33.871094 72.875 C 33.511719 72.875 33.230469 73.195312 33.230469 73.554688 C 33.230469 73.917969 33.511719 74.238281 33.871094 74.238281 L 62.292969 74.238281 C 62.652344 74.238281 62.972656 73.917969 62.972656 73.554688 C 62.972656 73.195312 62.652344 72.875 62.292969 72.875 Z M 33.871094 82.375 C 33.511719 82.375 33.230469 82.695312 33.230469 83.054688 C 33.230469 83.417969 33.511719 83.699219 33.871094 83.699219 L 59.925781 83.699219 C 60.289062 83.699219 60.570312 83.417969 60.570312 83.054688 C 60.570312 82.695312 60.289062 82.375 59.925781 82.375 Z M 33.871094 82.375 "/><path style=" stroke:none;fill-rule:evenodd;fill:#fefefe;fill-opacity:1;" d="M 90.230469 39.5625 L 75.882812 82.9375 L 67.382812 80.128906 L 81.691406 36.757812 Z M 75.199219 84.136719 L 68.585938 90.273438 L 67.222656 81.492188 Z M 75.199219 84.136719 "/><path style=" stroke:none;fill-rule:evenodd;fill:#fefefe;fill-opacity:1;" d="M 84.929688 27.007812 L 93.421875 29.8125 L 90.617188 38.304688 L 82.125 35.5 Z M 84.929688 27.007812 "/><g clip-rule="nonzero" clip-path="url(#30baac74c8)"><path style=" stroke:none;fill-rule:nonzero;fill:#0b8841;fill-opacity:1;" d="M 120.253906 60.128906 C 120.253906 62.097656 120.160156 64.0625 119.964844 66.019531 C 119.773438 67.980469 119.484375 69.925781 119.101562 71.859375 C 118.714844 73.789062 118.238281 75.695312 117.667969 77.582031 C 117.09375 79.464844 116.433594 81.316406 115.679688 83.136719 C 114.925781 84.957031 114.082031 86.734375 113.15625 88.472656 C 112.226562 90.207031 111.214844 91.894531 110.121094 93.53125 C 109.027344 95.171875 107.855469 96.75 106.605469 98.273438 C 105.359375 99.792969 104.035156 101.25 102.644531 102.644531 C 101.25 104.035156 99.792969 105.359375 98.273438 106.605469 C 96.75 107.855469 95.171875 109.027344 93.53125 110.121094 C 91.894531 111.214844 90.207031 112.226562 88.472656 113.15625 C 86.734375 114.082031 84.957031 114.925781 83.136719 115.679688 C 81.316406 116.433594 79.464844 117.09375 77.582031 117.667969 C 75.695312 118.238281 73.789062 118.714844 71.859375 119.101562 C 69.925781 119.484375 67.980469 119.773438 66.019531 119.964844 C 64.0625 120.160156 62.097656 120.253906 60.128906 120.253906 C 58.160156 120.253906 56.195312 120.160156 54.234375 119.964844 C 52.273438 119.773438 50.328125 119.484375 48.398438 119.101562 C 46.464844 118.714844 44.558594 118.238281 42.671875 117.667969 C 40.789062 117.09375 38.9375 116.433594 37.117188 115.679688 C 35.296875 114.925781 33.519531 114.082031 31.785156 113.15625 C 30.046875 112.226562 28.359375 111.214844 26.722656 110.121094 C 25.085938 109.027344 23.503906 107.855469 21.984375 106.605469 C 20.460938 105.359375 19.003906 104.035156 17.609375 102.644531 C 16.21875 101.25 14.898438 99.792969 13.648438 98.273438 C 12.398438 96.75 11.226562 95.171875 10.132812 93.53125 C 9.039062 91.894531 8.027344 90.207031 7.101562 88.472656 C 6.171875 86.734375 5.332031 84.957031 4.578125 83.136719 C 3.824219 81.316406 3.160156 79.464844 2.589844 77.582031 C 2.015625 75.695312 1.539062 73.789062 1.15625 71.859375 C 0.769531 69.925781 0.484375 67.980469 0.289062 66.019531 C 0.0976562 64.0625 0 62.097656 0 60.128906 C 0 58.160156 0.0976562 56.195312 0.289062 54.234375 C 0.484375 52.273438 0.769531 50.328125 1.15625 48.398438 C 1.539062 46.464844 2.015625 44.558594 2.589844 42.671875 C 3.160156 40.789062 3.824219 38.9375 4.578125 37.117188 C 5.332031 35.296875 6.171875 33.519531 7.101562 31.785156 C 8.027344 30.046875 9.039062 28.359375 10.132812 26.722656 C 11.226562 25.085938 12.398438 23.503906 13.648438 21.984375 C 14.898438 20.460938 16.21875 19.003906 17.609375 17.609375 C 19.003906 16.21875 20.460938 14.898438 21.984375 13.648438 C 23.503906 12.398438 25.085938 11.226562 26.722656 10.132812 C 28.359375 9.039062 30.046875 8.027344 31.785156 7.101562 C 33.519531 6.171875 35.296875 5.332031 37.117188 4.578125 C 38.9375 3.824219 40.789062 3.160156 42.671875 2.589844 C 44.558594 2.015625 46.464844 1.539062 48.398438 1.15625 C 50.328125 0.769531 52.273438 0.484375 54.234375 0.289062 C 56.195312 0.0976562 58.160156 0 60.128906 0 C 62.097656 0 64.0625 0.0976562 66.019531 0.289062 C 67.980469 0.484375 69.925781 0.769531 71.859375 1.15625 C 73.789062 1.539062 75.695312 2.015625 77.582031 2.589844 C 79.464844 3.160156 81.316406 3.824219 83.136719 4.578125 C 84.957031 5.332031 86.734375 6.171875 88.472656 7.101562 C 90.207031 8.027344 91.894531 9.039062 93.53125 10.132812 C 95.171875 11.226562 96.75 12.398438 98.273438 13.648438 C 99.792969 14.898438 101.25 16.21875 102.644531 17.609375 C 104.035156 19.003906 105.359375 20.460938 106.605469 21.984375 C 107.855469 23.503906 109.027344 25.085938 110.121094 26.722656 C 111.214844 28.359375 112.226562 30.046875 113.15625 31.785156 C 114.082031 33.519531 114.925781 35.296875 115.679688 37.117188 C 116.433594 38.9375 117.09375 40.789062 117.667969 42.671875 C 118.238281 44.558594 118.714844 46.464844 119.101562 48.398438 C 119.484375 50.328125 119.773438 52.273438 119.964844 54.234375 C 120.160156 56.195312 120.253906 58.160156 120.253906 60.128906 Z M 120.253906 60.128906 "/></g><g clip-rule="nonzero" clip-path="url(#45f17574f3)"><path style=" stroke:none;fill-rule:evenodd;fill:#fefefe;fill-opacity:1;" d="M 78.046875 43.613281 L 78.046875 29.863281 C 78.046875 27.699219 76.28125 25.933594 74.117188 25.933594 L 30.785156 25.933594 C 28.582031 25.933594 26.816406 27.699219 26.816406 29.863281 L 26.816406 90.390625 C 26.816406 92.554688 28.582031 94.320312 30.785156 94.320312 L 74.117188 94.320312 C 76.28125 94.320312 78.046875 92.554688 78.046875 90.390625 L 78.046875 80.691406 L 77.164062 83.375 L 76.804688 84.460938 L 76.761719 84.621094 L 76.644531 84.578125 L 67.664062 92.957031 L 65.78125 81.011719 L 65.699219 80.972656 L 65.78125 80.8125 L 66.140625 79.730469 Z M 35.074219 31.304688 L 69.789062 31.304688 L 69.789062 36.679688 L 35.074219 36.679688 Z M 33.871094 44.414062 C 33.511719 44.414062 33.230469 44.695312 33.230469 45.09375 C 33.230469 45.457031 33.511719 45.738281 33.871094 45.738281 L 66.140625 45.738281 C 66.5 45.738281 66.78125 45.457031 66.78125 45.09375 C 66.78125 44.695312 66.5 44.414062 66.140625 44.414062 Z M 33.871094 53.914062 C 33.511719 53.914062 33.230469 54.195312 33.230469 54.554688 C 33.230469 54.957031 33.511719 55.238281 33.871094 55.238281 L 66.140625 55.238281 C 66.5 55.238281 66.78125 54.957031 66.78125 54.554688 C 66.78125 54.195312 66.5 53.914062 66.140625 53.914062 Z M 33.871094 63.414062 C 33.511719 63.414062 33.230469 63.695312 33.230469 64.054688 C 33.230469 64.417969 33.511719 64.738281 33.871094 64.738281 L 66.140625 64.738281 C 66.5 64.738281 66.78125 64.417969 66.78125 64.054688 C 66.78125 63.695312 66.5 63.414062 66.140625 63.414062 Z M 33.871094 72.875 C 33.511719 72.875 33.230469 73.195312 33.230469 73.554688 C 33.230469 73.917969 33.511719 74.238281 33.871094 74.238281 L 62.292969 74.238281 C 62.652344 74.238281 62.972656 73.917969 62.972656 73.554688 C 62.972656 73.195312 62.652344 72.875 62.292969 72.875 Z M 33.871094 82.375 C 33.511719 82.375 33.230469 82.695312 33.230469 83.054688 C 33.230469 83.417969 33.511719 83.699219 33.871094 83.699219 L 59.925781 83.699219 C 60.289062 83.699219 60.570312 83.417969 60.570312 83.054688 C 60.570312 82.695312 60.289062 82.375 59.925781 82.375 Z M 33.871094 82.375 "/></g><g clip-rule="nonzero" clip-path="url(#8870cae04f)"><path style=" stroke:none;fill-rule:evenodd;fill:#fefefe;fill-opacity:1;" d="M 90.230469 39.5625 L 75.882812 82.9375 L 67.382812 80.128906 L 81.691406 36.757812 Z M 75.199219 84.136719 L 68.585938 90.273438 L 67.222656 81.492188 Z M 75.199219 84.136719 "/></g><path style=" stroke:none;fill-rule:evenodd;fill:#fefefe;fill-opacity:1;" d="M 84.929688 27.007812 L 93.421875 29.8125 L 90.617188 38.304688 L 82.125 35.5 Z M 84.929688 27.007812 "/></g></svg>