<svg xmlns="http://www.w3.org/2000/svg" xmlns:xlink="http://www.w3.org/1999/xlink" width="133" zoomAndPan="magnify" viewBox="0 0 99.75 98.999996" height="132" preserveAspectRatio="xMidYMid meet" version="1.2"><defs><clipPath id="8b145c4a12"><path d="M 0 0.125 L 98.753906 0.125 L 98.753906 98.875 L 0 98.875 Z M 0 0.125 "/></clipPath><clipPath id="e11189c1c2"><path d="M 0 49.457031 C 0 76.703125 22.085938 98.789062 49.332031 98.789062 L 49.457031 98.789062 C 76.703125 98.789062 98.789062 76.703125 98.789062 49.457031 C 98.789062 22.210938 76.703125 0.125 49.457031 0.125 L 49.332031 0.125 C 22.085938 0.125 0 22.210938 0 49.457031 Z M 0 49.457031 "/></clipPath><clipPath id="2c4e7e3cff"><path d="M 38 37 L 53 37 L 53 54 L 38 54 Z M 38 37 "/></clipPath><clipPath id="0706725e07"><path d="M 0 49.457031 C 0 76.703125 22.085938 98.789062 49.332031 98.789062 L 49.457031 98.789062 C 76.703125 98.789062 98.789062 76.703125 98.789062 49.457031 C 98.789062 22.210938 76.703125 0.125 49.457031 0.125 L 49.332031 0.125 C 22.085938 0.125 0 22.210938 0 49.457031 Z M 0 49.457031 "/></clipPath><clipPath id="542cf5aa13"><path d="M 1 1 L 97 1 L 97 97 L 1 97 Z M 1 1 "/></clipPath><clipPath id="2045334f66"><path d="M 0 49.457031 C 0 76.703125 22.085938 98.789062 49.332031 98.789062 L 49.457031 98.789062 C 76.703125 98.789062 98.789062 76.703125 98.789062 49.457031 C 98.789062 22.210938 76.703125 0.125 49.457031 0.125 L 49.332031 0.125 C 22.085938 0.125 0 22.210938 0 49.457031 Z M 0 49.457031 "/></clipPath><clipPath id="b5e19ad36a"><path d="M 0 0.125 L 64.339844 0.125 L 64.339844 63.714844 L 0 63.714844 Z M 0 0.125 "/></clipPath><clipPath id="41acc55354"><path d="M 0 32.097656 C 0 49.757812 14.316406 64.070312 31.972656 64.070312 L 32.054688 64.070312 C 49.710938 64.070312 64.027344 49.757812 64.027344 32.097656 C 64.027344 14.4375 49.710938 0.125 32.054688 0.125 L 31.972656 0.125 C 14.316406 0.125 0 14.4375 0 32.097656 Z M 0 32.097656 "/></clipPath><clipPath id="6d23fff431"><path d="M 38 37 L 53 37 L 53 54 L 38 54 Z M 38 37 "/></clipPath><clipPath id="7345fbfa2d"><path d="M 0 32.097656 C 0 49.757812 14.316406 64.070312 31.972656 64.070312 L 32.054688 64.070312 C 49.710938 64.070312 64.027344 49.757812 64.027344 32.097656 C 64.027344 14.4375 49.710938 0.125 32.054688 0.125 L 31.972656 0.125 C 14.316406 0.125 0 14.4375 0 32.097656 Z M 0 32.097656 "/></clipPath><clipPath id="cf01792861"><path d="M 1 1 L 64.339844 1 L 64.339844 63.714844 L 1 63.714844 Z M 1 1 "/></clipPath><clipPath id="82a58eda8f"><path d="M 0 32.097656 C 0 49.757812 14.316406 64.070312 31.972656 64.070312 L 32.054688 64.070312 C 49.710938 64.070312 64.027344 49.757812 64.027344 32.097656 C 64.027344 14.4375 49.710938 0.125 32.054688 0.125 L 31.972656 0.125 C 14.316406 0.125 0 14.4375 0 32.097656 Z M 0 32.097656 "/></clipPath></defs><g id="720dca5feb"><g clip-rule="nonzero" clip-path="url(#8b145c4a12)"><g clip-rule="nonzero" clip-path="url(#e11189c1c2)"><path style=" stroke:none;fill-rule:nonzero;fill:#0b8841;fill-opacity:1;" d="M 48.796875 125.953125 C 44.128906 125.953125 40.414062 122.597656 37.140625 119.632812 C 35.039062 117.730469 32.863281 115.765625 31.035156 115.277344 C 29.066406 114.75 26.105469 115.382812 23.242188 115.988281 C 19.003906 116.882812 14.203125 117.898438 10.3125 115.648438 C 6.359375 113.363281 4.839844 108.652344 3.496094 104.5 C 2.605469 101.746094 1.6875 98.902344 0.292969 97.507812 C -1.101562 96.113281 -3.945312 95.191406 -6.699219 94.304688 C -10.855469 92.960938 -15.5625 91.4375 -17.847656 87.488281 C -20.101562 83.59375 -19.085938 78.789062 -18.1875 74.554688 C -17.578125 71.691406 -16.949219 68.730469 -17.476562 66.761719 C -17.964844 64.9375 -19.929688 62.761719 -21.832031 60.65625 C -24.796875 57.386719 -28.152344 53.671875 -28.152344 49.003906 C -28.152344 44.335938 -24.796875 40.621094 -21.832031 37.347656 C -19.933594 35.246094 -17.964844 33.070312 -17.476562 31.242188 C -16.949219 29.273438 -17.578125 26.316406 -18.1875 23.449219 C -19.085938 19.214844 -20.101562 14.414062 -17.847656 10.519531 C -15.5625 6.566406 -10.851562 5.046875 -6.699219 3.703125 C -3.945312 2.8125 -1.101562 1.894531 0.292969 0.5 C 1.6875 -0.894531 2.605469 -3.738281 3.496094 -6.492188 C 4.839844 -10.648438 6.359375 -15.355469 10.3125 -17.644531 C 14.207031 -19.894531 19.007812 -18.878906 23.242188 -17.980469 C 26.105469 -17.371094 29.070312 -16.742188 31.035156 -17.273438 C 32.863281 -17.757812 35.039062 -19.726562 37.140625 -21.625 C 40.414062 -24.589844 44.128906 -27.945312 48.796875 -27.945312 C 53.464844 -27.945312 57.175781 -24.589844 60.453125 -21.628906 C 62.554688 -19.726562 64.730469 -17.761719 66.554688 -17.273438 C 68.527344 -16.742188 71.488281 -17.371094 74.347656 -17.980469 C 78.585938 -18.878906 83.386719 -19.894531 87.28125 -17.644531 C 91.230469 -15.355469 92.753906 -10.644531 94.097656 -6.492188 C 94.988281 -3.738281 95.90625 -0.894531 97.300781 0.5 C 98.695312 1.894531 101.539062 2.8125 104.292969 3.703125 C 108.445312 5.046875 113.15625 6.570312 115.441406 10.519531 C 117.695312 14.414062 116.675781 19.214844 115.777344 23.453125 C 115.171875 26.316406 114.542969 29.277344 115.070312 31.242188 C 115.558594 33.070312 117.523438 35.246094 119.425781 37.347656 C 122.386719 40.621094 125.742188 44.335938 125.742188 49.003906 C 125.742188 53.671875 122.386719 57.386719 119.425781 60.660156 C 117.523438 62.761719 115.558594 64.9375 115.070312 66.765625 C 114.542969 68.730469 115.171875 71.691406 115.777344 74.554688 C 116.675781 78.792969 117.695312 83.59375 115.441406 87.488281 C 113.15625 91.4375 108.445312 92.960938 104.289062 94.304688 C 101.539062 95.195312 98.695312 96.113281 97.300781 97.507812 C 95.902344 98.902344 94.984375 101.746094 94.097656 104.5 C 92.753906 108.652344 91.230469 113.363281 87.28125 115.652344 C 83.386719 117.902344 78.585938 116.886719 74.347656 115.988281 C 71.484375 115.382812 68.527344 114.75 66.554688 115.277344 C 64.726562 115.765625 62.554688 117.730469 60.449219 119.632812 C 57.175781 122.59375 53.464844 125.953125 48.796875 125.953125 Z M 29.285156 108.75 C 30.429688 108.742188 31.558594 108.878906 32.671875 109.164062 C 35.972656 110.046875 38.722656 112.535156 41.382812 114.941406 C 43.929688 117.242188 46.5625 119.625 48.796875 119.625 C 51.027344 119.625 53.660156 117.242188 56.207031 114.941406 C 58.867188 112.535156 61.617188 110.046875 64.921875 109.164062 C 68.351562 108.25 72.070312 109.035156 75.660156 109.796875 C 78.9375 110.492188 82.320312 111.210938 84.109375 110.171875 C 85.957031 109.105469 87.035156 105.773438 88.074219 102.554688 C 89.195312 99.089844 90.351562 95.507812 92.824219 93.035156 C 95.296875 90.558594 98.878906 89.402344 102.34375 88.285156 C 105.566406 87.242188 108.894531 86.167969 109.964844 84.320312 C 111 82.53125 110.28125 79.144531 109.589844 75.867188 C 108.828125 72.277344 108.039062 68.5625 108.957031 65.128906 C 109.839844 61.824219 112.328125 59.074219 114.734375 56.414062 C 117.035156 53.867188 119.414062 51.238281 119.414062 49.003906 C 119.414062 46.773438 117.035156 44.140625 114.734375 41.59375 C 112.328125 38.933594 109.839844 36.183594 108.957031 32.878906 C 108.039062 29.445312 108.828125 25.730469 109.589844 22.140625 C 110.28125 18.867188 111 15.480469 109.964844 13.6875 C 108.898438 11.839844 105.566406 10.765625 102.34375 9.726562 C 98.882812 8.605469 95.296875 7.445312 92.824219 4.972656 C 90.351562 2.503906 89.195312 -1.078125 88.074219 -4.542969 C 87.035156 -7.765625 85.957031 -11.09375 84.113281 -12.164062 C 82.320312 -13.203125 78.9375 -12.484375 75.660156 -11.789062 C 72.070312 -11.027344 68.359375 -10.238281 64.921875 -11.15625 C 61.617188 -12.039062 58.867188 -14.527344 56.207031 -16.933594 C 53.660156 -19.234375 51.027344 -21.613281 48.796875 -21.613281 C 46.5625 -21.613281 43.929688 -19.234375 41.386719 -16.933594 C 38.726562 -14.527344 35.976562 -12.039062 32.671875 -11.15625 C 29.242188 -10.234375 25.523438 -11.027344 21.929688 -11.789062 C 18.65625 -12.484375 15.273438 -13.203125 13.480469 -12.164062 C 11.632812 -11.097656 10.558594 -7.765625 9.515625 -4.546875 C 8.398438 -1.082031 7.238281 2.5 4.769531 4.972656 C 2.296875 7.449219 -1.289062 8.605469 -4.753906 9.726562 C -7.972656 10.765625 -11.304688 11.839844 -12.371094 13.6875 C -13.40625 15.476562 -12.691406 18.863281 -11.996094 22.140625 C -11.234375 25.730469 -10.445312 29.445312 -11.363281 32.878906 C -12.246094 36.183594 -14.734375 38.933594 -17.140625 41.59375 C -19.441406 44.140625 -21.824219 46.769531 -21.824219 49.003906 C -21.824219 51.234375 -19.441406 53.867188 -17.140625 56.414062 C -14.734375 59.074219 -12.246094 61.824219 -11.363281 65.128906 C -10.445312 68.5625 -11.234375 72.277344 -11.996094 75.867188 C -12.691406 79.140625 -13.410156 82.527344 -12.371094 84.320312 C -11.304688 86.167969 -7.972656 87.242188 -4.753906 88.28125 C -1.289062 89.402344 2.292969 90.5625 4.765625 93.035156 C 7.238281 95.503906 8.394531 99.085938 9.515625 102.550781 C 10.558594 105.773438 11.632812 109.101562 13.480469 110.171875 C 15.273438 111.210938 18.65625 110.492188 21.929688 109.796875 C 24.347656 109.195312 26.796875 108.847656 29.285156 108.75 Z M 29.285156 108.75 "/></g></g><g clip-rule="nonzero" clip-path="url(#2c4e7e3cff)"><g clip-rule="nonzero" clip-path="url(#0706725e07)"><path style=" stroke:none;fill-rule:nonzero;fill:#0b8841;fill-opacity:1;" d="M 38.792969 53.75 L 52.46875 53.75 L 45.632812 37.976562 Z M 38.792969 53.75 "/></g></g><g clip-rule="nonzero" clip-path="url(#542cf5aa13)"><g clip-rule="nonzero" clip-path="url(#2045334f66)"><path style=" stroke:none;fill-rule:nonzero;fill:#0b8841;fill-opacity:1;" d="M 48.796875 1.542969 C 47.242188 1.542969 45.691406 1.621094 44.144531 1.773438 C 42.597656 1.925781 41.0625 2.152344 39.539062 2.457031 C 38.011719 2.757812 36.507812 3.136719 35.019531 3.585938 C 33.53125 4.039062 32.070312 4.5625 30.632812 5.15625 C 29.199219 5.75 27.792969 6.414062 26.425781 7.148438 C 25.054688 7.878906 23.722656 8.679688 22.429688 9.542969 C 21.136719 10.40625 19.890625 11.332031 18.6875 12.316406 C 17.488281 13.304688 16.335938 14.34375 15.238281 15.445312 C 14.136719 16.542969 13.09375 17.695312 12.109375 18.894531 C 11.125 20.097656 10.199219 21.34375 9.335938 22.636719 C 8.472656 23.929688 7.671875 25.261719 6.941406 26.632812 C 6.207031 28.003906 5.542969 29.40625 4.949219 30.839844 C 4.355469 32.277344 3.832031 33.738281 3.378906 35.226562 C 2.929688 36.714844 2.550781 38.21875 2.25 39.746094 C 1.945312 41.269531 1.71875 42.804688 1.566406 44.351562 C 1.414062 45.898438 1.335938 47.449219 1.335938 49.003906 C 1.335938 50.558594 1.414062 52.109375 1.566406 53.65625 C 1.71875 55.203125 1.945312 56.738281 2.25 58.261719 C 2.550781 59.785156 2.929688 61.292969 3.378906 62.78125 C 3.832031 64.269531 4.355469 65.730469 4.949219 67.164062 C 5.542969 68.601562 6.207031 70.003906 6.941406 71.375 C 7.671875 72.746094 8.472656 74.078125 9.335938 75.371094 C 10.199219 76.664062 11.125 77.910156 12.109375 79.113281 C 13.09375 80.3125 14.136719 81.464844 15.238281 82.5625 C 16.335938 83.660156 17.488281 84.703125 18.6875 85.691406 C 19.890625 86.675781 21.136719 87.601562 22.429688 88.464844 C 23.722656 89.328125 25.054688 90.125 26.425781 90.859375 C 27.792969 91.59375 29.199219 92.253906 30.632812 92.851562 C 32.070312 93.445312 33.53125 93.96875 35.019531 94.417969 C 36.507812 94.871094 38.011719 95.246094 39.539062 95.550781 C 41.0625 95.855469 42.597656 96.082031 44.144531 96.234375 C 45.691406 96.386719 47.242188 96.464844 48.796875 96.464844 C 50.351562 96.464844 51.902344 96.386719 53.449219 96.234375 C 54.996094 96.082031 56.53125 95.855469 58.054688 95.550781 C 59.578125 95.246094 61.085938 94.871094 62.574219 94.417969 C 64.058594 93.96875 65.523438 93.445312 66.957031 92.851562 C 68.394531 92.253906 69.796875 91.59375 71.167969 90.859375 C 72.539062 90.125 73.871094 89.328125 75.164062 88.464844 C 76.457031 87.601562 77.703125 86.675781 78.902344 85.691406 C 80.105469 84.703125 81.257812 83.660156 82.355469 82.5625 C 83.453125 81.464844 84.496094 80.3125 85.484375 79.113281 C 86.46875 77.910156 87.394531 76.664062 88.257812 75.371094 C 89.121094 74.078125 89.917969 72.746094 90.652344 71.375 C 91.382812 70.003906 92.046875 68.601562 92.644531 67.164062 C 93.238281 65.730469 93.761719 64.269531 94.210938 62.78125 C 94.664062 61.292969 95.039062 59.785156 95.34375 58.261719 C 95.648438 56.738281 95.875 55.203125 96.027344 53.65625 C 96.179688 52.109375 96.253906 50.558594 96.253906 49.003906 C 96.253906 47.449219 96.175781 45.898438 96.023438 44.351562 C 95.867188 42.808594 95.640625 41.273438 95.335938 39.75 C 95.03125 38.226562 94.652344 36.71875 94.199219 35.234375 C 93.746094 33.746094 93.222656 32.285156 92.628906 30.851562 C 92.03125 29.414062 91.367188 28.011719 90.636719 26.640625 C 89.902344 25.273438 89.105469 23.941406 88.242188 22.648438 C 87.378906 21.359375 86.453125 20.109375 85.464844 18.910156 C 84.480469 17.710938 83.4375 16.558594 82.339844 15.460938 C 81.242188 14.363281 80.089844 13.320312 78.890625 12.332031 C 77.6875 11.347656 76.441406 10.421875 75.152344 9.558594 C 73.859375 8.695312 72.527344 7.898438 71.15625 7.164062 C 69.789062 6.429688 68.386719 5.765625 66.949219 5.171875 C 65.515625 4.574219 64.054688 4.050781 62.566406 3.601562 C 61.082031 3.148438 59.574219 2.769531 58.050781 2.464844 C 56.527344 2.160156 54.992188 1.929688 53.445312 1.777344 C 51.898438 1.625 50.351562 1.546875 48.796875 1.542969 Z M 64.71875 74.054688 C 64.335938 74.222656 63.933594 74.308594 63.511719 74.316406 C 63.09375 74.324219 62.6875 74.25 62.296875 74.09375 C 61.90625 73.941406 61.5625 73.71875 61.261719 73.425781 C 60.957031 73.132812 60.726562 72.792969 60.558594 72.410156 L 55.210938 60.078125 L 36.050781 60.078125 L 30.707031 72.410156 C 30.542969 72.800781 30.3125 73.144531 30.011719 73.441406 C 29.707031 73.738281 29.363281 73.964844 28.96875 74.125 C 28.578125 74.285156 28.167969 74.359375 27.746094 74.355469 C 27.324219 74.347656 26.917969 74.261719 26.527344 74.09375 C 26.140625 73.925781 25.796875 73.6875 25.503906 73.382812 C 25.210938 73.078125 24.988281 72.730469 24.835938 72.335938 C 24.683594 71.941406 24.613281 71.53125 24.621094 71.105469 C 24.632812 70.683594 24.726562 70.28125 24.898438 69.894531 L 31.050781 55.707031 L 31.074219 55.652344 L 42.730469 28.761719 C 42.980469 28.183594 43.367188 27.722656 43.894531 27.375 C 44.421875 27.03125 45 26.855469 45.632812 26.855469 C 46.261719 26.855469 46.839844 27.03125 47.367188 27.375 C 47.894531 27.722656 48.285156 28.183594 48.535156 28.761719 L 60.191406 55.652344 L 60.214844 55.707031 L 66.363281 69.894531 C 66.53125 70.277344 66.617188 70.679688 66.625 71.101562 C 66.632812 71.519531 66.558594 71.925781 66.402344 72.316406 C 66.25 72.703125 66.027344 73.050781 65.734375 73.351562 C 65.441406 73.652344 65.105469 73.886719 64.71875 74.054688 Z M 72.527344 34.765625 L 69.363281 34.765625 L 69.363281 37.929688 C 69.363281 38.347656 69.28125 38.753906 69.121094 39.140625 C 68.960938 39.527344 68.730469 39.871094 68.433594 40.167969 C 68.136719 40.464844 67.796875 40.691406 67.410156 40.851562 C 67.019531 41.011719 66.617188 41.09375 66.199219 41.09375 C 65.777344 41.09375 65.375 41.011719 64.988281 40.851562 C 64.597656 40.691406 64.257812 40.464844 63.960938 40.167969 C 63.664062 39.871094 63.433594 39.527344 63.273438 39.140625 C 63.113281 38.753906 63.035156 38.347656 63.035156 37.929688 L 63.035156 34.765625 L 59.871094 34.765625 C 59.449219 34.765625 59.046875 34.683594 58.660156 34.523438 C 58.273438 34.363281 57.929688 34.136719 57.632812 33.839844 C 57.335938 33.542969 57.109375 33.199219 56.945312 32.8125 C 56.785156 32.425781 56.707031 32.019531 56.707031 31.601562 C 56.707031 31.183594 56.785156 30.777344 56.945312 30.390625 C 57.109375 30.003906 57.335938 29.660156 57.632812 29.363281 C 57.929688 29.066406 58.273438 28.839844 58.660156 28.679688 C 59.046875 28.519531 59.449219 28.4375 59.871094 28.4375 L 63.035156 28.4375 L 63.035156 25.273438 C 63.035156 24.855469 63.113281 24.449219 63.273438 24.0625 C 63.433594 23.675781 63.664062 23.332031 63.960938 23.035156 C 64.257812 22.738281 64.597656 22.511719 64.988281 22.351562 C 65.375 22.191406 65.777344 22.109375 66.199219 22.109375 C 66.617188 22.109375 67.019531 22.191406 67.410156 22.351562 C 67.796875 22.511719 68.136719 22.738281 68.433594 23.035156 C 68.730469 23.332031 68.960938 23.675781 69.121094 24.0625 C 69.28125 24.449219 69.363281 24.855469 69.363281 25.273438 L 69.363281 28.4375 L 72.527344 28.4375 C 72.945312 28.4375 73.347656 28.519531 73.738281 28.679688 C 74.125 28.839844 74.464844 29.066406 74.761719 29.363281 C 75.058594 29.660156 75.289062 30.003906 75.449219 30.390625 C 75.609375 30.777344 75.691406 31.183594 75.691406 31.601562 C 75.691406 32.019531 75.609375 32.425781 75.449219 32.8125 C 75.289062 33.199219 75.058594 33.542969 74.761719 33.839844 C 74.464844 34.136719 74.125 34.363281 73.738281 34.523438 C 73.347656 34.683594 72.945312 34.765625 72.527344 34.765625 Z M 72.527344 34.765625 "/></g></g><g clip-rule="nonzero" clip-path="url(#b5e19ad36a)"><g clip-rule="nonzero" clip-path="url(#41acc55354)"><path style=" stroke:none;fill-rule:nonzero;fill:#0b8841;fill-opacity:1;" d="M 48.796875 125.953125 C 44.128906 125.953125 40.414062 122.597656 37.140625 119.632812 C 35.039062 117.730469 32.863281 115.765625 31.035156 115.277344 C 29.066406 114.75 26.105469 115.382812 23.242188 115.988281 C 19.003906 116.882812 14.203125 117.898438 10.3125 115.648438 C 6.359375 113.363281 4.839844 108.652344 3.496094 104.5 C 2.605469 101.746094 1.6875 98.902344 0.292969 97.507812 C -1.101562 96.113281 -3.945312 95.191406 -6.699219 94.304688 C -10.855469 92.960938 -15.5625 91.4375 -17.847656 87.488281 C -20.101562 83.59375 -19.085938 78.789062 -18.1875 74.554688 C -17.578125 71.691406 -16.949219 68.730469 -17.476562 66.761719 C -17.964844 64.9375 -19.929688 62.761719 -21.832031 60.65625 C -24.796875 57.386719 -28.152344 53.671875 -28.152344 49.003906 C -28.152344 44.335938 -24.796875 40.621094 -21.832031 37.347656 C -19.933594 35.246094 -17.964844 33.070312 -17.476562 31.242188 C -16.949219 29.273438 -17.578125 26.316406 -18.1875 23.449219 C -19.085938 19.214844 -20.101562 14.414062 -17.847656 10.519531 C -15.5625 6.566406 -10.851562 5.046875 -6.699219 3.703125 C -3.945312 2.8125 -1.101562 1.894531 0.292969 0.5 C 1.6875 -0.894531 2.605469 -3.738281 3.496094 -6.492188 C 4.839844 -10.648438 6.359375 -15.355469 10.3125 -17.644531 C 14.207031 -19.894531 19.007812 -18.878906 23.242188 -17.980469 C 26.105469 -17.371094 29.070312 -16.742188 31.035156 -17.273438 C 32.863281 -17.757812 35.039062 -19.726562 37.140625 -21.625 C 40.414062 -24.589844 44.128906 -27.945312 48.796875 -27.945312 C 53.464844 -27.945312 57.175781 -24.589844 60.453125 -21.628906 C 62.554688 -19.726562 64.730469 -17.761719 66.554688 -17.273438 C 68.527344 -16.742188 71.488281 -17.371094 74.347656 -17.980469 C 78.585938 -18.878906 83.386719 -19.894531 87.28125 -17.644531 C 91.230469 -15.355469 92.753906 -10.644531 94.097656 -6.492188 C 94.988281 -3.738281 95.90625 -0.894531 97.300781 0.5 C 98.695312 1.894531 101.539062 2.8125 104.292969 3.703125 C 108.445312 5.046875 113.15625 6.570312 115.441406 10.519531 C 117.695312 14.414062 116.675781 19.214844 115.777344 23.453125 C 115.171875 26.316406 114.542969 29.277344 115.070312 31.242188 C 115.558594 33.070312 117.523438 35.246094 119.425781 37.347656 C 122.386719 40.621094 125.742188 44.335938 125.742188 49.003906 C 125.742188 53.671875 122.386719 57.386719 119.425781 60.660156 C 117.523438 62.761719 115.558594 64.9375 115.070312 66.765625 C 114.542969 68.730469 115.171875 71.691406 115.777344 74.554688 C 116.675781 78.792969 117.695312 83.59375 115.441406 87.488281 C 113.15625 91.4375 108.445312 92.960938 104.289062 94.304688 C 101.539062 95.195312 98.695312 96.113281 97.300781 97.507812 C 95.902344 98.902344 94.984375 101.746094 94.097656 104.5 C 92.753906 108.652344 91.230469 113.363281 87.28125 115.652344 C 83.386719 117.902344 78.585938 116.886719 74.347656 115.988281 C 71.484375 115.382812 68.527344 114.75 66.554688 115.277344 C 64.726562 115.765625 62.554688 117.730469 60.449219 119.632812 C 57.175781 122.59375 53.464844 125.953125 48.796875 125.953125 Z M 29.285156 108.75 C 30.429688 108.742188 31.558594 108.878906 32.671875 109.164062 C 35.972656 110.046875 38.722656 112.535156 41.382812 114.941406 C 43.929688 117.242188 46.5625 119.625 48.796875 119.625 C 51.027344 119.625 53.660156 117.242188 56.207031 114.941406 C 58.867188 112.535156 61.617188 110.046875 64.921875 109.164062 C 68.351562 108.25 72.070312 109.035156 75.660156 109.796875 C 78.9375 110.492188 82.320312 111.210938 84.109375 110.171875 C 85.957031 109.105469 87.035156 105.773438 88.074219 102.554688 C 89.195312 99.089844 90.351562 95.507812 92.824219 93.035156 C 95.296875 90.558594 98.878906 89.402344 102.34375 88.285156 C 105.566406 87.242188 108.894531 86.167969 109.964844 84.320312 C 111 82.53125 110.28125 79.144531 109.589844 75.867188 C 108.828125 72.277344 108.039062 68.5625 108.957031 65.128906 C 109.839844 61.824219 112.328125 59.074219 114.734375 56.414062 C 117.035156 53.867188 119.414062 51.238281 119.414062 49.003906 C 119.414062 46.773438 117.035156 44.140625 114.734375 41.59375 C 112.328125 38.933594 109.839844 36.183594 108.957031 32.878906 C 108.039062 29.445312 108.828125 25.730469 109.589844 22.140625 C 110.28125 18.867188 111 15.480469 109.964844 13.6875 C 108.898438 11.839844 105.566406 10.765625 102.34375 9.726562 C 98.882812 8.605469 95.296875 7.445312 92.824219 4.972656 C 90.351562 2.503906 89.195312 -1.078125 88.074219 -4.542969 C 87.035156 -7.765625 85.957031 -11.09375 84.113281 -12.164062 C 82.320312 -13.203125 78.9375 -12.484375 75.660156 -11.789062 C 72.070312 -11.027344 68.359375 -10.238281 64.921875 -11.15625 C 61.617188 -12.039062 58.867188 -14.527344 56.207031 -16.933594 C 53.660156 -19.234375 51.027344 -21.613281 48.796875 -21.613281 C 46.5625 -21.613281 43.929688 -19.234375 41.386719 -16.933594 C 38.726562 -14.527344 35.976562 -12.039062 32.671875 -11.15625 C 29.242188 -10.234375 25.523438 -11.027344 21.929688 -11.789062 C 18.65625 -12.484375 15.273438 -13.203125 13.480469 -12.164062 C 11.632812 -11.097656 10.558594 -7.765625 9.515625 -4.546875 C 8.398438 -1.082031 7.238281 2.5 4.769531 4.972656 C 2.296875 7.449219 -1.289062 8.605469 -4.753906 9.726562 C -7.972656 10.765625 -11.304688 11.839844 -12.371094 13.6875 C -13.40625 15.476562 -12.691406 18.863281 -11.996094 22.140625 C -11.234375 25.730469 -10.445312 29.445312 -11.363281 32.878906 C -12.246094 36.183594 -14.734375 38.933594 -17.140625 41.59375 C -19.441406 44.140625 -21.824219 46.769531 -21.824219 49.003906 C -21.824219 51.234375 -19.441406 53.867188 -17.140625 56.414062 C -14.734375 59.074219 -12.246094 61.824219 -11.363281 65.128906 C -10.445312 68.5625 -11.234375 72.277344 -11.996094 75.867188 C -12.691406 79.140625 -13.410156 82.527344 -12.371094 84.320312 C -11.304688 86.167969 -7.972656 87.242188 -4.753906 88.28125 C -1.289062 89.402344 2.292969 90.5625 4.765625 93.035156 C 7.238281 95.503906 8.394531 99.085938 9.515625 102.550781 C 10.558594 105.773438 11.632812 109.101562 13.480469 110.171875 C 15.273438 111.210938 18.65625 110.492188 21.929688 109.796875 C 24.347656 109.195312 26.796875 108.847656 29.285156 108.75 Z M 29.285156 108.75 "/></g></g><g clip-rule="nonzero" clip-path="url(#6d23fff431)"><g clip-rule="nonzero" clip-path="url(#7345fbfa2d)"><path style=" stroke:none;fill-rule:nonzero;fill:#0b8841;fill-opacity:1;" d="M 38.792969 53.75 L 52.46875 53.75 L 45.632812 37.976562 Z M 38.792969 53.75 "/></g></g><g clip-rule="nonzero" clip-path="url(#cf01792861)"><g clip-rule="nonzero" clip-path="url(#82a58eda8f)"><path style=" stroke:none;fill-rule:nonzero;fill:#0b8841;fill-opacity:1;" d="M 48.796875 1.542969 C 47.242188 1.542969 45.691406 1.621094 44.144531 1.773438 C 42.597656 1.925781 41.0625 2.152344 39.539062 2.457031 C 38.011719 2.757812 36.507812 3.136719 35.019531 3.585938 C 33.53125 4.039062 32.070312 4.5625 30.632812 5.15625 C 29.199219 5.75 27.792969 6.414062 26.425781 7.148438 C 25.054688 7.878906 23.722656 8.679688 22.429688 9.542969 C 21.136719 10.40625 19.890625 11.332031 18.6875 12.316406 C 17.488281 13.304688 16.335938 14.34375 15.238281 15.445312 C 14.136719 16.542969 13.09375 17.695312 12.109375 18.894531 C 11.125 20.097656 10.199219 21.34375 9.335938 22.636719 C 8.472656 23.929688 7.671875 25.261719 6.941406 26.632812 C 6.207031 28.003906 5.542969 29.40625 4.949219 30.839844 C 4.355469 32.277344 3.832031 33.738281 3.378906 35.226562 C 2.929688 36.714844 2.550781 38.21875 2.25 39.746094 C 1.945312 41.269531 1.71875 42.804688 1.566406 44.351562 C 1.414062 45.898438 1.335938 47.449219 1.335938 49.003906 C 1.335938 50.558594 1.414062 52.109375 1.566406 53.65625 C 1.71875 55.203125 1.945312 56.738281 2.25 58.261719 C 2.550781 59.785156 2.929688 61.292969 3.378906 62.78125 C 3.832031 64.269531 4.355469 65.730469 4.949219 67.164062 C 5.542969 68.601562 6.207031 70.003906 6.941406 71.375 C 7.671875 72.746094 8.472656 74.078125 9.335938 75.371094 C 10.199219 76.664062 11.125 77.910156 12.109375 79.113281 C 13.09375 80.3125 14.136719 81.464844 15.238281 82.5625 C 16.335938 83.660156 17.488281 84.703125 18.6875 85.691406 C 19.890625 86.675781 21.136719 87.601562 22.429688 88.464844 C 23.722656 89.328125 25.054688 90.125 26.425781 90.859375 C 27.792969 91.59375 29.199219 92.253906 30.632812 92.851562 C 32.070312 93.445312 33.53125 93.96875 35.019531 94.417969 C 36.507812 94.871094 38.011719 95.246094 39.539062 95.550781 C 41.0625 95.855469 42.597656 96.082031 44.144531 96.234375 C 45.691406 96.386719 47.242188 96.464844 48.796875 96.464844 C 50.351562 96.464844 51.902344 96.386719 53.449219 96.234375 C 54.996094 96.082031 56.53125 95.855469 58.054688 95.550781 C 59.578125 95.246094 61.085938 94.871094 62.574219 94.417969 C 64.058594 93.96875 65.523438 93.445312 66.957031 92.851562 C 68.394531 92.253906 69.796875 91.59375 71.167969 90.859375 C 72.539062 90.125 73.871094 89.328125 75.164062 88.464844 C 76.457031 87.601562 77.703125 86.675781 78.902344 85.691406 C 80.105469 84.703125 81.257812 83.660156 82.355469 82.5625 C 83.453125 81.464844 84.496094 80.3125 85.484375 79.113281 C 86.46875 77.910156 87.394531 76.664062 88.257812 75.371094 C 89.121094 74.078125 89.917969 72.746094 90.652344 71.375 C 91.382812 70.003906 92.046875 68.601562 92.644531 67.164062 C 93.238281 65.730469 93.761719 64.269531 94.210938 62.78125 C 94.664062 61.292969 95.039062 59.785156 95.34375 58.261719 C 95.648438 56.738281 95.875 55.203125 96.027344 53.65625 C 96.179688 52.109375 96.253906 50.558594 96.253906 49.003906 C 96.253906 47.449219 96.175781 45.898438 96.023438 44.351562 C 95.867188 42.808594 95.640625 41.273438 95.335938 39.75 C 95.03125 38.226562 94.652344 36.71875 94.199219 35.234375 C 93.746094 33.746094 93.222656 32.285156 92.628906 30.851562 C 92.03125 29.414062 91.367188 28.011719 90.636719 26.640625 C 89.902344 25.273438 89.105469 23.941406 88.242188 22.648438 C 87.378906 21.359375 86.453125 20.109375 85.464844 18.910156 C 84.480469 17.710938 83.4375 16.558594 82.339844 15.460938 C 81.242188 14.363281 80.089844 13.320312 78.890625 12.332031 C 77.6875 11.347656 76.441406 10.421875 75.152344 9.558594 C 73.859375 8.695312 72.527344 7.898438 71.15625 7.164062 C 69.789062 6.429688 68.386719 5.765625 66.949219 5.171875 C 65.515625 4.574219 64.054688 4.050781 62.566406 3.601562 C 61.082031 3.148438 59.574219 2.769531 58.050781 2.464844 C 56.527344 2.160156 54.992188 1.929688 53.445312 1.777344 C 51.898438 1.625 50.351562 1.546875 48.796875 1.542969 Z M 64.71875 74.054688 C 64.335938 74.222656 63.933594 74.308594 63.511719 74.316406 C 63.09375 74.324219 62.6875 74.25 62.296875 74.09375 C 61.90625 73.941406 61.5625 73.71875 61.261719 73.425781 C 60.957031 73.132812 60.726562 72.792969 60.558594 72.410156 L 55.210938 60.078125 L 36.050781 60.078125 L 30.707031 72.410156 C 30.542969 72.800781 30.3125 73.144531 30.011719 73.441406 C 29.707031 73.738281 29.363281 73.964844 28.96875 74.125 C 28.578125 74.285156 28.167969 74.359375 27.746094 74.355469 C 27.324219 74.347656 26.917969 74.261719 26.527344 74.09375 C 26.140625 73.925781 25.796875 73.6875 25.503906 73.382812 C 25.210938 73.078125 24.988281 72.730469 24.835938 72.335938 C 24.683594 71.941406 24.613281 71.53125 24.621094 71.105469 C 24.632812 70.683594 24.726562 70.28125 24.898438 69.894531 L 31.050781 55.707031 L 31.074219 55.652344 L 42.730469 28.761719 C 42.980469 28.183594 43.367188 27.722656 43.894531 27.375 C 44.421875 27.03125 45 26.855469 45.632812 26.855469 C 46.261719 26.855469 46.839844 27.03125 47.367188 27.375 C 47.894531 27.722656 48.285156 28.183594 48.535156 28.761719 L 60.191406 55.652344 L 60.214844 55.707031 L 66.363281 69.894531 C 66.53125 70.277344 66.617188 70.679688 66.625 71.101562 C 66.632812 71.519531 66.558594 71.925781 66.402344 72.316406 C 66.25 72.703125 66.027344 73.050781 65.734375 73.351562 C 65.441406 73.652344 65.105469 73.886719 64.71875 74.054688 Z M 72.527344 34.765625 L 69.363281 34.765625 L 69.363281 37.929688 C 69.363281 38.347656 69.28125 38.753906 69.121094 39.140625 C 68.960938 39.527344 68.730469 39.871094 68.433594 40.167969 C 68.136719 40.464844 67.796875 40.691406 67.410156 40.851562 C 67.019531 41.011719 66.617188 41.09375 66.199219 41.09375 C 65.777344 41.09375 65.375 41.011719 64.988281 40.851562 C 64.597656 40.691406 64.257812 40.464844 63.960938 40.167969 C 63.664062 39.871094 63.433594 39.527344 63.273438 39.140625 C 63.113281 38.753906 63.035156 38.347656 63.035156 37.929688 L 63.035156 34.765625 L 59.871094 34.765625 C 59.449219 34.765625 59.046875 34.683594 58.660156 34.523438 C 58.273438 34.363281 57.929688 34.136719 57.632812 33.839844 C 57.335938 33.542969 57.109375 33.199219 56.945312 32.8125 C 56.785156 32.425781 56.707031 32.019531 56.707031 31.601562 C 56.707031 31.183594 56.785156 30.777344 56.945312 30.390625 C 57.109375 30.003906 57.335938 29.660156 57.632812 29.363281 C 57.929688 29.066406 58.273438 28.839844 58.660156 28.679688 C 59.046875 28.519531 59.449219 28.4375 59.871094 28.4375 L 63.035156 28.4375 L 63.035156 25.273438 C 63.035156 24.855469 63.113281 24.449219 63.273438 24.0625 C 63.433594 23.675781 63.664062 23.332031 63.960938 23.035156 C 64.257812 22.738281 64.597656 22.511719 64.988281 22.351562 C 65.375 22.191406 65.777344 22.109375 66.199219 22.109375 C 66.617188 22.109375 67.019531 22.191406 67.410156 22.351562 C 67.796875 22.511719 68.136719 22.738281 68.433594 23.035156 C 68.730469 23.332031 68.960938 23.675781 69.121094 24.0625 C 69.28125 24.449219 69.363281 24.855469 69.363281 25.273438 L 69.363281 28.4375 L 72.527344 28.4375 C 72.945312 28.4375 73.347656 28.519531 73.738281 28.679688 C 74.125 28.839844 74.464844 29.066406 74.761719 29.363281 C 75.058594 29.660156 75.289062 30.003906 75.449219 30.390625 C 75.609375 30.777344 75.691406 31.183594 75.691406 31.601562 C 75.691406 32.019531 75.609375 32.425781 75.449219 32.8125 C 75.289062 33.199219 75.058594 33.542969 74.761719 33.839844 C 74.464844 34.136719 74.125 34.363281 73.738281 34.523438 C 73.347656 34.683594 72.945312 34.765625 72.527344 34.765625 Z M 72.527344 34.765625 "/></g></g></g></svg>