<svg xmlns="http://www.w3.org/2000/svg" xmlns:xlink="http://www.w3.org/1999/xlink" width="102" zoomAndPan="magnify" viewBox="0 0 76.5 76.499999" height="102" preserveAspectRatio="xMidYMid meet" version="1.2"><defs><clipPath id="4511886a14"><path d="M 0 0 L 76 0 L 76 59.609375 L 0 59.609375 Z M 0 0 "/></clipPath></defs><g id="90c41fd5cf"><path style=" stroke:none;fill-rule:nonzero;fill:#0b8841;fill-opacity:1;" d="M 37.820312 0 C 16.996094 0 0 16.996094 0 37.820312 C 0 58.648438 16.996094 75.640625 37.820312 75.640625 C 58.648438 75.640625 75.640625 58.648438 75.640625 37.820312 C 75.640625 16.996094 58.648438 0 37.820312 0 Z M 48.652344 44.402344 L 34.65625 58.398438 L 28.074219 51.816406 L 41.988281 37.820312 L 28.074219 23.910156 L 34.65625 17.328125 L 48.652344 31.238281 L 55.230469 37.820312 Z M 48.652344 44.402344 "/><g clip-rule="nonzero" clip-path="url(#4511886a14)"><path style=" stroke:none;fill-rule:nonzero;fill:#0b8841;fill-opacity:1;" d="M 37.820312 0 C 16.996094 0 0 16.996094 0 37.820312 C 0 58.648438 16.996094 75.640625 37.820312 75.640625 C 58.648438 75.640625 75.640625 58.648438 75.640625 37.820312 C 75.640625 16.996094 58.648438 0 37.820312 0 Z M 48.652344 44.402344 L 34.65625 58.398438 L 28.074219 51.816406 L 41.988281 37.820312 L 28.074219 23.910156 L 34.65625 17.328125 L 48.652344 31.238281 L 55.230469 37.820312 Z M 48.652344 44.402344 "/></g></g></svg>