<svg xmlns="http://www.w3.org/2000/svg" xmlns:xlink="http://www.w3.org/1999/xlink" width="190" zoomAndPan="magnify" viewBox="0 0 142.5 142.499995" height="190" preserveAspectRatio="xMidYMid meet" version="1.2"><defs><clipPath id="5cb89b6f98"><path d="M 0 0 L 142 0 L 142 92.675781 L 0 92.675781 Z M 0 0 "/></clipPath><clipPath id="30008f1506"><path d="M 76 73 L 104 73 L 104 92.675781 L 76 92.675781 Z M 76 73 "/></clipPath><clipPath id="5ceddf910f"><path d="M 38 30 L 95 30 L 95 92.675781 L 38 92.675781 Z M 38 30 "/></clipPath></defs><g id="c52d3bf858"><path style=" stroke:none;fill-rule:nonzero;fill:#0b8841;fill-opacity:1;" d="M 141.628906 70.8125 C 141.628906 71.972656 141.601562 73.132812 141.542969 74.289062 C 141.484375 75.445312 141.402344 76.601562 141.285156 77.753906 C 141.171875 78.910156 141.03125 80.058594 140.863281 81.203125 C 140.691406 82.351562 140.492188 83.492188 140.265625 84.628906 C 140.042969 85.765625 139.789062 86.894531 139.503906 88.019531 C 139.222656 89.144531 138.914062 90.261719 138.578125 91.371094 C 138.242188 92.480469 137.878906 93.578125 137.488281 94.671875 C 137.097656 95.761719 136.679688 96.84375 136.238281 97.914062 C 135.792969 98.984375 135.324219 100.042969 134.828125 101.089844 C 134.332031 102.136719 133.8125 103.171875 133.265625 104.195312 C 132.71875 105.21875 132.148438 106.226562 131.554688 107.21875 C 130.957031 108.214844 130.335938 109.191406 129.695312 110.15625 C 129.050781 111.121094 128.382812 112.066406 127.691406 112.996094 C 127.003906 113.929688 126.289062 114.84375 125.554688 115.738281 C 124.820312 116.632812 124.0625 117.511719 123.285156 118.371094 C 122.503906 119.230469 121.707031 120.066406 120.886719 120.886719 C 120.066406 121.707031 119.230469 122.503906 118.371094 123.285156 C 117.511719 124.0625 116.632812 124.820312 115.738281 125.554688 C 114.84375 126.289062 113.929688 127.003906 112.996094 127.691406 C 112.066406 128.382812 111.121094 129.050781 110.15625 129.695312 C 109.191406 130.335938 108.214844 130.957031 107.21875 131.554688 C 106.226562 132.148438 105.21875 132.71875 104.195312 133.265625 C 103.171875 133.8125 102.136719 134.332031 101.089844 134.828125 C 100.042969 135.324219 98.984375 135.792969 97.914062 136.238281 C 96.84375 136.679688 95.761719 137.097656 94.671875 137.488281 C 93.578125 137.878906 92.480469 138.242188 91.371094 138.578125 C 90.261719 138.914062 89.144531 139.222656 88.019531 139.503906 C 86.894531 139.789062 85.765625 140.042969 84.628906 140.265625 C 83.492188 140.492188 82.351562 140.691406 81.203125 140.863281 C 80.058594 141.03125 78.910156 141.171875 77.753906 141.285156 C 76.601562 141.402344 75.445312 141.484375 74.289062 141.542969 C 73.132812 141.601562 71.972656 141.628906 70.8125 141.628906 C 69.65625 141.628906 68.496094 141.601562 67.339844 141.542969 C 66.183594 141.484375 65.027344 141.402344 63.871094 141.285156 C 62.71875 141.171875 61.570312 141.03125 60.421875 140.863281 C 59.277344 140.691406 58.136719 140.492188 57 140.265625 C 55.863281 140.042969 54.730469 139.789062 53.609375 139.503906 C 52.484375 139.222656 51.367188 138.914062 50.257812 138.578125 C 49.148438 138.242188 48.046875 137.878906 46.957031 137.488281 C 45.867188 137.097656 44.785156 136.679688 43.714844 136.238281 C 42.644531 135.792969 41.585938 135.324219 40.539062 134.828125 C 39.488281 134.332031 38.453125 133.8125 37.433594 133.265625 C 36.410156 132.71875 35.402344 132.148438 34.410156 131.554688 C 33.414062 130.957031 32.433594 130.335938 31.472656 129.695312 C 30.507812 129.050781 29.5625 128.382812 28.628906 127.691406 C 27.699219 127.003906 26.785156 126.289062 25.890625 125.554688 C 24.996094 124.820312 24.117188 124.0625 23.257812 123.285156 C 22.398438 122.503906 21.558594 121.707031 20.742188 120.886719 C 19.921875 120.066406 19.121094 119.230469 18.34375 118.371094 C 17.566406 117.511719 16.808594 116.632812 16.074219 115.738281 C 15.339844 114.84375 14.625 113.929688 13.9375 112.996094 C 13.246094 112.066406 12.578125 111.121094 11.933594 110.15625 C 11.289062 109.191406 10.671875 108.214844 10.074219 107.21875 C 9.480469 106.226562 8.90625 105.21875 8.363281 104.195312 C 7.816406 103.171875 7.292969 102.136719 6.800781 101.089844 C 6.304688 100.042969 5.832031 98.984375 5.390625 97.914062 C 4.945312 96.84375 4.53125 95.761719 4.140625 94.671875 C 3.75 93.578125 3.386719 92.480469 3.050781 91.371094 C 2.710938 90.261719 2.402344 89.144531 2.121094 88.019531 C 1.839844 86.894531 1.585938 85.765625 1.359375 84.628906 C 1.132812 83.492188 0.9375 82.351562 0.765625 81.203125 C 0.597656 80.058594 0.453125 78.910156 0.339844 77.753906 C 0.226562 76.601562 0.140625 75.445312 0.0859375 74.289062 C 0.0273438 73.132812 0 71.972656 0 70.8125 C 0 69.65625 0.0273438 68.496094 0.0859375 67.339844 C 0.140625 66.183594 0.226562 65.027344 0.339844 63.871094 C 0.453125 62.71875 0.597656 61.570312 0.765625 60.421875 C 0.9375 59.277344 1.132812 58.136719 1.359375 57 C 1.585938 55.863281 1.839844 54.730469 2.121094 53.609375 C 2.402344 52.484375 2.710938 51.367188 3.050781 50.257812 C 3.386719 49.148438 3.75 48.046875 4.140625 46.957031 C 4.53125 45.867188 4.945312 44.785156 5.390625 43.714844 C 5.832031 42.644531 6.304688 41.585938 6.800781 40.539062 C 7.292969 39.488281 7.816406 38.453125 8.363281 37.433594 C 8.90625 36.410156 9.480469 35.402344 10.074219 34.410156 C 10.671875 33.414062 11.289062 32.433594 11.933594 31.472656 C 12.578125 30.507812 13.246094 29.5625 13.9375 28.628906 C 14.625 27.699219 15.339844 26.785156 16.074219 25.890625 C 16.808594 24.996094 17.566406 24.117188 18.34375 23.257812 C 19.121094 22.398438 19.921875 21.558594 20.742188 20.742188 C 21.558594 19.921875 22.398438 19.121094 23.257812 18.34375 C 24.117188 17.566406 24.996094 16.808594 25.890625 16.074219 C 26.785156 15.339844 27.699219 14.625 28.628906 13.9375 C 29.5625 13.246094 30.507812 12.578125 31.472656 11.933594 C 32.433594 11.289062 33.414062 10.671875 34.410156 10.074219 C 35.402344 9.480469 36.410156 8.90625 37.433594 8.363281 C 38.453125 7.816406 39.488281 7.292969 40.539062 6.800781 C 41.585938 6.304688 42.644531 5.832031 43.714844 5.390625 C 44.785156 4.945312 45.867188 4.53125 46.957031 4.140625 C 48.046875 3.75 49.148438 3.386719 50.257812 3.050781 C 51.367188 2.710938 52.484375 2.402344 53.609375 2.121094 C 54.730469 1.839844 55.863281 1.585938 57 1.359375 C 58.136719 1.132812 59.277344 0.9375 60.421875 0.765625 C 61.570312 0.597656 62.71875 0.453125 63.871094 0.339844 C 65.027344 0.226562 66.183594 0.140625 67.339844 0.0859375 C 68.496094 0.0273438 69.65625 0 70.8125 0 C 71.972656 0 73.132812 0.0273438 74.289062 0.0859375 C 75.445312 0.140625 76.601562 0.226562 77.753906 0.339844 C 78.910156 0.453125 80.058594 0.597656 81.203125 0.765625 C 82.351562 0.9375 83.492188 1.132812 84.628906 1.359375 C 85.765625 1.585938 86.894531 1.839844 88.019531 2.121094 C 89.144531 2.402344 90.261719 2.710938 91.371094 3.050781 C 92.480469 3.386719 93.578125 3.75 94.671875 4.140625 C 95.761719 4.53125 96.84375 4.945312 97.914062 5.390625 C 98.984375 5.832031 100.042969 6.304688 101.089844 6.800781 C 102.136719 7.292969 103.171875 7.816406 104.195312 8.363281 C 105.21875 8.90625 106.226562 9.480469 107.21875 10.074219 C 108.214844 10.671875 109.191406 11.289062 110.15625 11.933594 C 111.121094 12.578125 112.066406 13.246094 112.996094 13.9375 C 113.929688 14.625 114.84375 15.339844 115.738281 16.074219 C 116.632812 16.808594 117.511719 17.566406 118.371094 18.34375 C 119.230469 19.121094 120.066406 19.921875 120.886719 20.742188 C 121.707031 21.558594 122.503906 22.398438 123.285156 23.257812 C 124.0625 24.117188 124.820312 24.996094 125.554688 25.890625 C 126.289062 26.785156 127.003906 27.699219 127.691406 28.628906 C 128.382812 29.5625 129.050781 30.507812 129.695312 31.472656 C 130.335938 32.433594 130.957031 33.414062 131.554688 34.410156 C 132.148438 35.402344 132.71875 36.410156 133.265625 37.433594 C 133.8125 38.453125 134.332031 39.488281 134.828125 40.539062 C 135.324219 41.585938 135.792969 42.644531 136.238281 43.714844 C 136.679688 44.785156 137.097656 45.867188 137.488281 46.957031 C 137.878906 48.046875 138.242188 49.148438 138.578125 50.257812 C 138.914062 51.367188 139.222656 52.484375 139.503906 53.609375 C 139.789062 54.730469 140.042969 55.863281 140.265625 57 C 140.492188 58.136719 140.691406 59.277344 140.863281 60.421875 C 141.03125 61.570312 141.171875 62.71875 141.285156 63.871094 C 141.402344 65.027344 141.484375 66.183594 141.542969 67.339844 C 141.601562 68.496094 141.628906 69.65625 141.628906 70.8125 Z M 141.628906 70.8125 "/><path style=" stroke:none;fill-rule:nonzero;fill:#f7f7f7;fill-opacity:1;" d="M 89.875 73.5 C 82.46875 73.5 76.421875 79.519531 76.421875 86.953125 C 76.421875 94.359375 82.4375 100.410156 89.875 100.410156 C 97.28125 100.410156 103.328125 94.390625 103.328125 86.953125 C 103.328125 79.519531 97.28125 73.5 89.875 73.5 Z M 98.578125 92.351562 C 98.429688 92.351562 98.285156 92.324219 98.136719 92.234375 L 89.460938 87.78125 C 89.460938 87.78125 89.433594 87.78125 89.433594 87.75 C 89.402344 87.75 89.402344 87.722656 89.375 87.722656 C 89.3125 87.691406 89.253906 87.632812 89.226562 87.601562 C 89.195312 87.574219 89.195312 87.542969 89.167969 87.542969 C 89.136719 87.515625 89.136719 87.484375 89.109375 87.484375 C 89.078125 87.457031 89.078125 87.425781 89.078125 87.425781 C 89.046875 87.394531 89.046875 87.367188 89.019531 87.308594 C 89.019531 87.277344 88.988281 87.25 88.988281 87.25 C 88.988281 87.21875 88.960938 87.191406 88.960938 87.160156 C 88.960938 87.128906 88.960938 87.101562 88.960938 87.042969 C 88.960938 87.011719 88.960938 86.984375 88.960938 86.953125 L 88.960938 76.832031 C 88.960938 76.300781 89.402344 75.859375 89.933594 75.859375 C 90.464844 75.859375 90.90625 76.300781 90.90625 76.832031 L 90.90625 86.363281 L 99.082031 90.554688 C 99.40625 90.730469 99.613281 91.054688 99.613281 91.410156 C 99.613281 91.554688 99.582031 91.703125 99.492188 91.851562 C 99.257812 92.148438 98.902344 92.351562 98.578125 92.351562 Z M 98.578125 92.351562 "/><path style=" stroke:none;fill-rule:nonzero;fill:#f7f7f7;fill-opacity:1;" d="M 82.558594 100.4375 L 55.175781 100.4375 C 54.644531 100.4375 54.203125 99.996094 54.203125 99.464844 C 54.203125 98.933594 54.644531 98.492188 55.175781 98.492188 L 79.785156 98.492188 C 78.988281 97.8125 78.277344 97.042969 77.660156 96.21875 L 55.175781 96.21875 C 54.644531 96.21875 54.203125 95.777344 54.203125 95.246094 C 54.203125 94.714844 54.644531 94.269531 55.175781 94.269531 L 76.421875 94.269531 C 75.210938 92.085938 74.53125 89.550781 74.53125 86.863281 C 74.53125 86.1875 74.5625 85.539062 74.648438 84.886719 L 55.175781 84.886719 C 54.644531 84.886719 54.203125 84.445312 54.203125 83.914062 C 54.203125 83.382812 54.644531 82.941406 55.175781 82.941406 L 75.003906 82.941406 C 75.210938 82.171875 75.476562 81.40625 75.800781 80.667969 L 55.175781 80.667969 C 54.644531 80.667969 54.203125 80.226562 54.203125 79.695312 C 54.203125 79.164062 54.644531 78.722656 55.175781 78.722656 L 76.804688 78.722656 C 79.519531 74.355469 84.355469 71.433594 89.875 71.433594 C 91.585938 71.433594 93.269531 71.730469 94.800781 72.230469 L 94.800781 30.832031 L 38.296875 30.832031 L 38.296875 110.824219 L 94.800781 110.824219 L 94.800781 101.5 C 93.269531 102.03125 91.585938 102.296875 89.875 102.296875 C 87.21875 102.296875 84.710938 101.617188 82.558594 100.4375 Z M 89.226562 69.484375 L 55.175781 69.484375 C 54.644531 69.484375 54.203125 69.042969 54.203125 68.511719 C 54.203125 67.980469 54.644531 67.539062 55.175781 67.539062 L 89.195312 67.539062 C 89.726562 67.539062 90.167969 67.980469 90.167969 68.511719 C 90.167969 69.074219 89.757812 69.484375 89.226562 69.484375 Z M 90.167969 64.351562 C 90.167969 64.882812 89.726562 65.324219 89.195312 65.324219 L 55.175781 65.324219 C 54.644531 65.324219 54.203125 64.882812 54.203125 64.351562 C 54.203125 63.820312 54.644531 63.378906 55.175781 63.378906 L 89.195312 63.378906 C 89.757812 63.40625 90.167969 63.820312 90.167969 64.351562 Z M 44.40625 37.324219 C 44.40625 36.792969 44.847656 36.351562 45.378906 36.351562 L 87.78125 36.351562 C 88.3125 36.351562 88.753906 36.792969 88.753906 37.324219 L 88.753906 50.425781 C 88.753906 50.957031 88.3125 51.398438 87.78125 51.398438 L 45.351562 51.398438 C 44.820312 51.398438 44.375 50.957031 44.375 50.425781 C 44.40625 50.425781 44.40625 37.324219 44.40625 37.324219 Z M 50.808594 100.851562 L 43.90625 100.851562 L 43.90625 93.945312 L 50.808594 93.945312 Z M 50.808594 85.359375 L 43.90625 85.359375 L 43.90625 78.457031 L 50.808594 78.457031 Z M 50.808594 69.898438 L 43.90625 69.898438 L 43.90625 62.996094 L 50.808594 62.996094 Z M 50.808594 69.898438 "/><path style=" stroke:none;fill-rule:nonzero;fill:#f7f7f7;fill-opacity:1;" d="M 46.324219 38.296875 L 86.804688 38.296875 L 86.804688 49.480469 L 46.324219 49.480469 Z M 46.324219 38.296875 "/><g clip-rule="nonzero" clip-path="url(#5cb89b6f98)"><path style=" stroke:none;fill-rule:nonzero;fill:#0b8841;fill-opacity:1;" d="M 141.628906 70.8125 C 141.628906 71.972656 141.601562 73.132812 141.542969 74.289062 C 141.484375 75.445312 141.402344 76.601562 141.285156 77.753906 C 141.171875 78.910156 141.03125 80.058594 140.863281 81.203125 C 140.691406 82.351562 140.492188 83.492188 140.265625 84.628906 C 140.042969 85.765625 139.789062 86.894531 139.503906 88.019531 C 139.222656 89.144531 138.914062 90.261719 138.578125 91.371094 C 138.242188 92.480469 137.878906 93.578125 137.488281 94.671875 C 137.097656 95.761719 136.679688 96.84375 136.238281 97.914062 C 135.792969 98.984375 135.324219 100.042969 134.828125 101.089844 C 134.332031 102.136719 133.8125 103.171875 133.265625 104.195312 C 132.71875 105.21875 132.148438 106.226562 131.554688 107.21875 C 130.957031 108.214844 130.335938 109.191406 129.695312 110.15625 C 129.050781 111.121094 128.382812 112.066406 127.691406 112.996094 C 127.003906 113.929688 126.289062 114.84375 125.554688 115.738281 C 124.820312 116.632812 124.0625 117.511719 123.285156 118.371094 C 122.503906 119.230469 121.707031 120.066406 120.886719 120.886719 C 120.066406 121.707031 119.230469 122.503906 118.371094 123.285156 C 117.511719 124.0625 116.632812 124.820312 115.738281 125.554688 C 114.84375 126.289062 113.929688 127.003906 112.996094 127.691406 C 112.066406 128.382812 111.121094 129.050781 110.15625 129.695312 C 109.191406 130.335938 108.214844 130.957031 107.21875 131.554688 C 106.226562 132.148438 105.21875 132.71875 104.195312 133.265625 C 103.171875 133.8125 102.136719 134.332031 101.089844 134.828125 C 100.042969 135.324219 98.984375 135.792969 97.914062 136.238281 C 96.84375 136.679688 95.761719 137.097656 94.671875 137.488281 C 93.578125 137.878906 92.480469 138.242188 91.371094 138.578125 C 90.261719 138.914062 89.144531 139.222656 88.019531 139.503906 C 86.894531 139.789062 85.765625 140.042969 84.628906 140.265625 C 83.492188 140.492188 82.351562 140.691406 81.203125 140.863281 C 80.058594 141.03125 78.910156 141.171875 77.753906 141.285156 C 76.601562 141.402344 75.445312 141.484375 74.289062 141.542969 C 73.132812 141.601562 71.972656 141.628906 70.8125 141.628906 C 69.65625 141.628906 68.496094 141.601562 67.339844 141.542969 C 66.183594 141.484375 65.027344 141.402344 63.871094 141.285156 C 62.71875 141.171875 61.570312 141.03125 60.421875 140.863281 C 59.277344 140.691406 58.136719 140.492188 57 140.265625 C 55.863281 140.042969 54.730469 139.789062 53.609375 139.503906 C 52.484375 139.222656 51.367188 138.914062 50.257812 138.578125 C 49.148438 138.242188 48.046875 137.878906 46.957031 137.488281 C 45.867188 137.097656 44.785156 136.679688 43.714844 136.238281 C 42.644531 135.792969 41.585938 135.324219 40.539062 134.828125 C 39.488281 134.332031 38.453125 133.8125 37.433594 133.265625 C 36.410156 132.71875 35.402344 132.148438 34.410156 131.554688 C 33.414062 130.957031 32.433594 130.335938 31.472656 129.695312 C 30.507812 129.050781 29.5625 128.382812 28.628906 127.691406 C 27.699219 127.003906 26.785156 126.289062 25.890625 125.554688 C 24.996094 124.820312 24.117188 124.0625 23.257812 123.285156 C 22.398438 122.503906 21.558594 121.707031 20.742188 120.886719 C 19.921875 120.066406 19.121094 119.230469 18.34375 118.371094 C 17.566406 117.511719 16.808594 116.632812 16.074219 115.738281 C 15.339844 114.84375 14.625 113.929688 13.9375 112.996094 C 13.246094 112.066406 12.578125 111.121094 11.933594 110.15625 C 11.289062 109.191406 10.671875 108.214844 10.074219 107.21875 C 9.480469 106.226562 8.90625 105.21875 8.363281 104.195312 C 7.816406 103.171875 7.292969 102.136719 6.800781 101.089844 C 6.304688 100.042969 5.832031 98.984375 5.390625 97.914062 C 4.945312 96.84375 4.53125 95.761719 4.140625 94.671875 C 3.75 93.578125 3.386719 92.480469 3.050781 91.371094 C 2.710938 90.261719 2.402344 89.144531 2.121094 88.019531 C 1.839844 86.894531 1.585938 85.765625 1.359375 84.628906 C 1.132812 83.492188 0.9375 82.351562 0.765625 81.203125 C 0.597656 80.058594 0.453125 78.910156 0.339844 77.753906 C 0.226562 76.601562 0.140625 75.445312 0.0859375 74.289062 C 0.0273438 73.132812 0 71.972656 0 70.8125 C 0 69.65625 0.0273438 68.496094 0.0859375 67.339844 C 0.140625 66.183594 0.226562 65.027344 0.339844 63.871094 C 0.453125 62.71875 0.597656 61.570312 0.765625 60.421875 C 0.9375 59.277344 1.132812 58.136719 1.359375 57 C 1.585938 55.863281 1.839844 54.730469 2.121094 53.609375 C 2.402344 52.484375 2.710938 51.367188 3.050781 50.257812 C 3.386719 49.148438 3.75 48.046875 4.140625 46.957031 C 4.53125 45.867188 4.945312 44.785156 5.390625 43.714844 C 5.832031 42.644531 6.304688 41.585938 6.800781 40.539062 C 7.292969 39.488281 7.816406 38.453125 8.363281 37.433594 C 8.90625 36.410156 9.480469 35.402344 10.074219 34.410156 C 10.671875 33.414062 11.289062 32.433594 11.933594 31.472656 C 12.578125 30.507812 13.246094 29.5625 13.9375 28.628906 C 14.625 27.699219 15.339844 26.785156 16.074219 25.890625 C 16.808594 24.996094 17.566406 24.117188 18.34375 23.257812 C 19.121094 22.398438 19.921875 21.558594 20.742188 20.742188 C 21.558594 19.921875 22.398438 19.121094 23.257812 18.34375 C 24.117188 17.566406 24.996094 16.808594 25.890625 16.074219 C 26.785156 15.339844 27.699219 14.625 28.628906 13.9375 C 29.5625 13.246094 30.507812 12.578125 31.472656 11.933594 C 32.433594 11.289062 33.414062 10.671875 34.410156 10.074219 C 35.402344 9.480469 36.410156 8.90625 37.433594 8.363281 C 38.453125 7.816406 39.488281 7.292969 40.539062 6.800781 C 41.585938 6.304688 42.644531 5.832031 43.714844 5.390625 C 44.785156 4.945312 45.867188 4.53125 46.957031 4.140625 C 48.046875 3.75 49.148438 3.386719 50.257812 3.050781 C 51.367188 2.710938 52.484375 2.402344 53.609375 2.121094 C 54.730469 1.839844 55.863281 1.585938 57 1.359375 C 58.136719 1.132812 59.277344 0.9375 60.421875 0.765625 C 61.570312 0.597656 62.71875 0.453125 63.871094 0.339844 C 65.027344 0.226562 66.183594 0.140625 67.339844 0.0859375 C 68.496094 0.0273438 69.65625 0 70.8125 0 C 71.972656 0 73.132812 0.0273438 74.289062 0.0859375 C 75.445312 0.140625 76.601562 0.226562 77.753906 0.339844 C 78.910156 0.453125 80.058594 0.597656 81.203125 0.765625 C 82.351562 0.9375 83.492188 1.132812 84.628906 1.359375 C 85.765625 1.585938 86.894531 1.839844 88.019531 2.121094 C 89.144531 2.402344 90.261719 2.710938 91.371094 3.050781 C 92.480469 3.386719 93.578125 3.75 94.671875 4.140625 C 95.761719 4.53125 96.84375 4.945312 97.914062 5.390625 C 98.984375 5.832031 100.042969 6.304688 101.089844 6.800781 C 102.136719 7.292969 103.171875 7.816406 104.195312 8.363281 C 105.21875 8.90625 106.226562 9.480469 107.21875 10.074219 C 108.214844 10.671875 109.191406 11.289062 110.15625 11.933594 C 111.121094 12.578125 112.066406 13.246094 112.996094 13.9375 C 113.929688 14.625 114.84375 15.339844 115.738281 16.074219 C 116.632812 16.808594 117.511719 17.566406 118.371094 18.34375 C 119.230469 19.121094 120.066406 19.921875 120.886719 20.742188 C 121.707031 21.558594 122.503906 22.398438 123.285156 23.257812 C 124.0625 24.117188 124.820312 24.996094 125.554688 25.890625 C 126.289062 26.785156 127.003906 27.699219 127.691406 28.628906 C 128.382812 29.5625 129.050781 30.507812 129.695312 31.472656 C 130.335938 32.433594 130.957031 33.414062 131.554688 34.410156 C 132.148438 35.402344 132.71875 36.410156 133.265625 37.433594 C 133.8125 38.453125 134.332031 39.488281 134.828125 40.539062 C 135.324219 41.585938 135.792969 42.644531 136.238281 43.714844 C 136.679688 44.785156 137.097656 45.867188 137.488281 46.957031 C 137.878906 48.046875 138.242188 49.148438 138.578125 50.257812 C 138.914062 51.367188 139.222656 52.484375 139.503906 53.609375 C 139.789062 54.730469 140.042969 55.863281 140.265625 57 C 140.492188 58.136719 140.691406 59.277344 140.863281 60.421875 C 141.03125 61.570312 141.171875 62.71875 141.285156 63.871094 C 141.402344 65.027344 141.484375 66.183594 141.542969 67.339844 C 141.601562 68.496094 141.628906 69.65625 141.628906 70.8125 Z M 141.628906 70.8125 "/></g><g clip-rule="nonzero" clip-path="url(#30008f1506)"><path style=" stroke:none;fill-rule:nonzero;fill:#f7f7f7;fill-opacity:1;" d="M 89.875 73.5 C 82.46875 73.5 76.421875 79.519531 76.421875 86.953125 C 76.421875 94.359375 82.4375 100.410156 89.875 100.410156 C 97.28125 100.410156 103.328125 94.390625 103.328125 86.953125 C 103.328125 79.519531 97.28125 73.5 89.875 73.5 Z M 98.578125 92.351562 C 98.429688 92.351562 98.285156 92.324219 98.136719 92.234375 L 89.460938 87.78125 C 89.460938 87.78125 89.433594 87.78125 89.433594 87.75 C 89.402344 87.75 89.402344 87.722656 89.375 87.722656 C 89.3125 87.691406 89.253906 87.632812 89.226562 87.601562 C 89.195312 87.574219 89.195312 87.542969 89.167969 87.542969 C 89.136719 87.515625 89.136719 87.484375 89.109375 87.484375 C 89.078125 87.457031 89.078125 87.425781 89.078125 87.425781 C 89.046875 87.394531 89.046875 87.367188 89.019531 87.308594 C 89.019531 87.277344 88.988281 87.25 88.988281 87.25 C 88.988281 87.21875 88.960938 87.191406 88.960938 87.160156 C 88.960938 87.128906 88.960938 87.101562 88.960938 87.042969 C 88.960938 87.011719 88.960938 86.984375 88.960938 86.953125 L 88.960938 76.832031 C 88.960938 76.300781 89.402344 75.859375 89.933594 75.859375 C 90.464844 75.859375 90.90625 76.300781 90.90625 76.832031 L 90.90625 86.363281 L 99.082031 90.554688 C 99.40625 90.730469 99.613281 91.054688 99.613281 91.410156 C 99.613281 91.554688 99.582031 91.703125 99.492188 91.851562 C 99.257812 92.148438 98.902344 92.351562 98.578125 92.351562 Z M 98.578125 92.351562 "/></g><g clip-rule="nonzero" clip-path="url(#5ceddf910f)"><path style=" stroke:none;fill-rule:nonzero;fill:#f7f7f7;fill-opacity:1;" d="M 82.558594 100.4375 L 55.175781 100.4375 C 54.644531 100.4375 54.203125 99.996094 54.203125 99.464844 C 54.203125 98.933594 54.644531 98.492188 55.175781 98.492188 L 79.785156 98.492188 C 78.988281 97.8125 78.277344 97.042969 77.660156 96.21875 L 55.175781 96.21875 C 54.644531 96.21875 54.203125 95.777344 54.203125 95.246094 C 54.203125 94.714844 54.644531 94.269531 55.175781 94.269531 L 76.421875 94.269531 C 75.210938 92.085938 74.53125 89.550781 74.53125 86.863281 C 74.53125 86.1875 74.5625 85.539062 74.648438 84.886719 L 55.175781 84.886719 C 54.644531 84.886719 54.203125 84.445312 54.203125 83.914062 C 54.203125 83.382812 54.644531 82.941406 55.175781 82.941406 L 75.003906 82.941406 C 75.210938 82.171875 75.476562 81.40625 75.800781 80.667969 L 55.175781 80.667969 C 54.644531 80.667969 54.203125 80.226562 54.203125 79.695312 C 54.203125 79.164062 54.644531 78.722656 55.175781 78.722656 L 76.804688 78.722656 C 79.519531 74.355469 84.355469 71.433594 89.875 71.433594 C 91.585938 71.433594 93.269531 71.730469 94.800781 72.230469 L 94.800781 30.832031 L 38.296875 30.832031 L 38.296875 110.824219 L 94.800781 110.824219 L 94.800781 101.5 C 93.269531 102.03125 91.585938 102.296875 89.875 102.296875 C 87.21875 102.296875 84.710938 101.617188 82.558594 100.4375 Z M 89.226562 69.484375 L 55.175781 69.484375 C 54.644531 69.484375 54.203125 69.042969 54.203125 68.511719 C 54.203125 67.980469 54.644531 67.539062 55.175781 67.539062 L 89.195312 67.539062 C 89.726562 67.539062 90.167969 67.980469 90.167969 68.511719 C 90.167969 69.074219 89.757812 69.484375 89.226562 69.484375 Z M 90.167969 64.351562 C 90.167969 64.882812 89.726562 65.324219 89.195312 65.324219 L 55.175781 65.324219 C 54.644531 65.324219 54.203125 64.882812 54.203125 64.351562 C 54.203125 63.820312 54.644531 63.378906 55.175781 63.378906 L 89.195312 63.378906 C 89.757812 63.40625 90.167969 63.820312 90.167969 64.351562 Z M 44.40625 37.324219 C 44.40625 36.792969 44.847656 36.351562 45.378906 36.351562 L 87.78125 36.351562 C 88.3125 36.351562 88.753906 36.792969 88.753906 37.324219 L 88.753906 50.425781 C 88.753906 50.957031 88.3125 51.398438 87.78125 51.398438 L 45.351562 51.398438 C 44.820312 51.398438 44.375 50.957031 44.375 50.425781 C 44.40625 50.425781 44.40625 37.324219 44.40625 37.324219 Z M 50.808594 100.851562 L 43.90625 100.851562 L 43.90625 93.945312 L 50.808594 93.945312 Z M 50.808594 85.359375 L 43.90625 85.359375 L 43.90625 78.457031 L 50.808594 78.457031 Z M 50.808594 69.898438 L 43.90625 69.898438 L 43.90625 62.996094 L 50.808594 62.996094 Z M 50.808594 69.898438 "/></g><path style=" stroke:none;fill-rule:nonzero;fill:#f7f7f7;fill-opacity:1;" d="M 46.324219 38.296875 L 86.804688 38.296875 L 86.804688 49.480469 L 46.324219 49.480469 Z M 46.324219 38.296875 "/></g></svg>