<svg xmlns="http://www.w3.org/2000/svg" xmlns:xlink="http://www.w3.org/1999/xlink" width="160" zoomAndPan="magnify" viewBox="0 0 120 118.499997" height="158" preserveAspectRatio="xMidYMid meet" version="1.2"><defs><clipPath id="883b693732"><path d="M 3.65625 2.984375 L 115.683594 2.984375 L 115.683594 115.011719 L 3.65625 115.011719 Z M 3.65625 2.984375 "/></clipPath><clipPath id="6e7bedcd34"><path d="M 59.671875 2.984375 C 28.734375 2.984375 3.65625 28.0625 3.65625 58.996094 C 3.65625 89.933594 28.734375 115.011719 59.671875 115.011719 C 90.605469 115.011719 115.683594 89.933594 115.683594 58.996094 C 115.683594 28.0625 90.605469 2.984375 59.671875 2.984375 Z M 59.671875 2.984375 "/></clipPath><clipPath id="387cac4299"><path d="M 12 34 L 84 34 L 84 101 L 12 101 Z M 12 34 "/></clipPath><clipPath id="179f5b8239"><path d="M 48.089844 0 L 119 49.769531 L 71.375 117.625 L 0.460938 67.855469 Z M 48.089844 0 "/></clipPath><clipPath id="dcda49dc91"><path d="M 48.089844 0 L 119 49.769531 L 71.375 117.625 L 0.460938 67.855469 Z M 48.089844 0 "/></clipPath><clipPath id="eabf469690"><path d="M 36 17 L 108 17 L 108 83 L 36 83 Z M 36 17 "/></clipPath><clipPath id="72ca7669fa"><path d="M 48.089844 0 L 119 49.769531 L 71.375 117.625 L 0.460938 67.855469 Z M 48.089844 0 "/></clipPath><clipPath id="fba3befbc6"><path d="M 48.089844 0 L 119 49.769531 L 71.375 117.625 L 0.460938 67.855469 Z M 48.089844 0 "/></clipPath></defs><g id="a0cc17a161"><g clip-rule="nonzero" clip-path="url(#883b693732)"><g clip-rule="nonzero" clip-path="url(#6e7bedcd34)"><path style=" stroke:none;fill-rule:nonzero;fill:#0b8841;fill-opacity:1;" d="M 3.65625 2.984375 L 115.683594 2.984375 L 115.683594 115.011719 L 3.65625 115.011719 Z M 3.65625 2.984375 "/></g></g><g clip-rule="nonzero" clip-path="url(#387cac4299)"><g clip-rule="nonzero" clip-path="url(#179f5b8239)"><g clip-rule="nonzero" clip-path="url(#dcda49dc91)"><path style=" stroke:none;fill-rule:nonzero;fill:#ffffff;fill-opacity:1;" d="M 83.039062 92.785156 C 69.222656 102.273438 50.367188 102.738281 35.863281 92.558594 C 21.976562 82.8125 15.929688 66 19.15625 50.351562 L 12.109375 51.261719 L 25.675781 35.144531 C 25.710938 35.097656 25.746094 35.035156 25.777344 34.988281 L 25.804688 35.003906 L 25.851562 34.9375 L 43.308594 47.21875 L 32.980469 48.558594 C 28.421875 60.480469 32.304688 74.429688 43.214844 82.085938 C 51.789062 88.105469 62.558594 88.734375 71.480469 84.671875 Z M 83.039062 92.785156 "/></g></g></g><g clip-rule="nonzero" clip-path="url(#eabf469690)"><g clip-rule="nonzero" clip-path="url(#72ca7669fa)"><g clip-rule="nonzero" clip-path="url(#fba3befbc6)"><path style=" stroke:none;fill-rule:nonzero;fill:#ffffff;fill-opacity:1;" d="M 47.957031 32.6875 C 56.824219 28.746094 67.484375 29.414062 75.992188 35.386719 C 86.871094 43.019531 90.75 56.894531 86.269531 68.78125 L 76.03125 70.113281 L 83.015625 75.03125 C 82.996094 75.058594 82.984375 75.09375 82.964844 75.125 L 93.4375 82.476562 C 93.453125 82.457031 93.472656 82.425781 93.484375 82.40625 L 107.226562 66.070312 L 100.074219 67.003906 C 103.238281 51.375 97.203125 34.625 83.351562 24.902344 C 68.910156 14.769531 50.167969 15.199219 36.367188 24.550781 Z M 47.957031 32.6875 "/></g></g></g></g></svg>