<svg xmlns="http://www.w3.org/2000/svg" xmlns:xlink="http://www.w3.org/1999/xlink" width="200" zoomAndPan="magnify" viewBox="0 0 150 149.999998" height="200" preserveAspectRatio="xMidYMid meet" version="1.2"><defs><clipPath id="652befc2f6"><path d="M 0 0 L 150 0 L 150 84 L 0 84 Z M 0 0 "/></clipPath></defs><g id="3d2cda033e"><path style=" stroke:none;fill-rule:evenodd;fill:#0b8841;fill-opacity:1;" d="M 150 75 C 150 116.421875 116.421875 150 75 150 C 33.578125 150 0 116.421875 0 75 C 0 33.578125 33.578125 0 75 0 C 116.421875 0 150 33.578125 150 75 Z M 35 45 C 35 42.789062 36.789062 41 39 41 L 51 41 L 51 37 L 59 37 L 59 41 L 91 41 L 91 37 L 99 37 L 99 41 L 111 41 C 113.210938 41 115 42.789062 115 45 L 115 109 C 115 111.210938 113.210938 113 111 113 L 39 113 C 36.789062 113 35 111.210938 35 109 Z M 43 59 L 107 59 L 107 49 L 99 49 L 99 53 L 91 53 L 91 49 L 59 49 L 59 53 L 51 53 L 51 49 L 43 49 Z M 68.171875 68.171875 L 58.171875 78.171875 C 56.609375 79.734375 56.609375 82.265625 58.171875 83.828125 L 68.171875 93.828125 L 73.828125 88.171875 L 70.65625 85 L 80 85 C 82.761719 85 85 87.238281 85 90 C 85 92.761719 82.761719 95 80 95 L 61 95 L 61 103 L 80 103 C 87.179688 103 93 97.179688 93 90 C 93 82.820312 87.179688 77 80 77 L 70.65625 77 L 73.828125 73.828125 Z M 68.171875 68.171875 "/><g clip-rule="nonzero" clip-path="url(#652befc2f6)"><path style=" stroke:none;fill-rule:evenodd;fill:#0b8841;fill-opacity:1;" d="M 150 75 C 150 116.421875 116.421875 150 75 150 C 33.578125 150 0 116.421875 0 75 C 0 33.578125 33.578125 0 75 0 C 116.421875 0 150 33.578125 150 75 Z M 35 45 C 35 42.789062 36.789062 41 39 41 L 51 41 L 51 37 L 59 37 L 59 41 L 91 41 L 91 37 L 99 37 L 99 41 L 111 41 C 113.210938 41 115 42.789062 115 45 L 115 109 C 115 111.210938 113.210938 113 111 113 L 39 113 C 36.789062 113 35 111.210938 35 109 Z M 43 59 L 107 59 L 107 49 L 99 49 L 99 53 L 91 53 L 91 49 L 59 49 L 59 53 L 51 53 L 51 49 L 43 49 Z M 68.171875 68.171875 L 58.171875 78.171875 C 56.609375 79.734375 56.609375 82.265625 58.171875 83.828125 L 68.171875 93.828125 L 73.828125 88.171875 L 70.65625 85 L 80 85 C 82.761719 85 85 87.238281 85 90 C 85 92.761719 82.761719 95 80 95 L 61 95 L 61 103 L 80 103 C 87.179688 103 93 97.179688 93 90 C 93 82.820312 87.179688 77 80 77 L 70.65625 77 L 73.828125 73.828125 Z M 68.171875 68.171875 "/></g></g></svg>