<svg xmlns="http://www.w3.org/2000/svg" xmlns:xlink="http://www.w3.org/1999/xlink" width="200" zoomAndPan="magnify" viewBox="0 0 150 149.999998" height="200" preserveAspectRatio="xMidYMid meet" version="1.2"><defs><clipPath id="f938f11e0b"><path d="M 0 0 L 150 0 L 150 103.5 L 0 103.5 Z M 0 0 "/></clipPath><clipPath id="57fb24b80f"><path d="M 30 41 L 120 41 L 120 103.5 L 30 103.5 Z M 30 41 "/></clipPath></defs><g id="2abba0c422"><path style=" stroke:none;fill-rule:evenodd;fill:#0b8841;fill-opacity:1;" d="M 75 0 C 116.25 0 150 33.75 150 75 C 150 116.25 116.25 150 75 150 C 33.75 150 0 116.25 0 75 C 0 33.75 33.75 0 75 0 "/><path style=" stroke:none;fill-rule:evenodd;fill:#fffffe;fill-opacity:1;" d="M 34.382812 108.210938 L 115.617188 108.210938 C 117.644531 108.210938 119.308594 106.550781 119.308594 104.519531 L 119.308594 45.480469 C 119.308594 43.449219 117.644531 41.789062 115.617188 41.789062 L 34.382812 41.789062 C 32.351562 41.789062 30.691406 43.449219 30.691406 45.480469 L 30.691406 104.519531 C 30.691406 106.550781 32.351562 108.210938 34.382812 108.210938 Z M 96.675781 51.597656 C 104.589844 51.597656 111.011719 58.015625 111.011719 65.933594 C 111.011719 73.851562 104.589844 80.273438 96.675781 80.273438 C 88.757812 80.273438 82.335938 73.851562 82.335938 65.933594 C 82.335938 58.015625 88.757812 51.597656 96.675781 51.597656 Z M 96.675781 58.875 C 100.574219 58.875 103.734375 62.035156 103.734375 65.933594 C 103.734375 69.832031 100.574219 72.996094 96.675781 72.996094 C 92.773438 72.996094 89.613281 69.832031 89.613281 65.933594 C 89.613281 62.035156 92.773438 58.875 96.675781 58.875 Z M 103.226562 80.3125 L 103.226562 98.402344 L 103.1875 98.402344 L 96.675781 91.886719 L 90.160156 98.402344 L 90.121094 98.402344 L 90.121094 80.3125 C 92.117188 81.226562 94.335938 81.734375 96.675781 81.734375 C 99.011719 81.734375 101.230469 81.226562 103.226562 80.3125 Z M 66.890625 58.949219 L 40.382812 58.949219 C 39.621094 58.949219 39 58.328125 39 57.566406 C 39 56.800781 39.621094 56.179688 40.382812 56.179688 L 66.890625 56.179688 C 67.65625 56.179688 68.277344 56.800781 68.277344 57.566406 C 68.277344 58.328125 67.65625 58.949219 66.890625 58.949219 Z M 66.890625 67.667969 L 40.382812 67.667969 C 39.621094 67.667969 39 67.046875 39 66.28125 C 39 65.519531 39.621094 64.898438 40.382812 64.898438 L 66.890625 64.898438 C 67.65625 64.898438 68.277344 65.519531 68.277344 66.28125 C 68.277344 67.046875 67.65625 67.667969 66.890625 67.667969 Z M 66.890625 76.386719 L 40.382812 76.386719 C 39.621094 76.386719 39 75.765625 39 75 C 39 74.234375 39.621094 73.613281 40.382812 73.613281 L 66.890625 73.613281 C 67.65625 73.613281 68.277344 74.234375 68.277344 75 C 68.277344 75.765625 67.65625 76.386719 66.890625 76.386719 Z M 66.890625 85.101562 L 40.382812 85.101562 C 39.621094 85.101562 39 84.480469 39 83.71875 C 39 82.953125 39.621094 82.332031 40.382812 82.332031 L 66.890625 82.332031 C 67.65625 82.332031 68.277344 82.953125 68.277344 83.71875 C 68.277344 84.480469 67.65625 85.101562 66.890625 85.101562 Z M 66.890625 93.820312 L 40.382812 93.820312 C 39.621094 93.820312 39 93.199219 39 92.433594 C 39 91.671875 39.621094 91.050781 40.382812 91.050781 L 66.890625 91.050781 C 67.65625 91.050781 68.277344 91.671875 68.277344 92.433594 C 68.277344 93.199219 67.65625 93.820312 66.890625 93.820312 "/><g clip-rule="nonzero" clip-path="url(#f938f11e0b)"><path style=" stroke:none;fill-rule:evenodd;fill:#0b8841;fill-opacity:1;" d="M 75 0 C 116.25 0 150 33.75 150 75 C 150 116.25 116.25 150 75 150 C 33.75 150 0 116.25 0 75 C 0 33.75 33.75 0 75 0 "/></g><g clip-rule="nonzero" clip-path="url(#57fb24b80f)"><path style=" stroke:none;fill-rule:evenodd;fill:#fffffe;fill-opacity:1;" d="M 34.382812 108.210938 L 115.617188 108.210938 C 117.644531 108.210938 119.308594 106.550781 119.308594 104.519531 L 119.308594 45.480469 C 119.308594 43.449219 117.644531 41.789062 115.617188 41.789062 L 34.382812 41.789062 C 32.351562 41.789062 30.691406 43.449219 30.691406 45.480469 L 30.691406 104.519531 C 30.691406 106.550781 32.351562 108.210938 34.382812 108.210938 Z M 96.675781 51.597656 C 104.589844 51.597656 111.011719 58.015625 111.011719 65.933594 C 111.011719 73.851562 104.589844 80.273438 96.675781 80.273438 C 88.757812 80.273438 82.335938 73.851562 82.335938 65.933594 C 82.335938 58.015625 88.757812 51.597656 96.675781 51.597656 Z M 96.675781 58.875 C 100.574219 58.875 103.734375 62.035156 103.734375 65.933594 C 103.734375 69.832031 100.574219 72.996094 96.675781 72.996094 C 92.773438 72.996094 89.613281 69.832031 89.613281 65.933594 C 89.613281 62.035156 92.773438 58.875 96.675781 58.875 Z M 103.226562 80.3125 L 103.226562 98.402344 L 103.1875 98.402344 L 96.675781 91.886719 L 90.160156 98.402344 L 90.121094 98.402344 L 90.121094 80.3125 C 92.117188 81.226562 94.335938 81.734375 96.675781 81.734375 C 99.011719 81.734375 101.230469 81.226562 103.226562 80.3125 Z M 66.890625 58.949219 L 40.382812 58.949219 C 39.621094 58.949219 39 58.328125 39 57.566406 C 39 56.800781 39.621094 56.179688 40.382812 56.179688 L 66.890625 56.179688 C 67.65625 56.179688 68.277344 56.800781 68.277344 57.566406 C 68.277344 58.328125 67.65625 58.949219 66.890625 58.949219 Z M 66.890625 67.667969 L 40.382812 67.667969 C 39.621094 67.667969 39 67.046875 39 66.28125 C 39 65.519531 39.621094 64.898438 40.382812 64.898438 L 66.890625 64.898438 C 67.65625 64.898438 68.277344 65.519531 68.277344 66.28125 C 68.277344 67.046875 67.65625 67.667969 66.890625 67.667969 Z M 66.890625 76.386719 L 40.382812 76.386719 C 39.621094 76.386719 39 75.765625 39 75 C 39 74.234375 39.621094 73.613281 40.382812 73.613281 L 66.890625 73.613281 C 67.65625 73.613281 68.277344 74.234375 68.277344 75 C 68.277344 75.765625 67.65625 76.386719 66.890625 76.386719 Z M 66.890625 85.101562 L 40.382812 85.101562 C 39.621094 85.101562 39 84.480469 39 83.71875 C 39 82.953125 39.621094 82.332031 40.382812 82.332031 L 66.890625 82.332031 C 67.65625 82.332031 68.277344 82.953125 68.277344 83.71875 C 68.277344 84.480469 67.65625 85.101562 66.890625 85.101562 Z M 66.890625 93.820312 L 40.382812 93.820312 C 39.621094 93.820312 39 93.199219 39 92.433594 C 39 91.671875 39.621094 91.050781 40.382812 91.050781 L 66.890625 91.050781 C 67.65625 91.050781 68.277344 91.671875 68.277344 92.433594 C 68.277344 93.199219 67.65625 93.820312 66.890625 93.820312 "/></g></g></svg>