<svg xmlns="http://www.w3.org/2000/svg" xmlns:xlink="http://www.w3.org/1999/xlink" width="200" zoomAndPan="magnify" viewBox="0 0 150 149.999998" height="200" preserveAspectRatio="xMidYMid meet" version="1.2"><defs><clipPath id="9bbd057ebd"><path d="M 0 0 L 150 0 L 150 75.75 L 0 75.75 Z M 0 0 "/></clipPath><clipPath id="1210a6e482"><path d="M 38 44 L 112 44 L 112 75.75 L 38 75.75 Z M 38 44 "/></clipPath><clipPath id="98af1cbc2c"><path d="M 43 65 L 108 65 L 108 75.75 L 43 75.75 Z M 43 65 "/></clipPath><clipPath id="f356a79aeb"><path d="M 48 69 L 58 69 L 58 75.75 L 48 75.75 Z M 48 69 "/></clipPath><clipPath id="4cba4a6dd5"><path d="M 63 69 L 73 69 L 73 75.75 L 63 75.75 Z M 63 69 "/></clipPath><clipPath id="b6e7ee9b3c"><path d="M 78 69 L 88 69 L 88 75.75 L 78 75.75 Z M 78 69 "/></clipPath><clipPath id="24f6f01f51"><path d="M 93 69 L 102 69 L 102 75.75 L 93 75.75 Z M 93 69 "/></clipPath></defs><g id="ae58bb659a"><path style=" stroke:none;fill-rule:nonzero;fill:#0b8841;fill-opacity:1;" d="M 150.007812 75.015625 C 150.007812 76.242188 149.976562 77.46875 149.917969 78.695312 C 149.855469 79.921875 149.765625 81.144531 149.644531 82.367188 C 149.527344 83.589844 149.375 84.804688 149.195312 86.019531 C 149.015625 87.234375 148.804688 88.445312 148.566406 89.648438 C 148.328125 90.851562 148.058594 92.050781 147.761719 93.238281 C 147.460938 94.429688 147.132812 95.613281 146.777344 96.789062 C 146.421875 97.960938 146.035156 99.128906 145.625 100.285156 C 145.210938 101.4375 144.769531 102.585938 144.296875 103.71875 C 143.828125 104.851562 143.332031 105.972656 142.804688 107.082031 C 142.28125 108.195312 141.730469 109.289062 141.152344 110.371094 C 140.574219 111.453125 139.96875 112.523438 139.335938 113.574219 C 138.707031 114.628906 138.050781 115.664062 137.367188 116.6875 C 136.683594 117.707031 135.976562 118.710938 135.246094 119.695312 C 134.515625 120.679688 133.761719 121.648438 132.980469 122.597656 C 132.203125 123.546875 131.402344 124.476562 130.578125 125.386719 C 129.753906 126.292969 128.90625 127.183594 128.039062 128.050781 C 127.171875 128.917969 126.28125 129.765625 125.371094 130.589844 C 124.464844 131.414062 123.535156 132.214844 122.585938 132.996094 C 121.636719 133.773438 120.667969 134.527344 119.683594 135.257812 C 118.695312 135.992188 117.695312 136.699219 116.671875 137.378906 C 115.652344 138.0625 114.617188 138.71875 113.5625 139.347656 C 112.511719 139.980469 111.441406 140.585938 110.359375 141.164062 C 109.277344 141.742188 108.179688 142.292969 107.070312 142.820312 C 105.960938 143.34375 104.839844 143.839844 103.707031 144.308594 C 102.570312 144.78125 101.425781 145.222656 100.269531 145.636719 C 99.117188 146.050781 97.949219 146.433594 96.777344 146.789062 C 95.601562 147.148438 94.417969 147.472656 93.226562 147.773438 C 92.035156 148.070312 90.839844 148.339844 89.636719 148.578125 C 88.433594 148.816406 87.222656 149.027344 86.007812 149.207031 C 84.792969 149.386719 83.578125 149.539062 82.355469 149.660156 C 81.132812 149.777344 79.910156 149.871094 78.683594 149.929688 C 77.457031 149.988281 76.230469 150.019531 75.003906 150.019531 C 73.773438 150.019531 72.546875 149.988281 71.324219 149.929688 C 70.097656 149.871094 68.871094 149.777344 67.652344 149.660156 C 66.429688 149.539062 65.210938 149.386719 63.996094 149.207031 C 62.78125 149.027344 61.574219 148.816406 60.371094 148.578125 C 59.167969 148.339844 57.96875 148.070312 56.777344 147.773438 C 55.585938 147.472656 54.40625 147.148438 53.230469 146.789062 C 52.054688 146.433594 50.890625 146.050781 49.734375 145.636719 C 48.578125 145.222656 47.433594 144.78125 46.300781 144.308594 C 45.164062 143.839844 44.042969 143.34375 42.933594 142.820312 C 41.824219 142.292969 40.726562 141.742188 39.644531 141.164062 C 38.5625 140.585938 37.496094 139.980469 36.441406 139.347656 C 35.390625 138.71875 34.351562 138.0625 33.332031 137.378906 C 32.3125 136.699219 31.308594 135.992188 30.324219 135.257812 C 29.335938 134.527344 28.371094 133.773438 27.421875 132.996094 C 26.472656 132.214844 25.542969 131.414062 24.632812 130.589844 C 23.722656 129.765625 22.835938 128.917969 21.964844 128.050781 C 21.097656 127.183594 20.253906 126.292969 19.429688 125.386719 C 18.605469 124.476562 17.800781 123.546875 17.023438 122.597656 C 16.246094 121.648438 15.488281 120.679688 14.757812 119.695312 C 14.027344 118.710938 13.320312 117.707031 12.640625 116.6875 C 11.957031 115.664062 11.300781 114.628906 10.667969 113.574219 C 10.039062 112.523438 9.433594 111.453125 8.855469 110.371094 C 8.277344 109.289062 7.722656 108.195312 7.199219 107.082031 C 6.675781 105.972656 6.175781 104.851562 5.707031 103.71875 C 5.238281 102.585938 4.796875 101.4375 4.382812 100.285156 C 3.96875 99.128906 3.585938 97.960938 3.226562 96.789062 C 2.871094 95.613281 2.542969 94.429688 2.246094 93.238281 C 1.949219 92.050781 1.679688 90.851562 1.4375 89.648438 C 1.199219 88.445312 0.988281 87.234375 0.808594 86.019531 C 0.628906 84.804688 0.480469 83.589844 0.359375 82.367188 C 0.238281 81.144531 0.148438 79.921875 0.0898438 78.695312 C 0.0273438 77.46875 0 76.242188 0 75.015625 C 0 73.789062 0.0273438 72.5625 0.0898438 71.335938 C 0.148438 70.109375 0.238281 68.886719 0.359375 67.664062 C 0.480469 66.441406 0.628906 65.222656 0.808594 64.007812 C 0.988281 62.796875 1.199219 61.585938 1.4375 60.382812 C 1.679688 59.179688 1.949219 57.980469 2.246094 56.789062 C 2.542969 55.601562 2.871094 54.417969 3.226562 53.242188 C 3.585938 52.066406 3.96875 50.902344 4.382812 49.746094 C 4.796875 48.589844 5.238281 47.445312 5.707031 46.3125 C 6.175781 45.179688 6.675781 44.054688 7.199219 42.945312 C 7.722656 41.835938 8.277344 40.742188 8.855469 39.660156 C 9.433594 38.574219 10.039062 37.507812 10.667969 36.453125 C 11.300781 35.402344 11.957031 34.367188 12.640625 33.34375 C 13.320312 32.324219 14.027344 31.320312 14.757812 30.335938 C 15.488281 29.347656 16.246094 28.382812 17.023438 27.433594 C 17.800781 26.484375 18.605469 25.554688 19.429688 24.644531 C 20.253906 23.734375 21.097656 22.847656 21.964844 21.980469 C 22.835938 21.109375 23.722656 20.265625 24.632812 19.441406 C 25.542969 18.617188 26.472656 17.816406 27.421875 17.035156 C 28.371094 16.257812 29.335938 15.503906 30.324219 14.769531 C 31.308594 14.039062 32.3125 13.332031 33.332031 12.652344 C 34.351562 11.96875 35.390625 11.3125 36.441406 10.679688 C 37.496094 10.050781 38.5625 9.445312 39.644531 8.867188 C 40.726562 8.289062 41.824219 7.738281 42.933594 7.210938 C 44.042969 6.6875 45.164062 6.191406 46.300781 5.71875 C 47.433594 5.25 48.578125 4.808594 49.734375 4.394531 C 50.890625 3.980469 52.054688 3.597656 53.230469 3.238281 C 54.40625 2.882812 55.585938 2.554688 56.777344 2.257812 C 57.96875 1.960938 59.167969 1.691406 60.371094 1.453125 C 61.574219 1.210938 62.78125 1.003906 63.996094 0.824219 C 65.210938 0.640625 66.429688 0.492188 67.652344 0.371094 C 68.871094 0.25 70.097656 0.160156 71.324219 0.101562 C 72.546875 0.0390625 73.773438 0.0117188 75.003906 0.0117188 C 76.230469 0.0117188 77.457031 0.0390625 78.683594 0.101562 C 79.910156 0.160156 81.132812 0.25 82.355469 0.371094 C 83.578125 0.492188 84.792969 0.640625 86.007812 0.824219 C 87.222656 1.003906 88.433594 1.210938 89.636719 1.453125 C 90.839844 1.691406 92.035156 1.960938 93.226562 2.257812 C 94.417969 2.554688 95.601562 2.882812 96.777344 3.238281 C 97.949219 3.597656 99.117188 3.980469 100.269531 4.394531 C 101.425781 4.808594 102.570312 5.25 103.707031 5.71875 C 104.839844 6.191406 105.960938 6.6875 107.070312 7.210938 C 108.179688 7.738281 109.277344 8.289062 110.359375 8.867188 C 111.441406 9.445312 112.511719 10.050781 113.5625 10.679688 C 114.617188 11.3125 115.652344 11.96875 116.671875 12.652344 C 117.695312 13.332031 118.695312 14.039062 119.683594 14.769531 C 120.667969 15.503906 121.636719 16.257812 122.585938 17.035156 C 123.535156 17.816406 124.464844 18.617188 125.371094 19.441406 C 126.28125 20.265625 127.171875 21.109375 128.039062 21.980469 C 128.90625 22.847656 129.753906 23.734375 130.578125 24.644531 C 131.402344 25.554688 132.203125 26.484375 132.980469 27.433594 C 133.761719 28.382812 134.515625 29.347656 135.246094 30.335938 C 135.976562 31.320312 136.683594 32.324219 137.367188 33.34375 C 138.050781 34.367188 138.707031 35.402344 139.335938 36.453125 C 139.96875 37.507812 140.574219 38.574219 141.152344 39.660156 C 141.730469 40.742188 142.28125 41.835938 142.804688 42.945312 C 143.332031 44.054688 143.828125 45.179688 144.296875 46.3125 C 144.769531 47.445312 145.210938 48.589844 145.625 49.746094 C 146.035156 50.902344 146.421875 52.066406 146.777344 53.242188 C 147.132812 54.417969 147.460938 55.601562 147.761719 56.789062 C 148.058594 57.980469 148.328125 59.179688 148.566406 60.382812 C 148.804688 61.585938 149.015625 62.796875 149.195312 64.007812 C 149.375 65.222656 149.527344 66.441406 149.644531 67.664062 C 149.765625 68.886719 149.855469 70.109375 149.917969 71.335938 C 149.976562 72.5625 150.007812 73.789062 150.007812 75.015625 Z M 150.007812 75.015625 "/><path style=" stroke:none;fill-rule:evenodd;fill:#ffffff;fill-opacity:1;" d="M 111.5 76.648438 C 110.625 76.535156 109.722656 76.476562 108.820312 76.476562 C 97.433594 76.476562 88.199219 85.714844 88.199219 97.09375 C 88.199219 101.847656 89.816406 106.226562 92.523438 109.714844 L 44.058594 109.714844 C 42.597656 109.714844 41.191406 109.136719 40.15625 108.101562 C 39.121094 107.066406 38.566406 105.664062 38.566406 104.199219 L 38.566406 50.308594 C 38.566406 48.84375 39.121094 47.441406 40.15625 46.40625 C 41.191406 45.371094 42.597656 44.792969 44.058594 44.792969 L 105.980469 44.792969 C 107.441406 44.792969 108.847656 45.371094 109.882812 46.40625 C 110.917969 47.441406 111.5 48.84375 111.5 50.308594 Z M 111.5 76.648438 "/><path style=" stroke:none;fill-rule:nonzero;fill:#0b8841;fill-opacity:1;" d="M 63.296875 55.308594 C 63.296875 55.644531 63.261719 55.980469 63.195312 56.308594 C 63.128906 56.640625 63.035156 56.960938 62.90625 57.273438 C 62.777344 57.582031 62.617188 57.878906 62.429688 58.160156 C 62.242188 58.4375 62.03125 58.699219 61.792969 58.9375 C 61.554688 59.175781 61.296875 59.386719 61.015625 59.574219 C 60.734375 59.761719 60.4375 59.921875 60.128906 60.050781 C 59.816406 60.175781 59.496094 60.273438 59.164062 60.339844 C 58.835938 60.40625 58.5 60.4375 58.164062 60.4375 C 57.828125 60.4375 57.496094 60.40625 57.164062 60.339844 C 56.832031 60.273438 56.511719 60.175781 56.203125 60.050781 C 55.890625 59.921875 55.59375 59.761719 55.3125 59.574219 C 55.035156 59.386719 54.773438 59.175781 54.535156 58.9375 C 54.296875 58.699219 54.085938 58.4375 53.898438 58.160156 C 53.710938 57.878906 53.554688 57.582031 53.425781 57.273438 C 53.296875 56.960938 53.199219 56.640625 53.132812 56.308594 C 53.066406 55.980469 53.035156 55.644531 53.035156 55.308594 C 53.035156 54.972656 53.066406 54.636719 53.132812 54.308594 C 53.199219 53.976562 53.296875 53.65625 53.425781 53.34375 C 53.554688 53.035156 53.710938 52.738281 53.898438 52.457031 C 54.085938 52.179688 54.296875 51.917969 54.535156 51.679688 C 54.773438 51.441406 55.035156 51.230469 55.3125 51.042969 C 55.59375 50.855469 55.890625 50.699219 56.203125 50.570312 C 56.511719 50.441406 56.832031 50.34375 57.164062 50.277344 C 57.496094 50.210938 57.828125 50.179688 58.164062 50.179688 C 58.5 50.179688 58.835938 50.210938 59.164062 50.277344 C 59.496094 50.34375 59.816406 50.441406 60.128906 50.570312 C 60.4375 50.699219 60.734375 50.855469 61.015625 51.042969 C 61.296875 51.230469 61.554688 51.441406 61.792969 51.679688 C 62.03125 51.917969 62.242188 52.179688 62.429688 52.457031 C 62.617188 52.738281 62.777344 53.035156 62.90625 53.34375 C 63.035156 53.65625 63.128906 53.976562 63.195312 54.308594 C 63.261719 54.636719 63.296875 54.972656 63.296875 55.308594 Z M 63.296875 55.308594 "/><path style=" stroke:none;fill-rule:nonzero;fill:#0b8841;fill-opacity:1;" d="M 96.964844 55.308594 C 96.964844 55.644531 96.933594 55.980469 96.867188 56.308594 C 96.800781 56.640625 96.703125 56.960938 96.574219 57.273438 C 96.445312 57.582031 96.289062 57.878906 96.101562 58.160156 C 95.914062 58.4375 95.699219 58.699219 95.460938 58.9375 C 95.222656 59.175781 94.964844 59.386719 94.683594 59.574219 C 94.40625 59.761719 94.109375 59.921875 93.796875 60.050781 C 93.488281 60.175781 93.167969 60.273438 92.835938 60.339844 C 92.503906 60.40625 92.171875 60.4375 91.835938 60.4375 C 91.496094 60.4375 91.164062 60.40625 90.832031 60.339844 C 90.503906 60.273438 90.183594 60.175781 89.871094 60.050781 C 89.558594 59.921875 89.265625 59.761719 88.984375 59.574219 C 88.703125 59.386719 88.445312 59.175781 88.207031 58.9375 C 87.96875 58.699219 87.753906 58.4375 87.570312 58.160156 C 87.382812 57.878906 87.222656 57.582031 87.09375 57.273438 C 86.964844 56.960938 86.867188 56.640625 86.804688 56.308594 C 86.738281 55.980469 86.703125 55.644531 86.703125 55.308594 C 86.703125 54.972656 86.738281 54.636719 86.804688 54.308594 C 86.867188 53.976562 86.964844 53.65625 87.09375 53.34375 C 87.222656 53.035156 87.382812 52.738281 87.570312 52.457031 C 87.753906 52.179688 87.96875 51.917969 88.207031 51.679688 C 88.445312 51.441406 88.703125 51.230469 88.984375 51.042969 C 89.265625 50.855469 89.558594 50.699219 89.871094 50.570312 C 90.183594 50.441406 90.503906 50.34375 90.832031 50.277344 C 91.164062 50.210938 91.496094 50.179688 91.835938 50.179688 C 92.171875 50.179688 92.503906 50.210938 92.835938 50.277344 C 93.167969 50.34375 93.488281 50.441406 93.796875 50.570312 C 94.109375 50.699219 94.40625 50.855469 94.683594 51.042969 C 94.964844 51.230469 95.222656 51.441406 95.460938 51.679688 C 95.699219 51.917969 95.914062 52.179688 96.101562 52.457031 C 96.289062 52.738281 96.445312 53.035156 96.574219 53.34375 C 96.703125 53.65625 96.800781 53.976562 96.867188 54.308594 C 96.933594 54.636719 96.964844 54.972656 96.964844 55.308594 Z M 96.964844 55.308594 "/><path style=" stroke:none;fill-rule:evenodd;fill:#ffffff;fill-opacity:1;" d="M 55.921875 40.3125 C 55.921875 39.066406 56.925781 38.050781 58.1875 38.050781 C 59.421875 38.050781 60.425781 39.066406 60.425781 40.3125 L 60.425781 54.917969 C 60.425781 56.167969 59.421875 57.175781 58.1875 57.175781 C 56.925781 57.175781 55.921875 56.167969 55.921875 54.917969 Z M 55.921875 40.3125 "/><path style=" stroke:none;fill-rule:evenodd;fill:#ffffff;fill-opacity:1;" d="M 89.589844 40.3125 C 89.589844 39.066406 90.59375 38.050781 91.859375 38.050781 C 93.09375 38.050781 94.097656 39.066406 94.097656 40.3125 L 94.097656 54.917969 C 94.097656 56.167969 93.09375 57.175781 91.859375 57.175781 C 90.59375 57.175781 89.589844 56.167969 89.589844 54.917969 Z M 89.589844 40.3125 "/><path style=" stroke:none;fill-rule:evenodd;fill:#0b8841;fill-opacity:1;" d="M 107.492188 65.035156 C 107.492188 65.035156 107.492188 93.382812 107.492188 102.128906 C 107.492188 102.800781 107.226562 103.449219 106.730469 103.921875 C 106.269531 104.398438 105.605469 104.664062 104.945312 104.664062 L 45.757812 104.664062 C 45.097656 104.664062 44.433594 104.398438 43.972656 103.921875 C 43.476562 103.449219 43.210938 102.800781 43.210938 102.128906 C 43.210938 93.382812 43.210938 65.035156 43.210938 65.035156 Z M 107.492188 65.035156 "/><path style=" stroke:none;fill-rule:nonzero;fill:#0b8841;fill-opacity:1;" d="M 125.078125 97.09375 C 125.078125 97.628906 125.054688 98.160156 125 98.6875 C 124.949219 99.21875 124.871094 99.746094 124.765625 100.269531 C 124.664062 100.792969 124.53125 101.308594 124.378906 101.820312 C 124.222656 102.328125 124.042969 102.832031 123.839844 103.324219 C 123.636719 103.816406 123.410156 104.296875 123.15625 104.765625 C 122.90625 105.238281 122.632812 105.695312 122.335938 106.136719 C 122.039062 106.582031 121.722656 107.007812 121.382812 107.421875 C 121.046875 107.832031 120.6875 108.226562 120.3125 108.605469 C 119.933594 108.980469 119.539062 109.339844 119.128906 109.675781 C 118.714844 110.015625 118.289062 110.332031 117.84375 110.628906 C 117.402344 110.925781 116.945312 111.199219 116.472656 111.449219 C 116.003906 111.703125 115.523438 111.929688 115.03125 112.132812 C 114.539062 112.335938 114.035156 112.515625 113.527344 112.671875 C 113.015625 112.824219 112.5 112.957031 111.976562 113.058594 C 111.453125 113.164062 110.925781 113.242188 110.394531 113.292969 C 109.867188 113.347656 109.332031 113.371094 108.800781 113.371094 C 108.265625 113.371094 107.734375 113.347656 107.203125 113.292969 C 106.675781 113.242188 106.148438 113.164062 105.625 113.058594 C 105.101562 112.957031 104.585938 112.828125 104.074219 112.671875 C 103.566406 112.515625 103.0625 112.335938 102.570312 112.132812 C 102.078125 111.929688 101.597656 111.703125 101.125 111.449219 C 100.65625 111.199219 100.199219 110.925781 99.757812 110.628906 C 99.3125 110.332031 98.886719 110.015625 98.472656 109.675781 C 98.0625 109.339844 97.667969 108.980469 97.289062 108.605469 C 96.914062 108.226562 96.554688 107.832031 96.21875 107.421875 C 95.878906 107.007812 95.5625 106.582031 95.265625 106.136719 C 94.96875 105.695312 94.695312 105.238281 94.445312 104.765625 C 94.191406 104.296875 93.964844 103.816406 93.761719 103.324219 C 93.558594 102.832031 93.378906 102.328125 93.222656 101.820312 C 93.066406 101.308594 92.9375 100.792969 92.835938 100.269531 C 92.730469 99.746094 92.652344 99.21875 92.601562 98.6875 C 92.546875 98.160156 92.523438 97.628906 92.523438 97.09375 C 92.523438 96.5625 92.546875 96.027344 92.601562 95.5 C 92.652344 94.96875 92.730469 94.441406 92.835938 93.917969 C 92.9375 93.394531 93.066406 92.878906 93.222656 92.367188 C 93.378906 91.859375 93.558594 91.355469 93.761719 90.863281 C 93.964844 90.371094 94.191406 89.890625 94.445312 89.421875 C 94.695312 88.949219 94.96875 88.492188 95.265625 88.050781 C 95.5625 87.605469 95.878906 87.179688 96.21875 86.765625 C 96.554688 86.355469 96.914062 85.960938 97.289062 85.582031 C 97.667969 85.207031 98.0625 84.847656 98.472656 84.511719 C 98.886719 84.171875 99.3125 83.855469 99.757812 83.558594 C 100.199219 83.261719 100.65625 82.988281 101.125 82.738281 C 101.597656 82.484375 102.078125 82.257812 102.570312 82.054688 C 103.0625 81.851562 103.566406 81.671875 104.074219 81.515625 C 104.585938 81.363281 105.101562 81.230469 105.625 81.128906 C 106.148438 81.023438 106.675781 80.945312 107.203125 80.894531 C 107.734375 80.839844 108.265625 80.816406 108.800781 80.816406 C 109.332031 80.816406 109.867188 80.839844 110.394531 80.894531 C 110.925781 80.945312 111.453125 81.023438 111.976562 81.128906 C 112.5 81.230469 113.015625 81.363281 113.527344 81.515625 C 114.035156 81.671875 114.539062 81.851562 115.03125 82.054688 C 115.523438 82.257812 116.003906 82.484375 116.472656 82.738281 C 116.945312 82.988281 117.402344 83.261719 117.84375 83.558594 C 118.289062 83.855469 118.714844 84.171875 119.128906 84.511719 C 119.539062 84.847656 119.933594 85.207031 120.3125 85.582031 C 120.6875 85.960938 121.046875 86.355469 121.382812 86.765625 C 121.722656 87.179688 122.039062 87.605469 122.335938 88.050781 C 122.632812 88.492188 122.90625 88.949219 123.15625 89.421875 C 123.410156 89.890625 123.636719 90.371094 123.839844 90.863281 C 124.042969 91.355469 124.222656 91.859375 124.378906 92.367188 C 124.53125 92.878906 124.664062 93.394531 124.765625 93.917969 C 124.871094 94.441406 124.949219 94.96875 125 95.5 C 125.054688 96.027344 125.078125 96.5625 125.078125 97.09375 Z M 125.078125 97.09375 "/><path style=" stroke:none;fill-rule:evenodd;fill:#ffffff;fill-opacity:1;" d="M 108.804688 79.375 C 118.582031 79.375 126.523438 87.3125 126.523438 97.09375 C 126.523438 106.875 118.582031 114.8125 108.804688 114.8125 C 99.023438 114.8125 91.082031 106.875 91.082031 97.09375 C 91.082031 87.3125 99.023438 79.375 108.804688 79.375 Z M 108.804688 82.816406 C 116.679688 82.816406 123.078125 89.214844 123.078125 97.09375 C 123.078125 104.972656 116.679688 111.371094 108.804688 111.371094 C 100.921875 111.371094 94.527344 104.972656 94.527344 97.09375 C 94.527344 89.214844 100.921875 82.816406 108.804688 82.816406 Z M 108.804688 82.816406 "/><path style=" stroke:none;fill-rule:evenodd;fill:#ffffff;fill-opacity:1;" d="M 110.246094 97.09375 C 110.246094 97.890625 109.597656 98.539062 108.800781 98.539062 C 108.003906 98.539062 107.359375 97.890625 107.359375 97.09375 L 107.359375 89.125 C 107.359375 88.332031 108.003906 87.683594 108.800781 87.683594 C 109.597656 87.683594 110.246094 88.332031 110.246094 89.125 Z M 110.246094 97.09375 "/><path style=" stroke:none;fill-rule:evenodd;fill:#ffffff;fill-opacity:1;" d="M 108.808594 98.535156 C 108.011719 98.535156 107.363281 97.890625 107.363281 97.09375 C 107.363281 96.296875 108.011719 95.652344 108.808594 95.652344 L 116.773438 95.652344 C 117.570312 95.652344 118.21875 96.296875 118.21875 97.09375 C 118.21875 97.890625 117.570312 98.535156 116.773438 98.535156 Z M 108.808594 98.535156 "/><path style=" stroke:none;fill-rule:evenodd;fill:#ffffff;fill-opacity:1;" d="M 56.933594 69.9375 C 57.03125 69.9375 57.121094 69.976562 57.1875 70.042969 C 57.257812 70.109375 57.292969 70.203125 57.292969 70.296875 C 57.292969 71.566406 57.292969 75.847656 57.292969 77.117188 C 57.292969 77.214844 57.257812 77.304688 57.1875 77.371094 C 57.121094 77.4375 57.03125 77.476562 56.933594 77.476562 L 49.164062 77.476562 C 49.070312 77.476562 48.976562 77.4375 48.910156 77.371094 C 48.847656 77.304688 48.808594 77.214844 48.808594 77.117188 C 48.808594 75.847656 48.808594 71.566406 48.808594 70.296875 C 48.808594 70.203125 48.847656 70.109375 48.910156 70.042969 C 48.976562 69.976562 49.070312 69.9375 49.164062 69.9375 C 50.550781 69.9375 55.550781 69.9375 56.933594 69.9375 Z M 56.933594 69.9375 "/><path style=" stroke:none;fill-rule:evenodd;fill:#ffffff;fill-opacity:1;" d="M 71.792969 69.9375 C 71.886719 69.9375 71.980469 69.976562 72.042969 70.042969 C 72.113281 70.109375 72.148438 70.203125 72.148438 70.296875 L 72.148438 77.117188 C 72.148438 77.214844 72.113281 77.304688 72.042969 77.371094 C 71.980469 77.4375 71.886719 77.476562 71.792969 77.476562 L 64.023438 77.476562 C 63.925781 77.476562 63.835938 77.4375 63.765625 77.371094 C 63.703125 77.304688 63.664062 77.214844 63.664062 77.117188 C 63.664062 75.847656 63.664062 71.566406 63.664062 70.296875 C 63.664062 70.203125 63.703125 70.109375 63.765625 70.042969 C 63.835938 69.976562 63.925781 69.9375 64.023438 69.9375 C 65.40625 69.9375 70.40625 69.9375 71.792969 69.9375 Z M 71.792969 69.9375 "/><path style=" stroke:none;fill-rule:evenodd;fill:#ffffff;fill-opacity:1;" d="M 86.648438 69.9375 C 86.742188 69.9375 86.835938 69.976562 86.902344 70.042969 C 86.972656 70.109375 87.007812 70.203125 87.007812 70.296875 C 87.007812 71.566406 87.007812 75.847656 87.007812 77.117188 C 87.007812 77.214844 86.972656 77.304688 86.902344 77.371094 C 86.835938 77.4375 86.742188 77.476562 86.648438 77.476562 C 85.265625 77.476562 80.265625 77.476562 78.878906 77.476562 C 78.785156 77.476562 78.691406 77.4375 78.625 77.371094 C 78.558594 77.304688 78.519531 77.214844 78.519531 77.117188 C 78.519531 75.847656 78.519531 71.566406 78.519531 70.296875 C 78.519531 70.203125 78.558594 70.109375 78.625 70.042969 C 78.691406 69.976562 78.785156 69.9375 78.878906 69.9375 C 80.265625 69.9375 85.265625 69.9375 86.648438 69.9375 Z M 86.648438 69.9375 "/><path style=" stroke:none;fill-rule:evenodd;fill:#ffffff;fill-opacity:1;" d="M 101.503906 69.9375 C 101.601562 69.9375 101.691406 69.976562 101.757812 70.042969 C 101.828125 70.109375 101.863281 70.203125 101.863281 70.296875 C 101.863281 71.566406 101.863281 75.847656 101.863281 77.117188 C 101.863281 77.214844 101.828125 77.304688 101.757812 77.371094 C 101.691406 77.4375 101.601562 77.476562 101.503906 77.476562 L 93.734375 77.476562 C 93.640625 77.476562 93.546875 77.4375 93.480469 77.371094 C 93.417969 77.304688 93.378906 77.214844 93.378906 77.117188 C 93.378906 75.847656 93.378906 71.566406 93.378906 70.296875 C 93.378906 70.203125 93.417969 70.109375 93.480469 70.042969 C 93.546875 69.976562 93.640625 69.9375 93.734375 69.9375 C 95.121094 69.9375 100.121094 69.9375 101.503906 69.9375 Z M 101.503906 69.9375 "/><path style=" stroke:none;fill-rule:evenodd;fill:#ffffff;fill-opacity:1;" d="M 56.933594 81.082031 C 57.03125 81.082031 57.121094 81.121094 57.1875 81.1875 C 57.257812 81.253906 57.292969 81.34375 57.292969 81.441406 C 57.292969 82.710938 57.292969 86.992188 57.292969 88.261719 C 57.292969 88.359375 57.257812 88.449219 57.1875 88.515625 C 57.121094 88.582031 57.03125 88.621094 56.933594 88.621094 L 49.164062 88.621094 C 49.070312 88.621094 48.976562 88.582031 48.910156 88.515625 C 48.847656 88.449219 48.808594 88.359375 48.808594 88.261719 C 48.808594 86.992188 48.808594 82.710938 48.808594 81.441406 C 48.808594 81.34375 48.847656 81.253906 48.910156 81.1875 C 48.976562 81.121094 49.070312 81.082031 49.164062 81.082031 C 50.550781 81.082031 55.550781 81.082031 56.933594 81.082031 Z M 56.933594 81.082031 "/><path style=" stroke:none;fill-rule:evenodd;fill:#ffffff;fill-opacity:1;" d="M 71.792969 81.082031 C 71.886719 81.082031 71.980469 81.121094 72.042969 81.1875 C 72.113281 81.253906 72.148438 81.34375 72.148438 81.441406 L 72.148438 88.261719 C 72.148438 88.359375 72.113281 88.449219 72.042969 88.515625 C 71.980469 88.582031 71.886719 88.621094 71.792969 88.621094 L 64.023438 88.621094 C 63.925781 88.621094 63.835938 88.582031 63.765625 88.515625 C 63.703125 88.449219 63.664062 88.359375 63.664062 88.261719 C 63.664062 86.992188 63.664062 82.710938 63.664062 81.441406 C 63.664062 81.34375 63.703125 81.253906 63.765625 81.1875 C 63.835938 81.121094 63.925781 81.082031 64.023438 81.082031 C 65.40625 81.082031 70.40625 81.082031 71.792969 81.082031 Z M 71.792969 81.082031 "/><path style=" stroke:none;fill-rule:evenodd;fill:#ffffff;fill-opacity:1;" d="M 86.648438 81.082031 C 86.742188 81.082031 86.835938 81.121094 86.902344 81.1875 C 86.972656 81.253906 87.007812 81.34375 87.007812 81.441406 C 87.007812 82.710938 87.007812 86.992188 87.007812 88.261719 C 87.007812 88.359375 86.972656 88.449219 86.902344 88.515625 C 86.835938 88.582031 86.742188 88.621094 86.648438 88.621094 C 85.265625 88.621094 80.265625 88.621094 78.878906 88.621094 C 78.785156 88.621094 78.691406 88.582031 78.625 88.515625 C 78.558594 88.449219 78.519531 88.359375 78.519531 88.261719 C 78.519531 86.992188 78.519531 82.710938 78.519531 81.441406 C 78.519531 81.34375 78.558594 81.253906 78.625 81.1875 C 78.691406 81.121094 78.785156 81.082031 78.878906 81.082031 C 80.265625 81.082031 85.265625 81.082031 86.648438 81.082031 Z M 86.648438 81.082031 "/><path style=" stroke:none;fill-rule:evenodd;fill:#ffffff;fill-opacity:1;" d="M 56.933594 92.226562 C 57.03125 92.226562 57.121094 92.265625 57.1875 92.332031 C 57.257812 92.398438 57.292969 92.488281 57.292969 92.585938 C 57.292969 93.855469 57.292969 98.136719 57.292969 99.40625 C 57.292969 99.5 57.257812 99.59375 57.1875 99.660156 C 57.121094 99.726562 57.03125 99.765625 56.933594 99.765625 L 49.164062 99.765625 C 49.070312 99.765625 48.976562 99.726562 48.910156 99.660156 C 48.847656 99.59375 48.808594 99.5 48.808594 99.40625 C 48.808594 98.136719 48.808594 93.855469 48.808594 92.585938 C 48.808594 92.488281 48.847656 92.398438 48.910156 92.332031 C 48.976562 92.265625 49.070312 92.226562 49.164062 92.226562 C 50.550781 92.226562 55.550781 92.226562 56.933594 92.226562 Z M 56.933594 92.226562 "/><path style=" stroke:none;fill-rule:evenodd;fill:#ffffff;fill-opacity:1;" d="M 71.792969 92.226562 C 71.886719 92.226562 71.980469 92.265625 72.042969 92.332031 C 72.113281 92.398438 72.148438 92.488281 72.148438 92.585938 L 72.148438 99.40625 C 72.148438 99.5 72.113281 99.59375 72.042969 99.660156 C 71.980469 99.726562 71.886719 99.765625 71.792969 99.765625 L 64.023438 99.765625 C 63.925781 99.765625 63.835938 99.726562 63.765625 99.660156 C 63.703125 99.59375 63.664062 99.5 63.664062 99.40625 C 63.664062 98.136719 63.664062 93.855469 63.664062 92.585938 C 63.664062 92.488281 63.703125 92.398438 63.765625 92.332031 C 63.835938 92.265625 63.925781 92.226562 64.023438 92.226562 C 65.40625 92.226562 70.40625 92.226562 71.792969 92.226562 Z M 71.792969 92.226562 "/><path style=" stroke:none;fill-rule:evenodd;fill:#ffffff;fill-opacity:1;" d="M 86.648438 92.226562 C 86.742188 92.226562 86.835938 92.265625 86.902344 92.332031 C 86.972656 92.398438 87.007812 92.488281 87.007812 92.585938 C 87.007812 93.855469 87.007812 98.136719 87.007812 99.40625 C 87.007812 99.5 86.972656 99.59375 86.902344 99.660156 C 86.835938 99.726562 86.742188 99.765625 86.648438 99.765625 C 85.265625 99.765625 80.265625 99.765625 78.878906 99.765625 C 78.785156 99.765625 78.691406 99.726562 78.625 99.660156 C 78.558594 99.59375 78.519531 99.5 78.519531 99.40625 C 78.519531 98.136719 78.519531 93.855469 78.519531 92.585938 C 78.519531 92.488281 78.558594 92.398438 78.625 92.332031 C 78.691406 92.265625 78.785156 92.226562 78.878906 92.226562 C 80.265625 92.226562 85.265625 92.226562 86.648438 92.226562 Z M 86.648438 92.226562 "/><g clip-rule="nonzero" clip-path="url(#9bbd057ebd)"><path style=" stroke:none;fill-rule:nonzero;fill:#0b8841;fill-opacity:1;" d="M 150.007812 75.015625 C 150.007812 76.242188 149.976562 77.46875 149.917969 78.695312 C 149.855469 79.921875 149.765625 81.144531 149.644531 82.367188 C 149.527344 83.589844 149.375 84.804688 149.195312 86.019531 C 149.015625 87.234375 148.804688 88.445312 148.566406 89.648438 C 148.328125 90.851562 148.058594 92.050781 147.761719 93.238281 C 147.460938 94.429688 147.132812 95.613281 146.777344 96.789062 C 146.421875 97.960938 146.035156 99.128906 145.625 100.285156 C 145.210938 101.4375 144.769531 102.585938 144.296875 103.71875 C 143.828125 104.851562 143.332031 105.972656 142.804688 107.082031 C 142.28125 108.195312 141.730469 109.289062 141.152344 110.371094 C 140.574219 111.453125 139.96875 112.523438 139.335938 113.574219 C 138.707031 114.628906 138.050781 115.664062 137.367188 116.6875 C 136.683594 117.707031 135.976562 118.710938 135.246094 119.695312 C 134.515625 120.679688 133.761719 121.648438 132.980469 122.597656 C 132.203125 123.546875 131.402344 124.476562 130.578125 125.386719 C 129.753906 126.292969 128.90625 127.183594 128.039062 128.050781 C 127.171875 128.917969 126.28125 129.765625 125.371094 130.589844 C 124.464844 131.414062 123.535156 132.214844 122.585938 132.996094 C 121.636719 133.773438 120.667969 134.527344 119.683594 135.257812 C 118.695312 135.992188 117.695312 136.699219 116.671875 137.378906 C 115.652344 138.0625 114.617188 138.71875 113.5625 139.347656 C 112.511719 139.980469 111.441406 140.585938 110.359375 141.164062 C 109.277344 141.742188 108.179688 142.292969 107.070312 142.820312 C 105.960938 143.34375 104.839844 143.839844 103.707031 144.308594 C 102.570312 144.78125 101.425781 145.222656 100.269531 145.636719 C 99.117188 146.050781 97.949219 146.433594 96.777344 146.789062 C 95.601562 147.148438 94.417969 147.472656 93.226562 147.773438 C 92.035156 148.070312 90.839844 148.339844 89.636719 148.578125 C 88.433594 148.816406 87.222656 149.027344 86.007812 149.207031 C 84.792969 149.386719 83.578125 149.539062 82.355469 149.660156 C 81.132812 149.777344 79.910156 149.871094 78.683594 149.929688 C 77.457031 149.988281 76.230469 150.019531 75.003906 150.019531 C 73.773438 150.019531 72.546875 149.988281 71.324219 149.929688 C 70.097656 149.871094 68.871094 149.777344 67.652344 149.660156 C 66.429688 149.539062 65.210938 149.386719 63.996094 149.207031 C 62.78125 149.027344 61.574219 148.816406 60.371094 148.578125 C 59.167969 148.339844 57.96875 148.070312 56.777344 147.773438 C 55.585938 147.472656 54.40625 147.148438 53.230469 146.789062 C 52.054688 146.433594 50.890625 146.050781 49.734375 145.636719 C 48.578125 145.222656 47.433594 144.78125 46.300781 144.308594 C 45.164062 143.839844 44.042969 143.34375 42.933594 142.820312 C 41.824219 142.292969 40.726562 141.742188 39.644531 141.164062 C 38.5625 140.585938 37.496094 139.980469 36.441406 139.347656 C 35.390625 138.71875 34.351562 138.0625 33.332031 137.378906 C 32.3125 136.699219 31.308594 135.992188 30.324219 135.257812 C 29.335938 134.527344 28.371094 133.773438 27.421875 132.996094 C 26.472656 132.214844 25.542969 131.414062 24.632812 130.589844 C 23.722656 129.765625 22.835938 128.917969 21.964844 128.050781 C 21.097656 127.183594 20.253906 126.292969 19.429688 125.386719 C 18.605469 124.476562 17.800781 123.546875 17.023438 122.597656 C 16.246094 121.648438 15.488281 120.679688 14.757812 119.695312 C 14.027344 118.710938 13.320312 117.707031 12.640625 116.6875 C 11.957031 115.664062 11.300781 114.628906 10.667969 113.574219 C 10.039062 112.523438 9.433594 111.453125 8.855469 110.371094 C 8.277344 109.289062 7.722656 108.195312 7.199219 107.082031 C 6.675781 105.972656 6.175781 104.851562 5.707031 103.71875 C 5.238281 102.585938 4.796875 101.4375 4.382812 100.285156 C 3.96875 99.128906 3.585938 97.960938 3.226562 96.789062 C 2.871094 95.613281 2.542969 94.429688 2.246094 93.238281 C 1.949219 92.050781 1.679688 90.851562 1.4375 89.648438 C 1.199219 88.445312 0.988281 87.234375 0.808594 86.019531 C 0.628906 84.804688 0.480469 83.589844 0.359375 82.367188 C 0.238281 81.144531 0.148438 79.921875 0.0898438 78.695312 C 0.0273438 77.46875 0 76.242188 0 75.015625 C 0 73.789062 0.0273438 72.5625 0.0898438 71.335938 C 0.148438 70.109375 0.238281 68.886719 0.359375 67.664062 C 0.480469 66.441406 0.628906 65.222656 0.808594 64.007812 C 0.988281 62.796875 1.199219 61.585938 1.4375 60.382812 C 1.679688 59.179688 1.949219 57.980469 2.246094 56.789062 C 2.542969 55.601562 2.871094 54.417969 3.226562 53.242188 C 3.585938 52.066406 3.96875 50.902344 4.382812 49.746094 C 4.796875 48.589844 5.238281 47.445312 5.707031 46.3125 C 6.175781 45.179688 6.675781 44.054688 7.199219 42.945312 C 7.722656 41.835938 8.277344 40.742188 8.855469 39.660156 C 9.433594 38.574219 10.039062 37.507812 10.667969 36.453125 C 11.300781 35.402344 11.957031 34.367188 12.640625 33.34375 C 13.320312 32.324219 14.027344 31.320312 14.757812 30.335938 C 15.488281 29.347656 16.246094 28.382812 17.023438 27.433594 C 17.800781 26.484375 18.605469 25.554688 19.429688 24.644531 C 20.253906 23.734375 21.097656 22.847656 21.964844 21.980469 C 22.835938 21.109375 23.722656 20.265625 24.632812 19.441406 C 25.542969 18.617188 26.472656 17.816406 27.421875 17.035156 C 28.371094 16.257812 29.335938 15.503906 30.324219 14.769531 C 31.308594 14.039062 32.3125 13.332031 33.332031 12.652344 C 34.351562 11.96875 35.390625 11.3125 36.441406 10.679688 C 37.496094 10.050781 38.5625 9.445312 39.644531 8.867188 C 40.726562 8.289062 41.824219 7.738281 42.933594 7.210938 C 44.042969 6.6875 45.164062 6.191406 46.300781 5.71875 C 47.433594 5.25 48.578125 4.808594 49.734375 4.394531 C 50.890625 3.980469 52.054688 3.597656 53.230469 3.238281 C 54.40625 2.882812 55.585938 2.554688 56.777344 2.257812 C 57.96875 1.960938 59.167969 1.691406 60.371094 1.453125 C 61.574219 1.210938 62.78125 1.003906 63.996094 0.824219 C 65.210938 0.640625 66.429688 0.492188 67.652344 0.371094 C 68.871094 0.25 70.097656 0.160156 71.324219 0.101562 C 72.546875 0.0390625 73.773438 0.0117188 75.003906 0.0117188 C 76.230469 0.0117188 77.457031 0.0390625 78.683594 0.101562 C 79.910156 0.160156 81.132812 0.25 82.355469 0.371094 C 83.578125 0.492188 84.792969 0.640625 86.007812 0.824219 C 87.222656 1.003906 88.433594 1.210938 89.636719 1.453125 C 90.839844 1.691406 92.035156 1.960938 93.226562 2.257812 C 94.417969 2.554688 95.601562 2.882812 96.777344 3.238281 C 97.949219 3.597656 99.117188 3.980469 100.269531 4.394531 C 101.425781 4.808594 102.570312 5.25 103.707031 5.71875 C 104.839844 6.191406 105.960938 6.6875 107.070312 7.210938 C 108.179688 7.738281 109.277344 8.289062 110.359375 8.867188 C 111.441406 9.445312 112.511719 10.050781 113.5625 10.679688 C 114.617188 11.3125 115.652344 11.96875 116.671875 12.652344 C 117.695312 13.332031 118.695312 14.039062 119.683594 14.769531 C 120.667969 15.503906 121.636719 16.257812 122.585938 17.035156 C 123.535156 17.816406 124.464844 18.617188 125.371094 19.441406 C 126.28125 20.265625 127.171875 21.109375 128.039062 21.980469 C 128.90625 22.847656 129.753906 23.734375 130.578125 24.644531 C 131.402344 25.554688 132.203125 26.484375 132.980469 27.433594 C 133.761719 28.382812 134.515625 29.347656 135.246094 30.335938 C 135.976562 31.320312 136.683594 32.324219 137.367188 33.34375 C 138.050781 34.367188 138.707031 35.402344 139.335938 36.453125 C 139.96875 37.507812 140.574219 38.574219 141.152344 39.660156 C 141.730469 40.742188 142.28125 41.835938 142.804688 42.945312 C 143.332031 44.054688 143.828125 45.179688 144.296875 46.3125 C 144.769531 47.445312 145.210938 48.589844 145.625 49.746094 C 146.035156 50.902344 146.421875 52.066406 146.777344 53.242188 C 147.132812 54.417969 147.460938 55.601562 147.761719 56.789062 C 148.058594 57.980469 148.328125 59.179688 148.566406 60.382812 C 148.804688 61.585938 149.015625 62.796875 149.195312 64.007812 C 149.375 65.222656 149.527344 66.441406 149.644531 67.664062 C 149.765625 68.886719 149.855469 70.109375 149.917969 71.335938 C 149.976562 72.5625 150.007812 73.789062 150.007812 75.015625 Z M 150.007812 75.015625 "/></g><g clip-rule="nonzero" clip-path="url(#1210a6e482)"><path style=" stroke:none;fill-rule:evenodd;fill:#ffffff;fill-opacity:1;" d="M 111.5 76.648438 C 110.625 76.535156 109.722656 76.476562 108.820312 76.476562 C 97.433594 76.476562 88.199219 85.714844 88.199219 97.09375 C 88.199219 101.847656 89.816406 106.226562 92.523438 109.714844 L 44.058594 109.714844 C 42.597656 109.714844 41.191406 109.136719 40.15625 108.101562 C 39.121094 107.066406 38.566406 105.664062 38.566406 104.199219 L 38.566406 50.308594 C 38.566406 48.84375 39.121094 47.441406 40.15625 46.40625 C 41.191406 45.371094 42.597656 44.792969 44.058594 44.792969 L 105.980469 44.792969 C 107.441406 44.792969 108.847656 45.371094 109.882812 46.40625 C 110.917969 47.441406 111.5 48.84375 111.5 50.308594 Z M 111.5 76.648438 "/></g><path style=" stroke:none;fill-rule:nonzero;fill:#0b8841;fill-opacity:1;" d="M 63.296875 55.308594 C 63.296875 55.644531 63.261719 55.980469 63.195312 56.308594 C 63.128906 56.640625 63.035156 56.960938 62.90625 57.273438 C 62.777344 57.582031 62.617188 57.878906 62.429688 58.160156 C 62.242188 58.4375 62.03125 58.699219 61.792969 58.9375 C 61.554688 59.175781 61.296875 59.386719 61.015625 59.574219 C 60.734375 59.761719 60.4375 59.921875 60.128906 60.050781 C 59.816406 60.175781 59.496094 60.273438 59.164062 60.339844 C 58.835938 60.40625 58.5 60.4375 58.164062 60.4375 C 57.828125 60.4375 57.496094 60.40625 57.164062 60.339844 C 56.832031 60.273438 56.511719 60.175781 56.203125 60.050781 C 55.890625 59.921875 55.59375 59.761719 55.3125 59.574219 C 55.035156 59.386719 54.773438 59.175781 54.535156 58.9375 C 54.296875 58.699219 54.085938 58.4375 53.898438 58.160156 C 53.710938 57.878906 53.554688 57.582031 53.425781 57.273438 C 53.296875 56.960938 53.199219 56.640625 53.132812 56.308594 C 53.066406 55.980469 53.035156 55.644531 53.035156 55.308594 C 53.035156 54.972656 53.066406 54.636719 53.132812 54.308594 C 53.199219 53.976562 53.296875 53.65625 53.425781 53.34375 C 53.554688 53.035156 53.710938 52.738281 53.898438 52.457031 C 54.085938 52.179688 54.296875 51.917969 54.535156 51.679688 C 54.773438 51.441406 55.035156 51.230469 55.3125 51.042969 C 55.59375 50.855469 55.890625 50.699219 56.203125 50.570312 C 56.511719 50.441406 56.832031 50.34375 57.164062 50.277344 C 57.496094 50.210938 57.828125 50.179688 58.164062 50.179688 C 58.5 50.179688 58.835938 50.210938 59.164062 50.277344 C 59.496094 50.34375 59.816406 50.441406 60.128906 50.570312 C 60.4375 50.699219 60.734375 50.855469 61.015625 51.042969 C 61.296875 51.230469 61.554688 51.441406 61.792969 51.679688 C 62.03125 51.917969 62.242188 52.179688 62.429688 52.457031 C 62.617188 52.738281 62.777344 53.035156 62.90625 53.34375 C 63.035156 53.65625 63.128906 53.976562 63.195312 54.308594 C 63.261719 54.636719 63.296875 54.972656 63.296875 55.308594 Z M 63.296875 55.308594 "/><path style=" stroke:none;fill-rule:nonzero;fill:#0b8841;fill-opacity:1;" d="M 96.964844 55.308594 C 96.964844 55.644531 96.933594 55.980469 96.867188 56.308594 C 96.800781 56.640625 96.703125 56.960938 96.574219 57.273438 C 96.445312 57.582031 96.289062 57.878906 96.101562 58.160156 C 95.914062 58.4375 95.699219 58.699219 95.460938 58.9375 C 95.222656 59.175781 94.964844 59.386719 94.683594 59.574219 C 94.40625 59.761719 94.109375 59.921875 93.796875 60.050781 C 93.488281 60.175781 93.167969 60.273438 92.835938 60.339844 C 92.503906 60.40625 92.171875 60.4375 91.835938 60.4375 C 91.496094 60.4375 91.164062 60.40625 90.832031 60.339844 C 90.503906 60.273438 90.183594 60.175781 89.871094 60.050781 C 89.558594 59.921875 89.265625 59.761719 88.984375 59.574219 C 88.703125 59.386719 88.445312 59.175781 88.207031 58.9375 C 87.96875 58.699219 87.753906 58.4375 87.570312 58.160156 C 87.382812 57.878906 87.222656 57.582031 87.09375 57.273438 C 86.964844 56.960938 86.867188 56.640625 86.804688 56.308594 C 86.738281 55.980469 86.703125 55.644531 86.703125 55.308594 C 86.703125 54.972656 86.738281 54.636719 86.804688 54.308594 C 86.867188 53.976562 86.964844 53.65625 87.09375 53.34375 C 87.222656 53.035156 87.382812 52.738281 87.570312 52.457031 C 87.753906 52.179688 87.96875 51.917969 88.207031 51.679688 C 88.445312 51.441406 88.703125 51.230469 88.984375 51.042969 C 89.265625 50.855469 89.558594 50.699219 89.871094 50.570312 C 90.183594 50.441406 90.503906 50.34375 90.832031 50.277344 C 91.164062 50.210938 91.496094 50.179688 91.835938 50.179688 C 92.171875 50.179688 92.503906 50.210938 92.835938 50.277344 C 93.167969 50.34375 93.488281 50.441406 93.796875 50.570312 C 94.109375 50.699219 94.40625 50.855469 94.683594 51.042969 C 94.964844 51.230469 95.222656 51.441406 95.460938 51.679688 C 95.699219 51.917969 95.914062 52.179688 96.101562 52.457031 C 96.289062 52.738281 96.445312 53.035156 96.574219 53.34375 C 96.703125 53.65625 96.800781 53.976562 96.867188 54.308594 C 96.933594 54.636719 96.964844 54.972656 96.964844 55.308594 Z M 96.964844 55.308594 "/><path style=" stroke:none;fill-rule:evenodd;fill:#ffffff;fill-opacity:1;" d="M 55.921875 40.3125 C 55.921875 39.066406 56.925781 38.050781 58.1875 38.050781 C 59.421875 38.050781 60.425781 39.066406 60.425781 40.3125 L 60.425781 54.917969 C 60.425781 56.167969 59.421875 57.175781 58.1875 57.175781 C 56.925781 57.175781 55.921875 56.167969 55.921875 54.917969 Z M 55.921875 40.3125 "/><path style=" stroke:none;fill-rule:evenodd;fill:#ffffff;fill-opacity:1;" d="M 89.589844 40.3125 C 89.589844 39.066406 90.59375 38.050781 91.859375 38.050781 C 93.09375 38.050781 94.097656 39.066406 94.097656 40.3125 L 94.097656 54.917969 C 94.097656 56.167969 93.09375 57.175781 91.859375 57.175781 C 90.59375 57.175781 89.589844 56.167969 89.589844 54.917969 Z M 89.589844 40.3125 "/><g clip-rule="nonzero" clip-path="url(#98af1cbc2c)"><path style=" stroke:none;fill-rule:evenodd;fill:#0b8841;fill-opacity:1;" d="M 107.492188 65.035156 C 107.492188 65.035156 107.492188 93.382812 107.492188 102.128906 C 107.492188 102.800781 107.226562 103.449219 106.730469 103.921875 C 106.269531 104.398438 105.605469 104.664062 104.945312 104.664062 L 45.757812 104.664062 C 45.097656 104.664062 44.433594 104.398438 43.972656 103.921875 C 43.476562 103.449219 43.210938 102.800781 43.210938 102.128906 C 43.210938 93.382812 43.210938 65.035156 43.210938 65.035156 Z M 107.492188 65.035156 "/></g><g clip-rule="nonzero" clip-path="url(#f356a79aeb)"><path style=" stroke:none;fill-rule:evenodd;fill:#ffffff;fill-opacity:1;" d="M 56.933594 69.9375 C 57.03125 69.9375 57.121094 69.976562 57.1875 70.042969 C 57.257812 70.109375 57.292969 70.203125 57.292969 70.296875 C 57.292969 71.566406 57.292969 75.847656 57.292969 77.117188 C 57.292969 77.214844 57.257812 77.304688 57.1875 77.371094 C 57.121094 77.4375 57.03125 77.476562 56.933594 77.476562 L 49.164062 77.476562 C 49.070312 77.476562 48.976562 77.4375 48.910156 77.371094 C 48.847656 77.304688 48.808594 77.214844 48.808594 77.117188 C 48.808594 75.847656 48.808594 71.566406 48.808594 70.296875 C 48.808594 70.203125 48.847656 70.109375 48.910156 70.042969 C 48.976562 69.976562 49.070312 69.9375 49.164062 69.9375 C 50.550781 69.9375 55.550781 69.9375 56.933594 69.9375 Z M 56.933594 69.9375 "/></g><g clip-rule="nonzero" clip-path="url(#4cba4a6dd5)"><path style=" stroke:none;fill-rule:evenodd;fill:#ffffff;fill-opacity:1;" d="M 71.792969 69.9375 C 71.886719 69.9375 71.980469 69.976562 72.042969 70.042969 C 72.113281 70.109375 72.148438 70.203125 72.148438 70.296875 L 72.148438 77.117188 C 72.148438 77.214844 72.113281 77.304688 72.042969 77.371094 C 71.980469 77.4375 71.886719 77.476562 71.792969 77.476562 L 64.023438 77.476562 C 63.925781 77.476562 63.835938 77.4375 63.765625 77.371094 C 63.703125 77.304688 63.664062 77.214844 63.664062 77.117188 C 63.664062 75.847656 63.664062 71.566406 63.664062 70.296875 C 63.664062 70.203125 63.703125 70.109375 63.765625 70.042969 C 63.835938 69.976562 63.925781 69.9375 64.023438 69.9375 C 65.40625 69.9375 70.40625 69.9375 71.792969 69.9375 Z M 71.792969 69.9375 "/></g><g clip-rule="nonzero" clip-path="url(#b6e7ee9b3c)"><path style=" stroke:none;fill-rule:evenodd;fill:#ffffff;fill-opacity:1;" d="M 86.648438 69.9375 C 86.742188 69.9375 86.835938 69.976562 86.902344 70.042969 C 86.972656 70.109375 87.007812 70.203125 87.007812 70.296875 C 87.007812 71.566406 87.007812 75.847656 87.007812 77.117188 C 87.007812 77.214844 86.972656 77.304688 86.902344 77.371094 C 86.835938 77.4375 86.742188 77.476562 86.648438 77.476562 C 85.265625 77.476562 80.265625 77.476562 78.878906 77.476562 C 78.785156 77.476562 78.691406 77.4375 78.625 77.371094 C 78.558594 77.304688 78.519531 77.214844 78.519531 77.117188 C 78.519531 75.847656 78.519531 71.566406 78.519531 70.296875 C 78.519531 70.203125 78.558594 70.109375 78.625 70.042969 C 78.691406 69.976562 78.785156 69.9375 78.878906 69.9375 C 80.265625 69.9375 85.265625 69.9375 86.648438 69.9375 Z M 86.648438 69.9375 "/></g><g clip-rule="nonzero" clip-path="url(#24f6f01f51)"><path style=" stroke:none;fill-rule:evenodd;fill:#ffffff;fill-opacity:1;" d="M 101.503906 69.9375 C 101.601562 69.9375 101.691406 69.976562 101.757812 70.042969 C 101.828125 70.109375 101.863281 70.203125 101.863281 70.296875 C 101.863281 71.566406 101.863281 75.847656 101.863281 77.117188 C 101.863281 77.214844 101.828125 77.304688 101.757812 77.371094 C 101.691406 77.4375 101.601562 77.476562 101.503906 77.476562 L 93.734375 77.476562 C 93.640625 77.476562 93.546875 77.4375 93.480469 77.371094 C 93.417969 77.304688 93.378906 77.214844 93.378906 77.117188 C 93.378906 75.847656 93.378906 71.566406 93.378906 70.296875 C 93.378906 70.203125 93.417969 70.109375 93.480469 70.042969 C 93.546875 69.976562 93.640625 69.9375 93.734375 69.9375 C 95.121094 69.9375 100.121094 69.9375 101.503906 69.9375 Z M 101.503906 69.9375 "/></g></g></svg>