<svg xmlns="http://www.w3.org/2000/svg" xmlns:xlink="http://www.w3.org/1999/xlink" width="200" zoomAndPan="magnify" viewBox="0 0 150 119.249998" height="159" preserveAspectRatio="xMidYMid meet" version="1.2"><defs><clipPath id="f11e74ae81"><path d="M 0.46875 109 L 149.53125 109 L 149.53125 118.503906 L 0.46875 118.503906 Z M 0.46875 109 "/></clipPath><clipPath id="24dd5b8181"><path d="M 13 64.390625 L 137 64.390625 L 137 105 L 13 105 Z M 13 64.390625 "/></clipPath><clipPath id="ffccb5e484"><path d="M 0.46875 109 L 149.53125 109 L 149.53125 118.050781 L 0.46875 118.050781 Z M 0.46875 109 "/></clipPath><clipPath id="dcd68e1a3f"><path d="M 60 64.390625 L 90 64.390625 L 90 78 L 60 78 Z M 60 64.390625 "/></clipPath></defs><g id="ff12a404bc"><path style=" stroke:none;fill-rule:nonzero;fill:#d9d9d9;fill-opacity:1;" d="M 50.078125 12.371094 C 50.078125 11.941406 49.734375 11.582031 49.289062 11.582031 C 48.863281 11.582031 48.503906 11.925781 48.503906 12.371094 L 48.503906 25.824219 C 48.503906 26.25 48.847656 26.613281 49.289062 26.613281 C 49.71875 26.613281 50.078125 26.269531 50.078125 25.824219 Z M 50.078125 12.371094 "/><path style=" stroke:none;fill-rule:nonzero;fill:#d9d9d9;fill-opacity:1;" d="M 50.964844 26.300781 C 50.964844 26.523438 50.921875 26.738281 50.839844 26.941406 C 50.753906 27.148438 50.632812 27.328125 50.476562 27.484375 C 50.316406 27.644531 50.136719 27.765625 49.933594 27.847656 C 49.726562 27.933594 49.511719 27.976562 49.289062 27.976562 C 49.066406 27.976562 48.855469 27.933594 48.648438 27.847656 C 48.445312 27.765625 48.261719 27.644531 48.105469 27.484375 C 47.949219 27.328125 47.828125 27.148438 47.742188 26.941406 C 47.65625 26.738281 47.613281 26.523438 47.613281 26.300781 C 47.613281 26.078125 47.65625 25.863281 47.742188 25.660156 C 47.828125 25.453125 47.949219 25.273438 48.105469 25.117188 C 48.261719 24.957031 48.445312 24.835938 48.648438 24.753906 C 48.855469 24.667969 49.066406 24.625 49.289062 24.625 C 49.511719 24.625 49.726562 24.667969 49.933594 24.753906 C 50.136719 24.835938 50.316406 24.957031 50.476562 25.117188 C 50.632812 25.273438 50.753906 25.453125 50.839844 25.660156 C 50.921875 25.863281 50.964844 26.078125 50.964844 26.300781 Z M 50.964844 26.300781 "/><path style=" stroke:none;fill-rule:evenodd;fill:#d9d9d9;fill-opacity:1;" d="M 49.289062 25.855469 C 49.226562 25.855469 49.144531 25.855469 49.078125 25.875 L 47.910156 31.6875 L 47.285156 34.777344 C 47.84375 35.433594 48.535156 35.828125 49.289062 35.828125 C 50.046875 35.828125 50.734375 35.433594 51.292969 34.777344 L 50.671875 31.6875 L 49.503906 25.875 C 49.4375 25.875 49.355469 25.855469 49.289062 25.855469 Z M 49.289062 25.855469 "/><path style=" stroke:none;fill-rule:evenodd;fill:#d9d9d9;fill-opacity:1;" d="M 43.394531 11.054688 Z M 106.589844 10.742188 Z M 74.902344 21.800781 L 54.449219 14.851562 L 52.492188 14.175781 L 47.84375 12.601562 L 46.285156 12.074219 L 43.523438 11.136719 C 43.457031 11.121094 43.425781 11.089844 43.394531 11.054688 C 43.375 11.023438 43.359375 10.972656 43.359375 10.90625 C 43.359375 10.84375 43.375 10.792969 43.394531 10.761719 L 43.410156 10.742188 C 43.441406 10.710938 43.476562 10.695312 43.523438 10.679688 L 74.917969 0.015625 C 74.949219 0 74.984375 0 75 0 C 75.015625 0 75.050781 0 75.082031 0.015625 L 106.476562 10.679688 C 106.542969 10.695312 106.574219 10.726562 106.605469 10.761719 C 106.625 10.792969 106.640625 10.84375 106.640625 10.90625 C 106.640625 10.972656 106.625 11.023438 106.605469 11.054688 L 106.589844 11.074219 C 106.558594 11.105469 106.523438 11.121094 106.476562 11.136719 L 97.507812 14.195312 L 95.550781 14.867188 L 75.097656 21.816406 C 75.066406 21.832031 75.03125 21.832031 75.015625 21.832031 C 75 21.832031 74.96875 21.832031 74.933594 21.816406 Z M 74.902344 21.800781 "/><path style=" stroke:none;fill-rule:evenodd;fill:#d9d9d9;fill-opacity:1;" d="M 75 23.789062 C 75.230469 23.789062 75.460938 23.738281 75.707031 23.65625 L 95.535156 16.921875 L 95.535156 35.402344 C 92.578125 36.402344 89.390625 37.191406 86.023438 37.734375 C 82.523438 38.292969 78.828125 38.605469 75 38.605469 C 71.171875 38.605469 67.460938 38.308594 63.976562 37.734375 C 60.609375 37.191406 57.421875 36.402344 54.464844 35.402344 L 54.464844 16.921875 L 74.292969 23.65625 C 74.539062 23.738281 74.769531 23.789062 75 23.789062 Z M 75 23.789062 "/><path style=" stroke:none;fill-rule:nonzero;fill:#d9d9d9;fill-opacity:1;" d="M 23.957031 24.738281 L 45.199219 24.738281 L 45.199219 31.460938 L 23.957031 31.460938 C 22.875 31.460938 21.890625 31.902344 21.167969 32.609375 C 20.445312 33.332031 20 34.316406 20 35.386719 L 20 93.800781 C 20 94.886719 20.445312 95.871094 21.167969 96.578125 C 21.890625 97.300781 22.875 97.746094 23.941406 97.746094 L 126.007812 97.746094 C 127.09375 97.746094 128.078125 97.300781 128.785156 96.578125 C 129.507812 95.855469 129.949219 94.871094 129.949219 93.800781 L 129.949219 35.386719 C 129.949219 34.300781 129.507812 33.316406 128.785156 32.609375 C 128.0625 31.902344 127.074219 31.460938 125.992188 31.460938 L 98.804688 31.460938 L 98.804688 24.738281 L 125.992188 24.738281 C 128.914062 24.738281 131.578125 25.9375 133.515625 27.863281 L 133.53125 27.863281 C 135.46875 29.800781 136.652344 32.460938 136.652344 35.386719 L 136.652344 93.800781 C 136.652344 96.742188 135.453125 99.40625 133.53125 101.328125 C 131.59375 103.265625 128.933594 104.449219 126.007812 104.449219 L 23.941406 104.449219 C 21 104.449219 18.339844 103.25 16.417969 101.328125 C 14.480469 99.386719 13.296875 96.726562 13.296875 93.800781 L 13.296875 35.386719 C 13.296875 32.445312 14.496094 29.785156 16.417969 27.863281 L 16.433594 27.863281 C 18.375 25.9375 21.035156 24.738281 23.957031 24.738281 Z M 23.957031 24.738281 "/><g clip-rule="nonzero" clip-path="url(#f11e74ae81)"><path style=" stroke:none;fill-rule:evenodd;fill:#d9d9d9;fill-opacity:1;" d="M 0.5 109.804688 L 52.117188 109.804688 L 52.117188 110.574219 C 52.117188 111.972656 53.25 113.105469 54.644531 113.105469 L 95.355469 113.105469 C 96.75 113.105469 97.882812 111.972656 97.882812 110.574219 L 97.882812 109.804688 L 149.5 109.804688 C 149.5 114.386719 145.753906 118.132812 141.171875 118.132812 L 8.828125 118.132812 C 4.246094 118.132812 0.5 114.386719 0.5 109.804688 Z M 0.5 109.804688 "/></g><path style=" stroke:none;fill-rule:evenodd;fill:#d9d9d9;fill-opacity:1;" d="M 75 47.328125 C 83.246094 47.328125 89.933594 54.015625 89.933594 62.261719 C 89.933594 70.507812 83.246094 77.195312 75 77.195312 C 66.753906 77.195312 60.066406 70.507812 60.066406 62.261719 C 60.066406 54.015625 66.753906 47.328125 75 47.328125 Z M 80.535156 63.9375 L 73.867188 67.796875 C 73.242188 68.160156 72.535156 68.160156 71.929688 67.796875 C 71.304688 67.4375 70.957031 66.828125 70.957031 66.121094 L 70.957031 58.417969 C 70.957031 57.710938 71.320312 57.085938 71.929688 56.742188 C 72.550781 56.378906 73.257812 56.378906 73.867188 56.742188 L 80.535156 60.601562 C 81.160156 60.964844 81.503906 61.570312 81.503906 62.277344 C 81.503906 62.984375 81.144531 63.609375 80.535156 63.953125 Z M 80.535156 63.9375 "/><path style=" stroke:none;fill-rule:evenodd;fill:#d9d9d9;fill-opacity:1;" d="M 41.863281 84.667969 L 108.136719 84.667969 C 108.691406 84.667969 109.152344 85.128906 109.152344 85.6875 C 109.152344 86.246094 108.691406 86.707031 108.136719 86.707031 L 41.863281 86.707031 C 41.308594 86.707031 40.847656 86.246094 40.847656 85.6875 C 40.847656 85.128906 41.308594 84.667969 41.863281 84.667969 Z M 41.863281 84.667969 "/><path style=" stroke:none;fill-rule:nonzero;fill:#d9d9d9;fill-opacity:1;" d="M 101.890625 85.6875 C 101.890625 86.117188 101.808594 86.535156 101.644531 86.933594 C 101.480469 87.332031 101.246094 87.683594 100.941406 87.988281 C 100.632812 88.292969 100.28125 88.527344 99.882812 88.691406 C 99.484375 88.855469 99.070312 88.941406 98.640625 88.941406 C 98.207031 88.941406 97.792969 88.855469 97.394531 88.691406 C 96.996094 88.527344 96.644531 88.292969 96.339844 87.988281 C 96.035156 87.683594 95.800781 87.332031 95.632812 86.933594 C 95.46875 86.535156 95.386719 86.117188 95.386719 85.6875 C 95.386719 85.253906 95.46875 84.839844 95.632812 84.441406 C 95.800781 84.042969 96.035156 83.691406 96.339844 83.386719 C 96.644531 83.082031 96.996094 82.847656 97.394531 82.683594 C 97.792969 82.515625 98.207031 82.433594 98.640625 82.433594 C 99.070312 82.433594 99.484375 82.515625 99.882812 82.683594 C 100.28125 82.847656 100.632812 83.082031 100.941406 83.386719 C 101.246094 83.691406 101.480469 84.042969 101.644531 84.441406 C 101.808594 84.839844 101.890625 85.253906 101.890625 85.6875 Z M 101.890625 85.6875 "/><g clip-rule="nonzero" clip-path="url(#24dd5b8181)"><path style=" stroke:none;fill-rule:nonzero;fill:#d9d9d9;fill-opacity:1;" d="M 23.957031 24.738281 L 45.199219 24.738281 L 45.199219 31.460938 L 23.957031 31.460938 C 22.875 31.460938 21.890625 31.902344 21.167969 32.609375 C 20.445312 33.332031 20 34.316406 20 35.386719 L 20 93.800781 C 20 94.886719 20.445312 95.871094 21.167969 96.578125 C 21.890625 97.300781 22.875 97.746094 23.941406 97.746094 L 126.007812 97.746094 C 127.09375 97.746094 128.078125 97.300781 128.785156 96.578125 C 129.507812 95.855469 129.949219 94.871094 129.949219 93.800781 L 129.949219 35.386719 C 129.949219 34.300781 129.507812 33.316406 128.785156 32.609375 C 128.0625 31.902344 127.074219 31.460938 125.992188 31.460938 L 98.804688 31.460938 L 98.804688 24.738281 L 125.992188 24.738281 C 128.914062 24.738281 131.578125 25.9375 133.515625 27.863281 L 133.53125 27.863281 C 135.46875 29.800781 136.652344 32.460938 136.652344 35.386719 L 136.652344 93.800781 C 136.652344 96.742188 135.453125 99.40625 133.53125 101.328125 C 131.59375 103.265625 128.933594 104.449219 126.007812 104.449219 L 23.941406 104.449219 C 21 104.449219 18.339844 103.25 16.417969 101.328125 C 14.480469 99.386719 13.296875 96.726562 13.296875 93.800781 L 13.296875 35.386719 C 13.296875 32.445312 14.496094 29.785156 16.417969 27.863281 L 16.433594 27.863281 C 18.375 25.9375 21.035156 24.738281 23.957031 24.738281 Z M 23.957031 24.738281 "/></g><g clip-rule="nonzero" clip-path="url(#ffccb5e484)"><path style=" stroke:none;fill-rule:evenodd;fill:#d9d9d9;fill-opacity:1;" d="M 0.5 109.804688 L 52.117188 109.804688 L 52.117188 110.574219 C 52.117188 111.972656 53.25 113.105469 54.644531 113.105469 L 95.355469 113.105469 C 96.75 113.105469 97.882812 111.972656 97.882812 110.574219 L 97.882812 109.804688 L 149.5 109.804688 C 149.5 114.386719 145.753906 118.132812 141.171875 118.132812 L 8.828125 118.132812 C 4.246094 118.132812 0.5 114.386719 0.5 109.804688 Z M 0.5 109.804688 "/></g><g clip-rule="nonzero" clip-path="url(#dcd68e1a3f)"><path style=" stroke:none;fill-rule:evenodd;fill:#d9d9d9;fill-opacity:1;" d="M 75 47.328125 C 83.246094 47.328125 89.933594 54.015625 89.933594 62.261719 C 89.933594 70.507812 83.246094 77.195312 75 77.195312 C 66.753906 77.195312 60.066406 70.507812 60.066406 62.261719 C 60.066406 54.015625 66.753906 47.328125 75 47.328125 Z M 80.535156 63.9375 L 73.867188 67.796875 C 73.242188 68.160156 72.535156 68.160156 71.929688 67.796875 C 71.304688 67.4375 70.957031 66.828125 70.957031 66.121094 L 70.957031 58.417969 C 70.957031 57.710938 71.320312 57.085938 71.929688 56.742188 C 72.550781 56.378906 73.257812 56.378906 73.867188 56.742188 L 80.535156 60.601562 C 81.160156 60.964844 81.503906 61.570312 81.503906 62.277344 C 81.503906 62.984375 81.144531 63.609375 80.535156 63.953125 Z M 80.535156 63.9375 "/></g><path style=" stroke:none;fill-rule:evenodd;fill:#d9d9d9;fill-opacity:1;" d="M 41.863281 84.667969 L 108.136719 84.667969 C 108.691406 84.667969 109.152344 85.128906 109.152344 85.6875 C 109.152344 86.246094 108.691406 86.707031 108.136719 86.707031 L 41.863281 86.707031 C 41.308594 86.707031 40.847656 86.246094 40.847656 85.6875 C 40.847656 85.128906 41.308594 84.667969 41.863281 84.667969 Z M 41.863281 84.667969 "/><path style=" stroke:none;fill-rule:nonzero;fill:#d9d9d9;fill-opacity:1;" d="M 101.890625 85.6875 C 101.890625 86.117188 101.808594 86.535156 101.644531 86.933594 C 101.480469 87.332031 101.246094 87.683594 100.941406 87.988281 C 100.632812 88.292969 100.28125 88.527344 99.882812 88.691406 C 99.484375 88.855469 99.070312 88.941406 98.640625 88.941406 C 98.207031 88.941406 97.792969 88.855469 97.394531 88.691406 C 96.996094 88.527344 96.644531 88.292969 96.339844 87.988281 C 96.035156 87.683594 95.800781 87.332031 95.632812 86.933594 C 95.46875 86.535156 95.386719 86.117188 95.386719 85.6875 C 95.386719 85.253906 95.46875 84.839844 95.632812 84.441406 C 95.800781 84.042969 96.035156 83.691406 96.339844 83.386719 C 96.644531 83.082031 96.996094 82.847656 97.394531 82.683594 C 97.792969 82.515625 98.207031 82.433594 98.640625 82.433594 C 99.070312 82.433594 99.484375 82.515625 99.882812 82.683594 C 100.28125 82.847656 100.632812 83.082031 100.941406 83.386719 C 101.246094 83.691406 101.480469 84.042969 101.644531 84.441406 C 101.808594 84.839844 101.890625 85.253906 101.890625 85.6875 Z M 101.890625 85.6875 "/></g></svg>