<svg xmlns="http://www.w3.org/2000/svg" xmlns:xlink="http://www.w3.org/1999/xlink" width="200" zoomAndPan="magnify" viewBox="0 0 150 12.749999" height="17" preserveAspectRatio="xMidYMid meet" version="1.2"><defs><clipPath id="353b85246d"><path d="M 1.441406 0 L 148.558594 0 L 148.558594 12.503906 L 1.441406 12.503906 Z M 1.441406 0 "/></clipPath><clipPath id="776cfdee6c"><path d="M 1.441406 0 L 116.929688 0 L 116.929688 12.503906 L 1.441406 12.503906 Z M 1.441406 0 "/></clipPath></defs><g id="c7b92d08ca"><g clip-rule="nonzero" clip-path="url(#353b85246d)"><path style=" stroke:none;fill-rule:nonzero;fill:#0b8841;fill-opacity:1;" d="M 121.128906 3.707031 C 119.609375 4.898438 118.265625 5.957031 116.902344 7.011719 C 115.921875 7.765625 115.039062 8.617188 113.894531 9.242188 C 111.765625 10.410156 109.492188 10.316406 107.621094 8.960938 C 106.15625 7.902344 104.933594 6.6875 103.621094 5.53125 C 101.75 3.878906 101.460938 3.851562 99.164062 5.183594 C 97.527344 6.132812 95.960938 7.152344 94.214844 8.003906 C 90.707031 9.714844 88.101562 9.316406 85.796875 6.847656 C 84.707031 5.6875 83.609375 4.53125 82.457031 3.398438 C 82.066406 3.007812 81.515625 2.695312 80.875 2.242188 C 79.554688 3.09375 78.328125 3.855469 77.152344 4.648438 C 75.453125 5.792969 73.878906 7.023438 72.09375 8.105469 C 69.878906 9.445312 68.125 9.347656 65.9375 7.980469 C 63.871094 6.6875 61.871094 5.335938 59.65625 4.164062 C 56.929688 2.722656 56.089844 2.847656 53.71875 4.523438 C 52.058594 5.691406 50.476562 6.925781 48.664062 7.976562 C 45.296875 9.921875 42.746094 9.714844 39.882812 7.402344 C 39.226562 6.875 38.644531 6.304688 37.988281 5.78125 C 36.667969 4.714844 35.480469 4.46875 33.734375 5.195312 C 31.90625 5.953125 30.269531 6.910156 28.570312 7.808594 C 27.105469 8.578125 25.773438 9.472656 24.210938 10.136719 C 21.875 11.121094 20.109375 10.953125 18.253906 9.59375 C 17 8.679688 15.972656 7.625 14.902344 6.601562 C 14.324219 6.042969 13.871094 5.429688 13.1875 4.636719 C 11.042969 6.113281 8.972656 7.449219 7.074219 8.890625 C 5.769531 9.878906 4.753906 11.042969 3.503906 12.070312 C 3.207031 12.320312 2.511719 12.351562 2 12.480469 C 1.816406 12.128906 1.542969 11.785156 1.480469 11.425781 C 1.445312 11.222656 1.707031 10.960938 1.933594 10.789062 C 4.851562 8.539062 7.675781 6.226562 10.757812 4.078125 C 12.960938 2.546875 14.28125 2.785156 16.011719 4.59375 C 17.210938 5.847656 18.488281 7.0625 19.789062 8.265625 C 20.808594 9.207031 22.082031 9.207031 23.375 8.523438 C 24.507812 7.925781 25.566406 7.273438 26.703125 6.675781 C 28.636719 5.660156 30.480469 4.53125 32.589844 3.707031 C 35.484375 2.574219 37.914062 3.03125 40.035156 4.8125 C 40.789062 5.445312 41.496094 6.101562 42.3125 6.695312 C 43.871094 7.816406 44.859375 7.914062 46.644531 6.921875 C 48.210938 6.046875 49.644531 5.054688 51.007812 4.035156 C 55.273438 0.847656 57.695312 0.707031 62.507812 3.515625 C 64.277344 4.550781 65.980469 5.632812 67.621094 6.761719 C 68.640625 7.460938 69.515625 7.503906 70.519531 6.816406 C 72.707031 5.316406 74.867188 3.796875 77.09375 2.324219 C 80.609375 -0.0078125 81.824219 0.0429688 84.765625 2.679688 C 85.84375 3.644531 86.734375 4.707031 87.679688 5.738281 C 89.445312 7.671875 90.625 7.847656 93.269531 6.414062 C 95.097656 5.421875 96.792969 4.328125 98.585938 3.320312 C 100.691406 2.140625 102.613281 2.195312 104.414062 3.582031 C 105.910156 4.738281 107.171875 6.03125 108.59375 7.234375 C 110.339844 8.710938 111.542969 8.738281 113.390625 7.316406 C 115.089844 6.011719 116.589844 4.582031 118.367188 3.324219 C 120.921875 1.519531 122.609375 1.753906 124.234375 3.976562 C 124.660156 4.554688 125.101562 5.132812 125.636719 5.667969 C 126.472656 6.5 127.359375 6.625 128.535156 5.820312 C 129.957031 4.84375 131.453125 3.882812 133.117188 3.113281 C 135.375 2.0625 136.847656 2.238281 138.648438 3.601562 C 141.152344 5.492188 143.683594 7.3125 147.640625 7.804688 C 148.003906 7.847656 148.257812 8.3125 148.566406 8.578125 C 148.132812 8.800781 147.640625 9.246094 147.285156 9.203125 C 145.777344 9.011719 144.097656 8.890625 142.890625 8.335938 C 140.832031 7.394531 138.9375 6.230469 137.246094 4.992188 C 136.007812 4.085938 135.007812 4.046875 133.765625 4.785156 C 132.597656 5.480469 131.457031 6.199219 130.339844 6.933594 C 127.75 8.636719 125.382812 8.492188 123.390625 6.453125 C 122.609375 5.65625 122 4.78125 121.128906 3.722656 Z M 121.128906 3.707031 "/></g><g clip-rule="nonzero" clip-path="url(#776cfdee6c)"><path style=" stroke:none;fill-rule:nonzero;fill:#0b8841;fill-opacity:1;" d="M 121.128906 3.707031 C 119.609375 4.898438 118.265625 5.957031 116.902344 7.011719 C 115.921875 7.765625 115.039062 8.617188 113.894531 9.242188 C 111.765625 10.410156 109.492188 10.316406 107.621094 8.960938 C 106.15625 7.902344 104.933594 6.6875 103.621094 5.53125 C 101.75 3.878906 101.460938 3.851562 99.164062 5.183594 C 97.527344 6.132812 95.960938 7.152344 94.214844 8.003906 C 90.707031 9.714844 88.101562 9.316406 85.796875 6.847656 C 84.707031 5.6875 83.609375 4.53125 82.457031 3.398438 C 82.066406 3.007812 81.515625 2.695312 80.875 2.242188 C 79.554688 3.09375 78.328125 3.855469 77.152344 4.648438 C 75.453125 5.792969 73.878906 7.023438 72.09375 8.105469 C 69.878906 9.445312 68.125 9.347656 65.9375 7.980469 C 63.871094 6.6875 61.871094 5.335938 59.65625 4.164062 C 56.929688 2.722656 56.089844 2.847656 53.71875 4.523438 C 52.058594 5.691406 50.476562 6.925781 48.664062 7.976562 C 45.296875 9.921875 42.746094 9.714844 39.882812 7.402344 C 39.226562 6.875 38.644531 6.304688 37.988281 5.78125 C 36.667969 4.714844 35.480469 4.46875 33.734375 5.195312 C 31.90625 5.953125 30.269531 6.910156 28.570312 7.808594 C 27.105469 8.578125 25.773438 9.472656 24.210938 10.136719 C 21.875 11.121094 20.109375 10.953125 18.253906 9.59375 C 17 8.679688 15.972656 7.625 14.902344 6.601562 C 14.324219 6.042969 13.871094 5.429688 13.1875 4.636719 C 11.042969 6.113281 8.972656 7.449219 7.074219 8.890625 C 5.769531 9.878906 4.753906 11.042969 3.503906 12.070312 C 3.207031 12.320312 2.511719 12.351562 2 12.480469 C 1.816406 12.128906 1.542969 11.785156 1.480469 11.425781 C 1.445312 11.222656 1.707031 10.960938 1.933594 10.789062 C 4.851562 8.539062 7.675781 6.226562 10.757812 4.078125 C 12.960938 2.546875 14.28125 2.785156 16.011719 4.59375 C 17.210938 5.847656 18.488281 7.0625 19.789062 8.265625 C 20.808594 9.207031 22.082031 9.207031 23.375 8.523438 C 24.507812 7.925781 25.566406 7.273438 26.703125 6.675781 C 28.636719 5.660156 30.480469 4.53125 32.589844 3.707031 C 35.484375 2.574219 37.914062 3.03125 40.035156 4.8125 C 40.789062 5.445312 41.496094 6.101562 42.3125 6.695312 C 43.871094 7.816406 44.859375 7.914062 46.644531 6.921875 C 48.210938 6.046875 49.644531 5.054688 51.007812 4.035156 C 55.273438 0.847656 57.695312 0.707031 62.507812 3.515625 C 64.277344 4.550781 65.980469 5.632812 67.621094 6.761719 C 68.640625 7.460938 69.515625 7.503906 70.519531 6.816406 C 72.707031 5.316406 74.867188 3.796875 77.09375 2.324219 C 80.609375 -0.0078125 81.824219 0.0429688 84.765625 2.679688 C 85.84375 3.644531 86.734375 4.707031 87.679688 5.738281 C 89.445312 7.671875 90.625 7.847656 93.269531 6.414062 C 95.097656 5.421875 96.792969 4.328125 98.585938 3.320312 C 100.691406 2.140625 102.613281 2.195312 104.414062 3.582031 C 105.910156 4.738281 107.171875 6.03125 108.59375 7.234375 C 110.339844 8.710938 111.542969 8.738281 113.390625 7.316406 C 115.089844 6.011719 116.589844 4.582031 118.367188 3.324219 C 120.921875 1.519531 122.609375 1.753906 124.234375 3.976562 C 124.660156 4.554688 125.101562 5.132812 125.636719 5.667969 C 126.472656 6.5 127.359375 6.625 128.535156 5.820312 C 129.957031 4.84375 131.453125 3.882812 133.117188 3.113281 C 135.375 2.0625 136.847656 2.238281 138.648438 3.601562 C 141.152344 5.492188 143.683594 7.3125 147.640625 7.804688 C 148.003906 7.847656 148.257812 8.3125 148.566406 8.578125 C 148.132812 8.800781 147.640625 9.246094 147.285156 9.203125 C 145.777344 9.011719 144.097656 8.890625 142.890625 8.335938 C 140.832031 7.394531 138.9375 6.230469 137.246094 4.992188 C 136.007812 4.085938 135.007812 4.046875 133.765625 4.785156 C 132.597656 5.480469 131.457031 6.199219 130.339844 6.933594 C 127.75 8.636719 125.382812 8.492188 123.390625 6.453125 C 122.609375 5.65625 122 4.78125 121.128906 3.722656 Z M 121.128906 3.707031 "/></g></g></svg>