<svg width="42" height="42" viewBox="0 0 42 42" fill="none" xmlns="http://www.w3.org/2000/svg">
<path d="M0 0H10C25.0849 0 32.6274 0 37.3137 4.68629C42 9.37258 42 16.9151 42 32V42H32C16.9151 42 9.37258 42 4.68629 37.3137C0 32.6274 0 25.0849 0 10V0Z" fill="#002726"/>
<path fill-rule="evenodd" clip-rule="evenodd" d="M11.5045 17.4132H15.4027V30.9989H11.5045V17.4132ZM13.3542 15.7138H13.326C11.9149 15.7138 11 14.6753 11 13.3601C11 12.0181 11.9419 11 13.3813 11C14.8194 11 15.7037 12.0155 15.7319 13.3563C15.7319 14.6714 14.8194 15.7138 13.3542 15.7138ZM31.0002 31.0002H26.5799V23.9685C26.5799 22.1283 25.8884 20.8733 24.368 20.8733C23.205 20.8733 22.5582 21.7198 22.2572 22.5381C22.1443 22.8301 22.1619 23.2386 22.1619 23.6483V31.0002H17.7828C17.7828 31.0002 17.8392 18.5452 17.7828 17.4132H22.1619V19.5453C22.4206 18.6131 23.82 17.2826 26.0531 17.2826C28.8235 17.2826 31.0002 19.238 31.0002 23.4447V31.0002Z" fill="#FFFAF1"/>
</svg>
