<svg xmlns="http://www.w3.org/2000/svg" xmlns:xlink="http://www.w3.org/1999/xlink" width="100" zoomAndPan="magnify" viewBox="0 0 75 56.249996" height="75" preserveAspectRatio="xMidYMid meet" version="1.2"><defs><clipPath id="a69304c02f"><path d="M 0.492188 0 L 74.503906 0 L 74.503906 55.511719 L 0.492188 55.511719 Z M 0.492188 0 "/></clipPath><clipPath id="8f8f2fe28c"><path d="M 0.492188 0 L 74.503906 0 L 74.503906 20.722656 L 0.492188 20.722656 Z M 0.492188 0 "/></clipPath></defs><g id="c5344f81e1"><g clip-rule="nonzero" clip-path="url(#a69304c02f)"><path style=" stroke:none;fill-rule:nonzero;fill:#0b8841;fill-opacity:1;" d="M 37.5 0 C 35.457031 0 33.800781 1.65625 33.800781 3.699219 L 31.949219 4.757812 L 7.894531 18.503906 L 18.996094 18.503906 L 37.5 7.929688 L 56.003906 18.503906 L 67.105469 18.503906 L 43.050781 4.757812 L 41.199219 3.699219 C 41.199219 1.65625 39.542969 0 37.5 0 Z M 7.894531 22.203125 C 3.804688 22.203125 0.492188 25.191406 0.492188 28.867188 L 0.492188 48.847656 C 0.492188 52.523438 3.804688 55.511719 7.894531 55.511719 L 67.105469 55.511719 C 71.195312 55.511719 74.507812 52.523438 74.507812 48.847656 L 74.507812 28.867188 C 74.507812 25.191406 71.195312 22.203125 67.105469 22.203125 Z M 14.457031 29.605469 C 16.449219 29.605469 17.980469 30.0625 19.054688 30.984375 C 20.132812 31.90625 20.671875 33.226562 20.671875 34.945312 C 20.671875 35.671875 20.535156 36.375 20.269531 37.0625 C 20 37.753906 19.582031 38.46875 19.011719 39.226562 C 18.445312 39.980469 17.523438 40.996094 16.257812 42.261719 L 13.878906 45 L 21.128906 45 L 21.128906 48.289062 L 8.277344 48.289062 L 8.277344 45.507812 L 14.199219 39.277344 C 15.65625 37.613281 16.386719 36.300781 16.386719 35.324219 C 16.386719 34.53125 16.210938 33.921875 15.867188 33.507812 C 15.519531 33.09375 15.023438 32.894531 14.363281 32.894531 C 13.710938 32.894531 13.1875 33.167969 12.78125 33.71875 C 12.378906 34.269531 12.171875 34.964844 12.171875 35.792969 L 7.894531 35.792969 C 7.894531 34.664062 8.179688 33.613281 8.742188 32.65625 C 9.304688 31.695312 10.089844 30.953125 11.097656 30.414062 C 12.101562 29.875 13.21875 29.605469 14.457031 29.605469 Z M 54.125 29.691406 L 67.105469 29.691406 L 67.105469 31.96875 L 60.222656 48.109375 L 55.722656 48.109375 L 62.609375 32.980469 L 54.125 32.980469 Z M 30.742188 29.871094 L 35 29.871094 L 35 41.089844 L 36.871094 41.089844 L 36.871094 44.378906 L 35 44.378906 L 35 48.289062 L 30.742188 48.289062 L 30.742188 44.378906 L 23.617188 44.378906 L 23.371094 41.769531 L 30.742188 29.910156 Z M 46.664062 29.871094 L 50.617188 29.871094 L 44.324219 49.871094 L 40.375 49.871094 Z M 30.742188 35.421875 L 30.480469 35.851562 L 27.425781 41.089844 L 30.742188 41.089844 Z M 30.742188 35.421875 "/></g><g clip-rule="nonzero" clip-path="url(#8f8f2fe28c)"><path style=" stroke:none;fill-rule:nonzero;fill:#0b8841;fill-opacity:1;" d="M 37.5 0 C 35.457031 0 33.800781 1.65625 33.800781 3.699219 L 31.949219 4.757812 L 7.894531 18.503906 L 18.996094 18.503906 L 37.5 7.929688 L 56.003906 18.503906 L 67.105469 18.503906 L 43.050781 4.757812 L 41.199219 3.699219 C 41.199219 1.65625 39.542969 0 37.5 0 Z M 7.894531 22.203125 C 3.804688 22.203125 0.492188 25.191406 0.492188 28.867188 L 0.492188 48.847656 C 0.492188 52.523438 3.804688 55.511719 7.894531 55.511719 L 67.105469 55.511719 C 71.195312 55.511719 74.507812 52.523438 74.507812 48.847656 L 74.507812 28.867188 C 74.507812 25.191406 71.195312 22.203125 67.105469 22.203125 Z M 14.457031 29.605469 C 16.449219 29.605469 17.980469 30.0625 19.054688 30.984375 C 20.132812 31.90625 20.671875 33.226562 20.671875 34.945312 C 20.671875 35.671875 20.535156 36.375 20.269531 37.0625 C 20 37.753906 19.582031 38.46875 19.011719 39.226562 C 18.445312 39.980469 17.523438 40.996094 16.257812 42.261719 L 13.878906 45 L 21.128906 45 L 21.128906 48.289062 L 8.277344 48.289062 L 8.277344 45.507812 L 14.199219 39.277344 C 15.65625 37.613281 16.386719 36.300781 16.386719 35.324219 C 16.386719 34.53125 16.210938 33.921875 15.867188 33.507812 C 15.519531 33.09375 15.023438 32.894531 14.363281 32.894531 C 13.710938 32.894531 13.1875 33.167969 12.78125 33.71875 C 12.378906 34.269531 12.171875 34.964844 12.171875 35.792969 L 7.894531 35.792969 C 7.894531 34.664062 8.179688 33.613281 8.742188 32.65625 C 9.304688 31.695312 10.089844 30.953125 11.097656 30.414062 C 12.101562 29.875 13.21875 29.605469 14.457031 29.605469 Z M 54.125 29.691406 L 67.105469 29.691406 L 67.105469 31.96875 L 60.222656 48.109375 L 55.722656 48.109375 L 62.609375 32.980469 L 54.125 32.980469 Z M 30.742188 29.871094 L 35 29.871094 L 35 41.089844 L 36.871094 41.089844 L 36.871094 44.378906 L 35 44.378906 L 35 48.289062 L 30.742188 48.289062 L 30.742188 44.378906 L 23.617188 44.378906 L 23.371094 41.769531 L 30.742188 29.910156 Z M 46.664062 29.871094 L 50.617188 29.871094 L 44.324219 49.871094 L 40.375 49.871094 Z M 30.742188 35.421875 L 30.480469 35.851562 L 27.425781 41.089844 L 30.742188 41.089844 Z M 30.742188 35.421875 "/></g></g></svg>