<svg xmlns="http://www.w3.org/2000/svg" xmlns:xlink="http://www.w3.org/1999/xlink" width="200" zoomAndPan="magnify" viewBox="0 0 150 132.749998" height="177" preserveAspectRatio="xMidYMid meet" version="1.2"><defs><clipPath id="6087c4c652"><path d="M 0.140625 116 L 96 116 L 96 131.75 L 0.140625 131.75 Z M 0.140625 116 "/></clipPath><clipPath id="af179fd7f0"><path d="M 94 42 L 149.859375 42 L 149.859375 98 L 94 98 Z M 94 42 "/></clipPath><clipPath id="956bd071ed"><path d="M 24 0 L 125 0 L 125 131.75 L 24 131.75 Z M 24 0 "/></clipPath><clipPath id="c05ffe8d65"><path d="M 24 0 L 125 0 L 125 38.179688 L 24 38.179688 Z M 24 0 "/></clipPath></defs><g id="9efb86065b"><g clip-rule="nonzero" clip-path="url(#6087c4c652)"><path style=" stroke:none;fill-rule:nonzero;fill:#0b8841;fill-opacity:1;" d="M 95.488281 131.953125 L 17.832031 131.953125 C 9.03125 131.953125 1.761719 125.316406 0.734375 116.773438 L 86.785156 116.773438 C 87.386719 123.015625 90.683594 128.449219 95.488281 131.953125 Z M 95.488281 131.953125 "/></g><g clip-rule="nonzero" clip-path="url(#af179fd7f0)"><path style=" stroke:none;fill-rule:nonzero;fill:#0b8841;fill-opacity:1;" d="M 141.339844 75.234375 C 141.597656 74.347656 142.394531 73.742188 143.308594 73.742188 L 149.25 73.742188 L 149.25 65.804688 L 143.308594 65.804688 C 142.40625 65.804688 141.597656 65.1875 141.339844 64.3125 C 140.902344 62.765625 140.285156 61.316406 139.53125 60.003906 C 139.082031 59.195312 139.21875 58.183594 139.875 57.523438 L 144.078125 53.324219 L 138.449219 47.699219 L 134.261719 51.898438 C 133.605469 52.554688 132.605469 52.695312 131.8125 52.242188 C 130.417969 51.476562 128.953125 50.875 127.460938 50.449219 C 126.585938 50.1875 125.96875 49.382812 125.96875 48.464844 L 125.96875 42.523438 L 118.03125 42.523438 L 118.03125 48.464844 C 118.03125 49.382812 117.414062 50.1875 116.539062 50.449219 C 115.046875 50.875 113.582031 51.476562 112.1875 52.242188 C 111.390625 52.695312 110.394531 52.554688 109.75 51.898438 L 105.546875 47.699219 L 99.921875 53.324219 L 104.136719 57.523438 C 104.78125 58.183594 104.917969 59.195312 104.46875 60.003906 C 103.714844 61.316406 103.113281 62.765625 102.660156 64.3125 C 102.402344 65.1875 101.605469 65.804688 100.691406 65.804688 L 94.75 65.804688 L 94.75 73.742188 L 100.691406 73.742188 C 101.605469 73.742188 102.414062 74.347656 102.660156 75.234375 C 103.097656 76.742188 103.699219 78.191406 104.46875 79.574219 C 104.917969 80.367188 104.78125 81.378906 104.136719 82.023438 L 99.921875 86.238281 L 105.546875 91.851562 L 109.765625 87.636719 C 110.40625 86.976562 111.421875 86.855469 112.226562 87.308594 C 113.542969 88.058594 114.992188 88.660156 116.539062 89.113281 C 117.429688 89.359375 118.03125 90.167969 118.03125 91.085938 L 118.03125 97.023438 L 125.96875 97.023438 L 125.96875 91.085938 C 125.96875 90.167969 126.585938 89.359375 127.460938 89.113281 C 129.007812 88.660156 130.457031 88.058594 131.773438 87.308594 C 132.578125 86.839844 133.59375 86.976562 134.25 87.636719 L 138.449219 91.851562 L 144.078125 86.238281 L 139.875 82.023438 C 139.21875 81.378906 139.082031 80.367188 139.53125 79.574219 C 140.300781 78.191406 140.914062 76.742188 141.339844 75.234375 Z M 134.003906 71.582031 C 133.742188 73.496094 132.949219 75.398438 131.730469 77.027344 C 131.046875 77.972656 130.199219 78.808594 129.238281 79.519531 C 127.640625 80.722656 125.722656 81.515625 123.722656 81.777344 C 123.21875 81.875 122.617188 81.914062 122 81.914062 L 121.957031 81.914062 C 121.355469 81.914062 120.769531 81.859375 120.207031 81.765625 C 118.277344 81.515625 116.359375 80.722656 114.746094 79.492188 C 113.800781 78.808594 112.953125 77.972656 112.253906 77 C 111.050781 75.398438 110.257812 73.496094 109.996094 71.5 C 109.902344 70.992188 109.859375 70.390625 109.859375 69.773438 C 109.859375 69.160156 109.902344 68.554688 109.996094 67.980469 C 110.257812 66.066406 111.050781 64.148438 112.296875 62.507812 C 112.980469 61.578125 113.816406 60.742188 114.757812 60.042969 C 116.359375 58.824219 118.277344 58.046875 120.289062 57.769531 C 121.300781 57.59375 122.628906 57.59375 123.792969 57.785156 C 125.722656 58.046875 127.640625 58.824219 129.265625 60.058594 C 130.171875 60.726562 131.003906 61.5625 131.71875 62.507812 C 132.960938 64.164062 133.742188 66.078125 134.015625 68.050781 C 134.097656 68.554688 134.152344 69.160156 134.152344 69.773438 C 134.152344 70.390625 134.097656 70.992188 134.003906 71.582031 Z M 134.003906 71.582031 "/></g><path style=" stroke:none;fill-rule:nonzero;fill:#0b8841;fill-opacity:1;" d="M 146.101562 11.019531 L 146.101562 26.085938 L 124.054688 26.085938 L 124.054688 11.019531 C 124.054688 4.941406 128.992188 -0.0117188 135.085938 -0.0117188 C 141.160156 -0.0117188 146.101562 4.941406 146.101562 11.019531 Z M 146.101562 11.019531 "/><g clip-rule="nonzero" clip-path="url(#956bd071ed)"><path style=" stroke:none;fill-rule:nonzero;fill:#0b8841;fill-opacity:1;" d="M 38.113281 -0.015625 C 30.339844 -0.015625 24.003906 6.308594 24.003906 14.070312 L 24.003906 112.667969 L 88.726562 112.667969 C 89.863281 112.667969 90.78125 113.585938 90.78125 114.722656 C 90.78125 123.863281 97.9375 131.351562 106.945312 131.898438 C 114.210938 131.390625 119.945312 125.246094 119.945312 117.867188 L 119.945312 101.128906 L 115.976562 101.128906 C 114.839844 101.128906 113.925781 100.214844 113.925781 99.078125 L 113.925781 92.574219 C 113.117188 92.289062 112.351562 91.972656 111.597656 91.605469 L 107 96.203125 C 106.191406 97.011719 104.90625 97.011719 104.097656 96.203125 L 95.570312 87.691406 C 95.1875 87.308594 94.96875 86.785156 94.96875 86.238281 C 94.96875 85.691406 95.1875 85.171875 95.570312 84.789062 L 100.167969 80.191406 C 99.800781 79.421875 99.472656 78.644531 99.199219 77.847656 L 92.695312 77.847656 C 91.5625 77.847656 90.644531 76.933594 90.644531 75.796875 L 90.644531 63.753906 C 90.644531 62.617188 91.5625 61.699219 92.695312 61.699219 L 99.199219 61.699219 C 99.484375 60.890625 99.800781 60.113281 100.167969 59.359375 L 95.570312 54.773438 C 95.1875 54.375 94.96875 53.855469 94.96875 53.308594 C 94.96875 52.773438 95.1875 52.242188 95.570312 51.859375 L 104.097656 43.34375 C 104.90625 42.550781 106.191406 42.550781 107 43.34375 L 111.585938 47.945312 C 112.351562 47.574219 113.128906 47.257812 113.925781 46.972656 L 113.925781 40.472656 C 113.925781 39.347656 114.839844 38.417969 115.976562 38.417969 L 119.945312 38.417969 L 119.945312 11.019531 C 119.945312 6.664062 121.808594 2.75 124.75 -0.0117188 Z M 79.242188 14.5625 C 79.242188 13.972656 79.679688 13.496094 80.214844 13.496094 L 86.878906 13.496094 C 87.414062 13.496094 87.851562 13.972656 87.851562 14.5625 C 87.851562 15.152344 87.414062 15.628906 86.878906 15.628906 L 82.570312 15.628906 C 82.019531 15.628906 81.582031 16.09375 81.582031 16.683594 L 81.582031 17.355469 C 81.582031 17.941406 82.019531 18.421875 82.570312 18.421875 L 86.441406 18.421875 C 86.976562 18.421875 87.414062 18.886719 87.414062 19.476562 C 87.414062 20.0625 86.976562 20.542969 86.441406 20.542969 L 82.570312 20.542969 C 82.019531 20.542969 81.582031 21.007812 81.582031 21.597656 L 81.582031 22.898438 C 81.582031 23.484375 82.019531 23.964844 82.570312 23.964844 L 87.097656 23.964844 C 87.632812 23.964844 88.070312 24.429688 88.070312 25.019531 C 88.070312 25.609375 87.632812 26.085938 87.097656 26.085938 L 80.214844 26.085938 C 79.679688 26.085938 79.242188 25.605469 79.242188 25.019531 Z M 70.25 22.078125 L 70.550781 22.035156 C 71.058594 21.980469 71.511719 22.351562 71.621094 22.882812 C 71.675781 23.117188 71.742188 23.308594 71.8125 23.445312 C 72.070312 23.898438 72.453125 24.128906 72.972656 24.128906 C 73.496094 24.128906 73.863281 23.964844 74.082031 23.636719 C 74.300781 23.320312 74.410156 22.652344 74.410156 21.625 L 74.410156 14.5625 C 74.410156 13.972656 74.847656 13.496094 75.382812 13.496094 L 75.765625 13.496094 C 76.300781 13.496094 76.75 13.972656 76.75 14.5625 L 76.75 21.460938 C 76.75 22.5 76.65625 23.308594 76.492188 23.871094 C 76.257812 24.59375 75.847656 25.183594 75.261719 25.636719 C 74.65625 26.074219 73.878906 26.292969 72.890625 26.292969 C 71.742188 26.292969 70.867188 25.949219 70.25 25.25 C 69.800781 24.757812 69.523438 24.089844 69.386719 23.253906 C 69.304688 22.679688 69.71875 22.144531 70.25 22.078125 Z M 57.644531 16.644531 C 57.90625 16 58.273438 15.425781 58.726562 14.917969 C 59.191406 14.398438 59.683594 14.027344 60.230469 13.78125 C 60.957031 13.453125 61.792969 13.277344 62.738281 13.277344 C 64.449219 13.277344 65.816406 13.863281 66.84375 15.015625 C 67.871094 16.164062 68.390625 17.75 68.390625 19.804688 C 68.390625 21.84375 67.871094 23.429688 66.855469 24.582031 C 65.828125 25.71875 64.476562 26.292969 62.765625 26.292969 C 61.039062 26.292969 59.671875 25.730469 58.644531 24.582031 C 57.632812 23.445312 57.113281 21.871094 57.113281 19.871094 C 57.113281 18.585938 57.289062 17.503906 57.644531 16.644531 Z M 45.875 14.5625 C 45.875 13.972656 46.3125 13.496094 46.859375 13.496094 L 50.816406 13.496094 C 52.0625 13.496094 52.964844 13.605469 53.527344 13.835938 C 54.085938 14.054688 54.539062 14.464844 54.878906 15.042969 C 55.210938 15.617188 55.386719 16.285156 55.386719 17.027344 C 55.386719 17.96875 55.128906 18.75 54.605469 19.367188 C 54.101562 19.984375 53.335938 20.367188 52.308594 20.53125 C 52.828125 20.84375 53.238281 21.199219 53.566406 21.582031 C 53.894531 21.96875 54.347656 22.652344 54.90625 23.625 L 55.386719 24.457031 C 55.796875 25.167969 55.332031 26.085938 54.550781 26.085938 L 54.046875 26.085938 C 53.71875 26.085938 53.417969 25.910156 53.222656 25.609375 L 51.828125 23.347656 C 51.226562 22.363281 50.816406 21.75 50.582031 21.488281 C 50.363281 21.242188 50.132812 21.0625 49.886719 20.96875 C 49.640625 20.871094 49.242188 20.832031 48.695312 20.832031 L 48.230469 20.832031 L 48.230469 25.019531 C 48.230469 25.609375 47.789062 26.085938 47.242188 26.085938 L 46.859375 26.085938 C 46.3125 26.085938 45.875 25.609375 45.875 25.019531 Z M 35.046875 14.5625 C 35.046875 13.972656 35.488281 13.496094 36.019531 13.496094 L 38.8125 13.496094 C 40.234375 13.496094 41.167969 13.5625 41.605469 13.6875 C 42.261719 13.878906 42.824219 14.289062 43.273438 14.917969 C 43.726562 15.546875 43.945312 16.371094 43.945312 17.367188 C 43.945312 18.136719 43.820312 18.792969 43.5625 19.3125 C 43.300781 19.84375 42.972656 20.257812 42.578125 20.558594 C 42.179688 20.859375 41.769531 21.0625 41.359375 21.160156 C 40.796875 21.269531 39.988281 21.335938 38.921875 21.335938 L 38.375 21.335938 C 37.828125 21.335938 37.390625 21.800781 37.390625 22.390625 L 37.390625 25.019531 C 37.390625 25.609375 36.953125 26.085938 36.417969 26.085938 L 36.019531 26.085938 C 35.488281 26.085938 35.046875 25.605469 35.046875 25.019531 Z M 32.996094 36.832031 C 32.996094 35.695312 33.914062 34.777344 35.046875 34.777344 L 71.167969 34.777344 C 72.304688 34.777344 73.222656 35.695312 73.222656 36.832031 L 73.222656 51.242188 C 73.222656 52.378906 72.304688 53.296875 71.167969 53.296875 L 35.046875 53.296875 C 33.914062 53.296875 32.996094 52.378906 32.996094 51.242188 Z M 35.046875 63.917969 L 81.40625 63.917969 C 82.542969 63.917969 83.457031 64.832031 83.457031 65.96875 C 83.457031 67.105469 82.542969 68.023438 81.40625 68.023438 L 35.046875 68.023438 C 33.914062 68.023438 32.996094 67.105469 32.996094 65.96875 C 32.996094 64.832031 33.914062 63.917969 35.046875 63.917969 Z M 35.046875 79.832031 L 83.664062 79.832031 C 84.800781 79.832031 85.714844 80.75 85.714844 81.886719 C 85.714844 83.023438 84.800781 83.941406 83.664062 83.941406 L 35.046875 83.941406 C 33.914062 83.941406 32.996094 83.023438 32.996094 81.886719 C 32.996094 80.75 33.914062 79.832031 35.046875 79.832031 Z M 94.570312 95.738281 C 95.707031 95.738281 96.625 96.65625 96.625 97.789062 C 96.625 98.925781 95.707031 99.84375 94.570312 99.84375 L 35.046875 99.84375 C 33.914062 99.84375 32.996094 98.925781 32.996094 97.789062 C 32.996094 96.65625 33.914062 95.738281 35.046875 95.738281 Z M 99.429688 23.308594 C 99.074219 24.15625 98.625 24.8125 98.035156 25.292969 C 97.226562 25.964844 96.199219 26.292969 94.941406 26.292969 C 93.410156 26.292969 92.136719 25.730469 91.148438 24.582031 C 90.152344 23.445312 89.660156 21.886719 89.660156 19.898438 C 89.660156 17.804688 90.152344 16.175781 91.148438 15.015625 C 92.148438 13.863281 93.464844 13.277344 95.09375 13.277344 C 96.515625 13.277344 97.664062 13.742188 98.554688 14.644531 C 98.828125 14.933594 99.074219 15.273438 99.28125 15.699219 C 99.582031 16.316406 99.28125 17.082031 98.652344 17.246094 L 98.28125 17.339844 C 97.855469 17.449219 97.378906 17.273438 97.1875 16.847656 C 97.035156 16.519531 96.816406 16.246094 96.554688 16.027344 C 96.117188 15.644531 95.597656 15.453125 94.96875 15.453125 C 94.105469 15.453125 93.410156 15.792969 92.875 16.464844 C 92.339844 17.121094 92.066406 18.21875 92.066406 19.707031 C 92.066406 21.308594 92.339844 22.433594 92.859375 23.117188 C 93.394531 23.789062 94.078125 24.128906 94.925781 24.128906 C 95.542969 24.128906 96.078125 23.910156 96.527344 23.488281 C 96.816406 23.199219 97.0625 22.828125 97.242188 22.351562 C 97.433594 21.859375 97.953125 21.609375 98.429688 21.777344 L 98.816406 21.914062 C 99.347656 22.089844 99.648438 22.746094 99.429688 23.308594 Z M 109.203125 15.628906 L 107.726562 15.628906 C 107.191406 15.628906 106.753906 16.09375 106.753906 16.683594 L 106.753906 25.019531 C 106.753906 25.609375 106.316406 26.085938 105.765625 26.085938 L 105.382812 26.085938 C 104.835938 26.085938 104.398438 25.609375 104.398438 25.019531 L 104.398438 16.683594 C 104.398438 16.09375 103.960938 15.628906 103.425781 15.628906 L 101.933594 15.628906 C 101.386719 15.628906 100.949219 15.152344 100.949219 14.5625 C 100.949219 13.972656 101.386719 13.496094 101.933594 13.496094 L 109.203125 13.496094 C 109.75 13.496094 110.1875 13.972656 110.1875 14.5625 C 110.1875 15.152344 109.75 15.628906 109.203125 15.628906 Z M 109.203125 15.628906 "/></g><path style=" stroke:none;fill-rule:nonzero;fill:#0b8841;fill-opacity:1;" d="M 119.945312 62.027344 L 119.945312 77.535156 C 118.960938 77.273438 118.03125 76.835938 117.183594 76.195312 C 116.566406 75.742188 116.019531 75.207031 115.554688 74.566406 C 114.746094 73.484375 114.238281 72.265625 114.046875 70.882812 C 113.992188 70.539062 113.964844 70.15625 113.964844 69.773438 C 113.964844 69.390625 113.992188 69.023438 114.0625 68.597656 C 114.238281 67.3125 114.757812 66.050781 115.582031 64.96875 C 116.03125 64.355469 116.578125 63.808594 117.210938 63.339844 C 118.015625 62.726562 118.933594 62.289062 119.945312 62.027344 Z M 119.945312 62.027344 "/><path style=" stroke:none;fill-rule:nonzero;fill:#0b8841;fill-opacity:1;" d="M 130.046875 69.773438 C 130.046875 70.15625 130.007812 70.539062 129.9375 70.953125 C 129.761719 72.265625 129.265625 73.484375 128.433594 74.578125 C 127.980469 75.207031 127.433594 75.742188 126.789062 76.222656 C 125.984375 76.835938 125.050781 77.273438 124.054688 77.535156 L 124.054688 62.015625 C 125.039062 62.273438 125.96875 62.710938 126.804688 63.339844 C 127.417969 63.808594 127.96875 64.355469 128.445312 64.96875 C 129.253906 66.050781 129.773438 67.3125 129.953125 68.664062 C 130.007812 69.023438 130.046875 69.390625 130.046875 69.773438 Z M 130.046875 69.773438 "/><path style=" stroke:none;fill-rule:nonzero;fill:#0b8841;fill-opacity:1;" d="M 41.535156 17.410156 C 41.535156 17.777344 41.441406 18.105469 41.261719 18.382812 C 41.085938 18.667969 40.839844 18.875 40.535156 18.996094 C 40.222656 19.132812 39.605469 19.203125 38.675781 19.203125 L 38.375 19.203125 C 37.828125 19.203125 37.390625 18.722656 37.390625 18.136719 L 37.390625 16.683594 C 37.390625 16.09375 37.828125 15.628906 38.375 15.628906 L 38.523438 15.628906 C 39.375 15.628906 39.933594 15.65625 40.207031 15.710938 C 40.589844 15.78125 40.90625 15.972656 41.152344 16.273438 C 41.398438 16.574219 41.535156 16.945312 41.535156 17.410156 Z M 41.535156 17.410156 "/><path style=" stroke:none;fill-rule:nonzero;fill:#0b8841;fill-opacity:1;" d="M 52.964844 17.191406 C 52.964844 17.558594 52.882812 17.875 52.730469 18.136719 C 52.566406 18.382812 52.347656 18.558594 52.074219 18.667969 C 51.789062 18.765625 51.089844 18.820312 49.96875 18.820312 L 49.199219 18.820312 C 48.667969 18.820312 48.230469 18.339844 48.230469 17.765625 L 48.230469 16.683594 C 48.230469 16.097656 48.667969 15.628906 49.199219 15.628906 L 50.050781 15.628906 C 51.007812 15.628906 51.582031 15.644531 51.773438 15.671875 C 52.144531 15.738281 52.445312 15.902344 52.648438 16.164062 C 52.855469 16.425781 52.964844 16.765625 52.964844 17.191406 Z M 52.964844 17.191406 "/><path style=" stroke:none;fill-rule:nonzero;fill:#0b8841;fill-opacity:1;" d="M 65.96875 19.75 C 65.96875 21.199219 65.664062 22.296875 65.0625 23.035156 C 64.460938 23.761719 63.695312 24.128906 62.765625 24.128906 C 61.820312 24.128906 61.054688 23.761719 60.449219 23.019531 C 59.835938 22.28125 59.535156 21.199219 59.535156 19.777344 C 59.535156 18.339844 59.835938 17.246094 60.421875 16.535156 C 61.011719 15.808594 61.792969 15.453125 62.765625 15.453125 C 63.722656 15.453125 64.503906 15.808594 65.089844 16.519531 C 65.664062 17.230469 65.96875 18.300781 65.96875 19.75 Z M 65.96875 19.75 "/><path style=" stroke:none;fill-rule:nonzero;fill:#0b8841;fill-opacity:1;" d="M 69.113281 38.882812 L 37.101562 38.882812 L 37.101562 49.191406 L 69.113281 49.191406 Z M 69.113281 38.882812 "/><path style=" stroke:none;fill-rule:nonzero;fill:#0b8841;fill-opacity:1;" d="M 146.101562 11.019531 L 146.101562 26.085938 L 124.054688 26.085938 L 124.054688 11.019531 C 124.054688 4.941406 128.992188 -0.0117188 135.085938 -0.0117188 C 141.160156 -0.0117188 146.101562 4.941406 146.101562 11.019531 Z M 146.101562 11.019531 "/><g clip-rule="nonzero" clip-path="url(#c05ffe8d65)"><path style=" stroke:none;fill-rule:nonzero;fill:#0b8841;fill-opacity:1;" d="M 38.113281 -0.015625 C 30.339844 -0.015625 24.003906 6.308594 24.003906 14.070312 L 24.003906 112.667969 L 88.726562 112.667969 C 89.863281 112.667969 90.78125 113.585938 90.78125 114.722656 C 90.78125 123.863281 97.9375 131.351562 106.945312 131.898438 C 114.210938 131.390625 119.945312 125.246094 119.945312 117.867188 L 119.945312 101.128906 L 115.976562 101.128906 C 114.839844 101.128906 113.925781 100.214844 113.925781 99.078125 L 113.925781 92.574219 C 113.117188 92.289062 112.351562 91.972656 111.597656 91.605469 L 107 96.203125 C 106.191406 97.011719 104.90625 97.011719 104.097656 96.203125 L 95.570312 87.691406 C 95.1875 87.308594 94.96875 86.785156 94.96875 86.238281 C 94.96875 85.691406 95.1875 85.171875 95.570312 84.789062 L 100.167969 80.191406 C 99.800781 79.421875 99.472656 78.644531 99.199219 77.847656 L 92.695312 77.847656 C 91.5625 77.847656 90.644531 76.933594 90.644531 75.796875 L 90.644531 63.753906 C 90.644531 62.617188 91.5625 61.699219 92.695312 61.699219 L 99.199219 61.699219 C 99.484375 60.890625 99.800781 60.113281 100.167969 59.359375 L 95.570312 54.773438 C 95.1875 54.375 94.96875 53.855469 94.96875 53.308594 C 94.96875 52.773438 95.1875 52.242188 95.570312 51.859375 L 104.097656 43.34375 C 104.90625 42.550781 106.191406 42.550781 107 43.34375 L 111.585938 47.945312 C 112.351562 47.574219 113.128906 47.257812 113.925781 46.972656 L 113.925781 40.472656 C 113.925781 39.347656 114.839844 38.417969 115.976562 38.417969 L 119.945312 38.417969 L 119.945312 11.019531 C 119.945312 6.664062 121.808594 2.75 124.75 -0.0117188 Z M 79.242188 14.5625 C 79.242188 13.972656 79.679688 13.496094 80.214844 13.496094 L 86.878906 13.496094 C 87.414062 13.496094 87.851562 13.972656 87.851562 14.5625 C 87.851562 15.152344 87.414062 15.628906 86.878906 15.628906 L 82.570312 15.628906 C 82.019531 15.628906 81.582031 16.09375 81.582031 16.683594 L 81.582031 17.355469 C 81.582031 17.941406 82.019531 18.421875 82.570312 18.421875 L 86.441406 18.421875 C 86.976562 18.421875 87.414062 18.886719 87.414062 19.476562 C 87.414062 20.0625 86.976562 20.542969 86.441406 20.542969 L 82.570312 20.542969 C 82.019531 20.542969 81.582031 21.007812 81.582031 21.597656 L 81.582031 22.898438 C 81.582031 23.484375 82.019531 23.964844 82.570312 23.964844 L 87.097656 23.964844 C 87.632812 23.964844 88.070312 24.429688 88.070312 25.019531 C 88.070312 25.609375 87.632812 26.085938 87.097656 26.085938 L 80.214844 26.085938 C 79.679688 26.085938 79.242188 25.605469 79.242188 25.019531 Z M 70.25 22.078125 L 70.550781 22.035156 C 71.058594 21.980469 71.511719 22.351562 71.621094 22.882812 C 71.675781 23.117188 71.742188 23.308594 71.8125 23.445312 C 72.070312 23.898438 72.453125 24.128906 72.972656 24.128906 C 73.496094 24.128906 73.863281 23.964844 74.082031 23.636719 C 74.300781 23.320312 74.410156 22.652344 74.410156 21.625 L 74.410156 14.5625 C 74.410156 13.972656 74.847656 13.496094 75.382812 13.496094 L 75.765625 13.496094 C 76.300781 13.496094 76.75 13.972656 76.75 14.5625 L 76.75 21.460938 C 76.75 22.5 76.65625 23.308594 76.492188 23.871094 C 76.257812 24.59375 75.847656 25.183594 75.261719 25.636719 C 74.65625 26.074219 73.878906 26.292969 72.890625 26.292969 C 71.742188 26.292969 70.867188 25.949219 70.25 25.25 C 69.800781 24.757812 69.523438 24.089844 69.386719 23.253906 C 69.304688 22.679688 69.71875 22.144531 70.25 22.078125 Z M 57.644531 16.644531 C 57.90625 16 58.273438 15.425781 58.726562 14.917969 C 59.191406 14.398438 59.683594 14.027344 60.230469 13.78125 C 60.957031 13.453125 61.792969 13.277344 62.738281 13.277344 C 64.449219 13.277344 65.816406 13.863281 66.84375 15.015625 C 67.871094 16.164062 68.390625 17.75 68.390625 19.804688 C 68.390625 21.84375 67.871094 23.429688 66.855469 24.582031 C 65.828125 25.71875 64.476562 26.292969 62.765625 26.292969 C 61.039062 26.292969 59.671875 25.730469 58.644531 24.582031 C 57.632812 23.445312 57.113281 21.871094 57.113281 19.871094 C 57.113281 18.585938 57.289062 17.503906 57.644531 16.644531 Z M 45.875 14.5625 C 45.875 13.972656 46.3125 13.496094 46.859375 13.496094 L 50.816406 13.496094 C 52.0625 13.496094 52.964844 13.605469 53.527344 13.835938 C 54.085938 14.054688 54.539062 14.464844 54.878906 15.042969 C 55.210938 15.617188 55.386719 16.285156 55.386719 17.027344 C 55.386719 17.96875 55.128906 18.75 54.605469 19.367188 C 54.101562 19.984375 53.335938 20.367188 52.308594 20.53125 C 52.828125 20.84375 53.238281 21.199219 53.566406 21.582031 C 53.894531 21.96875 54.347656 22.652344 54.90625 23.625 L 55.386719 24.457031 C 55.796875 25.167969 55.332031 26.085938 54.550781 26.085938 L 54.046875 26.085938 C 53.71875 26.085938 53.417969 25.910156 53.222656 25.609375 L 51.828125 23.347656 C 51.226562 22.363281 50.816406 21.75 50.582031 21.488281 C 50.363281 21.242188 50.132812 21.0625 49.886719 20.96875 C 49.640625 20.871094 49.242188 20.832031 48.695312 20.832031 L 48.230469 20.832031 L 48.230469 25.019531 C 48.230469 25.609375 47.789062 26.085938 47.242188 26.085938 L 46.859375 26.085938 C 46.3125 26.085938 45.875 25.609375 45.875 25.019531 Z M 35.046875 14.5625 C 35.046875 13.972656 35.488281 13.496094 36.019531 13.496094 L 38.8125 13.496094 C 40.234375 13.496094 41.167969 13.5625 41.605469 13.6875 C 42.261719 13.878906 42.824219 14.289062 43.273438 14.917969 C 43.726562 15.546875 43.945312 16.371094 43.945312 17.367188 C 43.945312 18.136719 43.820312 18.792969 43.5625 19.3125 C 43.300781 19.84375 42.972656 20.257812 42.578125 20.558594 C 42.179688 20.859375 41.769531 21.0625 41.359375 21.160156 C 40.796875 21.269531 39.988281 21.335938 38.921875 21.335938 L 38.375 21.335938 C 37.828125 21.335938 37.390625 21.800781 37.390625 22.390625 L 37.390625 25.019531 C 37.390625 25.609375 36.953125 26.085938 36.417969 26.085938 L 36.019531 26.085938 C 35.488281 26.085938 35.046875 25.605469 35.046875 25.019531 Z M 32.996094 36.832031 C 32.996094 35.695312 33.914062 34.777344 35.046875 34.777344 L 71.167969 34.777344 C 72.304688 34.777344 73.222656 35.695312 73.222656 36.832031 L 73.222656 51.242188 C 73.222656 52.378906 72.304688 53.296875 71.167969 53.296875 L 35.046875 53.296875 C 33.914062 53.296875 32.996094 52.378906 32.996094 51.242188 Z M 35.046875 63.917969 L 81.40625 63.917969 C 82.542969 63.917969 83.457031 64.832031 83.457031 65.96875 C 83.457031 67.105469 82.542969 68.023438 81.40625 68.023438 L 35.046875 68.023438 C 33.914062 68.023438 32.996094 67.105469 32.996094 65.96875 C 32.996094 64.832031 33.914062 63.917969 35.046875 63.917969 Z M 35.046875 79.832031 L 83.664062 79.832031 C 84.800781 79.832031 85.714844 80.75 85.714844 81.886719 C 85.714844 83.023438 84.800781 83.941406 83.664062 83.941406 L 35.046875 83.941406 C 33.914062 83.941406 32.996094 83.023438 32.996094 81.886719 C 32.996094 80.75 33.914062 79.832031 35.046875 79.832031 Z M 94.570312 95.738281 C 95.707031 95.738281 96.625 96.65625 96.625 97.789062 C 96.625 98.925781 95.707031 99.84375 94.570312 99.84375 L 35.046875 99.84375 C 33.914062 99.84375 32.996094 98.925781 32.996094 97.789062 C 32.996094 96.65625 33.914062 95.738281 35.046875 95.738281 Z M 99.429688 23.308594 C 99.074219 24.15625 98.625 24.8125 98.035156 25.292969 C 97.226562 25.964844 96.199219 26.292969 94.941406 26.292969 C 93.410156 26.292969 92.136719 25.730469 91.148438 24.582031 C 90.152344 23.445312 89.660156 21.886719 89.660156 19.898438 C 89.660156 17.804688 90.152344 16.175781 91.148438 15.015625 C 92.148438 13.863281 93.464844 13.277344 95.09375 13.277344 C 96.515625 13.277344 97.664062 13.742188 98.554688 14.644531 C 98.828125 14.933594 99.074219 15.273438 99.28125 15.699219 C 99.582031 16.316406 99.28125 17.082031 98.652344 17.246094 L 98.28125 17.339844 C 97.855469 17.449219 97.378906 17.273438 97.1875 16.847656 C 97.035156 16.519531 96.816406 16.246094 96.554688 16.027344 C 96.117188 15.644531 95.597656 15.453125 94.96875 15.453125 C 94.105469 15.453125 93.410156 15.792969 92.875 16.464844 C 92.339844 17.121094 92.066406 18.21875 92.066406 19.707031 C 92.066406 21.308594 92.339844 22.433594 92.859375 23.117188 C 93.394531 23.789062 94.078125 24.128906 94.925781 24.128906 C 95.542969 24.128906 96.078125 23.910156 96.527344 23.488281 C 96.816406 23.199219 97.0625 22.828125 97.242188 22.351562 C 97.433594 21.859375 97.953125 21.609375 98.429688 21.777344 L 98.816406 21.914062 C 99.347656 22.089844 99.648438 22.746094 99.429688 23.308594 Z M 109.203125 15.628906 L 107.726562 15.628906 C 107.191406 15.628906 106.753906 16.09375 106.753906 16.683594 L 106.753906 25.019531 C 106.753906 25.609375 106.316406 26.085938 105.765625 26.085938 L 105.382812 26.085938 C 104.835938 26.085938 104.398438 25.609375 104.398438 25.019531 L 104.398438 16.683594 C 104.398438 16.09375 103.960938 15.628906 103.425781 15.628906 L 101.933594 15.628906 C 101.386719 15.628906 100.949219 15.152344 100.949219 14.5625 C 100.949219 13.972656 101.386719 13.496094 101.933594 13.496094 L 109.203125 13.496094 C 109.75 13.496094 110.1875 13.972656 110.1875 14.5625 C 110.1875 15.152344 109.75 15.628906 109.203125 15.628906 Z M 109.203125 15.628906 "/></g><path style=" stroke:none;fill-rule:nonzero;fill:#0b8841;fill-opacity:1;" d="M 41.535156 17.410156 C 41.535156 17.777344 41.441406 18.105469 41.261719 18.382812 C 41.085938 18.667969 40.839844 18.875 40.535156 18.996094 C 40.222656 19.132812 39.605469 19.203125 38.675781 19.203125 L 38.375 19.203125 C 37.828125 19.203125 37.390625 18.722656 37.390625 18.136719 L 37.390625 16.683594 C 37.390625 16.09375 37.828125 15.628906 38.375 15.628906 L 38.523438 15.628906 C 39.375 15.628906 39.933594 15.65625 40.207031 15.710938 C 40.589844 15.78125 40.90625 15.972656 41.152344 16.273438 C 41.398438 16.574219 41.535156 16.945312 41.535156 17.410156 Z M 41.535156 17.410156 "/><path style=" stroke:none;fill-rule:nonzero;fill:#0b8841;fill-opacity:1;" d="M 52.964844 17.191406 C 52.964844 17.558594 52.882812 17.875 52.730469 18.136719 C 52.566406 18.382812 52.347656 18.558594 52.074219 18.667969 C 51.789062 18.765625 51.089844 18.820312 49.96875 18.820312 L 49.199219 18.820312 C 48.667969 18.820312 48.230469 18.339844 48.230469 17.765625 L 48.230469 16.683594 C 48.230469 16.097656 48.667969 15.628906 49.199219 15.628906 L 50.050781 15.628906 C 51.007812 15.628906 51.582031 15.644531 51.773438 15.671875 C 52.144531 15.738281 52.445312 15.902344 52.648438 16.164062 C 52.855469 16.425781 52.964844 16.765625 52.964844 17.191406 Z M 52.964844 17.191406 "/><path style=" stroke:none;fill-rule:nonzero;fill:#0b8841;fill-opacity:1;" d="M 65.96875 19.75 C 65.96875 21.199219 65.664062 22.296875 65.0625 23.035156 C 64.460938 23.761719 63.695312 24.128906 62.765625 24.128906 C 61.820312 24.128906 61.054688 23.761719 60.449219 23.019531 C 59.835938 22.28125 59.535156 21.199219 59.535156 19.777344 C 59.535156 18.339844 59.835938 17.246094 60.421875 16.535156 C 61.011719 15.808594 61.792969 15.453125 62.765625 15.453125 C 63.722656 15.453125 64.503906 15.808594 65.089844 16.519531 C 65.664062 17.230469 65.96875 18.300781 65.96875 19.75 Z M 65.96875 19.75 "/></g></svg>