<svg xmlns="http://www.w3.org/2000/svg" xmlns:xlink="http://www.w3.org/1999/xlink" width="186" zoomAndPan="magnify" viewBox="0 0 139.5 149.999998" height="200" preserveAspectRatio="xMidYMid meet" version="1.2"><defs><clipPath id="699c21a8a0"><path d="M 0 0.269531 L 139 0.269531 L 139 149.730469 L 0 149.730469 Z M 0 0.269531 "/></clipPath><clipPath id="c1e2ea726e"><path d="M 0 0.269531 L 139 0.269531 L 139 63.042969 L 0 63.042969 Z M 0 0.269531 "/></clipPath></defs><g id="2d4c9e4fb1"><g clip-rule="nonzero" clip-path="url(#699c21a8a0)"><path style=" stroke:none;fill-rule:nonzero;fill:#0b8841;fill-opacity:1;" d="M 61.058594 20.773438 L 59 29.550781 C 58.785156 30.46875 59.140625 31.425781 59.902344 31.980469 C 60.3125 32.28125 60.796875 32.429688 61.28125 32.429688 C 61.703125 32.429688 62.121094 32.316406 62.496094 32.089844 L 70.210938 27.421875 L 77.921875 32.089844 C 78.726562 32.578125 79.75 32.539062 80.511719 31.980469 C 81.277344 31.425781 81.632812 30.46875 81.417969 29.550781 L 79.359375 20.773438 L 86.183594 14.878906 C 86.898438 14.265625 87.175781 13.277344 86.882812 12.382812 C 86.589844 11.484375 85.789062 10.847656 84.847656 10.769531 L 75.863281 10.015625 L 72.371094 1.703125 C 72.003906 0.832031 71.152344 0.265625 70.207031 0.265625 C 69.265625 0.265625 68.414062 0.832031 68.046875 1.703125 L 64.554688 10.015625 L 55.570312 10.769531 C 54.628906 10.847656 53.828125 11.484375 53.535156 12.382812 C 53.242188 13.277344 53.519531 14.261719 54.234375 14.878906 Z M 66.359375 14.570312 C 67.230469 14.496094 67.988281 13.945312 68.324219 13.140625 L 70.210938 8.660156 L 72.09375 13.140625 C 72.429688 13.945312 73.1875 14.496094 74.058594 14.570312 L 78.898438 14.976562 L 75.222656 18.152344 C 74.5625 18.71875 74.269531 19.609375 74.46875 20.460938 L 75.582031 25.191406 L 71.425781 22.675781 C 70.675781 22.222656 69.742188 22.222656 68.996094 22.675781 L 64.839844 25.191406 L 65.949219 20.460938 C 66.148438 19.609375 65.859375 18.71875 65.199219 18.152344 L 61.519531 14.976562 Z M 20.878906 41.929688 L 29.871094 41.269531 L 34.625 48.933594 C 35.054688 49.628906 35.8125 50.042969 36.617188 50.042969 C 36.738281 50.042969 36.859375 50.03125 36.984375 50.011719 C 37.914062 49.867188 38.667969 49.171875 38.894531 48.257812 L 41.042969 39.5 L 49.800781 37.351562 C 50.714844 37.125 51.410156 36.371094 51.554688 35.4375 C 51.703125 34.507812 51.277344 33.578125 50.476562 33.082031 L 42.8125 28.328125 L 43.472656 19.335938 C 43.542969 18.394531 43.039062 17.503906 42.199219 17.074219 C 41.359375 16.648438 40.34375 16.765625 39.621094 17.375 L 32.734375 23.195312 L 24.386719 19.789062 C 23.511719 19.429688 22.511719 19.632812 21.84375 20.300781 C 21.175781 20.96875 20.972656 21.96875 21.332031 22.84375 L 24.738281 31.191406 L 18.917969 38.078125 C 18.308594 38.800781 18.191406 39.816406 18.621094 40.65625 C 19.046875 41.496094 19.9375 42.003906 20.878906 41.929688 Z M 29.613281 30.734375 L 27.777344 26.238281 L 32.277344 28.074219 C 33.085938 28.402344 34.011719 28.253906 34.675781 27.691406 L 38.390625 24.554688 L 38.03125 29.402344 C 37.96875 30.273438 38.394531 31.105469 39.136719 31.566406 L 43.265625 34.125 L 38.546875 35.285156 C 37.699219 35.496094 37.035156 36.15625 36.828125 37.003906 L 35.667969 41.722656 L 33.109375 37.59375 C 32.679688 36.898438 31.925781 36.484375 31.117188 36.484375 C 31.058594 36.484375 31.003906 36.484375 30.945312 36.488281 L 26.097656 36.84375 L 29.234375 33.132812 C 29.796875 32.46875 29.945312 31.542969 29.613281 30.734375 Z M 3.246094 70.828125 L 11.558594 74.320312 L 12.3125 83.304688 C 12.390625 84.246094 13.027344 85.046875 13.925781 85.339844 C 14.160156 85.417969 14.40625 85.453125 14.648438 85.453125 C 15.316406 85.453125 15.96875 85.167969 16.421875 84.640625 L 22.316406 77.816406 L 31.09375 79.875 C 32.011719 80.089844 32.96875 79.734375 33.523438 78.972656 C 34.078125 78.207031 34.121094 77.1875 33.632812 76.378906 L 28.964844 68.667969 L 33.632812 60.953125 C 34.121094 60.148438 34.078125 59.125 33.523438 58.363281 C 32.96875 57.597656 32.011719 57.242188 31.09375 57.457031 L 22.316406 59.515625 L 16.421875 52.691406 C 15.808594 51.976562 14.820312 51.699219 13.925781 51.992188 C 13.027344 52.285156 12.390625 53.085938 12.3125 54.027344 L 11.558594 63.011719 L 3.246094 66.503906 C 2.375 66.871094 1.808594 67.722656 1.808594 68.664062 C 1.808594 69.609375 2.375 70.460938 3.246094 70.828125 Z M 14.683594 66.785156 C 15.488281 66.445312 16.039062 65.6875 16.113281 64.816406 L 16.519531 59.976562 L 19.695312 63.65625 C 20.265625 64.316406 21.152344 64.601562 22.003906 64.40625 L 26.734375 63.296875 L 24.21875 67.453125 C 23.765625 68.199219 23.765625 69.132812 24.21875 69.882812 L 26.734375 74.039062 L 22.003906 72.929688 C 21.152344 72.730469 20.261719 73.019531 19.695312 73.679688 L 16.519531 77.355469 L 16.109375 72.515625 C 16.039062 71.644531 15.488281 70.886719 14.683594 70.550781 L 10.203125 68.667969 Z M 90.617188 37.351562 L 99.375 39.5 L 101.523438 48.257812 C 101.75 49.171875 102.503906 49.867188 103.433594 50.011719 C 103.558594 50.03125 103.679688 50.042969 103.800781 50.042969 C 104.605469 50.042969 105.363281 49.628906 105.792969 48.933594 L 110.546875 41.269531 L 119.539062 41.929688 C 120.480469 42.003906 121.371094 41.496094 121.796875 40.65625 C 122.226562 39.816406 122.109375 38.800781 121.5 38.078125 L 115.679688 31.191406 L 119.085938 22.84375 C 119.445312 21.972656 119.242188 20.96875 118.574219 20.300781 C 117.90625 19.632812 116.90625 19.433594 116.03125 19.789062 L 107.683594 23.195312 L 100.796875 17.375 C 100.074219 16.765625 99.058594 16.648438 98.21875 17.078125 C 97.378906 17.503906 96.875 18.394531 96.945312 19.335938 L 97.605469 28.328125 L 89.941406 33.082031 C 89.140625 33.578125 88.714844 34.507812 88.863281 35.441406 C 89.007812 36.371094 89.703125 37.125 90.617188 37.351562 Z M 101.28125 31.566406 C 102.023438 31.105469 102.449219 30.273438 102.386719 29.402344 L 102.03125 24.554688 L 105.742188 27.691406 C 106.40625 28.253906 107.332031 28.402344 108.140625 28.074219 L 112.640625 26.238281 L 110.804688 30.734375 C 110.472656 31.542969 110.621094 32.46875 111.183594 33.132812 L 114.320312 36.847656 L 109.472656 36.488281 C 108.601562 36.425781 107.769531 36.851562 107.308594 37.59375 L 104.75 41.722656 L 103.589844 37.003906 C 103.382812 36.15625 102.71875 35.496094 101.871094 35.285156 L 97.152344 34.128906 Z M 137.171875 66.503906 L 128.859375 63.011719 L 128.105469 54.027344 C 128.027344 53.085938 127.390625 52.285156 126.492188 51.992188 C 125.597656 51.703125 124.609375 51.976562 123.996094 52.691406 L 118.101562 59.515625 L 109.324219 57.457031 C 108.40625 57.242188 107.445312 57.597656 106.890625 58.363281 C 106.335938 59.125 106.292969 60.148438 106.785156 60.953125 L 111.453125 68.667969 L 106.785156 76.378906 C 106.292969 77.1875 106.335938 78.207031 106.890625 78.972656 C 107.449219 79.734375 108.40625 80.089844 109.324219 79.875 L 118.101562 77.816406 L 123.996094 84.640625 C 124.449219 85.167969 125.097656 85.453125 125.769531 85.453125 C 126.011719 85.453125 126.253906 85.417969 126.492188 85.339844 C 127.390625 85.046875 128.027344 84.246094 128.105469 83.308594 L 128.859375 74.320312 L 137.171875 70.828125 C 138.042969 70.460938 138.609375 69.609375 138.609375 68.667969 C 138.609375 67.722656 138.042969 66.871094 137.171875 66.503906 Z M 125.734375 70.550781 C 124.929688 70.886719 124.378906 71.644531 124.304688 72.515625 L 123.898438 77.355469 L 120.722656 73.675781 C 120.273438 73.15625 119.621094 72.863281 118.949219 72.863281 C 118.773438 72.863281 118.59375 72.886719 118.414062 72.925781 L 113.683594 74.035156 L 116.199219 69.878906 C 116.652344 69.132812 116.652344 68.199219 116.199219 67.449219 L 113.683594 63.292969 L 118.414062 64.40625 C 119.261719 64.601562 120.152344 64.3125 120.722656 63.652344 L 123.898438 59.976562 L 124.304688 64.816406 C 124.378906 65.6875 124.929688 66.445312 125.734375 66.78125 L 130.210938 68.664062 Z M 103.066406 99.441406 C 100.484375 98.75 97.796875 99.101562 95.5 100.429688 L 70.863281 114.652344 C 70.652344 113.40625 70.222656 112.1875 69.574219 111.054688 C 68.140625 108.546875 65.824219 106.75 63.058594 105.996094 L 34.625 98.257812 C 34.523438 98.230469 34.417969 98.207031 34.316406 98.195312 C 29.910156 97.613281 25.886719 98.6875 22.359375 101.386719 L 15.261719 106.824219 L 15.109375 106.246094 C 14.832031 105.210938 14.164062 104.34375 13.234375 103.804688 C 12.300781 103.265625 11.214844 103.125 10.179688 103.402344 L 3.414062 105.214844 C 1.269531 105.789062 -0.0078125 108 0.566406 110.144531 L 10.375 146.75 C 10.65625 147.785156 11.320312 148.652344 12.253906 149.191406 C 12.875 149.550781 13.5625 149.734375 14.261719 149.734375 C 14.609375 149.734375 14.960938 149.6875 15.304688 149.59375 L 22.070312 147.78125 C 24.214844 147.207031 25.492188 144.996094 24.917969 142.851562 L 24.617188 141.726562 C 28.453125 138.921875 32 138.140625 36.273438 139.121094 L 52.558594 142.855469 C 54.003906 143.1875 55.410156 143.351562 56.777344 143.351562 C 59.617188 143.351562 62.285156 142.640625 64.746094 141.21875 L 105.472656 117.707031 C 110.234375 114.957031 111.871094 108.84375 109.125 104.082031 C 107.796875 101.78125 105.644531 100.132812 103.066406 99.441406 Z M 14.734375 144.894531 L 5.269531 109.570312 L 10.75 108.101562 L 20.214844 143.425781 Z M 103.128906 113.644531 L 62.402344 137.160156 C 59.777344 138.671875 56.902344 139.039062 53.605469 138.285156 L 37.320312 134.550781 C 32.214844 133.378906 27.792969 134.113281 23.328125 136.925781 L 16.574219 111.722656 L 25.210938 105.109375 C 27.710938 103.195312 30.441406 102.449219 33.550781 102.824219 L 61.824219 110.519531 C 63.382812 110.945312 64.691406 111.960938 65.503906 113.382812 C 66.316406 114.804688 66.53125 116.445312 66.105469 118.003906 C 65.222656 121.246094 61.867188 123.167969 58.625 122.285156 L 43.433594 118.152344 C 42.1875 117.8125 40.898438 118.546875 40.558594 119.796875 C 40.21875 121.046875 40.953125 122.335938 42.203125 122.675781 L 57.390625 126.808594 C 58.335938 127.066406 59.285156 127.1875 60.222656 127.1875 C 64.558594 127.1875 68.574219 124.546875 70.226562 120.433594 L 97.84375 104.488281 C 99.058594 103.789062 100.480469 103.605469 101.851562 103.972656 C 103.21875 104.335938 104.359375 105.210938 105.0625 106.425781 C 106.519531 108.949219 105.652344 112.1875 103.128906 113.644531 Z M 70.207031 37.523438 C 53.035156 37.523438 39.066406 51.496094 39.066406 68.667969 C 39.066406 85.839844 53.035156 99.808594 70.207031 99.808594 C 87.378906 99.808594 101.351562 85.839844 101.351562 68.667969 C 101.351562 51.496094 87.378906 37.523438 70.207031 37.523438 Z M 54.566406 89.984375 C 58.121094 84.878906 63.953125 81.777344 70.207031 81.777344 C 76.464844 81.777344 82.296875 84.878906 85.851562 89.984375 C 81.464844 93.210938 76.054688 95.121094 70.207031 95.121094 C 64.359375 95.121094 58.953125 93.210938 54.566406 89.984375 Z M 70.207031 75.972656 C 65.125 75.972656 60.988281 71.835938 60.988281 66.75 C 60.988281 61.664062 65.125 57.527344 70.207031 57.527344 C 75.292969 57.527344 79.429688 61.664062 79.429688 66.75 C 79.429688 71.835938 75.292969 75.972656 70.207031 75.972656 Z M 89.386719 86.871094 C 86.476562 82.886719 82.433594 79.933594 77.855469 78.363281 C 81.625 75.875 84.121094 71.597656 84.121094 66.75 C 84.121094 59.078125 77.878906 52.839844 70.207031 52.839844 C 62.539062 52.839844 56.296875 59.078125 56.296875 66.75 C 56.296875 71.597656 58.792969 75.875 62.5625 78.363281 C 57.984375 79.933594 53.941406 82.886719 51.03125 86.871094 C 46.523438 82.125 43.753906 75.710938 43.753906 68.667969 C 43.753906 54.078125 55.621094 42.210938 70.207031 42.210938 C 84.792969 42.210938 96.660156 54.078125 96.660156 68.667969 C 96.660156 75.710938 93.890625 82.125 89.386719 86.871094 Z M 89.386719 86.871094 "/></g><g clip-rule="nonzero" clip-path="url(#c1e2ea726e)"><path style=" stroke:none;fill-rule:nonzero;fill:#0b8841;fill-opacity:1;" d="M 61.058594 20.773438 L 59 29.550781 C 58.785156 30.46875 59.140625 31.425781 59.902344 31.980469 C 60.3125 32.28125 60.796875 32.429688 61.28125 32.429688 C 61.703125 32.429688 62.121094 32.316406 62.496094 32.089844 L 70.210938 27.421875 L 77.921875 32.089844 C 78.726562 32.578125 79.75 32.539062 80.511719 31.980469 C 81.277344 31.425781 81.632812 30.46875 81.417969 29.550781 L 79.359375 20.773438 L 86.183594 14.878906 C 86.898438 14.265625 87.175781 13.277344 86.882812 12.382812 C 86.589844 11.484375 85.789062 10.847656 84.847656 10.769531 L 75.863281 10.015625 L 72.371094 1.703125 C 72.003906 0.832031 71.152344 0.265625 70.207031 0.265625 C 69.265625 0.265625 68.414062 0.832031 68.046875 1.703125 L 64.554688 10.015625 L 55.570312 10.769531 C 54.628906 10.847656 53.828125 11.484375 53.535156 12.382812 C 53.242188 13.277344 53.519531 14.261719 54.234375 14.878906 Z M 66.359375 14.570312 C 67.230469 14.496094 67.988281 13.945312 68.324219 13.140625 L 70.210938 8.660156 L 72.09375 13.140625 C 72.429688 13.945312 73.1875 14.496094 74.058594 14.570312 L 78.898438 14.976562 L 75.222656 18.152344 C 74.5625 18.71875 74.269531 19.609375 74.46875 20.460938 L 75.582031 25.191406 L 71.425781 22.675781 C 70.675781 22.222656 69.742188 22.222656 68.996094 22.675781 L 64.839844 25.191406 L 65.949219 20.460938 C 66.148438 19.609375 65.859375 18.71875 65.199219 18.152344 L 61.519531 14.976562 Z M 20.878906 41.929688 L 29.871094 41.269531 L 34.625 48.933594 C 35.054688 49.628906 35.8125 50.042969 36.617188 50.042969 C 36.738281 50.042969 36.859375 50.03125 36.984375 50.011719 C 37.914062 49.867188 38.667969 49.171875 38.894531 48.257812 L 41.042969 39.5 L 49.800781 37.351562 C 50.714844 37.125 51.410156 36.371094 51.554688 35.4375 C 51.703125 34.507812 51.277344 33.578125 50.476562 33.082031 L 42.8125 28.328125 L 43.472656 19.335938 C 43.542969 18.394531 43.039062 17.503906 42.199219 17.074219 C 41.359375 16.648438 40.34375 16.765625 39.621094 17.375 L 32.734375 23.195312 L 24.386719 19.789062 C 23.511719 19.429688 22.511719 19.632812 21.84375 20.300781 C 21.175781 20.96875 20.972656 21.96875 21.332031 22.84375 L 24.738281 31.191406 L 18.917969 38.078125 C 18.308594 38.800781 18.191406 39.816406 18.621094 40.65625 C 19.046875 41.496094 19.9375 42.003906 20.878906 41.929688 Z M 29.613281 30.734375 L 27.777344 26.238281 L 32.277344 28.074219 C 33.085938 28.402344 34.011719 28.253906 34.675781 27.691406 L 38.390625 24.554688 L 38.03125 29.402344 C 37.96875 30.273438 38.394531 31.105469 39.136719 31.566406 L 43.265625 34.125 L 38.546875 35.285156 C 37.699219 35.496094 37.035156 36.15625 36.828125 37.003906 L 35.667969 41.722656 L 33.109375 37.59375 C 32.679688 36.898438 31.925781 36.484375 31.117188 36.484375 C 31.058594 36.484375 31.003906 36.484375 30.945312 36.488281 L 26.097656 36.84375 L 29.234375 33.132812 C 29.796875 32.46875 29.945312 31.542969 29.613281 30.734375 Z M 3.246094 70.828125 L 11.558594 74.320312 L 12.3125 83.304688 C 12.390625 84.246094 13.027344 85.046875 13.925781 85.339844 C 14.160156 85.417969 14.40625 85.453125 14.648438 85.453125 C 15.316406 85.453125 15.96875 85.167969 16.421875 84.640625 L 22.316406 77.816406 L 31.09375 79.875 C 32.011719 80.089844 32.96875 79.734375 33.523438 78.972656 C 34.078125 78.207031 34.121094 77.1875 33.632812 76.378906 L 28.964844 68.667969 L 33.632812 60.953125 C 34.121094 60.148438 34.078125 59.125 33.523438 58.363281 C 32.96875 57.597656 32.011719 57.242188 31.09375 57.457031 L 22.316406 59.515625 L 16.421875 52.691406 C 15.808594 51.976562 14.820312 51.699219 13.925781 51.992188 C 13.027344 52.285156 12.390625 53.085938 12.3125 54.027344 L 11.558594 63.011719 L 3.246094 66.503906 C 2.375 66.871094 1.808594 67.722656 1.808594 68.664062 C 1.808594 69.609375 2.375 70.460938 3.246094 70.828125 Z M 14.683594 66.785156 C 15.488281 66.445312 16.039062 65.6875 16.113281 64.816406 L 16.519531 59.976562 L 19.695312 63.65625 C 20.265625 64.316406 21.152344 64.601562 22.003906 64.40625 L 26.734375 63.296875 L 24.21875 67.453125 C 23.765625 68.199219 23.765625 69.132812 24.21875 69.882812 L 26.734375 74.039062 L 22.003906 72.929688 C 21.152344 72.730469 20.261719 73.019531 19.695312 73.679688 L 16.519531 77.355469 L 16.109375 72.515625 C 16.039062 71.644531 15.488281 70.886719 14.683594 70.550781 L 10.203125 68.667969 Z M 90.617188 37.351562 L 99.375 39.5 L 101.523438 48.257812 C 101.75 49.171875 102.503906 49.867188 103.433594 50.011719 C 103.558594 50.03125 103.679688 50.042969 103.800781 50.042969 C 104.605469 50.042969 105.363281 49.628906 105.792969 48.933594 L 110.546875 41.269531 L 119.539062 41.929688 C 120.480469 42.003906 121.371094 41.496094 121.796875 40.65625 C 122.226562 39.816406 122.109375 38.800781 121.5 38.078125 L 115.679688 31.191406 L 119.085938 22.84375 C 119.445312 21.972656 119.242188 20.96875 118.574219 20.300781 C 117.90625 19.632812 116.90625 19.433594 116.03125 19.789062 L 107.683594 23.195312 L 100.796875 17.375 C 100.074219 16.765625 99.058594 16.648438 98.21875 17.078125 C 97.378906 17.503906 96.875 18.394531 96.945312 19.335938 L 97.605469 28.328125 L 89.941406 33.082031 C 89.140625 33.578125 88.714844 34.507812 88.863281 35.441406 C 89.007812 36.371094 89.703125 37.125 90.617188 37.351562 Z M 101.28125 31.566406 C 102.023438 31.105469 102.449219 30.273438 102.386719 29.402344 L 102.03125 24.554688 L 105.742188 27.691406 C 106.40625 28.253906 107.332031 28.402344 108.140625 28.074219 L 112.640625 26.238281 L 110.804688 30.734375 C 110.472656 31.542969 110.621094 32.46875 111.183594 33.132812 L 114.320312 36.847656 L 109.472656 36.488281 C 108.601562 36.425781 107.769531 36.851562 107.308594 37.59375 L 104.75 41.722656 L 103.589844 37.003906 C 103.382812 36.15625 102.71875 35.496094 101.871094 35.285156 L 97.152344 34.128906 Z M 137.171875 66.503906 L 128.859375 63.011719 L 128.105469 54.027344 C 128.027344 53.085938 127.390625 52.285156 126.492188 51.992188 C 125.597656 51.703125 124.609375 51.976562 123.996094 52.691406 L 118.101562 59.515625 L 109.324219 57.457031 C 108.40625 57.242188 107.445312 57.597656 106.890625 58.363281 C 106.335938 59.125 106.292969 60.148438 106.785156 60.953125 L 111.453125 68.667969 L 106.785156 76.378906 C 106.292969 77.1875 106.335938 78.207031 106.890625 78.972656 C 107.449219 79.734375 108.40625 80.089844 109.324219 79.875 L 118.101562 77.816406 L 123.996094 84.640625 C 124.449219 85.167969 125.097656 85.453125 125.769531 85.453125 C 126.011719 85.453125 126.253906 85.417969 126.492188 85.339844 C 127.390625 85.046875 128.027344 84.246094 128.105469 83.308594 L 128.859375 74.320312 L 137.171875 70.828125 C 138.042969 70.460938 138.609375 69.609375 138.609375 68.667969 C 138.609375 67.722656 138.042969 66.871094 137.171875 66.503906 Z M 125.734375 70.550781 C 124.929688 70.886719 124.378906 71.644531 124.304688 72.515625 L 123.898438 77.355469 L 120.722656 73.675781 C 120.273438 73.15625 119.621094 72.863281 118.949219 72.863281 C 118.773438 72.863281 118.59375 72.886719 118.414062 72.925781 L 113.683594 74.035156 L 116.199219 69.878906 C 116.652344 69.132812 116.652344 68.199219 116.199219 67.449219 L 113.683594 63.292969 L 118.414062 64.40625 C 119.261719 64.601562 120.152344 64.3125 120.722656 63.652344 L 123.898438 59.976562 L 124.304688 64.816406 C 124.378906 65.6875 124.929688 66.445312 125.734375 66.78125 L 130.210938 68.664062 Z M 103.066406 99.441406 C 100.484375 98.75 97.796875 99.101562 95.5 100.429688 L 70.863281 114.652344 C 70.652344 113.40625 70.222656 112.1875 69.574219 111.054688 C 68.140625 108.546875 65.824219 106.75 63.058594 105.996094 L 34.625 98.257812 C 34.523438 98.230469 34.417969 98.207031 34.316406 98.195312 C 29.910156 97.613281 25.886719 98.6875 22.359375 101.386719 L 15.261719 106.824219 L 15.109375 106.246094 C 14.832031 105.210938 14.164062 104.34375 13.234375 103.804688 C 12.300781 103.265625 11.214844 103.125 10.179688 103.402344 L 3.414062 105.214844 C 1.269531 105.789062 -0.0078125 108 0.566406 110.144531 L 10.375 146.75 C 10.65625 147.785156 11.320312 148.652344 12.253906 149.191406 C 12.875 149.550781 13.5625 149.734375 14.261719 149.734375 C 14.609375 149.734375 14.960938 149.6875 15.304688 149.59375 L 22.070312 147.78125 C 24.214844 147.207031 25.492188 144.996094 24.917969 142.851562 L 24.617188 141.726562 C 28.453125 138.921875 32 138.140625 36.273438 139.121094 L 52.558594 142.855469 C 54.003906 143.1875 55.410156 143.351562 56.777344 143.351562 C 59.617188 143.351562 62.285156 142.640625 64.746094 141.21875 L 105.472656 117.707031 C 110.234375 114.957031 111.871094 108.84375 109.125 104.082031 C 107.796875 101.78125 105.644531 100.132812 103.066406 99.441406 Z M 14.734375 144.894531 L 5.269531 109.570312 L 10.75 108.101562 L 20.214844 143.425781 Z M 103.128906 113.644531 L 62.402344 137.160156 C 59.777344 138.671875 56.902344 139.039062 53.605469 138.285156 L 37.320312 134.550781 C 32.214844 133.378906 27.792969 134.113281 23.328125 136.925781 L 16.574219 111.722656 L 25.210938 105.109375 C 27.710938 103.195312 30.441406 102.449219 33.550781 102.824219 L 61.824219 110.519531 C 63.382812 110.945312 64.691406 111.960938 65.503906 113.382812 C 66.316406 114.804688 66.53125 116.445312 66.105469 118.003906 C 65.222656 121.246094 61.867188 123.167969 58.625 122.285156 L 43.433594 118.152344 C 42.1875 117.8125 40.898438 118.546875 40.558594 119.796875 C 40.21875 121.046875 40.953125 122.335938 42.203125 122.675781 L 57.390625 126.808594 C 58.335938 127.066406 59.285156 127.1875 60.222656 127.1875 C 64.558594 127.1875 68.574219 124.546875 70.226562 120.433594 L 97.84375 104.488281 C 99.058594 103.789062 100.480469 103.605469 101.851562 103.972656 C 103.21875 104.335938 104.359375 105.210938 105.0625 106.425781 C 106.519531 108.949219 105.652344 112.1875 103.128906 113.644531 Z M 70.207031 37.523438 C 53.035156 37.523438 39.066406 51.496094 39.066406 68.667969 C 39.066406 85.839844 53.035156 99.808594 70.207031 99.808594 C 87.378906 99.808594 101.351562 85.839844 101.351562 68.667969 C 101.351562 51.496094 87.378906 37.523438 70.207031 37.523438 Z M 54.566406 89.984375 C 58.121094 84.878906 63.953125 81.777344 70.207031 81.777344 C 76.464844 81.777344 82.296875 84.878906 85.851562 89.984375 C 81.464844 93.210938 76.054688 95.121094 70.207031 95.121094 C 64.359375 95.121094 58.953125 93.210938 54.566406 89.984375 Z M 70.207031 75.972656 C 65.125 75.972656 60.988281 71.835938 60.988281 66.75 C 60.988281 61.664062 65.125 57.527344 70.207031 57.527344 C 75.292969 57.527344 79.429688 61.664062 79.429688 66.75 C 79.429688 71.835938 75.292969 75.972656 70.207031 75.972656 Z M 89.386719 86.871094 C 86.476562 82.886719 82.433594 79.933594 77.855469 78.363281 C 81.625 75.875 84.121094 71.597656 84.121094 66.75 C 84.121094 59.078125 77.878906 52.839844 70.207031 52.839844 C 62.539062 52.839844 56.296875 59.078125 56.296875 66.75 C 56.296875 71.597656 58.792969 75.875 62.5625 78.363281 C 57.984375 79.933594 53.941406 82.886719 51.03125 86.871094 C 46.523438 82.125 43.753906 75.710938 43.753906 68.667969 C 43.753906 54.078125 55.621094 42.210938 70.207031 42.210938 C 84.792969 42.210938 96.660156 54.078125 96.660156 68.667969 C 96.660156 75.710938 93.890625 82.125 89.386719 86.871094 Z M 89.386719 86.871094 "/></g></g></svg>