<svg xmlns="http://www.w3.org/2000/svg" xmlns:xlink="http://www.w3.org/1999/xlink" width="77" zoomAndPan="magnify" viewBox="0 0 57.75 50.999998" height="68" preserveAspectRatio="xMidYMid meet" version="1.2"><defs><clipPath id="647bddbeb5"><path d="M 16 34 L 41 34 L 41 50.144531 L 16 50.144531 Z M 16 34 "/></clipPath><clipPath id="745592b5b1"><path d="M 22 45 L 25 45 L 25 50.144531 L 22 50.144531 Z M 22 45 "/></clipPath><clipPath id="638a542392"><path d="M 33 45 L 35 45 L 35 50.144531 L 33 50.144531 Z M 33 45 "/></clipPath><clipPath id="fc6c52e98e"><path d="M 9 0.109375 L 18 0.109375 L 18 10 L 9 10 Z M 9 0.109375 "/></clipPath><clipPath id="f17c0f79b3"><path d="M 39 0.109375 L 48 0.109375 L 48 10 L 39 10 Z M 39 0.109375 "/></clipPath><clipPath id="e7669c996d"><path d="M 41 38 L 49 38 L 49 50.144531 L 41 50.144531 Z M 41 38 "/></clipPath><clipPath id="d1412163f0"><path d="M 8 38 L 16 38 L 16 50.144531 L 8 50.144531 Z M 8 38 "/></clipPath><clipPath id="1480122867"><path d="M 32 21 L 57.5 21 L 57.5 35 L 32 35 Z M 32 21 "/></clipPath><clipPath id="6cbe9deffb"><path d="M 16 34 L 41 34 L 41 35.953125 L 16 35.953125 Z M 16 34 "/></clipPath><clipPath id="3bcac27319"><path d="M 9 0.109375 L 18 0.109375 L 18 10 L 9 10 Z M 9 0.109375 "/></clipPath><clipPath id="3968f53487"><path d="M 39 0.109375 L 43.3125 0.109375 L 43.3125 10 L 39 10 Z M 39 0.109375 "/></clipPath><clipPath id="a9d5fbcbe4"><path d="M 35 13 L 43.3125 13 L 43.3125 20 L 35 20 Z M 35 13 "/></clipPath><clipPath id="2d0b8d69da"><path d="M 32 21 L 43.3125 21 L 43.3125 35 L 32 35 Z M 32 21 "/></clipPath></defs><g id="c958cfe41a"><g clip-rule="nonzero" clip-path="url(#647bddbeb5)"><path style=" stroke:none;fill-rule:nonzero;fill:#0b8841;fill-opacity:1;" d="M 36.496094 35.980469 L 33.144531 34.417969 C 32.699219 34.195312 32.027344 34.058594 31.582031 34.058594 L 25.460938 34.058594 C 24.96875 34.058594 24.300781 34.195312 23.898438 34.417969 L 20.546875 35.980469 C 19.96875 36.160156 17.152344 37.140625 16.972656 39.375 C 16.972656 39.421875 16.972656 39.421875 16.972656 39.464844 L 16.972656 49.246094 C 16.972656 49.738281 17.375 50.140625 17.867188 50.140625 C 18.359375 50.140625 18.761719 49.738281 18.761719 49.246094 L 18.761719 39.511719 C 18.851562 38.617188 20.367188 37.902344 21.128906 37.679688 C 21.171875 37.679688 24.65625 36.027344 24.65625 36.027344 C 24.835938 35.9375 25.238281 35.847656 25.460938 35.847656 L 31.582031 35.847656 C 31.804688 35.847656 32.207031 35.9375 32.386719 36.027344 C 32.386719 36.027344 35.867188 37.679688 35.914062 37.679688 C 36.671875 37.902344 38.28125 38.617188 38.414062 39.511719 L 38.414062 49.246094 C 38.414062 49.738281 38.816406 50.140625 39.308594 50.140625 C 39.800781 50.140625 40.203125 49.738281 40.203125 49.246094 L 40.203125 39.464844 C 40.203125 39.421875 40.203125 39.421875 40.203125 39.375 C 40.023438 37.140625 37.121094 36.160156 36.496094 35.980469 Z M 36.496094 35.980469 "/></g><path style=" stroke:none;fill-rule:nonzero;fill:#0b8841;fill-opacity:1;" d="M 28.589844 32.230469 C 31.535156 32.230469 33.949219 29.636719 33.949219 26.421875 C 33.949219 24.054688 32.609375 22 30.6875 21.105469 C 30.015625 20.792969 29.300781 20.613281 28.542969 20.613281 C 27.785156 20.613281 27.070312 20.792969 26.398438 21.105469 C 24.566406 22 23.226562 24.054688 23.226562 26.421875 C 23.226562 29.636719 25.640625 32.230469 28.589844 32.230469 Z M 28.589844 32.230469 "/><g clip-rule="nonzero" clip-path="url(#745592b5b1)"><path style=" stroke:none;fill-rule:nonzero;fill:#0b8841;fill-opacity:1;" d="M 23.226562 45.675781 C 22.738281 45.675781 22.335938 46.078125 22.335938 46.566406 L 22.335938 49.246094 C 22.335938 49.738281 22.738281 50.140625 23.226562 50.140625 C 23.71875 50.140625 24.121094 49.738281 24.121094 49.246094 L 24.121094 46.566406 C 24.121094 46.078125 23.71875 45.675781 23.226562 45.675781 Z M 23.226562 45.675781 "/></g><g clip-rule="nonzero" clip-path="url(#638a542392)"><path style=" stroke:none;fill-rule:nonzero;fill:#0b8841;fill-opacity:1;" d="M 33.949219 45.675781 C 33.457031 45.675781 33.054688 46.078125 33.054688 46.566406 L 33.054688 49.246094 C 33.054688 49.738281 33.457031 50.140625 33.949219 50.140625 C 34.441406 50.140625 34.839844 49.738281 34.839844 49.246094 L 34.839844 46.566406 C 34.839844 46.078125 34.441406 45.675781 33.949219 45.675781 Z M 33.949219 45.675781 "/></g><g clip-rule="nonzero" clip-path="url(#fc6c52e98e)"><path style=" stroke:none;fill-rule:nonzero;fill:#0b8841;fill-opacity:1;" d="M 13.402344 9.046875 C 15.632812 9.046875 17.421875 7.035156 17.421875 4.578125 C 17.421875 2.121094 15.632812 0.113281 13.402344 0.113281 C 11.167969 0.113281 9.378906 2.121094 9.378906 4.578125 C 9.378906 7.035156 11.167969 9.046875 13.402344 9.046875 Z M 13.402344 9.046875 "/></g><path style=" stroke:none;fill-rule:nonzero;fill:#0b8841;fill-opacity:1;" d="M 7.636719 11.277344 C 7.863281 10.832031 8.488281 10.476562 8.84375 10.339844 C 8.890625 10.339844 10.050781 9.671875 10.050781 9.671875 C 9.558594 9.3125 9.113281 8.867188 8.753906 8.332031 L 8.175781 8.644531 C 7.726562 8.824219 5.894531 9.582031 5.761719 11.324219 C 6.03125 11.277344 6.296875 11.234375 6.566406 11.234375 L 7.636719 11.234375 Z M 7.636719 11.277344 "/><path style=" stroke:none;fill-rule:nonzero;fill:#0b8841;fill-opacity:1;" d="M 16.660156 9.714844 C 16.660156 9.714844 17.777344 10.339844 17.867188 10.339844 C 18.179688 10.429688 18.941406 10.789062 19.164062 11.234375 L 20.191406 11.234375 C 20.457031 11.234375 20.726562 11.277344 20.996094 11.324219 C 20.859375 9.625 18.984375 8.824219 18.492188 8.644531 L 17.957031 8.375 C 17.597656 8.910156 17.199219 9.359375 16.660156 9.714844 Z M 16.660156 9.714844 "/><path style=" stroke:none;fill-rule:nonzero;fill:#0b8841;fill-opacity:1;" d="M 38.011719 11.277344 C 38.238281 10.832031 38.863281 10.476562 39.21875 10.339844 C 39.265625 10.339844 40.425781 9.671875 40.425781 9.671875 C 39.933594 9.3125 39.488281 8.867188 39.128906 8.332031 L 38.550781 8.644531 C 38.101562 8.824219 36.269531 9.582031 36.136719 11.324219 C 36.40625 11.277344 36.671875 11.234375 36.941406 11.234375 L 38.011719 11.234375 Z M 38.011719 11.277344 "/><g clip-rule="nonzero" clip-path="url(#f17c0f79b3)"><path style=" stroke:none;fill-rule:nonzero;fill:#0b8841;fill-opacity:1;" d="M 43.777344 9.046875 C 46.007812 9.046875 47.796875 7.035156 47.796875 4.578125 C 47.796875 2.121094 46.007812 0.113281 43.777344 0.113281 C 41.542969 0.113281 39.753906 2.121094 39.753906 4.578125 C 39.753906 7.035156 41.542969 9.046875 43.777344 9.046875 Z M 43.777344 9.046875 "/></g><path style=" stroke:none;fill-rule:nonzero;fill:#0b8841;fill-opacity:1;" d="M 47.035156 9.714844 C 47.035156 9.714844 48.152344 10.339844 48.242188 10.339844 C 48.554688 10.429688 49.3125 10.789062 49.539062 11.234375 L 50.566406 11.234375 C 50.832031 11.234375 51.101562 11.277344 51.367188 11.324219 C 51.234375 9.625 49.359375 8.824219 48.867188 8.644531 L 48.332031 8.375 C 47.972656 8.910156 47.570312 9.359375 47.035156 9.714844 Z M 47.035156 9.714844 "/><g clip-rule="nonzero" clip-path="url(#e7669c996d)"><path style=" stroke:none;fill-rule:nonzero;fill:#0b8841;fill-opacity:1;" d="M 47.570312 38.527344 L 41.855469 38.527344 C 41.898438 38.75 41.945312 39.019531 41.988281 39.242188 C 41.988281 39.332031 41.988281 39.375 41.988281 39.464844 L 41.988281 49.246094 C 41.988281 49.558594 41.945312 49.875 41.808594 50.140625 C 42.972656 50.140625 43.6875 50.140625 43.777344 50.140625 C 44.265625 50.140625 44.667969 49.738281 44.667969 49.246094 L 44.667969 40.3125 L 47.570312 40.3125 C 48.0625 40.3125 48.464844 39.910156 48.464844 39.421875 C 48.464844 38.929688 48.0625 38.527344 47.570312 38.527344 Z M 47.570312 38.527344 "/></g><g clip-rule="nonzero" clip-path="url(#d1412163f0)"><path style=" stroke:none;fill-rule:nonzero;fill:#0b8841;fill-opacity:1;" d="M 15.1875 39.464844 C 15.1875 39.375 15.1875 39.332031 15.1875 39.242188 C 15.1875 38.972656 15.230469 38.75 15.320312 38.527344 L 9.605469 38.527344 C 9.113281 38.527344 8.710938 38.929688 8.710938 39.421875 C 8.710938 39.910156 9.113281 40.3125 9.605469 40.3125 L 11.613281 40.3125 L 11.613281 49.246094 C 11.613281 49.738281 12.015625 50.140625 12.507812 50.140625 C 12.597656 50.140625 13.667969 50.140625 15.367188 50.140625 C 15.277344 49.875 15.1875 49.558594 15.1875 49.246094 Z M 15.1875 39.464844 "/></g><path style=" stroke:none;fill-rule:nonzero;fill:#0b8841;fill-opacity:1;" d="M 5.808594 19.320312 L 20.996094 19.320312 L 21.84375 15.03125 C 21.976562 14.363281 21.753906 13.914062 21.53125 13.648438 C 21.308594 13.378906 20.90625 13.066406 20.144531 13.066406 L 6.609375 13.066406 C 5.851562 13.066406 5.449219 13.378906 5.226562 13.648438 C 5.003906 13.914062 4.78125 14.363281 4.914062 15.03125 Z M 5.808594 19.320312 "/><path style=" stroke:none;fill-rule:nonzero;fill:#0b8841;fill-opacity:1;" d="M 23.09375 32.808594 C 23.40625 32.675781 23.808594 32.542969 24.210938 32.453125 C 22.511719 31.066406 21.441406 28.878906 21.441406 26.464844 C 21.441406 24.410156 22.199219 22.535156 23.496094 21.152344 L 0.894531 21.152344 C 0.402344 21.152344 0 21.554688 0 22.042969 C 0 22.535156 0.402344 22.9375 0.894531 22.9375 L 1.785156 22.9375 L 1.785156 33.210938 C 1.785156 33.703125 2.1875 34.105469 2.679688 34.105469 L 20.414062 34.105469 Z M 15.1875 28.699219 L 11.613281 28.699219 C 11.121094 28.699219 10.71875 28.296875 10.71875 27.808594 C 10.71875 27.316406 11.121094 26.914062 11.613281 26.914062 L 15.1875 26.914062 C 15.679688 26.914062 16.082031 27.316406 16.082031 27.808594 C 16.082031 28.296875 15.679688 28.699219 15.1875 28.699219 Z M 15.1875 28.699219 "/><path style=" stroke:none;fill-rule:nonzero;fill:#0b8841;fill-opacity:1;" d="M 36.183594 19.320312 L 51.367188 19.320312 L 52.21875 15.03125 C 52.351562 14.363281 52.128906 13.914062 51.90625 13.648438 C 51.683594 13.378906 51.28125 13.066406 50.519531 13.066406 L 36.984375 13.066406 C 36.226562 13.066406 35.824219 13.378906 35.601562 13.648438 C 35.378906 13.914062 35.15625 14.363281 35.289062 15.03125 Z M 36.183594 19.320312 "/><g clip-rule="nonzero" clip-path="url(#1480122867)"><path style=" stroke:none;fill-rule:nonzero;fill:#0b8841;fill-opacity:1;" d="M 56.28125 21.105469 L 33.679688 21.105469 C 34.976562 22.492188 35.734375 24.410156 35.734375 26.421875 C 35.734375 28.878906 34.617188 31.066406 32.921875 32.453125 C 33.277344 32.542969 33.589844 32.632812 33.902344 32.765625 L 36.582031 34.015625 L 54.496094 34.015625 C 54.988281 34.015625 55.390625 33.613281 55.390625 33.121094 L 55.390625 22.894531 L 56.28125 22.894531 C 56.773438 22.894531 57.175781 22.492188 57.175781 22 C 57.175781 21.507812 56.773438 21.105469 56.28125 21.105469 Z M 45.5625 28.699219 L 41.988281 28.699219 C 41.496094 28.699219 41.09375 28.296875 41.09375 27.808594 C 41.09375 27.316406 41.496094 26.914062 41.988281 26.914062 L 45.5625 26.914062 C 46.054688 26.914062 46.457031 27.316406 46.457031 27.808594 C 46.457031 28.296875 46.054688 28.699219 45.5625 28.699219 Z M 45.5625 28.699219 "/></g><g clip-rule="nonzero" clip-path="url(#6cbe9deffb)"><path style=" stroke:none;fill-rule:nonzero;fill:#0b8841;fill-opacity:1;" d="M 36.496094 35.980469 L 33.144531 34.417969 C 32.699219 34.195312 32.027344 34.058594 31.582031 34.058594 L 25.460938 34.058594 C 24.96875 34.058594 24.300781 34.195312 23.898438 34.417969 L 20.546875 35.980469 C 19.96875 36.160156 17.152344 37.140625 16.972656 39.375 C 16.972656 39.421875 16.972656 39.421875 16.972656 39.464844 L 16.972656 49.246094 C 16.972656 49.738281 17.375 50.140625 17.867188 50.140625 C 18.359375 50.140625 18.761719 49.738281 18.761719 49.246094 L 18.761719 39.511719 C 18.851562 38.617188 20.367188 37.902344 21.128906 37.679688 C 21.171875 37.679688 24.65625 36.027344 24.65625 36.027344 C 24.835938 35.9375 25.238281 35.847656 25.460938 35.847656 L 31.582031 35.847656 C 31.804688 35.847656 32.207031 35.9375 32.386719 36.027344 C 32.386719 36.027344 35.867188 37.679688 35.914062 37.679688 C 36.671875 37.902344 38.28125 38.617188 38.414062 39.511719 L 38.414062 49.246094 C 38.414062 49.738281 38.816406 50.140625 39.308594 50.140625 C 39.800781 50.140625 40.203125 49.738281 40.203125 49.246094 L 40.203125 39.464844 C 40.203125 39.421875 40.203125 39.421875 40.203125 39.375 C 40.023438 37.140625 37.121094 36.160156 36.496094 35.980469 Z M 36.496094 35.980469 "/></g><path style=" stroke:none;fill-rule:nonzero;fill:#0b8841;fill-opacity:1;" d="M 28.589844 32.230469 C 31.535156 32.230469 33.949219 29.636719 33.949219 26.421875 C 33.949219 24.054688 32.609375 22 30.6875 21.105469 C 30.015625 20.792969 29.300781 20.613281 28.542969 20.613281 C 27.785156 20.613281 27.070312 20.792969 26.398438 21.105469 C 24.566406 22 23.226562 24.054688 23.226562 26.421875 C 23.226562 29.636719 25.640625 32.230469 28.589844 32.230469 Z M 28.589844 32.230469 "/><g clip-rule="nonzero" clip-path="url(#3bcac27319)"><path style=" stroke:none;fill-rule:nonzero;fill:#0b8841;fill-opacity:1;" d="M 13.402344 9.046875 C 15.632812 9.046875 17.421875 7.035156 17.421875 4.578125 C 17.421875 2.121094 15.632812 0.113281 13.402344 0.113281 C 11.167969 0.113281 9.378906 2.121094 9.378906 4.578125 C 9.378906 7.035156 11.167969 9.046875 13.402344 9.046875 Z M 13.402344 9.046875 "/></g><path style=" stroke:none;fill-rule:nonzero;fill:#0b8841;fill-opacity:1;" d="M 7.636719 11.277344 C 7.863281 10.832031 8.488281 10.476562 8.84375 10.339844 C 8.890625 10.339844 10.050781 9.671875 10.050781 9.671875 C 9.558594 9.3125 9.113281 8.867188 8.753906 8.332031 L 8.175781 8.644531 C 7.726562 8.824219 5.894531 9.582031 5.761719 11.324219 C 6.03125 11.277344 6.296875 11.234375 6.566406 11.234375 L 7.636719 11.234375 Z M 7.636719 11.277344 "/><path style=" stroke:none;fill-rule:nonzero;fill:#0b8841;fill-opacity:1;" d="M 16.660156 9.714844 C 16.660156 9.714844 17.777344 10.339844 17.867188 10.339844 C 18.179688 10.429688 18.941406 10.789062 19.164062 11.234375 L 20.191406 11.234375 C 20.457031 11.234375 20.726562 11.277344 20.996094 11.324219 C 20.859375 9.625 18.984375 8.824219 18.492188 8.644531 L 17.957031 8.375 C 17.597656 8.910156 17.199219 9.359375 16.660156 9.714844 Z M 16.660156 9.714844 "/><path style=" stroke:none;fill-rule:nonzero;fill:#0b8841;fill-opacity:1;" d="M 38.011719 11.277344 C 38.238281 10.832031 38.863281 10.476562 39.21875 10.339844 C 39.265625 10.339844 40.425781 9.671875 40.425781 9.671875 C 39.933594 9.3125 39.488281 8.867188 39.128906 8.332031 L 38.550781 8.644531 C 38.101562 8.824219 36.269531 9.582031 36.136719 11.324219 C 36.40625 11.277344 36.671875 11.234375 36.941406 11.234375 L 38.011719 11.234375 Z M 38.011719 11.277344 "/><g clip-rule="nonzero" clip-path="url(#3968f53487)"><path style=" stroke:none;fill-rule:nonzero;fill:#0b8841;fill-opacity:1;" d="M 43.777344 9.046875 C 46.007812 9.046875 47.796875 7.035156 47.796875 4.578125 C 47.796875 2.121094 46.007812 0.113281 43.777344 0.113281 C 41.542969 0.113281 39.753906 2.121094 39.753906 4.578125 C 39.753906 7.035156 41.542969 9.046875 43.777344 9.046875 Z M 43.777344 9.046875 "/></g><path style=" stroke:none;fill-rule:nonzero;fill:#0b8841;fill-opacity:1;" d="M 5.808594 19.320312 L 20.996094 19.320312 L 21.84375 15.03125 C 21.976562 14.363281 21.753906 13.914062 21.53125 13.648438 C 21.308594 13.378906 20.90625 13.066406 20.144531 13.066406 L 6.609375 13.066406 C 5.851562 13.066406 5.449219 13.378906 5.226562 13.648438 C 5.003906 13.914062 4.78125 14.363281 4.914062 15.03125 Z M 5.808594 19.320312 "/><path style=" stroke:none;fill-rule:nonzero;fill:#0b8841;fill-opacity:1;" d="M 23.09375 32.808594 C 23.40625 32.675781 23.808594 32.542969 24.210938 32.453125 C 22.511719 31.066406 21.441406 28.878906 21.441406 26.464844 C 21.441406 24.410156 22.199219 22.535156 23.496094 21.152344 L 0.894531 21.152344 C 0.402344 21.152344 0 21.554688 0 22.042969 C 0 22.535156 0.402344 22.9375 0.894531 22.9375 L 1.785156 22.9375 L 1.785156 33.210938 C 1.785156 33.703125 2.1875 34.105469 2.679688 34.105469 L 20.414062 34.105469 Z M 15.1875 28.699219 L 11.613281 28.699219 C 11.121094 28.699219 10.71875 28.296875 10.71875 27.808594 C 10.71875 27.316406 11.121094 26.914062 11.613281 26.914062 L 15.1875 26.914062 C 15.679688 26.914062 16.082031 27.316406 16.082031 27.808594 C 16.082031 28.296875 15.679688 28.699219 15.1875 28.699219 Z M 15.1875 28.699219 "/><g clip-rule="nonzero" clip-path="url(#a9d5fbcbe4)"><path style=" stroke:none;fill-rule:nonzero;fill:#0b8841;fill-opacity:1;" d="M 36.183594 19.320312 L 51.367188 19.320312 L 52.21875 15.03125 C 52.351562 14.363281 52.128906 13.914062 51.90625 13.648438 C 51.683594 13.378906 51.28125 13.066406 50.519531 13.066406 L 36.984375 13.066406 C 36.226562 13.066406 35.824219 13.378906 35.601562 13.648438 C 35.378906 13.914062 35.15625 14.363281 35.289062 15.03125 Z M 36.183594 19.320312 "/></g><g clip-rule="nonzero" clip-path="url(#2d0b8d69da)"><path style=" stroke:none;fill-rule:nonzero;fill:#0b8841;fill-opacity:1;" d="M 56.28125 21.105469 L 33.679688 21.105469 C 34.976562 22.492188 35.734375 24.410156 35.734375 26.421875 C 35.734375 28.878906 34.617188 31.066406 32.921875 32.453125 C 33.277344 32.542969 33.589844 32.632812 33.902344 32.765625 L 36.582031 34.015625 L 54.496094 34.015625 C 54.988281 34.015625 55.390625 33.613281 55.390625 33.121094 L 55.390625 22.894531 L 56.28125 22.894531 C 56.773438 22.894531 57.175781 22.492188 57.175781 22 C 57.175781 21.507812 56.773438 21.105469 56.28125 21.105469 Z M 45.5625 28.699219 L 41.988281 28.699219 C 41.496094 28.699219 41.09375 28.296875 41.09375 27.808594 C 41.09375 27.316406 41.496094 26.914062 41.988281 26.914062 L 45.5625 26.914062 C 46.054688 26.914062 46.457031 27.316406 46.457031 27.808594 C 46.457031 28.296875 46.054688 28.699219 45.5625 28.699219 Z M 45.5625 28.699219 "/></g></g></svg>