<svg xmlns="http://www.w3.org/2000/svg" xmlns:xlink="http://www.w3.org/1999/xlink" width="144" zoomAndPan="magnify" viewBox="0 0 108 98.999996" height="132" preserveAspectRatio="xMidYMid meet" version="1.2"><defs><clipPath id="555598ca4d"><path d="M 0 0 L 108 0 L 108 60 L 0 60 Z M 0 0 "/></clipPath></defs><g id="0a9233461c"><path style=" stroke:none;fill-rule:nonzero;fill:#0b8841;fill-opacity:1;" d="M 107.164062 96.417969 L 91.171875 75.601562 L 91.171875 31.347656 C 91.171875 30.476562 90.460938 29.765625 89.589844 29.765625 L 70.511719 29.765625 L 66.632812 18.050781 C 66.554688 17.890625 66.472656 17.730469 66.394531 17.652344 C 66.394531 17.652344 66.394531 17.652344 66.316406 17.574219 C 66.238281 17.496094 66.15625 17.414062 66.078125 17.335938 C 66.078125 17.335938 66 17.257812 66 17.257812 C 65.921875 17.179688 65.839844 17.179688 65.761719 17.097656 C 65.683594 17.097656 65.683594 17.097656 65.601562 17.019531 C 65.601562 17.019531 65.523438 17.019531 65.523438 16.941406 C 65.445312 16.941406 65.367188 16.941406 65.285156 16.941406 C 65.285156 16.941406 65.207031 16.941406 65.207031 16.941406 L 50.640625 15.910156 C 50.246094 15.910156 49.769531 15.992188 49.453125 16.308594 L 38.53125 25.964844 C 38.53125 25.964844 38.449219 26.042969 38.449219 26.042969 C 38.371094 26.125 38.371094 26.125 38.292969 26.203125 C 38.292969 26.203125 38.292969 26.28125 38.214844 26.28125 C 38.214844 26.359375 38.132812 26.359375 38.132812 26.441406 C 38.054688 26.519531 38.054688 26.597656 38.054688 26.679688 C 38.054688 26.757812 38.054688 26.757812 37.976562 26.835938 C 37.976562 26.914062 37.976562 27.074219 37.976562 27.152344 C 37.976562 27.152344 37.976562 27.230469 37.976562 27.230469 C 37.976562 27.390625 37.976562 27.546875 38.054688 27.707031 L 38.765625 29.84375 L 18.027344 29.84375 C 17.15625 29.84375 16.445312 30.558594 16.445312 31.425781 L 16.445312 75.601562 L 0.453125 96.417969 C 0.0585938 96.894531 0.0585938 97.527344 0.292969 98.082031 C 0.53125 98.636719 1.085938 98.953125 1.71875 98.953125 L 106.054688 98.953125 C 106.6875 98.953125 107.242188 98.636719 107.480469 98.082031 C 107.636719 97.527344 107.558594 96.894531 107.164062 96.417969 Z M 42.488281 30.875 L 41.773438 28.894531 L 49.535156 29.449219 L 52.9375 29.6875 L 56.023438 38.949219 L 44.863281 38.15625 Z M 64.335938 21.375 L 67.425781 30.636719 L 59.03125 37.996094 L 55.945312 28.734375 L 62.199219 23.195312 Z M 51.039062 19.15625 L 61.171875 19.871094 L 59.429688 21.375 L 53.492188 26.519531 L 48.742188 26.203125 L 43.359375 25.808594 Z M 39.796875 32.929688 L 42.25 40.136719 C 42.488281 40.769531 42.960938 41.164062 43.597656 41.242188 L 58.160156 42.351562 C 58.160156 42.351562 58.242188 42.351562 58.242188 42.351562 C 58.242188 42.351562 58.320312 42.351562 58.320312 42.351562 C 58.398438 42.351562 58.398438 42.351562 58.480469 42.351562 C 58.480469 42.351562 58.558594 42.351562 58.558594 42.351562 C 58.558594 42.351562 58.636719 42.351562 58.636719 42.351562 C 58.636719 42.351562 58.714844 42.351562 58.714844 42.351562 C 58.714844 42.351562 58.796875 42.351562 58.796875 42.273438 C 58.796875 42.273438 58.875 42.273438 58.875 42.195312 C 58.875 42.195312 58.953125 42.195312 58.953125 42.195312 C 59.03125 42.195312 59.03125 42.113281 59.113281 42.113281 C 59.113281 42.113281 59.191406 42.113281 59.191406 42.035156 L 69.402344 33.089844 L 87.847656 33.089844 L 87.847656 74.648438 L 19.609375 74.648438 L 19.609375 32.929688 Z M 37.894531 95.785156 L 41.457031 91.117188 L 66.15625 91.117188 L 69.71875 95.785156 Z M 73.757812 95.785156 L 68.214844 88.582031 C 67.898438 88.1875 67.425781 87.949219 66.949219 87.949219 L 40.667969 87.949219 C 40.191406 87.949219 39.71875 88.1875 39.402344 88.582031 L 33.859375 95.785156 L 4.886719 95.785156 L 18.816406 77.738281 L 88.71875 77.738281 L 102.652344 95.785156 Z M 47.238281 10.054688 C 48.742188 3.5625 51.273438 0 54.363281 0 C 57.449219 0 59.984375 3.5625 61.488281 10.054688 C 61.644531 10.925781 61.171875 11.714844 60.300781 11.953125 C 60.140625 11.953125 60.0625 12.03125 59.902344 12.03125 C 59.191406 12.03125 58.558594 11.558594 58.398438 10.765625 C 57.132812 5.144531 55.234375 3.167969 54.363281 3.167969 C 53.492188 3.167969 51.589844 5.226562 50.324219 10.765625 C 50.167969 11.636719 49.296875 12.113281 48.425781 11.953125 C 47.554688 11.796875 47.078125 10.925781 47.238281 10.054688 Z M 47.238281 48.128906 C 47.078125 47.261719 47.554688 46.46875 48.425781 46.230469 C 49.296875 46.074219 50.085938 46.546875 50.324219 47.417969 C 51.589844 53.039062 53.492188 55.019531 54.363281 55.019531 C 55.234375 55.019531 57.132812 52.960938 58.398438 47.417969 C 58.558594 46.546875 59.429688 46.074219 60.300781 46.230469 C 61.171875 46.390625 61.644531 47.261719 61.488281 48.128906 C 59.984375 54.621094 57.449219 58.183594 54.363281 58.183594 C 51.273438 58.183594 48.742188 54.621094 47.238281 48.128906 Z M 34.730469 24.066406 C 30.296875 19.078125 28.792969 14.960938 30.535156 12.429688 C 32.355469 9.894531 36.707031 9.816406 42.882812 12.347656 C 43.675781 12.664062 44.070312 13.617188 43.753906 14.40625 C 43.4375 15.199219 42.488281 15.59375 41.695312 15.277344 C 36.390625 13.140625 33.621094 13.457031 33.148438 14.25 C 32.59375 15.039062 33.226562 17.652344 37.105469 21.929688 C 37.660156 22.5625 37.660156 23.589844 37.027344 24.144531 C 36.707031 24.382812 36.3125 24.539062 35.996094 24.539062 C 35.441406 24.621094 35.046875 24.382812 34.730469 24.066406 Z M 65.050781 43.855469 C 65.367188 43.0625 66.316406 42.667969 67.105469 42.984375 C 72.410156 45.121094 75.183594 44.804688 75.65625 44.015625 C 76.210938 43.222656 75.578125 40.609375 71.699219 36.335938 C 71.144531 35.703125 71.144531 34.671875 71.777344 34.117188 C 72.410156 33.566406 73.441406 33.566406 73.996094 34.199219 C 78.425781 39.183594 79.933594 43.300781 78.191406 45.835938 C 77.320312 47.101562 75.734375 47.734375 73.597656 47.734375 C 71.539062 47.734375 68.929688 47.101562 65.839844 45.835938 C 65.050781 45.597656 64.652344 44.648438 65.050781 43.855469 Z M 30.535156 45.835938 C 28.714844 43.300781 30.21875 39.183594 34.730469 34.199219 C 35.285156 33.566406 36.3125 33.484375 36.945312 34.117188 C 37.578125 34.671875 37.660156 35.703125 37.027344 36.335938 C 33.148438 40.609375 32.59375 43.300781 33.066406 44.015625 C 33.621094 44.804688 36.3125 45.121094 41.617188 42.984375 C 42.410156 42.667969 43.359375 43.0625 43.675781 43.855469 C 43.992188 44.648438 43.597656 45.597656 42.804688 45.914062 C 39.71875 47.179688 37.105469 47.8125 35.046875 47.8125 C 32.988281 47.734375 31.484375 47.101562 30.535156 45.835938 Z M 65.050781 14.40625 C 64.734375 13.617188 65.128906 12.664062 65.921875 12.347656 C 72.09375 9.816406 76.527344 9.894531 78.269531 12.429688 C 80.089844 14.960938 78.585938 19.078125 74.074219 24.066406 C 73.757812 24.382812 73.359375 24.621094 72.886719 24.621094 C 72.492188 24.621094 72.09375 24.460938 71.855469 24.222656 C 71.222656 23.667969 71.144531 22.640625 71.777344 22.007812 C 75.65625 17.730469 76.210938 15.039062 75.734375 14.328125 C 75.183594 13.535156 72.492188 13.21875 67.1875 15.359375 C 66.238281 15.59375 65.367188 15.199219 65.050781 14.40625 Z M 65.050781 14.40625 "/><g clip-rule="nonzero" clip-path="url(#555598ca4d)"><path style=" stroke:none;fill-rule:nonzero;fill:#0b8841;fill-opacity:1;" d="M 107.164062 96.417969 L 91.171875 75.601562 L 91.171875 31.347656 C 91.171875 30.476562 90.460938 29.765625 89.589844 29.765625 L 70.511719 29.765625 L 66.632812 18.050781 C 66.554688 17.890625 66.472656 17.730469 66.394531 17.652344 C 66.394531 17.652344 66.394531 17.652344 66.316406 17.574219 C 66.238281 17.496094 66.15625 17.414062 66.078125 17.335938 C 66.078125 17.335938 66 17.257812 66 17.257812 C 65.921875 17.179688 65.839844 17.179688 65.761719 17.097656 C 65.683594 17.097656 65.683594 17.097656 65.601562 17.019531 C 65.601562 17.019531 65.523438 17.019531 65.523438 16.941406 C 65.445312 16.941406 65.367188 16.941406 65.285156 16.941406 C 65.285156 16.941406 65.207031 16.941406 65.207031 16.941406 L 50.640625 15.910156 C 50.246094 15.910156 49.769531 15.992188 49.453125 16.308594 L 38.53125 25.964844 C 38.53125 25.964844 38.449219 26.042969 38.449219 26.042969 C 38.371094 26.125 38.371094 26.125 38.292969 26.203125 C 38.292969 26.203125 38.292969 26.28125 38.214844 26.28125 C 38.214844 26.359375 38.132812 26.359375 38.132812 26.441406 C 38.054688 26.519531 38.054688 26.597656 38.054688 26.679688 C 38.054688 26.757812 38.054688 26.757812 37.976562 26.835938 C 37.976562 26.914062 37.976562 27.074219 37.976562 27.152344 C 37.976562 27.152344 37.976562 27.230469 37.976562 27.230469 C 37.976562 27.390625 37.976562 27.546875 38.054688 27.707031 L 38.765625 29.84375 L 18.027344 29.84375 C 17.15625 29.84375 16.445312 30.558594 16.445312 31.425781 L 16.445312 75.601562 L 0.453125 96.417969 C 0.0585938 96.894531 0.0585938 97.527344 0.292969 98.082031 C 0.53125 98.636719 1.085938 98.953125 1.71875 98.953125 L 106.054688 98.953125 C 106.6875 98.953125 107.242188 98.636719 107.480469 98.082031 C 107.636719 97.527344 107.558594 96.894531 107.164062 96.417969 Z M 42.488281 30.875 L 41.773438 28.894531 L 49.535156 29.449219 L 52.9375 29.6875 L 56.023438 38.949219 L 44.863281 38.15625 Z M 64.335938 21.375 L 67.425781 30.636719 L 59.03125 37.996094 L 55.945312 28.734375 L 62.199219 23.195312 Z M 51.039062 19.15625 L 61.171875 19.871094 L 59.429688 21.375 L 53.492188 26.519531 L 48.742188 26.203125 L 43.359375 25.808594 Z M 39.796875 32.929688 L 42.25 40.136719 C 42.488281 40.769531 42.960938 41.164062 43.597656 41.242188 L 58.160156 42.351562 C 58.160156 42.351562 58.242188 42.351562 58.242188 42.351562 C 58.242188 42.351562 58.320312 42.351562 58.320312 42.351562 C 58.398438 42.351562 58.398438 42.351562 58.480469 42.351562 C 58.480469 42.351562 58.558594 42.351562 58.558594 42.351562 C 58.558594 42.351562 58.636719 42.351562 58.636719 42.351562 C 58.636719 42.351562 58.714844 42.351562 58.714844 42.351562 C 58.714844 42.351562 58.796875 42.351562 58.796875 42.273438 C 58.796875 42.273438 58.875 42.273438 58.875 42.195312 C 58.875 42.195312 58.953125 42.195312 58.953125 42.195312 C 59.03125 42.195312 59.03125 42.113281 59.113281 42.113281 C 59.113281 42.113281 59.191406 42.113281 59.191406 42.035156 L 69.402344 33.089844 L 87.847656 33.089844 L 87.847656 74.648438 L 19.609375 74.648438 L 19.609375 32.929688 Z M 37.894531 95.785156 L 41.457031 91.117188 L 66.15625 91.117188 L 69.71875 95.785156 Z M 73.757812 95.785156 L 68.214844 88.582031 C 67.898438 88.1875 67.425781 87.949219 66.949219 87.949219 L 40.667969 87.949219 C 40.191406 87.949219 39.71875 88.1875 39.402344 88.582031 L 33.859375 95.785156 L 4.886719 95.785156 L 18.816406 77.738281 L 88.71875 77.738281 L 102.652344 95.785156 Z M 47.238281 10.054688 C 48.742188 3.5625 51.273438 0 54.363281 0 C 57.449219 0 59.984375 3.5625 61.488281 10.054688 C 61.644531 10.925781 61.171875 11.714844 60.300781 11.953125 C 60.140625 11.953125 60.0625 12.03125 59.902344 12.03125 C 59.191406 12.03125 58.558594 11.558594 58.398438 10.765625 C 57.132812 5.144531 55.234375 3.167969 54.363281 3.167969 C 53.492188 3.167969 51.589844 5.226562 50.324219 10.765625 C 50.167969 11.636719 49.296875 12.113281 48.425781 11.953125 C 47.554688 11.796875 47.078125 10.925781 47.238281 10.054688 Z M 47.238281 48.128906 C 47.078125 47.261719 47.554688 46.46875 48.425781 46.230469 C 49.296875 46.074219 50.085938 46.546875 50.324219 47.417969 C 51.589844 53.039062 53.492188 55.019531 54.363281 55.019531 C 55.234375 55.019531 57.132812 52.960938 58.398438 47.417969 C 58.558594 46.546875 59.429688 46.074219 60.300781 46.230469 C 61.171875 46.390625 61.644531 47.261719 61.488281 48.128906 C 59.984375 54.621094 57.449219 58.183594 54.363281 58.183594 C 51.273438 58.183594 48.742188 54.621094 47.238281 48.128906 Z M 34.730469 24.066406 C 30.296875 19.078125 28.792969 14.960938 30.535156 12.429688 C 32.355469 9.894531 36.707031 9.816406 42.882812 12.347656 C 43.675781 12.664062 44.070312 13.617188 43.753906 14.40625 C 43.4375 15.199219 42.488281 15.59375 41.695312 15.277344 C 36.390625 13.140625 33.621094 13.457031 33.148438 14.25 C 32.59375 15.039062 33.226562 17.652344 37.105469 21.929688 C 37.660156 22.5625 37.660156 23.589844 37.027344 24.144531 C 36.707031 24.382812 36.3125 24.539062 35.996094 24.539062 C 35.441406 24.621094 35.046875 24.382812 34.730469 24.066406 Z M 65.050781 43.855469 C 65.367188 43.0625 66.316406 42.667969 67.105469 42.984375 C 72.410156 45.121094 75.183594 44.804688 75.65625 44.015625 C 76.210938 43.222656 75.578125 40.609375 71.699219 36.335938 C 71.144531 35.703125 71.144531 34.671875 71.777344 34.117188 C 72.410156 33.566406 73.441406 33.566406 73.996094 34.199219 C 78.425781 39.183594 79.933594 43.300781 78.191406 45.835938 C 77.320312 47.101562 75.734375 47.734375 73.597656 47.734375 C 71.539062 47.734375 68.929688 47.101562 65.839844 45.835938 C 65.050781 45.597656 64.652344 44.648438 65.050781 43.855469 Z M 30.535156 45.835938 C 28.714844 43.300781 30.21875 39.183594 34.730469 34.199219 C 35.285156 33.566406 36.3125 33.484375 36.945312 34.117188 C 37.578125 34.671875 37.660156 35.703125 37.027344 36.335938 C 33.148438 40.609375 32.59375 43.300781 33.066406 44.015625 C 33.621094 44.804688 36.3125 45.121094 41.617188 42.984375 C 42.410156 42.667969 43.359375 43.0625 43.675781 43.855469 C 43.992188 44.648438 43.597656 45.597656 42.804688 45.914062 C 39.71875 47.179688 37.105469 47.8125 35.046875 47.8125 C 32.988281 47.734375 31.484375 47.101562 30.535156 45.835938 Z M 65.050781 14.40625 C 64.734375 13.617188 65.128906 12.664062 65.921875 12.347656 C 72.09375 9.816406 76.527344 9.894531 78.269531 12.429688 C 80.089844 14.960938 78.585938 19.078125 74.074219 24.066406 C 73.757812 24.382812 73.359375 24.621094 72.886719 24.621094 C 72.492188 24.621094 72.09375 24.460938 71.855469 24.222656 C 71.222656 23.667969 71.144531 22.640625 71.777344 22.007812 C 75.65625 17.730469 76.210938 15.039062 75.734375 14.328125 C 75.183594 13.535156 72.492188 13.21875 67.1875 15.359375 C 66.238281 15.59375 65.367188 15.199219 65.050781 14.40625 Z M 65.050781 14.40625 "/></g></g></svg>