<svg xmlns="http://www.w3.org/2000/svg" xmlns:xlink="http://www.w3.org/1999/xlink" width="127" zoomAndPan="magnify" viewBox="0 0 95.25 91.499997" height="122" preserveAspectRatio="xMidYMid meet" version="1.2"><defs><clipPath id="96aaf11356"><path d="M 0 0.109375 L 93.761719 0.109375 L 93.761719 90.894531 L 0 90.894531 Z M 0 0.109375 "/></clipPath><clipPath id="e4eafeff06"><path d="M 0 0.109375 L 93.761719 0.109375 L 93.761719 54.429688 L 0 54.429688 Z M 0 0.109375 "/></clipPath></defs><g id="b909e26f4e"><g clip-rule="nonzero" clip-path="url(#96aaf11356)"><path style=" stroke:none;fill-rule:evenodd;fill:#0b8841;fill-opacity:1;" d="M 55.585938 71.355469 C 55.066406 71.234375 54.519531 71.417969 54.179688 71.832031 L 41.441406 87.21875 L 8.199219 69.933594 L 38.175781 76.851562 C 38.695312 76.972656 39.242188 76.789062 39.582031 76.375 L 52.320312 60.988281 L 85.5625 78.273438 Z M 37.433594 44.421875 L 20.824219 69.945312 L 25.65625 71.058594 L 45.148438 49.898438 C 42.003906 49.023438 38.878906 47.101562 37.433594 44.421875 Z M 48.855469 50.050781 L 28.824219 71.792969 L 37.960938 73.898438 L 50.871094 58.304688 C 51.296875 57.792969 52.019531 57.644531 52.613281 57.953125 L 60.632812 62.125 L 59.019531 49.25 Z M 40.425781 37.050781 C 38.839844 39.101562 38.890625 42.078125 40.542969 43.976562 C 42.019531 45.675781 44.046875 46.789062 46.730469 47.378906 L 60.144531 46.324219 C 60.898438 46.265625 61.5625 46.808594 61.660156 47.558594 L 63.683594 63.710938 L 68.3125 66.117188 L 67.1875 40.964844 C 66.917969 40.757812 65.945312 40.3125 63.78125 40.078125 L 52.78125 38.890625 C 51.597656 38.765625 51.097656 37.3125 51.945312 36.476562 L 64.140625 24.476562 C 67.398438 21.269531 64.457031 17.003906 63.480469 15.777344 C 62.550781 14.609375 59.414062 11.753906 55.96875 9.179688 C 50.070312 4.773438 48.5 5.019531 48.484375 5.023438 L 32.148438 8.496094 C 30.757812 8.792969 29.957031 11 30.558594 12.472656 C 30.703125 12.832031 32.5 13.402344 34.503906 12.648438 C 35.914062 12.113281 37.042969 10.171875 38.304688 10 L 46.238281 8.925781 C 46.695312 8.867188 47.152344 9.027344 47.464844 9.363281 L 54.496094 16.929688 C 54.96875 17.4375 55.003906 18.214844 54.578125 18.761719 Z M 62.976562 8.332031 C 63.09375 5.382812 65.433594 3.082031 68.355469 3.132812 C 71.15625 3.183594 73.410156 5.730469 73.292969 8.6875 C 73.105469 13.402344 67.550781 15.652344 64.410156 12.265625 C 63.425781 11.207031 62.917969 9.8125 62.976562 8.332031 Z M 76.386719 26.6875 L 81.546875 22.40625 C 81.746094 22.242188 81.894531 22.027344 81.980469 21.78125 L 82.414062 20.535156 C 82.929688 19.050781 84.101562 18.167969 84.882812 18.183594 C 85.8125 18.210938 86.320312 19.679688 86.496094 20.308594 C 86.902344 21.773438 86.378906 23.386719 85.226562 24.230469 L 77.570312 29.835938 C 75.347656 31.46875 72.816406 31.691406 70.449219 30.476562 L 64.945312 27.652344 L 66.125 26.492188 C 67.5 25.136719 68.199219 23.628906 68.410156 22.09375 L 74.636719 26.730469 C 75.160156 27.121094 75.882812 27.101562 76.386719 26.6875 Z M 92.445312 78.664062 L 71.210938 67.625 L 70.007812 40.667969 C 69.925781 38.828125 67.933594 37.683594 64.085938 37.265625 L 56.054688 36.398438 L 62.820312 29.742188 L 69.15625 32.992188 C 72.492188 34.703125 76.167969 34.371094 79.242188 32.117188 L 86.898438 26.511719 C 88.980469 24.984375 89.9375 22.125 89.21875 19.550781 C 87.449219 13.203125 81.433594 14.761719 79.742188 19.605469 L 79.4375 20.480469 L 75.433594 23.800781 L 68.023438 18.28125 C 67.851562 17.738281 67.636719 17.203125 67.382812 16.683594 C 71.9375 17.101562 75.933594 13.496094 76.121094 8.796875 C 76.296875 4.339844 72.941406 0.46875 68.457031 0.308594 C 63.816406 0.140625 59.984375 4.074219 60.152344 8.863281 C 59.328125 8.191406 58.476562 7.523438 57.644531 6.902344 C 50.644531 1.675781 48.574219 2.113281 47.894531 2.261719 L 31.558594 5.730469 C 28.332031 6.417969 26.707031 10.515625 27.9375 13.539062 C 28.914062 15.929688 32.636719 16.375 35.503906 15.289062 C 37.148438 14.667969 38.769531 12.84375 38.9375 12.769531 L 45.894531 11.828125 L 51.609375 17.976562 L 38.191406 35.316406 C 36.976562 36.886719 36.402344 38.828125 36.460938 40.730469 L 17.890625 69.269531 L 2.707031 65.765625 C 1.714844 65.535156 0.699219 66.085938 0.347656 67.039062 C -0.00390625 67.996094 0.410156 69.070312 1.316406 69.542969 L 41.152344 90.253906 C 41.734375 90.558594 42.464844 90.417969 42.890625 89.902344 L 55.800781 74.308594 L 91.054688 82.441406 C 92.046875 82.671875 93.0625 82.125 93.414062 81.167969 C 93.765625 80.210938 93.351562 79.136719 92.445312 78.664062 Z M 92.445312 78.664062 "/></g><g clip-rule="nonzero" clip-path="url(#e4eafeff06)"><path style=" stroke:none;fill-rule:evenodd;fill:#0b8841;fill-opacity:1;" d="M 55.585938 71.355469 C 55.066406 71.234375 54.519531 71.417969 54.179688 71.832031 L 41.441406 87.21875 L 8.199219 69.933594 L 38.175781 76.851562 C 38.695312 76.972656 39.242188 76.789062 39.582031 76.375 L 52.320312 60.988281 L 85.5625 78.273438 Z M 37.433594 44.421875 L 20.824219 69.945312 L 25.65625 71.058594 L 45.148438 49.898438 C 42.003906 49.023438 38.878906 47.101562 37.433594 44.421875 Z M 48.855469 50.050781 L 28.824219 71.792969 L 37.960938 73.898438 L 50.871094 58.304688 C 51.296875 57.792969 52.019531 57.644531 52.613281 57.953125 L 60.632812 62.125 L 59.019531 49.25 Z M 40.425781 37.050781 C 38.839844 39.101562 38.890625 42.078125 40.542969 43.976562 C 42.019531 45.675781 44.046875 46.789062 46.730469 47.378906 L 60.144531 46.324219 C 60.898438 46.265625 61.5625 46.808594 61.660156 47.558594 L 63.683594 63.710938 L 68.3125 66.117188 L 67.1875 40.964844 C 66.917969 40.757812 65.945312 40.3125 63.78125 40.078125 L 52.78125 38.890625 C 51.597656 38.765625 51.097656 37.3125 51.945312 36.476562 L 64.140625 24.476562 C 67.398438 21.269531 64.457031 17.003906 63.480469 15.777344 C 62.550781 14.609375 59.414062 11.753906 55.96875 9.179688 C 50.070312 4.773438 48.5 5.019531 48.484375 5.023438 L 32.148438 8.496094 C 30.757812 8.792969 29.957031 11 30.558594 12.472656 C 30.703125 12.832031 32.5 13.402344 34.503906 12.648438 C 35.914062 12.113281 37.042969 10.171875 38.304688 10 L 46.238281 8.925781 C 46.695312 8.867188 47.152344 9.027344 47.464844 9.363281 L 54.496094 16.929688 C 54.96875 17.4375 55.003906 18.214844 54.578125 18.761719 Z M 62.976562 8.332031 C 63.09375 5.382812 65.433594 3.082031 68.355469 3.132812 C 71.15625 3.183594 73.410156 5.730469 73.292969 8.6875 C 73.105469 13.402344 67.550781 15.652344 64.410156 12.265625 C 63.425781 11.207031 62.917969 9.8125 62.976562 8.332031 Z M 76.386719 26.6875 L 81.546875 22.40625 C 81.746094 22.242188 81.894531 22.027344 81.980469 21.78125 L 82.414062 20.535156 C 82.929688 19.050781 84.101562 18.167969 84.882812 18.183594 C 85.8125 18.210938 86.320312 19.679688 86.496094 20.308594 C 86.902344 21.773438 86.378906 23.386719 85.226562 24.230469 L 77.570312 29.835938 C 75.347656 31.46875 72.816406 31.691406 70.449219 30.476562 L 64.945312 27.652344 L 66.125 26.492188 C 67.5 25.136719 68.199219 23.628906 68.410156 22.09375 L 74.636719 26.730469 C 75.160156 27.121094 75.882812 27.101562 76.386719 26.6875 Z M 92.445312 78.664062 L 71.210938 67.625 L 70.007812 40.667969 C 69.925781 38.828125 67.933594 37.683594 64.085938 37.265625 L 56.054688 36.398438 L 62.820312 29.742188 L 69.15625 32.992188 C 72.492188 34.703125 76.167969 34.371094 79.242188 32.117188 L 86.898438 26.511719 C 88.980469 24.984375 89.9375 22.125 89.21875 19.550781 C 87.449219 13.203125 81.433594 14.761719 79.742188 19.605469 L 79.4375 20.480469 L 75.433594 23.800781 L 68.023438 18.28125 C 67.851562 17.738281 67.636719 17.203125 67.382812 16.683594 C 71.9375 17.101562 75.933594 13.496094 76.121094 8.796875 C 76.296875 4.339844 72.941406 0.46875 68.457031 0.308594 C 63.816406 0.140625 59.984375 4.074219 60.152344 8.863281 C 59.328125 8.191406 58.476562 7.523438 57.644531 6.902344 C 50.644531 1.675781 48.574219 2.113281 47.894531 2.261719 L 31.558594 5.730469 C 28.332031 6.417969 26.707031 10.515625 27.9375 13.539062 C 28.914062 15.929688 32.636719 16.375 35.503906 15.289062 C 37.148438 14.667969 38.769531 12.84375 38.9375 12.769531 L 45.894531 11.828125 L 51.609375 17.976562 L 38.191406 35.316406 C 36.976562 36.886719 36.402344 38.828125 36.460938 40.730469 L 17.890625 69.269531 L 2.707031 65.765625 C 1.714844 65.535156 0.699219 66.085938 0.347656 67.039062 C -0.00390625 67.996094 0.410156 69.070312 1.316406 69.542969 L 41.152344 90.253906 C 41.734375 90.558594 42.464844 90.417969 42.890625 89.902344 L 55.800781 74.308594 L 91.054688 82.441406 C 92.046875 82.671875 93.0625 82.125 93.414062 81.167969 C 93.765625 80.210938 93.351562 79.136719 92.445312 78.664062 Z M 92.445312 78.664062 "/></g></g></svg>