<svg xmlns="http://www.w3.org/2000/svg" xmlns:xlink="http://www.w3.org/1999/xlink" width="139" zoomAndPan="magnify" viewBox="0 0 104.25 98.249997" height="131" preserveAspectRatio="xMidYMid meet" version="1.2"><defs><clipPath id="c21f1c4f5d"><path d="M 0.0234375 0 L 102.738281 0 L 102.738281 45.402344 L 0.0234375 45.402344 Z M 0.0234375 0 "/></clipPath><clipPath id="f93ece3e15"><path d="M 0.0585938 51.699219 L 102.773438 51.699219 L 102.773438 97.101562 L 0.0585938 97.101562 Z M 0.0585938 51.699219 "/></clipPath></defs><g id="098cea04af"><g clip-rule="nonzero" clip-path="url(#c21f1c4f5d)"><path style=" stroke:none;fill-rule:nonzero;fill:#0b8841;fill-opacity:1;" d="M 79.453125 45.394531 L 22.714844 45.394531 C 10.183594 45.394531 0.0234375 35.234375 0.0234375 22.703125 C 0.0234375 10.167969 10.183594 0.0078125 22.714844 0.0078125 L 79.453125 0.0078125 C 91.988281 0.0078125 102.148438 10.167969 102.148438 22.703125 C 102.148438 35.234375 91.988281 45.394531 79.453125 45.394531 "/></g><path style=" stroke:none;fill-rule:nonzero;fill:#ffffff;fill-opacity:1;" d="M 97.125 22.703125 C 97.125 32.460938 89.214844 40.371094 79.453125 40.371094 C 69.695312 40.371094 61.78125 32.460938 61.78125 22.703125 C 61.78125 12.941406 69.695312 5.03125 79.453125 5.03125 C 89.214844 5.03125 97.125 12.941406 97.125 22.703125 "/><g clip-rule="nonzero" clip-path="url(#f93ece3e15)"><path style=" stroke:none;fill-rule:nonzero;fill:#0b8841;fill-opacity:1;" d="M 23.34375 51.707031 L 80.082031 51.707031 C 92.613281 51.707031 102.773438 61.867188 102.773438 74.402344 C 102.773438 86.933594 92.613281 97.09375 80.082031 97.09375 L 23.34375 97.09375 C 10.808594 97.09375 0.648438 86.933594 0.648438 74.402344 C 0.648438 61.867188 10.808594 51.707031 23.34375 51.707031 "/></g><path style=" stroke:none;fill-rule:nonzero;fill:#ffffff;fill-opacity:1;" d="M 5.671875 74.402344 C 5.671875 64.640625 13.582031 56.730469 23.34375 56.730469 C 33.101562 56.730469 41.015625 64.640625 41.015625 74.402344 C 41.015625 84.160156 33.101562 92.074219 23.34375 92.074219 C 13.582031 92.074219 5.671875 84.160156 5.671875 74.402344 "/></g></svg>