<svg xmlns="http://www.w3.org/2000/svg" xmlns:xlink="http://www.w3.org/1999/xlink" width="143" zoomAndPan="magnify" viewBox="0 0 107.25 102.75" height="137" preserveAspectRatio="xMidYMid meet" version="1.2"><defs><clipPath id="2c35ef6a18"><path d="M 0 0.234375 L 106.503906 0.234375 L 106.503906 102.269531 L 0 102.269531 Z M 0 0.234375 "/></clipPath><clipPath id="50b2284df4"><path d="M 0 0.234375 L 106.503906 0.234375 L 106.503906 65.03125 L 0 65.03125 Z M 0 0.234375 "/></clipPath></defs><g id="dea14f1c8e"><g clip-rule="nonzero" clip-path="url(#2c35ef6a18)"><path style=" stroke:none;fill-rule:evenodd;fill:#0b8841;fill-opacity:1;" d="M 98.578125 98.628906 L 104.679688 98.628906 C 105.640625 98.628906 106.421875 99.410156 106.421875 100.375 C 106.421875 101.335938 105.640625 102.117188 104.679688 102.117188 L 10.664062 102.117188 C 9.703125 102.117188 8.917969 101.335938 8.917969 100.375 C 8.917969 99.410156 9.703125 98.628906 10.664062 98.628906 L 16.765625 98.628906 L 16.765625 76.484375 L 29.226562 76.484375 L 29.226562 98.628906 L 39.898438 98.628906 L 39.898438 63.972656 L 52.34375 63.972656 L 52.34375 98.628906 L 63.015625 98.628906 L 63.015625 50.894531 L 75.460938 50.894531 L 75.460938 98.628906 L 86.132812 98.628906 L 86.132812 39.144531 L 87.664062 39.144531 L 89.652344 43.851562 C 90.160156 45.054688 91.296875 45.871094 92.597656 45.972656 C 93.894531 46.074219 95.144531 45.441406 95.832031 44.335938 L 97.722656 41.289062 L 98.578125 41.464844 Z M 61.414062 44.414062 C 48.792969 55.183594 35.101562 62.082031 22.128906 66.597656 C 21.21875 66.914062 20.222656 66.433594 19.90625 65.523438 C 19.589844 64.617188 20.070312 63.621094 20.980469 63.304688 C 33.511719 58.941406 46.734375 52.300781 58.933594 41.941406 L 58.859375 41.949219 C 57.898438 42 57.074219 41.261719 57.023438 40.300781 C 56.96875 39.339844 57.707031 38.515625 58.667969 38.464844 L 63.734375 38.183594 C 64.257812 38.15625 64.765625 38.363281 65.117188 38.75 C 65.46875 39.136719 65.632812 39.660156 65.554688 40.175781 L 64.824219 45.203125 C 64.6875 46.15625 63.800781 46.816406 62.847656 46.675781 C 61.894531 46.539062 61.234375 45.652344 61.371094 44.699219 C 61.371094 44.699219 61.386719 44.589844 61.414062 44.414062 Z M 0.527344 50.496094 L 0.527344 42.746094 L 4.015625 43.675781 L 4.015625 50.496094 L 4.542969 50.800781 L 4.542969 57.730469 L 2.269531 56.023438 L 0 57.730469 L 0 50.800781 Z M 81.507812 37.945312 L 78.5 44.34375 L 75.476562 39.140625 L 69.546875 40.179688 L 73.238281 32.226562 C 73.351562 32.289062 73.453125 32.355469 73.542969 32.433594 C 74 32.816406 74.226562 33.429688 75.082031 34.734375 C 76.53125 36.953125 78.964844 38.132812 81.507812 37.945312 Z M 90.945312 37.949219 C 93.125 37.8125 95.140625 36.667969 96.402344 34.734375 L 96.40625 34.730469 C 97.257812 33.429688 97.484375 32.816406 97.9375 32.433594 C 98.207031 32.207031 98.539062 32.074219 99.0625 31.878906 L 101.9375 38.589844 L 96.042969 37.382812 L 92.867188 42.496094 Z M 87.914062 1.230469 C 91.320312 3.777344 90.546875 3.496094 94.792969 3.734375 C 96.425781 3.824219 97.75 4.933594 98.121094 6.523438 C 99.09375 10.667969 98.683594 9.953125 101.78125 12.867188 C 102.972656 13.980469 103.273438 15.6875 102.539062 17.144531 C 100.617188 20.941406 100.757812 20.132812 101.265625 24.355469 C 101.457031 25.976562 100.597656 27.476562 99.09375 28.113281 C 95.183594 29.789062 95.808594 29.261719 93.484375 32.824219 C 92.59375 34.1875 90.964844 34.78125 89.402344 34.304688 C 85.328125 33.078125 86.152344 33.078125 82.085938 34.304688 C 80.515625 34.78125 78.894531 34.1875 78 32.824219 C 75.667969 29.261719 76.300781 29.789062 72.390625 28.113281 C 70.890625 27.476562 70.023438 25.976562 70.21875 24.355469 C 70.722656 20.132812 70.867188 20.941406 68.949219 17.144531 C 68.210938 15.6875 68.507812 13.980469 69.703125 12.867188 C 72.804688 9.953125 72.390625 10.667969 73.359375 6.523438 C 73.734375 4.933594 75.058594 3.824219 76.691406 3.734375 C 80.9375 3.496094 80.164062 3.777344 83.570312 1.230469 C 84.878906 0.25 86.605469 0.25 87.914062 1.230469 Z M 85.738281 27.628906 C 91.332031 27.628906 95.886719 23.066406 95.886719 17.480469 C 95.886719 11.894531 91.332031 7.335938 85.738281 7.335938 C 80.152344 7.335938 75.59375 11.894531 75.59375 17.480469 C 75.59375 23.066406 80.152344 27.628906 85.738281 27.628906 Z M 80.335938 18.96875 C 79.652344 18.285156 79.652344 17.179688 80.332031 16.5 C 81.011719 15.820312 82.117188 15.816406 82.800781 16.496094 C 82.800781 16.496094 84.058594 17.753906 84.058594 17.753906 L 88.742188 13.507812 C 89.453125 12.863281 90.558594 12.914062 91.207031 13.628906 C 91.851562 14.34375 91.796875 15.445312 91.085938 16.09375 L 85.171875 21.453125 C 84.484375 22.078125 83.425781 22.054688 82.769531 21.394531 Z M 20.839844 34.03125 L 40.609375 39.28125 L 20.839844 44.535156 L 1.074219 39.28125 Z M 7.328125 44.554688 L 19.945312 47.910156 C 20.53125 48.066406 21.148438 48.066406 21.738281 47.910156 L 34.355469 44.554688 L 34.355469 51.742188 C 18.226562 54.691406 23.457031 54.691406 7.328125 51.742188 Z M 7.328125 44.554688 "/></g><g clip-rule="nonzero" clip-path="url(#50b2284df4)"><path style=" stroke:none;fill-rule:evenodd;fill:#0b8841;fill-opacity:1;" d="M 98.578125 98.628906 L 104.679688 98.628906 C 105.640625 98.628906 106.421875 99.410156 106.421875 100.375 C 106.421875 101.335938 105.640625 102.117188 104.679688 102.117188 L 10.664062 102.117188 C 9.703125 102.117188 8.917969 101.335938 8.917969 100.375 C 8.917969 99.410156 9.703125 98.628906 10.664062 98.628906 L 16.765625 98.628906 L 16.765625 76.484375 L 29.226562 76.484375 L 29.226562 98.628906 L 39.898438 98.628906 L 39.898438 63.972656 L 52.34375 63.972656 L 52.34375 98.628906 L 63.015625 98.628906 L 63.015625 50.894531 L 75.460938 50.894531 L 75.460938 98.628906 L 86.132812 98.628906 L 86.132812 39.144531 L 87.664062 39.144531 L 89.652344 43.851562 C 90.160156 45.054688 91.296875 45.871094 92.597656 45.972656 C 93.894531 46.074219 95.144531 45.441406 95.832031 44.335938 L 97.722656 41.289062 L 98.578125 41.464844 Z M 61.414062 44.414062 C 48.792969 55.183594 35.101562 62.082031 22.128906 66.597656 C 21.21875 66.914062 20.222656 66.433594 19.90625 65.523438 C 19.589844 64.617188 20.070312 63.621094 20.980469 63.304688 C 33.511719 58.941406 46.734375 52.300781 58.933594 41.941406 L 58.859375 41.949219 C 57.898438 42 57.074219 41.261719 57.023438 40.300781 C 56.96875 39.339844 57.707031 38.515625 58.667969 38.464844 L 63.734375 38.183594 C 64.257812 38.15625 64.765625 38.363281 65.117188 38.75 C 65.46875 39.136719 65.632812 39.660156 65.554688 40.175781 L 64.824219 45.203125 C 64.6875 46.15625 63.800781 46.816406 62.847656 46.675781 C 61.894531 46.539062 61.234375 45.652344 61.371094 44.699219 C 61.371094 44.699219 61.386719 44.589844 61.414062 44.414062 Z M 0.527344 50.496094 L 0.527344 42.746094 L 4.015625 43.675781 L 4.015625 50.496094 L 4.542969 50.800781 L 4.542969 57.730469 L 2.269531 56.023438 L 0 57.730469 L 0 50.800781 Z M 81.507812 37.945312 L 78.5 44.34375 L 75.476562 39.140625 L 69.546875 40.179688 L 73.238281 32.226562 C 73.351562 32.289062 73.453125 32.355469 73.542969 32.433594 C 74 32.816406 74.226562 33.429688 75.082031 34.734375 C 76.53125 36.953125 78.964844 38.132812 81.507812 37.945312 Z M 90.945312 37.949219 C 93.125 37.8125 95.140625 36.667969 96.402344 34.734375 L 96.40625 34.730469 C 97.257812 33.429688 97.484375 32.816406 97.9375 32.433594 C 98.207031 32.207031 98.539062 32.074219 99.0625 31.878906 L 101.9375 38.589844 L 96.042969 37.382812 L 92.867188 42.496094 Z M 87.914062 1.230469 C 91.320312 3.777344 90.546875 3.496094 94.792969 3.734375 C 96.425781 3.824219 97.75 4.933594 98.121094 6.523438 C 99.09375 10.667969 98.683594 9.953125 101.78125 12.867188 C 102.972656 13.980469 103.273438 15.6875 102.539062 17.144531 C 100.617188 20.941406 100.757812 20.132812 101.265625 24.355469 C 101.457031 25.976562 100.597656 27.476562 99.09375 28.113281 C 95.183594 29.789062 95.808594 29.261719 93.484375 32.824219 C 92.59375 34.1875 90.964844 34.78125 89.402344 34.304688 C 85.328125 33.078125 86.152344 33.078125 82.085938 34.304688 C 80.515625 34.78125 78.894531 34.1875 78 32.824219 C 75.667969 29.261719 76.300781 29.789062 72.390625 28.113281 C 70.890625 27.476562 70.023438 25.976562 70.21875 24.355469 C 70.722656 20.132812 70.867188 20.941406 68.949219 17.144531 C 68.210938 15.6875 68.507812 13.980469 69.703125 12.867188 C 72.804688 9.953125 72.390625 10.667969 73.359375 6.523438 C 73.734375 4.933594 75.058594 3.824219 76.691406 3.734375 C 80.9375 3.496094 80.164062 3.777344 83.570312 1.230469 C 84.878906 0.25 86.605469 0.25 87.914062 1.230469 Z M 85.738281 27.628906 C 91.332031 27.628906 95.886719 23.066406 95.886719 17.480469 C 95.886719 11.894531 91.332031 7.335938 85.738281 7.335938 C 80.152344 7.335938 75.59375 11.894531 75.59375 17.480469 C 75.59375 23.066406 80.152344 27.628906 85.738281 27.628906 Z M 80.335938 18.96875 C 79.652344 18.285156 79.652344 17.179688 80.332031 16.5 C 81.011719 15.820312 82.117188 15.816406 82.800781 16.496094 C 82.800781 16.496094 84.058594 17.753906 84.058594 17.753906 L 88.742188 13.507812 C 89.453125 12.863281 90.558594 12.914062 91.207031 13.628906 C 91.851562 14.34375 91.796875 15.445312 91.085938 16.09375 L 85.171875 21.453125 C 84.484375 22.078125 83.425781 22.054688 82.769531 21.394531 Z M 20.839844 34.03125 L 40.609375 39.28125 L 20.839844 44.535156 L 1.074219 39.28125 Z M 7.328125 44.554688 L 19.945312 47.910156 C 20.53125 48.066406 21.148438 48.066406 21.738281 47.910156 L 34.355469 44.554688 L 34.355469 51.742188 C 18.226562 54.691406 23.457031 54.691406 7.328125 51.742188 Z M 7.328125 44.554688 "/></g></g></svg>