<svg xmlns="http://www.w3.org/2000/svg" xmlns:xlink="http://www.w3.org/1999/xlink" width="112" zoomAndPan="magnify" viewBox="0 0 84 119.249998" height="159" preserveAspectRatio="xMidYMid meet" version="1.2"><defs><clipPath id="19d5855445"><path d="M 4 10 L 83.738281 10 L 83.738281 102 L 4 102 Z M 4 10 "/></clipPath><clipPath id="6798c88d41"><path d="M 0.261719 18.632812 L 0.261719 99.25 C 0.261719 109.539062 8.605469 117.882812 18.894531 117.882812 L 64.882812 117.882812 C 75.175781 117.882812 83.515625 109.539062 83.515625 99.25 L 83.515625 18.632812 C 83.515625 8.34375 75.175781 0 64.882812 0 L 18.894531 0 C 8.605469 0 0.261719 8.34375 0.261719 18.632812 Z M 0.261719 18.632812 "/></clipPath><clipPath id="5bd2548ef9"><path d="M 0.261719 98 L 83.738281 98 L 83.738281 117.757812 L 0.261719 117.757812 Z M 0.261719 98 "/></clipPath><clipPath id="5ad3639ee9"><path d="M 0.261719 18.632812 L 0.261719 99.25 C 0.261719 109.539062 8.605469 117.882812 18.894531 117.882812 L 64.882812 117.882812 C 75.175781 117.882812 83.515625 109.539062 83.515625 99.25 L 83.515625 18.632812 C 83.515625 8.34375 75.175781 0 64.882812 0 L 18.894531 0 C 8.605469 0 0.261719 8.34375 0.261719 18.632812 Z M 0.261719 18.632812 "/></clipPath><clipPath id="a1af4656e9"><path d="M 30 26 L 83.738281 26 L 83.738281 91 L 30 91 Z M 30 26 "/></clipPath><clipPath id="fc57eef587"><path d="M 0.261719 18.632812 L 0.261719 99.25 C 0.261719 109.539062 8.605469 117.882812 18.894531 117.882812 L 64.882812 117.882812 C 75.175781 117.882812 83.515625 109.539062 83.515625 99.25 L 83.515625 18.632812 C 83.515625 8.34375 75.175781 0 64.882812 0 L 18.894531 0 C 8.605469 0 0.261719 8.34375 0.261719 18.632812 Z M 0.261719 18.632812 "/></clipPath><clipPath id="3eff51c25f"><path d="M 4 10 L 46.472656 10 L 46.472656 71.550781 L 4 71.550781 Z M 4 10 "/></clipPath><clipPath id="858964e807"><path d="M 30 26 L 46.472656 26 L 46.472656 71.550781 L 30 71.550781 Z M 30 26 "/></clipPath></defs><g id="7a033b960a"><g clip-rule="nonzero" clip-path="url(#19d5855445)"><g clip-rule="nonzero" clip-path="url(#6798c88d41)"><path style=" stroke:none;fill-rule:nonzero;fill:#000000;fill-opacity:1;" d="M 98.605469 49.597656 C 98.289062 48.453125 97.511719 47.511719 96.417969 46.933594 C 96.65625 44.351562 96.300781 41.1875 95.699219 38.582031 C 95.1875 36.4375 94.378906 34.039062 93.148438 31.542969 C 91.847656 29.074219 90.242188 26.449219 87.992188 24.03125 C 85.851562 21.527344 83.097656 19.246094 79.988281 17.238281 C 52.867188 0.03125 15.417969 20.382812 18.324219 46.941406 C 17.238281 47.519531 16.46875 48.453125 16.152344 49.589844 C 9.734375 49.707031 4.574219 54.476562 4.574219 60.371094 C 4.574219 66.265625 9.734375 71.042969 16.152344 71.15625 C 16.664062 73.015625 18.417969 74.425781 20.613281 74.425781 C 23.210938 74.425781 25.304688 72.503906 25.304688 70.128906 L 25.304688 50.628906 C 25.304688 49.273438 24.585938 48.117188 23.527344 47.332031 C 24.699219 40.617188 28.191406 33.523438 33.085938 29.117188 C 40.265625 22.117188 52.730469 18.070312 66.429688 21.121094 C 71.707031 22.691406 76.894531 25.332031 81.21875 29.5625 C 86.035156 33.890625 89.941406 40.371094 91.214844 47.332031 C 88.445312 49.390625 89.4375 51.167969 89.4375 70.128906 C 89.4375 71.609375 90.316406 72.855469 91.558594 73.625 L 91.558594 75.28125 C 91.558594 76.324219 91.265625 77.355469 90.695312 78.238281 C 84.566406 87.796875 84.164062 88.765625 74.902344 91.730469 C 71.988281 92.660156 68.699219 93.0625 65.375 93.875 C 62.308594 90.847656 56.902344 92.839844 56.902344 96.890625 C 56.902344 102.007812 64.890625 103.179688 66.4375 98.0625 C 68.683594 97.515625 70.992188 97.191406 73.167969 96.53125 C 85.113281 92.898438 89.019531 90.738281 95.34375 78.671875 C 95.941406 77.527344 96.257812 76.257812 96.257812 74.972656 L 96.257812 73.90625 C 97.4375 73.34375 98.273438 72.359375 98.605469 71.152344 C 105.015625 71.035156 110.167969 66.265625 110.167969 60.371094 C 110.167969 54.484375 105.015625 49.71875 98.605469 49.597656 "/></g></g><g clip-rule="nonzero" clip-path="url(#5bd2548ef9)"><g clip-rule="nonzero" clip-path="url(#5ad3639ee9)"><path style=" stroke:none;fill-rule:nonzero;fill:#000000;fill-opacity:1;" d="M 57.386719 119.3125 C 61.222656 113.929688 64.558594 109.304688 67.835938 104.632812 C 71.667969 99.15625 75.535156 97.386719 81.59375 99.429688 C 89.292969 102.027344 96.914062 104.9375 104.367188 108.183594 C 110.765625 110.964844 114.355469 115.945312 113.960938 123.328125 C 113.761719 126.964844 113.960938 130.613281 113.910156 134.253906 C 113.78125 144.285156 109.210938 148.957031 99.273438 149.003906 C 86.445312 149.085938 73.613281 149.035156 60.78125 149.035156 C 45.871094 149.035156 30.953125 149.070312 16.050781 149.011719 C 5.386719 148.960938 0.886719 144.40625 0.832031 133.800781 C 0.808594 130.332031 1.003906 126.855469 0.789062 123.402344 C 0.3125 115.714844 4.269531 110.78125 10.796875 107.957031 C 18.261719 104.734375 25.917969 101.9375 33.632812 99.382812 C 40.207031 97.191406 42.246094 98.171875 46.316406 103.878906 C 49.824219 108.792969 53.355469 113.695312 57.386719 119.3125 "/></g></g><g clip-rule="nonzero" clip-path="url(#a1af4656e9)"><g clip-rule="nonzero" clip-path="url(#fc57eef587)"><path style=" stroke:none;fill-rule:nonzero;fill:#000000;fill-opacity:1;" d="M 84.566406 55.28125 C 83.859375 64.335938 81.003906 75.898438 71.511719 84.808594 C 63.464844 92.359375 51.191406 92.542969 43.273438 84.816406 C 32.308594 74.101562 28.84375 60.480469 30.542969 45.769531 C 31.429688 38.078125 36.121094 32.019531 44 29.441406 C 55.714844 25.605469 67.0625 25.226562 77.375 33.421875 C 83.398438 38.199219 84.773438 44.761719 84.566406 55.28125 "/></g></g><g clip-rule="nonzero" clip-path="url(#3eff51c25f)"><path style=" stroke:none;fill-rule:nonzero;fill:#000000;fill-opacity:1;" d="M 98.605469 49.597656 C 98.289062 48.453125 97.511719 47.511719 96.417969 46.933594 C 96.65625 44.351562 96.300781 41.1875 95.699219 38.582031 C 95.1875 36.4375 94.378906 34.039062 93.148438 31.542969 C 91.847656 29.074219 90.242188 26.449219 87.992188 24.03125 C 85.851562 21.527344 83.097656 19.246094 79.988281 17.238281 C 52.867188 0.03125 15.417969 20.382812 18.324219 46.941406 C 17.238281 47.519531 16.46875 48.453125 16.152344 49.589844 C 9.734375 49.707031 4.574219 54.476562 4.574219 60.371094 C 4.574219 66.265625 9.734375 71.042969 16.152344 71.15625 C 16.664062 73.015625 18.417969 74.425781 20.613281 74.425781 C 23.210938 74.425781 25.304688 72.503906 25.304688 70.128906 L 25.304688 50.628906 C 25.304688 49.273438 24.585938 48.117188 23.527344 47.332031 C 24.699219 40.617188 28.191406 33.523438 33.085938 29.117188 C 40.265625 22.117188 52.730469 18.070312 66.429688 21.121094 C 71.707031 22.691406 76.894531 25.332031 81.21875 29.5625 C 86.035156 33.890625 89.941406 40.371094 91.214844 47.332031 C 88.445312 49.390625 89.4375 51.167969 89.4375 70.128906 C 89.4375 71.609375 90.316406 72.855469 91.558594 73.625 L 91.558594 75.28125 C 91.558594 76.324219 91.265625 77.355469 90.695312 78.238281 C 84.566406 87.796875 84.164062 88.765625 74.902344 91.730469 C 71.988281 92.660156 68.699219 93.0625 65.375 93.875 C 62.308594 90.847656 56.902344 92.839844 56.902344 96.890625 C 56.902344 102.007812 64.890625 103.179688 66.4375 98.0625 C 68.683594 97.515625 70.992188 97.191406 73.167969 96.53125 C 85.113281 92.898438 89.019531 90.738281 95.34375 78.671875 C 95.941406 77.527344 96.257812 76.257812 96.257812 74.972656 L 96.257812 73.90625 C 97.4375 73.34375 98.273438 72.359375 98.605469 71.152344 C 105.015625 71.035156 110.167969 66.265625 110.167969 60.371094 C 110.167969 54.484375 105.015625 49.71875 98.605469 49.597656 "/></g><g clip-rule="nonzero" clip-path="url(#858964e807)"><path style=" stroke:none;fill-rule:nonzero;fill:#000000;fill-opacity:1;" d="M 84.566406 55.28125 C 83.859375 64.335938 81.003906 75.898438 71.511719 84.808594 C 63.464844 92.359375 51.191406 92.542969 43.273438 84.816406 C 32.308594 74.101562 28.84375 60.480469 30.542969 45.769531 C 31.429688 38.078125 36.121094 32.019531 44 29.441406 C 55.714844 25.605469 67.0625 25.226562 77.375 33.421875 C 83.398438 38.199219 84.773438 44.761719 84.566406 55.28125 "/></g></g></svg>