<svg xmlns="http://www.w3.org/2000/svg" xmlns:xlink="http://www.w3.org/1999/xlink" width="200" zoomAndPan="magnify" viewBox="0 0 150 149.999998" height="200" preserveAspectRatio="xMidYMid meet" version="1.2"><defs><clipPath id="41d012c8dc"><path d="M 0 0 L 96 0 L 96 116.25 L 0 116.25 Z M 0 0 "/></clipPath><clipPath id="7a6385bf22"><path d="M 35 45 L 96 45 L 96 105 L 35 105 Z M 35 45 "/></clipPath></defs><g id="0909289319"><path style=" stroke:none;fill-rule:nonzero;fill:#0b8841;fill-opacity:1;" d="M 75 150 C 116.421875 150 150 116.421875 150 75 C 150 33.578125 116.421875 0 75 0 C 33.578125 0 0 33.578125 0 75 C 0 116.421875 33.578125 150 75 150 Z M 75 5.769531 C 113.175781 5.769531 144.230469 36.824219 144.230469 75 C 144.230469 113.175781 113.175781 144.230469 75 144.230469 C 36.824219 144.230469 5.769531 113.175781 5.769531 75 C 5.769531 36.824219 36.824219 5.769531 75 5.769531 Z M 75 5.769531 "/><path style=" stroke:none;fill-rule:nonzero;fill:#0b8841;fill-opacity:1;" d="M 114.253906 50.03125 L 110.175781 45.953125 L 60.230469 95.890625 L 39.832031 75.496094 L 35.75 79.574219 L 60.230469 104.046875 Z M 114.253906 50.03125 "/><g clip-rule="nonzero" clip-path="url(#41d012c8dc)"><path style=" stroke:none;fill-rule:nonzero;fill:#0b8841;fill-opacity:1;" d="M 75 150 C 116.421875 150 150 116.421875 150 75 C 150 33.578125 116.421875 0 75 0 C 33.578125 0 0 33.578125 0 75 C 0 116.421875 33.578125 150 75 150 Z M 75 5.769531 C 113.175781 5.769531 144.230469 36.824219 144.230469 75 C 144.230469 113.175781 113.175781 144.230469 75 144.230469 C 36.824219 144.230469 5.769531 113.175781 5.769531 75 C 5.769531 36.824219 36.824219 5.769531 75 5.769531 Z M 75 5.769531 "/></g><g clip-rule="nonzero" clip-path="url(#7a6385bf22)"><path style=" stroke:none;fill-rule:nonzero;fill:#0b8841;fill-opacity:1;" d="M 114.253906 50.03125 L 110.175781 45.953125 L 60.230469 95.890625 L 39.832031 75.496094 L 35.75 79.574219 L 60.230469 104.046875 Z M 114.253906 50.03125 "/></g></g></svg>